<?xml version="1.0" encoding="UTF-8" standalone="no"?>
<!DOCTYPE svg PUBLIC "-//W3C//DTD SVG 1.1//EN"
 "http://www.w3.org/Graphics/SVG/1.1/DTD/svg11.dtd">
<!-- Generated by graphviz version 2.40.1 (20161225.0304)
 -->
<!-- Title: dependencies Pages: 1 -->
<svg width="1816pt" height="284pt"
 viewBox="0.00 0.00 1816.00 284.00" xmlns="http://www.w3.org/2000/svg" xmlns:xlink="http://www.w3.org/1999/xlink">
<g id="graph0" class="graph" transform="scale(1 1) rotate(0) translate(4 280)">
<title>dependencies</title>
<polygon fill="#ffffff" stroke="transparent" points="-4,4 -4,-280 1812,-280 1812,4 -4,4"/>
<text text-anchor="start" x="883.0091" y="-42.4" font-family="sans-serif" font-weight="bold" font-size="14.00" fill="#000000">Legend</text>
<polygon fill="#ffffb3" stroke="transparent" points="670,-10 670,-30 690,-30 690,-10 670,-10"/>
<text text-anchor="start" x="693.629" y="-15.4" font-family="sans-serif" font-size="14.00" fill="#000000"> &#160;Declarations</text>
<polygon fill="#8dd3c7" stroke="transparent" points="783,-10 783,-30 803,-30 803,-10 783,-10"/>
<text text-anchor="start" x="806.7251" y="-15.4" font-family="sans-serif" font-size="14.00" fill="#000000"> &#160;Module</text>
<polygon fill="#80b1d3" stroke="transparent" points="869,-10 869,-30 889,-30 889,-10 869,-10"/>
<text text-anchor="start" x="892.7812" y="-15.4" font-family="sans-serif" font-size="14.00" fill="#000000"> &#160;Bootstrap</text>
<polygon fill="#fdb462" stroke="transparent" points="966,-10 966,-30 986,-30 986,-10 966,-10"/>
<text text-anchor="start" x="989.6732" y="-15.4" font-family="sans-serif" font-size="14.00" fill="#000000"> &#160;Providers</text>
<polygon fill="#fb8072" stroke="transparent" points="1062,-10 1062,-30 1082,-30 1082,-10 1062,-10"/>
<text text-anchor="start" x="1085.7258" y="-15.4" font-family="sans-serif" font-size="14.00" fill="#000000"> &#160;Exports</text>
<g id="clust1" class="cluster">
<title>cluster_CoreModule</title>
<polygon fill="none" stroke="#000000" stroke-dasharray="1,5" points="8,-70 8,-268 1800,-268 1800,-70 8,-70"/>
</g>
<g id="clust2" class="cluster">
<title>cluster_CoreModule_declarations</title>
<polygon fill="none" stroke="#000000" points="16,-78 16,-130 1792,-130 1792,-78 16,-78"/>
</g>
<g id="clust16" class="cluster">
<title>cluster_CoreModule_exports</title>
<polygon fill="none" stroke="#000000" points="78,-208 78,-260 1730,-260 1730,-208 78,-208"/>
</g>
<!-- SidebarComponent -->
<g id="node1" class="node">
<title>SidebarComponent</title>
<polygon fill="#ffffb3" stroke="#000000" points="1784.0954,-122 1659.9046,-122 1659.9046,-86 1784.0954,-86 1784.0954,-122"/>
<text text-anchor="middle" x="1722" y="-99.8" font-family="Times,serif" font-size="14.00" fill="#000000">SidebarComponent</text>
</g>
<!-- CoreModule -->
<g id="node13" class="node">
<title>CoreModule</title>
<polygon fill="#8dd3c7" stroke="#000000" points="919.2619,-187 916.2619,-191 895.2619,-191 892.2619,-187 832.7381,-187 832.7381,-151 919.2619,-151 919.2619,-187"/>
<text text-anchor="middle" x="876" y="-164.8" font-family="Times,serif" font-size="14.00" fill="#000000">CoreModule</text>
</g>
<!-- SidebarComponent&#45;&gt;CoreModule -->
<g id="edge1" class="edge">
<title>SidebarComponent&#45;&gt;CoreModule</title>
<path fill="none" stroke="#000000" d="M1690.875,-122.1686C1690.875,-141.0898 1690.875,-168 1690.875,-168 1690.875,-168 929.5231,-168 929.5231,-168"/>
<polygon fill="#000000" stroke="#000000" points="929.5232,-164.5001 919.5231,-168 929.5231,-171.5001 929.5232,-164.5001"/>
</g>
<!-- NavbarComponent -->
<g id="node2" class="node">
<title>NavbarComponent</title>
<polygon fill="#ffffb3" stroke="#000000" points="1642.0297,-122 1519.9703,-122 1519.9703,-86 1642.0297,-86 1642.0297,-122"/>
<text text-anchor="middle" x="1581" y="-99.8" font-family="Times,serif" font-size="14.00" fill="#000000">NavbarComponent</text>
</g>
<!-- NavbarComponent&#45;&gt;CoreModule -->
<g id="edge2" class="edge">
<title>NavbarComponent&#45;&gt;CoreModule</title>
<path fill="none" stroke="#000000" d="M1547.875,-122.302C1547.875,-140.2699 1547.875,-165 1547.875,-165 1547.875,-165 929.3081,-165 929.3081,-165"/>
<polygon fill="#000000" stroke="#000000" points="929.3081,-161.5001 919.3081,-165 929.308,-168.5001 929.3081,-161.5001"/>
</g>
<!-- FormErrorsComponent -->
<g id="node3" class="node">
<title>FormErrorsComponent</title>
<polygon fill="#ffffb3" stroke="#000000" points="1501.1456,-122 1354.8544,-122 1354.8544,-86 1501.1456,-86 1501.1456,-122"/>
<text text-anchor="middle" x="1428" y="-99.8" font-family="Times,serif" font-size="14.00" fill="#000000">FormErrorsComponent</text>
</g>
<!-- FormErrorsComponent&#45;&gt;CoreModule -->
<g id="edge3" class="edge">
<title>FormErrorsComponent&#45;&gt;CoreModule</title>
<path fill="none" stroke="#000000" d="M1393.375,-122.0352C1393.375,-138.7344 1393.375,-161 1393.375,-161 1393.375,-161 929.6652,-161 929.6652,-161"/>
<polygon fill="#000000" stroke="#000000" points="929.6652,-157.5001 919.6652,-161 929.6652,-164.5001 929.6652,-157.5001"/>
</g>
<!-- BoxComponent -->
<g id="node4" class="node">
<title>BoxComponent</title>
<polygon fill="#ffffb3" stroke="#000000" points="1336.1695,-122 1231.8305,-122 1231.8305,-86 1336.1695,-86 1336.1695,-122"/>
<text text-anchor="middle" x="1284" y="-99.8" font-family="Times,serif" font-size="14.00" fill="#000000">BoxComponent</text>
</g>
<!-- BoxComponent&#45;&gt;CoreModule -->
<g id="edge4" class="edge">
<title>BoxComponent&#45;&gt;CoreModule</title>
<path fill="none" stroke="#000000" d="M1248.0384,-122.2819C1248.0384,-137.9478 1248.0384,-158 1248.0384,-158 1248.0384,-158 929.4057,-158 929.4057,-158"/>
<polygon fill="#000000" stroke="#000000" points="929.4057,-154.5001 919.4057,-158 929.4056,-161.5001 929.4057,-154.5001"/>
</g>
<!-- SidePanelComponent -->
<g id="node5" class="node">
<title>SidePanelComponent</title>
<polygon fill="#ffffb3" stroke="#000000" points="1213.823,-122 1076.177,-122 1076.177,-86 1213.823,-86 1213.823,-122"/>
<text text-anchor="middle" x="1145" y="-99.8" font-family="Times,serif" font-size="14.00" fill="#000000">SidePanelComponent</text>
</g>
<!-- SidePanelComponent&#45;&gt;CoreModule -->
<g id="edge5" class="edge">
<title>SidePanelComponent&#45;&gt;CoreModule</title>
<path fill="none" stroke="#000000" d="M1091.151,-122.1243C1091.151,-136.7832 1091.151,-155 1091.151,-155 1091.151,-155 929.2802,-155 929.2802,-155"/>
<polygon fill="#000000" stroke="#000000" points="929.2802,-151.5001 919.2802,-155 929.2802,-158.5001 929.2802,-151.5001"/>
</g>
<!-- NotificationsComponent -->
<g id="node6" class="node">
<title>NotificationsComponent</title>
<polygon fill="#ffffb3" stroke="#000000" points="1058.427,-122 903.573,-122 903.573,-86 1058.427,-86 1058.427,-122"/>
<text text-anchor="middle" x="981" y="-99.8" font-family="Times,serif" font-size="14.00" fill="#000000">NotificationsComponent</text>
</g>
<!-- NotificationsComponent&#45;&gt;CoreModule -->
<g id="edge6" class="edge">
<title>NotificationsComponent&#45;&gt;CoreModule</title>
<path fill="none" stroke="#000000" d="M911.5838,-122.1061C911.5838,-122.1061 911.5838,-140.991 911.5838,-140.991"/>
<polygon fill="#000000" stroke="#000000" points="908.0839,-140.9909 911.5838,-150.991 915.0839,-140.991 908.0839,-140.9909"/>
</g>
<!-- DebounceInputDirective -->
<g id="node7" class="node">
<title>DebounceInputDirective</title>
<polygon fill="#ffffb3" stroke="#000000" points="886.3849,-122 731.6151,-122 731.6151,-86 886.3849,-86 886.3849,-122"/>
<text text-anchor="middle" x="809" y="-99.8" font-family="Times,serif" font-size="14.00" fill="#000000">DebounceInputDirective</text>
</g>
<!-- DebounceInputDirective&#45;&gt;CoreModule -->
<g id="edge7" class="edge">
<title>DebounceInputDirective&#45;&gt;CoreModule</title>
<path fill="none" stroke="#000000" d="M859.4057,-122.1061C859.4057,-122.1061 859.4057,-140.991 859.4057,-140.991"/>
<polygon fill="#000000" stroke="#000000" points="855.9058,-140.9909 859.4057,-150.991 862.9058,-140.991 855.9058,-140.9909"/>
</g>
<!-- ClickStopPropagation -->
<g id="node8" class="node">
<title>ClickStopPropagation</title>
<polygon fill="#ffffb3" stroke="#000000" points="713.6596,-122 574.3404,-122 574.3404,-86 713.6596,-86 713.6596,-122"/>
<text text-anchor="middle" x="644" y="-99.8" font-family="Times,serif" font-size="14.00" fill="#000000">ClickStopPropagation</text>
</g>
<!-- ClickStopPropagation&#45;&gt;CoreModule -->
<g id="edge8" class="edge">
<title>ClickStopPropagation&#45;&gt;CoreModule</title>
<path fill="none" stroke="#000000" d="M679.9437,-122.1243C679.9437,-136.7832 679.9437,-155 679.9437,-155 679.9437,-155 822.4888,-155 822.4888,-155"/>
<polygon fill="#000000" stroke="#000000" points="822.4888,-158.5001 832.4888,-155 822.4887,-151.5001 822.4888,-158.5001"/>
</g>
<!-- SpinningIconDirective -->
<g id="node9" class="node">
<title>SpinningIconDirective</title>
<polygon fill="#ffffb3" stroke="#000000" points="555.5226,-122 412.4774,-122 412.4774,-86 555.5226,-86 555.5226,-122"/>
<text text-anchor="middle" x="484" y="-99.8" font-family="Times,serif" font-size="14.00" fill="#000000">SpinningIconDirective</text>
</g>
<!-- SpinningIconDirective&#45;&gt;CoreModule -->
<g id="edge9" class="edge">
<title>SpinningIconDirective&#45;&gt;CoreModule</title>
<path fill="none" stroke="#000000" d="M518.625,-122.2819C518.625,-137.9478 518.625,-158 518.625,-158 518.625,-158 822.5361,-158 822.5361,-158"/>
<polygon fill="#000000" stroke="#000000" points="822.5361,-161.5001 832.5361,-158 822.5361,-154.5001 822.5361,-161.5001"/>
</g>
<!-- ValidatorsDirective -->
<g id="node10" class="node">
<title>ValidatorsDirective</title>
<polygon fill="#ffffb3" stroke="#000000" points="394.3962,-122 267.6038,-122 267.6038,-86 394.3962,-86 394.3962,-122"/>
<text text-anchor="middle" x="331" y="-99.8" font-family="Times,serif" font-size="14.00" fill="#000000">ValidatorsDirective</text>
</g>
<!-- ValidatorsDirective&#45;&gt;CoreModule -->
<g id="edge10" class="edge">
<title>ValidatorsDirective&#45;&gt;CoreModule</title>
<path fill="none" stroke="#000000" d="M364.125,-122.0352C364.125,-138.7344 364.125,-161 364.125,-161 364.125,-161 822.3578,-161 822.3578,-161"/>
<polygon fill="#000000" stroke="#000000" points="822.3579,-164.5001 832.3578,-161 822.3578,-157.5001 822.3579,-164.5001"/>
</g>
<!-- ShowPasswordDirective -->
<g id="node11" class="node">
<title>ShowPasswordDirective</title>
<polygon fill="#ffffb3" stroke="#000000" points="249.6261,-122 96.3739,-122 96.3739,-86 249.6261,-86 249.6261,-122"/>
<text text-anchor="middle" x="173" y="-99.8" font-family="Times,serif" font-size="14.00" fill="#000000">ShowPasswordDirective</text>
</g>
<!-- ShowPasswordDirective&#45;&gt;CoreModule -->
<g id="edge11" class="edge">
<title>ShowPasswordDirective&#45;&gt;CoreModule</title>
<path fill="none" stroke="#000000" d="M204.125,-122.302C204.125,-140.2699 204.125,-165 204.125,-165 204.125,-165 822.6919,-165 822.6919,-165"/>
<polygon fill="#000000" stroke="#000000" points="822.692,-168.5001 832.6919,-165 822.6919,-161.5001 822.692,-168.5001"/>
</g>
<!-- ToId -->
<g id="node12" class="node">
<title>ToId</title>
<polygon fill="#ffffb3" stroke="#000000" points="78,-122 24,-122 24,-86 78,-86 78,-122"/>
<text text-anchor="middle" x="51" y="-99.8" font-family="Times,serif" font-size="14.00" fill="#000000">ToId</text>
</g>
<!-- ToId&#45;&gt;CoreModule -->
<g id="edge12" class="edge">
<title>ToId&#45;&gt;CoreModule</title>
<path fill="none" stroke="#000000" d="M51,-122.1686C51,-141.0898 51,-168 51,-168 51,-168 822.5169,-168 822.5169,-168"/>
<polygon fill="#000000" stroke="#000000" points="822.5169,-171.5001 832.5169,-168 822.5168,-164.5001 822.5169,-171.5001"/>
</g>
<!-- SidebarComponent  -->
<g id="node14" class="node">
<title>SidebarComponent </title>
<polygon fill="#fb8072" stroke="#000000" points="1721.596,-252 1594.404,-252 1594.404,-216 1721.596,-216 1721.596,-252"/>
<text text-anchor="middle" x="1658" y="-229.8" font-family="Times,serif" font-size="14.00" fill="#000000">SidebarComponent </text>
</g>
<!-- CoreModule&#45;&gt;SidebarComponent  -->
<g id="edge13" class="edge">
<title>CoreModule&#45;&gt;SidebarComponent </title>
<path fill="none" stroke="#000000" stroke-dasharray="5,2" d="M919.3861,-171C1078.1431,-171 1618.2334,-171 1618.2334,-171 1618.2334,-171 1618.2334,-205.7778 1618.2334,-205.7778"/>
<polygon fill="#000000" stroke="#000000" points="1614.7334,-205.7778 1618.2334,-215.7778 1621.7334,-205.7778 1614.7334,-205.7778"/>
</g>
<!-- NavbarComponent  -->
<g id="node15" class="node">
<title>NavbarComponent </title>
<polygon fill="#fb8072" stroke="#000000" points="1576.0288,-252 1449.9712,-252 1449.9712,-216 1576.0288,-216 1576.0288,-252"/>
<text text-anchor="middle" x="1513" y="-229.8" font-family="Times,serif" font-size="14.00" fill="#000000">NavbarComponent </text>
</g>
<!-- CoreModule&#45;&gt;NavbarComponent  -->
<g id="edge14" class="edge">
<title>CoreModule&#45;&gt;NavbarComponent </title>
<path fill="none" stroke="#000000" stroke-dasharray="5,2" d="M919.6087,-174C1057.5994,-174 1475.6541,-174 1475.6541,-174 1475.6541,-174 1475.6541,-205.998 1475.6541,-205.998"/>
<polygon fill="#000000" stroke="#000000" points="1472.1542,-205.998 1475.6541,-215.998 1479.1542,-205.9981 1472.1542,-205.998"/>
</g>
<!-- FormErrorsComponent  -->
<g id="node16" class="node">
<title>FormErrorsComponent </title>
<polygon fill="#fb8072" stroke="#000000" points="1432.1453,-252 1281.8547,-252 1281.8547,-216 1432.1453,-216 1432.1453,-252"/>
<text text-anchor="middle" x="1357" y="-229.8" font-family="Times,serif" font-size="14.00" fill="#000000">FormErrorsComponent </text>
</g>
<!-- CoreModule&#45;&gt;FormErrorsComponent  -->
<g id="edge15" class="edge">
<title>CoreModule&#45;&gt;FormErrorsComponent </title>
<path fill="none" stroke="#000000" stroke-dasharray="5,2" d="M919.5134,-178C1029.3495,-178 1309.131,-178 1309.131,-178 1309.131,-178 1309.131,-205.973 1309.131,-205.973"/>
<polygon fill="#000000" stroke="#000000" points="1305.631,-205.973 1309.131,-215.973 1312.631,-205.973 1305.631,-205.973"/>
</g>
<!-- SidePanelComponent  -->
<g id="node17" class="node">
<title>SidePanelComponent </title>
<polygon fill="#fb8072" stroke="#000000" points="1264.3227,-252 1123.6773,-252 1123.6773,-216 1264.3227,-216 1264.3227,-252"/>
<text text-anchor="middle" x="1194" y="-229.8" font-family="Times,serif" font-size="14.00" fill="#000000">SidePanelComponent </text>
</g>
<!-- CoreModule&#45;&gt;SidePanelComponent  -->
<g id="edge16" class="edge">
<title>CoreModule&#45;&gt;SidePanelComponent </title>
<path fill="none" stroke="#000000" stroke-dasharray="5,2" d="M919.4929,-181C1001.0092,-181 1168.625,-181 1168.625,-181 1168.625,-181 1168.625,-205.7604 1168.625,-205.7604"/>
<polygon fill="#000000" stroke="#000000" points="1165.1251,-205.7604 1168.625,-215.7604 1172.1251,-205.7604 1165.1251,-205.7604"/>
</g>
<!-- NotificationsComponent  -->
<g id="node18" class="node">
<title>NotificationsComponent </title>
<polygon fill="#fb8072" stroke="#000000" points="1105.9264,-252 948.0736,-252 948.0736,-216 1105.9264,-216 1105.9264,-252"/>
<text text-anchor="middle" x="1027" y="-229.8" font-family="Times,serif" font-size="14.00" fill="#000000">NotificationsComponent </text>
</g>
<!-- CoreModule&#45;&gt;NotificationsComponent  -->
<g id="edge17" class="edge">
<title>CoreModule&#45;&gt;NotificationsComponent </title>
<path fill="none" stroke="#000000" stroke-dasharray="5,2" d="M919.3937,-184C956.2208,-184 1003.125,-184 1003.125,-184 1003.125,-184 1003.125,-205.9489 1003.125,-205.9489"/>
<polygon fill="#000000" stroke="#000000" points="999.6251,-205.9488 1003.125,-215.9489 1006.6251,-205.9489 999.6251,-205.9488"/>
</g>
<!-- BoxComponent  -->
<g id="node19" class="node">
<title>BoxComponent </title>
<polygon fill="#fb8072" stroke="#000000" points="930.1691,-252 821.8309,-252 821.8309,-216 930.1691,-216 930.1691,-252"/>
<text text-anchor="middle" x="876" y="-229.8" font-family="Times,serif" font-size="14.00" fill="#000000">BoxComponent </text>
</g>
<!-- CoreModule&#45;&gt;BoxComponent  -->
<g id="edge18" class="edge">
<title>CoreModule&#45;&gt;BoxComponent </title>
<path fill="none" stroke="#000000" stroke-dasharray="5,2" d="M876,-187.1061C876,-187.1061 876,-205.991 876,-205.991"/>
<polygon fill="#000000" stroke="#000000" points="872.5001,-205.9909 876,-215.991 879.5001,-205.991 872.5001,-205.9909"/>
</g>
<!-- DebounceInputDirective  -->
<g id="node20" class="node">
<title>DebounceInputDirective </title>
<polygon fill="#fb8072" stroke="#000000" points="803.8844,-252 646.1156,-252 646.1156,-216 803.8844,-216 803.8844,-252"/>
<text text-anchor="middle" x="725" y="-229.8" font-family="Times,serif" font-size="14.00" fill="#000000">DebounceInputDirective </text>
</g>
<!-- CoreModule&#45;&gt;DebounceInputDirective  -->
<g id="edge19" class="edge">
<title>CoreModule&#45;&gt;DebounceInputDirective </title>
<path fill="none" stroke="#000000" stroke-dasharray="5,2" d="M832.6444,-184C802.5632,-184 767.875,-184 767.875,-184 767.875,-184 767.875,-205.9489 767.875,-205.9489"/>
<polygon fill="#000000" stroke="#000000" points="764.3751,-205.9488 767.875,-215.9489 771.3751,-205.9489 764.3751,-205.9488"/>
</g>
<!-- SpinningIconDirective  -->
<g id="node21" class="node">
<title>SpinningIconDirective </title>
<polygon fill="#fb8072" stroke="#000000" points="628.5218,-252 481.4782,-252 481.4782,-216 628.5218,-216 628.5218,-252"/>
<text text-anchor="middle" x="555" y="-229.8" font-family="Times,serif" font-size="14.00" fill="#000000">SpinningIconDirective </text>
</g>
<!-- CoreModule&#45;&gt;SpinningIconDirective  -->
<g id="edge20" class="edge">
<title>CoreModule&#45;&gt;SpinningIconDirective </title>
<path fill="none" stroke="#000000" stroke-dasharray="5,2" d="M832.4794,-181C755.0329,-181 601.3407,-181 601.3407,-181 601.3407,-181 601.3407,-205.7604 601.3407,-205.7604"/>
<polygon fill="#000000" stroke="#000000" points="597.8407,-205.7604 601.3407,-215.7604 604.8407,-205.7604 597.8407,-205.7604"/>
</g>
<!-- ValidatorsDirective  -->
<g id="node22" class="node">
<title>ValidatorsDirective </title>
<polygon fill="#fb8072" stroke="#000000" points="463.8956,-252 334.1044,-252 334.1044,-216 463.8956,-216 463.8956,-252"/>
<text text-anchor="middle" x="399" y="-229.8" font-family="Times,serif" font-size="14.00" fill="#000000">ValidatorsDirective </text>
</g>
<!-- CoreModule&#45;&gt;ValidatorsDirective  -->
<g id="edge21" class="edge">
<title>CoreModule&#45;&gt;ValidatorsDirective </title>
<path fill="none" stroke="#000000" stroke-dasharray="5,2" d="M832.4109,-178C721.6476,-178 438.0935,-178 438.0935,-178 438.0935,-178 438.0935,-205.973 438.0935,-205.973"/>
<polygon fill="#000000" stroke="#000000" points="434.5935,-205.973 438.0935,-215.973 441.5935,-205.973 434.5935,-205.973"/>
</g>
<!-- ShowPasswordDirective  -->
<g id="node23" class="node">
<title>ShowPasswordDirective </title>
<polygon fill="#fb8072" stroke="#000000" points="315.6257,-252 158.3743,-252 158.3743,-216 315.6257,-216 315.6257,-252"/>
<text text-anchor="middle" x="237" y="-229.8" font-family="Times,serif" font-size="14.00" fill="#000000">ShowPasswordDirective </text>
</g>
<!-- CoreModule&#45;&gt;ShowPasswordDirective  -->
<g id="edge22" class="edge">
<title>CoreModule&#45;&gt;ShowPasswordDirective </title>
<path fill="none" stroke="#000000" stroke-dasharray="5,2" d="M832.5586,-174C697.1416,-174 291.6825,-174 291.6825,-174 291.6825,-174 291.6825,-205.998 291.6825,-205.998"/>
<polygon fill="#000000" stroke="#000000" points="288.1826,-205.998 291.6825,-215.998 295.1826,-205.9981 288.1826,-205.998"/>
</g>
<!-- ToId  -->
<g id="node24" class="node">
<title>ToId </title>
<polygon fill="#fb8072" stroke="#000000" points="140,-252 86,-252 86,-216 140,-216 140,-252"/>
<text text-anchor="middle" x="113" y="-229.8" font-family="Times,serif" font-size="14.00" fill="#000000">ToId </text>
</g>
<!-- CoreModule&#45;&gt;ToId  -->
<g id="edge23" class="edge">
<title>CoreModule&#45;&gt;ToId </title>
<path fill="none" stroke="#000000" stroke-dasharray="5,2" d="M832.5295,-171C671.4842,-171 118.0936,-171 118.0936,-171 118.0936,-171 118.0936,-205.7778 118.0936,-205.7778"/>
<polygon fill="#000000" stroke="#000000" points="114.5937,-205.7778 118.0936,-215.7778 121.5937,-205.7778 114.5937,-205.7778"/>
</g>
</g>
</svg>
