<?xml version="1.0" encoding="UTF-8" standalone="no"?>
<!DOCTYPE svg PUBLIC "-//W3C//DTD SVG 1.1//EN"
 "http://www.w3.org/Graphics/SVG/1.1/DTD/svg11.dtd">
<!-- Generated by graphviz version 2.40.1 (20161225.0304)
 -->
<!-- Title: dependencies Pages: 1 -->
<svg width="1962pt" height="284pt"
 viewBox="0.00 0.00 1962.00 284.00" xmlns="http://www.w3.org/2000/svg" xmlns:xlink="http://www.w3.org/1999/xlink">
<g id="graph0" class="graph" transform="scale(1 1) rotate(0) translate(4 280)">
<title>dependencies</title>
<polygon fill="#ffffff" stroke="transparent" points="-4,4 -4,-280 1958,-280 1958,4 -4,4"/>
<text text-anchor="start" x="956.0091" y="-42.4" font-family="sans-serif" font-weight="bold" font-size="14.00" fill="#000000">Legend</text>
<polygon fill="#ffffb3" stroke="transparent" points="743,-10 743,-30 763,-30 763,-10 743,-10"/>
<text text-anchor="start" x="766.629" y="-15.4" font-family="sans-serif" font-size="14.00" fill="#000000"> &#160;Declarations</text>
<polygon fill="#8dd3c7" stroke="transparent" points="856,-10 856,-30 876,-30 876,-10 856,-10"/>
<text text-anchor="start" x="879.7251" y="-15.4" font-family="sans-serif" font-size="14.00" fill="#000000"> &#160;Module</text>
<polygon fill="#80b1d3" stroke="transparent" points="942,-10 942,-30 962,-30 962,-10 942,-10"/>
<text text-anchor="start" x="965.7812" y="-15.4" font-family="sans-serif" font-size="14.00" fill="#000000"> &#160;Bootstrap</text>
<polygon fill="#fdb462" stroke="transparent" points="1039,-10 1039,-30 1059,-30 1059,-10 1039,-10"/>
<text text-anchor="start" x="1062.6732" y="-15.4" font-family="sans-serif" font-size="14.00" fill="#000000"> &#160;Providers</text>
<polygon fill="#fb8072" stroke="transparent" points="1135,-10 1135,-30 1155,-30 1155,-10 1135,-10"/>
<text text-anchor="start" x="1158.7258" y="-15.4" font-family="sans-serif" font-size="14.00" fill="#000000"> &#160;Exports</text>
<g id="clust1" class="cluster">
<title>cluster_CoreModule</title>
<polygon fill="none" stroke="#000000" stroke-dasharray="1,5" points="8,-70 8,-268 1946,-268 1946,-70 8,-70"/>
</g>
<g id="clust2" class="cluster">
<title>cluster_CoreModule_declarations</title>
<polygon fill="none" stroke="#000000" points="16,-78 16,-130 1938,-130 1938,-78 16,-78"/>
</g>
<g id="clust17" class="cluster">
<title>cluster_CoreModule_exports</title>
<polygon fill="none" stroke="#000000" points="76,-208 76,-260 1878,-260 1878,-208 76,-208"/>
</g>
<!-- SidebarComponent -->
<g id="node1" class="node">
<title>SidebarComponent</title>
<polygon fill="#ffffb3" stroke="#000000" points="1930.0954,-122 1805.9046,-122 1805.9046,-86 1930.0954,-86 1930.0954,-122"/>
<text text-anchor="middle" x="1868" y="-99.8" font-family="Times,serif" font-size="14.00" fill="#000000">SidebarComponent</text>
</g>
<!-- CoreModule -->
<g id="node14" class="node">
<title>CoreModule</title>
<polygon fill="#8dd3c7" stroke="#000000" points="998.2619,-187 995.2619,-191 974.2619,-191 971.2619,-187 911.7381,-187 911.7381,-151 998.2619,-151 998.2619,-187"/>
<text text-anchor="middle" x="955" y="-164.8" font-family="Times,serif" font-size="14.00" fill="#000000">CoreModule</text>
</g>
<!-- SidebarComponent&#45;&gt;CoreModule -->
<g id="edge1" class="edge">
<title>SidebarComponent&#45;&gt;CoreModule</title>
<path fill="none" stroke="#000000" d="M1837.875,-122.1061C1837.875,-141.3391 1837.875,-169 1837.875,-169 1837.875,-169 1008.4808,-169 1008.4808,-169"/>
<polygon fill="#000000" stroke="#000000" points="1008.4808,-165.5001 998.4808,-169 1008.4807,-172.5001 1008.4808,-165.5001"/>
</g>
<!-- NavbarComponent -->
<g id="node2" class="node">
<title>NavbarComponent</title>
<polygon fill="#ffffb3" stroke="#000000" points="1788.0297,-122 1665.9703,-122 1665.9703,-86 1788.0297,-86 1788.0297,-122"/>
<text text-anchor="middle" x="1727" y="-99.8" font-family="Times,serif" font-size="14.00" fill="#000000">NavbarComponent</text>
</g>
<!-- NavbarComponent&#45;&gt;CoreModule -->
<g id="edge2" class="edge">
<title>NavbarComponent&#45;&gt;CoreModule</title>
<path fill="none" stroke="#000000" d="M1694.875,-122.2667C1694.875,-140.5552 1694.875,-166 1694.875,-166 1694.875,-166 1008.5203,-166 1008.5203,-166"/>
<polygon fill="#000000" stroke="#000000" points="1008.5204,-162.5001 998.5203,-166 1008.5203,-169.5001 1008.5204,-162.5001"/>
</g>
<!-- FormErrorsComponent -->
<g id="node3" class="node">
<title>FormErrorsComponent</title>
<polygon fill="#ffffb3" stroke="#000000" points="1647.1456,-122 1500.8544,-122 1500.8544,-86 1647.1456,-86 1647.1456,-122"/>
<text text-anchor="middle" x="1574" y="-99.8" font-family="Times,serif" font-size="14.00" fill="#000000">FormErrorsComponent</text>
</g>
<!-- FormErrorsComponent&#45;&gt;CoreModule -->
<g id="edge3" class="edge">
<title>FormErrorsComponent&#45;&gt;CoreModule</title>
<path fill="none" stroke="#000000" d="M1540.375,-122.0225C1540.375,-139.3734 1540.375,-163 1540.375,-163 1540.375,-163 1008.52,-163 1008.52,-163"/>
<polygon fill="#000000" stroke="#000000" points="1008.5201,-159.5001 998.52,-163 1008.52,-166.5001 1008.5201,-159.5001"/>
</g>
<!-- BoxComponent -->
<g id="node4" class="node">
<title>BoxComponent</title>
<polygon fill="#ffffb3" stroke="#000000" points="1482.1695,-122 1377.8305,-122 1377.8305,-86 1482.1695,-86 1482.1695,-122"/>
<text text-anchor="middle" x="1430" y="-99.8" font-family="Times,serif" font-size="14.00" fill="#000000">BoxComponent</text>
</g>
<!-- BoxComponent&#45;&gt;CoreModule -->
<g id="edge4" class="edge">
<title>BoxComponent&#45;&gt;CoreModule</title>
<path fill="none" stroke="#000000" d="M1395.0384,-122.027C1395.0384,-138.3976 1395.0384,-160 1395.0384,-160 1395.0384,-160 1008.3969,-160 1008.3969,-160"/>
<polygon fill="#000000" stroke="#000000" points="1008.3969,-156.5001 998.3969,-160 1008.3968,-163.5001 1008.3969,-156.5001"/>
</g>
<!-- SidePanelComponent -->
<g id="node5" class="node">
<title>SidePanelComponent</title>
<polygon fill="#ffffb3" stroke="#000000" points="1359.823,-122 1222.177,-122 1222.177,-86 1359.823,-86 1359.823,-122"/>
<text text-anchor="middle" x="1291" y="-99.8" font-family="Times,serif" font-size="14.00" fill="#000000">SidePanelComponent</text>
</g>
<!-- SidePanelComponent&#45;&gt;CoreModule -->
<g id="edge5" class="edge">
<title>SidePanelComponent&#45;&gt;CoreModule</title>
<path fill="none" stroke="#000000" d="M1238.151,-122.2396C1238.151,-137.5706 1238.151,-157 1238.151,-157 1238.151,-157 1008.3128,-157 1008.3128,-157"/>
<polygon fill="#000000" stroke="#000000" points="1008.3128,-153.5001 998.3128,-157 1008.3127,-160.5001 1008.3128,-153.5001"/>
</g>
<!-- NotificationsComponent -->
<g id="node6" class="node">
<title>NotificationsComponent</title>
<polygon fill="#ffffb3" stroke="#000000" points="1204.427,-122 1049.573,-122 1049.573,-86 1204.427,-86 1204.427,-122"/>
<text text-anchor="middle" x="1127" y="-99.8" font-family="Times,serif" font-size="14.00" fill="#000000">NotificationsComponent</text>
</g>
<!-- NotificationsComponent&#45;&gt;CoreModule -->
<g id="edge6" class="edge">
<title>NotificationsComponent&#45;&gt;CoreModule</title>
<path fill="none" stroke="#000000" d="M1063.9356,-122.0511C1063.9356,-136.373 1063.9356,-154 1063.9356,-154 1063.9356,-154 1008.3673,-154 1008.3673,-154"/>
<polygon fill="#000000" stroke="#000000" points="1008.3673,-150.5001 998.3673,-154 1008.3672,-157.5001 1008.3673,-150.5001"/>
</g>
<!-- DebounceInputDirective -->
<g id="node7" class="node">
<title>DebounceInputDirective</title>
<polygon fill="#ffffb3" stroke="#000000" points="1032.3849,-122 877.6151,-122 877.6151,-86 1032.3849,-86 1032.3849,-122"/>
<text text-anchor="middle" x="955" y="-99.8" font-family="Times,serif" font-size="14.00" fill="#000000">DebounceInputDirective</text>
</g>
<!-- DebounceInputDirective&#45;&gt;CoreModule -->
<g id="edge7" class="edge">
<title>DebounceInputDirective&#45;&gt;CoreModule</title>
<path fill="none" stroke="#000000" d="M955,-122.1061C955,-122.1061 955,-140.991 955,-140.991"/>
<polygon fill="#000000" stroke="#000000" points="951.5001,-140.9909 955,-150.991 958.5001,-140.991 951.5001,-140.9909"/>
</g>
<!-- ClickStopPropagation -->
<g id="node8" class="node">
<title>ClickStopPropagation</title>
<polygon fill="#ffffb3" stroke="#000000" points="859.6596,-122 720.3404,-122 720.3404,-86 859.6596,-86 859.6596,-122"/>
<text text-anchor="middle" x="790" y="-99.8" font-family="Times,serif" font-size="14.00" fill="#000000">ClickStopPropagation</text>
</g>
<!-- ClickStopPropagation&#45;&gt;CoreModule -->
<g id="edge8" class="edge">
<title>ClickStopPropagation&#45;&gt;CoreModule</title>
<path fill="none" stroke="#000000" d="M826.9437,-122.0511C826.9437,-136.373 826.9437,-154 826.9437,-154 826.9437,-154 901.646,-154 901.646,-154"/>
<polygon fill="#000000" stroke="#000000" points="901.646,-157.5001 911.646,-154 901.6459,-150.5001 901.646,-157.5001"/>
</g>
<!-- SpinningIconDirective -->
<g id="node9" class="node">
<title>SpinningIconDirective</title>
<polygon fill="#ffffb3" stroke="#000000" points="701.5226,-122 558.4774,-122 558.4774,-86 701.5226,-86 701.5226,-122"/>
<text text-anchor="middle" x="630" y="-99.8" font-family="Times,serif" font-size="14.00" fill="#000000">SpinningIconDirective</text>
</g>
<!-- SpinningIconDirective&#45;&gt;CoreModule -->
<g id="edge9" class="edge">
<title>SpinningIconDirective&#45;&gt;CoreModule</title>
<path fill="none" stroke="#000000" d="M665.625,-122.2396C665.625,-137.5706 665.625,-157 665.625,-157 665.625,-157 901.6776,-157 901.6776,-157"/>
<polygon fill="#000000" stroke="#000000" points="901.6777,-160.5001 911.6776,-157 901.6776,-153.5001 901.6777,-160.5001"/>
</g>
<!-- ValidatorsDirective -->
<g id="node10" class="node">
<title>ValidatorsDirective</title>
<polygon fill="#ffffb3" stroke="#000000" points="540.3962,-122 413.6038,-122 413.6038,-86 540.3962,-86 540.3962,-122"/>
<text text-anchor="middle" x="477" y="-99.8" font-family="Times,serif" font-size="14.00" fill="#000000">ValidatorsDirective</text>
</g>
<!-- ValidatorsDirective&#45;&gt;CoreModule -->
<g id="edge10" class="edge">
<title>ValidatorsDirective&#45;&gt;CoreModule</title>
<path fill="none" stroke="#000000" d="M511.125,-122.027C511.125,-138.3976 511.125,-160 511.125,-160 511.125,-160 901.6312,-160 901.6312,-160"/>
<polygon fill="#000000" stroke="#000000" points="901.6312,-163.5001 911.6312,-160 901.6312,-156.5001 901.6312,-163.5001"/>
</g>
<!-- ShowPasswordDirective -->
<g id="node11" class="node">
<title>ShowPasswordDirective</title>
<polygon fill="#ffffb3" stroke="#000000" points="395.6261,-122 242.3739,-122 242.3739,-86 395.6261,-86 395.6261,-122"/>
<text text-anchor="middle" x="319" y="-99.8" font-family="Times,serif" font-size="14.00" fill="#000000">ShowPasswordDirective</text>
</g>
<!-- ShowPasswordDirective&#45;&gt;CoreModule -->
<g id="edge11" class="edge">
<title>ShowPasswordDirective&#45;&gt;CoreModule</title>
<path fill="none" stroke="#000000" d="M351.125,-122.0225C351.125,-139.3734 351.125,-163 351.125,-163 351.125,-163 901.5708,-163 901.5708,-163"/>
<polygon fill="#000000" stroke="#000000" points="901.5708,-166.5001 911.5708,-163 901.5708,-159.5001 901.5708,-166.5001"/>
</g>
<!-- ToId -->
<g id="node12" class="node">
<title>ToId</title>
<polygon fill="#ffffb3" stroke="#000000" points="224,-122 170,-122 170,-86 224,-86 224,-122"/>
<text text-anchor="middle" x="197" y="-99.8" font-family="Times,serif" font-size="14.00" fill="#000000">ToId</text>
</g>
<!-- ToId&#45;&gt;CoreModule -->
<g id="edge12" class="edge">
<title>ToId&#45;&gt;CoreModule</title>
<path fill="none" stroke="#000000" d="M219.8726,-122.2667C219.8726,-140.5552 219.8726,-166 219.8726,-166 219.8726,-166 901.4878,-166 901.4878,-166"/>
<polygon fill="#000000" stroke="#000000" points="901.4878,-169.5001 911.4878,-166 901.4878,-162.5001 901.4878,-169.5001"/>
</g>
<!-- PopoverComponent -->
<g id="node13" class="node">
<title>PopoverComponent</title>
<polygon fill="#ffffb3" stroke="#000000" points="151.9902,-122 24.0098,-122 24.0098,-86 151.9902,-86 151.9902,-122"/>
<text text-anchor="middle" x="88" y="-99.8" font-family="Times,serif" font-size="14.00" fill="#000000">PopoverComponent</text>
</g>
<!-- PopoverComponent&#45;&gt;CoreModule -->
<g id="edge13" class="edge">
<title>PopoverComponent&#45;&gt;CoreModule</title>
<path fill="none" stroke="#000000" d="M118.125,-122.1061C118.125,-141.3391 118.125,-169 118.125,-169 118.125,-169 901.4767,-169 901.4767,-169"/>
<polygon fill="#000000" stroke="#000000" points="901.4767,-172.5001 911.4767,-169 901.4766,-165.5001 901.4767,-172.5001"/>
</g>
<!-- SidebarComponent  -->
<g id="node15" class="node">
<title>SidebarComponent </title>
<polygon fill="#fb8072" stroke="#000000" points="1869.596,-252 1742.404,-252 1742.404,-216 1869.596,-216 1869.596,-252"/>
<text text-anchor="middle" x="1806" y="-229.8" font-family="Times,serif" font-size="14.00" fill="#000000">SidebarComponent </text>
</g>
<!-- CoreModule&#45;&gt;SidebarComponent  -->
<g id="edge14" class="edge">
<title>CoreModule&#45;&gt;SidebarComponent </title>
<path fill="none" stroke="#000000" stroke-dasharray="5,2" d="M998.2752,-172C1166.1753,-172 1765.2334,-172 1765.2334,-172 1765.2334,-172 1765.2334,-205.7333 1765.2334,-205.7333"/>
<polygon fill="#000000" stroke="#000000" points="1761.7334,-205.7333 1765.2334,-215.7333 1768.7334,-205.7333 1761.7334,-205.7333"/>
</g>
<!-- NavbarComponent  -->
<g id="node16" class="node">
<title>NavbarComponent </title>
<polygon fill="#fb8072" stroke="#000000" points="1724.0288,-252 1597.9712,-252 1597.9712,-216 1724.0288,-216 1724.0288,-252"/>
<text text-anchor="middle" x="1661" y="-229.8" font-family="Times,serif" font-size="14.00" fill="#000000">NavbarComponent </text>
</g>
<!-- CoreModule&#45;&gt;NavbarComponent  -->
<g id="edge15" class="edge">
<title>CoreModule&#45;&gt;NavbarComponent </title>
<path fill="none" stroke="#000000" stroke-dasharray="5,2" d="M998.2922,-175C1146.2409,-175 1622.6541,-175 1622.6541,-175 1622.6541,-175 1622.6541,-205.9775 1622.6541,-205.9775"/>
<polygon fill="#000000" stroke="#000000" points="1619.1542,-205.9774 1622.6541,-215.9775 1626.1542,-205.9775 1619.1542,-205.9774"/>
</g>
<!-- FormErrorsComponent  -->
<g id="node17" class="node">
<title>FormErrorsComponent </title>
<polygon fill="#fb8072" stroke="#000000" points="1580.1453,-252 1429.8547,-252 1429.8547,-216 1580.1453,-216 1580.1453,-252"/>
<text text-anchor="middle" x="1505" y="-229.8" font-family="Times,serif" font-size="14.00" fill="#000000">FormErrorsComponent </text>
</g>
<!-- CoreModule&#45;&gt;FormErrorsComponent  -->
<g id="edge16" class="edge">
<title>CoreModule&#45;&gt;FormErrorsComponent </title>
<path fill="none" stroke="#000000" stroke-dasharray="5,2" d="M998.5954,-178C1120.5175,-178 1456.131,-178 1456.131,-178 1456.131,-178 1456.131,-205.973 1456.131,-205.973"/>
<polygon fill="#000000" stroke="#000000" points="1452.631,-205.973 1456.131,-215.973 1459.631,-205.973 1452.631,-205.973"/>
</g>
<!-- SidePanelComponent  -->
<g id="node18" class="node">
<title>SidePanelComponent </title>
<polygon fill="#fb8072" stroke="#000000" points="1412.3227,-252 1271.6773,-252 1271.6773,-216 1412.3227,-216 1412.3227,-252"/>
<text text-anchor="middle" x="1342" y="-229.8" font-family="Times,serif" font-size="14.00" fill="#000000">SidePanelComponent </text>
</g>
<!-- CoreModule&#45;&gt;SidePanelComponent  -->
<g id="edge17" class="edge">
<title>CoreModule&#45;&gt;SidePanelComponent </title>
<path fill="none" stroke="#000000" stroke-dasharray="5,2" d="M998.4998,-181C1094.4151,-181 1315.625,-181 1315.625,-181 1315.625,-181 1315.625,-205.7604 1315.625,-205.7604"/>
<polygon fill="#000000" stroke="#000000" points="1312.1251,-205.7604 1315.625,-215.7604 1319.1251,-205.7604 1312.1251,-205.7604"/>
</g>
<!-- NotificationsComponent  -->
<g id="node19" class="node">
<title>NotificationsComponent </title>
<polygon fill="#fb8072" stroke="#000000" points="1253.9264,-252 1096.0736,-252 1096.0736,-216 1253.9264,-216 1253.9264,-252"/>
<text text-anchor="middle" x="1175" y="-229.8" font-family="Times,serif" font-size="14.00" fill="#000000">NotificationsComponent </text>
</g>
<!-- CoreModule&#45;&gt;NotificationsComponent  -->
<g id="edge18" class="edge">
<title>CoreModule&#45;&gt;NotificationsComponent </title>
<path fill="none" stroke="#000000" stroke-dasharray="5,2" d="M998.3046,-184C1055.79,-184 1150.125,-184 1150.125,-184 1150.125,-184 1150.125,-205.9489 1150.125,-205.9489"/>
<polygon fill="#000000" stroke="#000000" points="1146.6251,-205.9488 1150.125,-215.9489 1153.6251,-205.9489 1146.6251,-205.9488"/>
</g>
<!-- BoxComponent  -->
<g id="node20" class="node">
<title>BoxComponent </title>
<polygon fill="#fb8072" stroke="#000000" points="1078.1691,-252 969.8309,-252 969.8309,-216 1078.1691,-216 1078.1691,-252"/>
<text text-anchor="middle" x="1024" y="-229.8" font-family="Times,serif" font-size="14.00" fill="#000000">BoxComponent </text>
</g>
<!-- CoreModule&#45;&gt;BoxComponent  -->
<g id="edge19" class="edge">
<title>CoreModule&#45;&gt;BoxComponent </title>
<path fill="none" stroke="#000000" stroke-dasharray="5,2" d="M984.1482,-187.1061C984.1482,-187.1061 984.1482,-205.991 984.1482,-205.991"/>
<polygon fill="#000000" stroke="#000000" points="980.6482,-205.9909 984.1482,-215.991 987.6482,-205.991 980.6482,-205.9909"/>
</g>
<!-- DebounceInputDirective  -->
<g id="node21" class="node">
<title>DebounceInputDirective </title>
<polygon fill="#fb8072" stroke="#000000" points="951.8844,-252 794.1156,-252 794.1156,-216 951.8844,-216 951.8844,-252"/>
<text text-anchor="middle" x="873" y="-229.8" font-family="Times,serif" font-size="14.00" fill="#000000">DebounceInputDirective </text>
</g>
<!-- CoreModule&#45;&gt;DebounceInputDirective  -->
<g id="edge20" class="edge">
<title>CoreModule&#45;&gt;DebounceInputDirective </title>
<path fill="none" stroke="#000000" stroke-dasharray="5,2" d="M931.7807,-187.1061C931.7807,-187.1061 931.7807,-205.991 931.7807,-205.991"/>
<polygon fill="#000000" stroke="#000000" points="928.2808,-205.9909 931.7807,-215.991 935.2808,-205.991 928.2808,-205.9909"/>
</g>
<!-- SpinningIconDirective  -->
<g id="node22" class="node">
<title>SpinningIconDirective </title>
<polygon fill="#fb8072" stroke="#000000" points="776.5218,-252 629.4782,-252 629.4782,-216 776.5218,-216 776.5218,-252"/>
<text text-anchor="middle" x="703" y="-229.8" font-family="Times,serif" font-size="14.00" fill="#000000">SpinningIconDirective </text>
</g>
<!-- CoreModule&#45;&gt;SpinningIconDirective  -->
<g id="edge21" class="edge">
<title>CoreModule&#45;&gt;SpinningIconDirective </title>
<path fill="none" stroke="#000000" stroke-dasharray="5,2" d="M911.6774,-184C851.0783,-184 748.3407,-184 748.3407,-184 748.3407,-184 748.3407,-205.9489 748.3407,-205.9489"/>
<polygon fill="#000000" stroke="#000000" points="744.8407,-205.9488 748.3407,-215.9489 751.8407,-205.9489 744.8407,-205.9488"/>
</g>
<!-- ValidatorsDirective  -->
<g id="node23" class="node">
<title>ValidatorsDirective </title>
<polygon fill="#fb8072" stroke="#000000" points="611.8956,-252 482.1044,-252 482.1044,-216 611.8956,-216 611.8956,-252"/>
<text text-anchor="middle" x="547" y="-229.8" font-family="Times,serif" font-size="14.00" fill="#000000">ValidatorsDirective </text>
</g>
<!-- CoreModule&#45;&gt;ValidatorsDirective  -->
<g id="edge22" class="edge">
<title>CoreModule&#45;&gt;ValidatorsDirective </title>
<path fill="none" stroke="#000000" stroke-dasharray="5,2" d="M911.4793,-181C813.6975,-181 585.0935,-181 585.0935,-181 585.0935,-181 585.0935,-205.7604 585.0935,-205.7604"/>
<polygon fill="#000000" stroke="#000000" points="581.5935,-205.7604 585.0935,-215.7604 588.5935,-205.7604 581.5935,-205.7604"/>
</g>
<!-- ShowPasswordDirective  -->
<g id="node24" class="node">
<title>ShowPasswordDirective </title>
<polygon fill="#fb8072" stroke="#000000" points="463.6257,-252 306.3743,-252 306.3743,-216 463.6257,-216 463.6257,-252"/>
<text text-anchor="middle" x="385" y="-229.8" font-family="Times,serif" font-size="14.00" fill="#000000">ShowPasswordDirective </text>
</g>
<!-- CoreModule&#45;&gt;ShowPasswordDirective  -->
<g id="edge23" class="edge">
<title>CoreModule&#45;&gt;ShowPasswordDirective </title>
<path fill="none" stroke="#000000" stroke-dasharray="5,2" d="M911.424,-178C786.9468,-178 438.6825,-178 438.6825,-178 438.6825,-178 438.6825,-205.973 438.6825,-205.973"/>
<polygon fill="#000000" stroke="#000000" points="435.1826,-205.973 438.6825,-215.973 442.1826,-205.973 435.1826,-205.973"/>
</g>
<!-- ToId  -->
<g id="node25" class="node">
<title>ToId </title>
<polygon fill="#fb8072" stroke="#000000" points="288,-252 234,-252 234,-216 288,-216 288,-252"/>
<text text-anchor="middle" x="261" y="-229.8" font-family="Times,serif" font-size="14.00" fill="#000000">ToId </text>
</g>
<!-- CoreModule&#45;&gt;ToId  -->
<g id="edge24" class="edge">
<title>CoreModule&#45;&gt;ToId </title>
<path fill="none" stroke="#000000" stroke-dasharray="5,2" d="M911.5819,-175C760.235,-175 265.0936,-175 265.0936,-175 265.0936,-175 265.0936,-205.9775 265.0936,-205.9775"/>
<polygon fill="#000000" stroke="#000000" points="261.5935,-205.9775 265.0936,-215.9775 268.5935,-205.9774 261.5935,-205.9775"/>
</g>
<!-- PopoverComponent  -->
<g id="node26" class="node">
<title>PopoverComponent </title>
<polygon fill="#fb8072" stroke="#000000" points="215.9911,-252 84.0089,-252 84.0089,-216 215.9911,-216 215.9911,-252"/>
<text text-anchor="middle" x="150" y="-229.8" font-family="Times,serif" font-size="14.00" fill="#000000">PopoverComponent </text>
</g>
<!-- CoreModule&#45;&gt;PopoverComponent  -->
<g id="edge25" class="edge">
<title>CoreModule&#45;&gt;PopoverComponent </title>
<path fill="none" stroke="#000000" stroke-dasharray="5,2" d="M911.5646,-172C749.9813,-172 192.8726,-172 192.8726,-172 192.8726,-172 192.8726,-205.7333 192.8726,-205.7333"/>
<polygon fill="#000000" stroke="#000000" points="189.3726,-205.7333 192.8726,-215.7333 196.3726,-205.7333 189.3726,-205.7333"/>
</g>
</g>
</svg>
