<?xml version="1.0" encoding="UTF-8" standalone="no"?>
<!DOCTYPE svg PUBLIC "-//W3C//DTD SVG 1.1//EN"
 "http://www.w3.org/Graphics/SVG/1.1/DTD/svg11.dtd">
<!-- Generated by graphviz version 2.40.1 (20161225.0304)
 -->
<!-- Title: dependencies Pages: 1 -->
<svg width="2100pt" height="284pt"
 viewBox="0.00 0.00 2100.00 284.00" xmlns="http://www.w3.org/2000/svg" xmlns:xlink="http://www.w3.org/1999/xlink">
<g id="graph0" class="graph" transform="scale(1 1) rotate(0) translate(4 280)">
<title>dependencies</title>
<polygon fill="#ffffff" stroke="transparent" points="-4,4 -4,-280 2096,-280 2096,4 -4,4"/>
<text text-anchor="start" x="1025.0091" y="-42.4" font-family="sans-serif" font-weight="bold" font-size="14.00" fill="#000000">Legend</text>
<polygon fill="#ffffb3" stroke="transparent" points="812,-10 812,-30 832,-30 832,-10 812,-10"/>
<text text-anchor="start" x="835.629" y="-15.4" font-family="sans-serif" font-size="14.00" fill="#000000"> &#160;Declarations</text>
<polygon fill="#8dd3c7" stroke="transparent" points="925,-10 925,-30 945,-30 945,-10 925,-10"/>
<text text-anchor="start" x="948.7251" y="-15.4" font-family="sans-serif" font-size="14.00" fill="#000000"> &#160;Module</text>
<polygon fill="#80b1d3" stroke="transparent" points="1011,-10 1011,-30 1031,-30 1031,-10 1011,-10"/>
<text text-anchor="start" x="1034.7812" y="-15.4" font-family="sans-serif" font-size="14.00" fill="#000000"> &#160;Bootstrap</text>
<polygon fill="#fdb462" stroke="transparent" points="1108,-10 1108,-30 1128,-30 1128,-10 1108,-10"/>
<text text-anchor="start" x="1131.6732" y="-15.4" font-family="sans-serif" font-size="14.00" fill="#000000"> &#160;Providers</text>
<polygon fill="#fb8072" stroke="transparent" points="1204,-10 1204,-30 1224,-30 1224,-10 1204,-10"/>
<text text-anchor="start" x="1227.7258" y="-15.4" font-family="sans-serif" font-size="14.00" fill="#000000"> &#160;Exports</text>
<g id="clust1" class="cluster">
<title>cluster_CoreModule</title>
<polygon fill="none" stroke="#000000" stroke-dasharray="1,5" points="8,-70 8,-268 2084,-268 2084,-70 8,-70"/>
</g>
<g id="clust2" class="cluster">
<title>cluster_CoreModule_declarations</title>
<polygon fill="none" stroke="#000000" points="154,-78 154,-130 2076,-130 2076,-78 154,-78"/>
</g>
<g id="clust16" class="cluster">
<title>cluster_CoreModule_imports</title>
<polygon fill="none" stroke="#000000" points="16,-78 16,-130 146,-130 146,-78 16,-78"/>
</g>
<g id="clust17" class="cluster">
<title>cluster_CoreModule_exports</title>
<polygon fill="none" stroke="#000000" points="77,-208 77,-260 2015,-260 2015,-208 77,-208"/>
</g>
<!-- SidebarComponent -->
<g id="node1" class="node">
<title>SidebarComponent</title>
<polygon fill="#ffffb3" stroke="#000000" points="2068.0954,-122 1943.9046,-122 1943.9046,-86 2068.0954,-86 2068.0954,-122"/>
<text text-anchor="middle" x="2006" y="-99.8" font-family="Times,serif" font-size="14.00" fill="#000000">SidebarComponent</text>
</g>
<!-- CoreModule -->
<g id="node14" class="node">
<title>CoreModule</title>
<polygon fill="#8dd3c7" stroke="#000000" points="1054.2619,-187 1051.2619,-191 1030.2619,-191 1027.2619,-187 967.7381,-187 967.7381,-151 1054.2619,-151 1054.2619,-187"/>
<text text-anchor="middle" x="1011" y="-164.8" font-family="Times,serif" font-size="14.00" fill="#000000">CoreModule</text>
</g>
<!-- SidebarComponent&#45;&gt;CoreModule -->
<g id="edge1" class="edge">
<title>SidebarComponent&#45;&gt;CoreModule</title>
<path fill="none" stroke="#000000" d="M1975.375,-122.1686C1975.375,-141.0898 1975.375,-168 1975.375,-168 1975.375,-168 1064.3107,-168 1064.3107,-168"/>
<polygon fill="#000000" stroke="#000000" points="1064.3107,-164.5001 1054.3107,-168 1064.3106,-171.5001 1064.3107,-164.5001"/>
</g>
<!-- NavbarComponent -->
<g id="node2" class="node">
<title>NavbarComponent</title>
<polygon fill="#ffffb3" stroke="#000000" points="1926.0297,-122 1803.9703,-122 1803.9703,-86 1926.0297,-86 1926.0297,-122"/>
<text text-anchor="middle" x="1865" y="-99.8" font-family="Times,serif" font-size="14.00" fill="#000000">NavbarComponent</text>
</g>
<!-- NavbarComponent&#45;&gt;CoreModule -->
<g id="edge2" class="edge">
<title>NavbarComponent&#45;&gt;CoreModule</title>
<path fill="none" stroke="#000000" d="M1832.375,-122.302C1832.375,-140.2699 1832.375,-165 1832.375,-165 1832.375,-165 1064.2921,-165 1064.2921,-165"/>
<polygon fill="#000000" stroke="#000000" points="1064.2921,-161.5001 1054.2921,-165 1064.292,-168.5001 1064.2921,-161.5001"/>
</g>
<!-- FormErrorsComponent -->
<g id="node3" class="node">
<title>FormErrorsComponent</title>
<polygon fill="#ffffb3" stroke="#000000" points="1785.1456,-122 1638.8544,-122 1638.8544,-86 1785.1456,-86 1785.1456,-122"/>
<text text-anchor="middle" x="1712" y="-99.8" font-family="Times,serif" font-size="14.00" fill="#000000">FormErrorsComponent</text>
</g>
<!-- FormErrorsComponent&#45;&gt;CoreModule -->
<g id="edge3" class="edge">
<title>FormErrorsComponent&#45;&gt;CoreModule</title>
<path fill="none" stroke="#000000" d="M1677.875,-122.0225C1677.875,-139.3734 1677.875,-163 1677.875,-163 1677.875,-163 1064.4983,-163 1064.4983,-163"/>
<polygon fill="#000000" stroke="#000000" points="1064.4983,-159.5001 1054.4983,-163 1064.4983,-166.5001 1064.4983,-159.5001"/>
</g>
<!-- BoxComponent -->
<g id="node4" class="node">
<title>BoxComponent</title>
<polygon fill="#ffffb3" stroke="#000000" points="1620.1695,-122 1515.8305,-122 1515.8305,-86 1620.1695,-86 1620.1695,-122"/>
<text text-anchor="middle" x="1568" y="-99.8" font-family="Times,serif" font-size="14.00" fill="#000000">BoxComponent</text>
</g>
<!-- BoxComponent&#45;&gt;CoreModule -->
<g id="edge4" class="edge">
<title>BoxComponent&#45;&gt;CoreModule</title>
<path fill="none" stroke="#000000" d="M1532.2053,-122.027C1532.2053,-138.3976 1532.2053,-160 1532.2053,-160 1532.2053,-160 1064.5412,-160 1064.5412,-160"/>
<polygon fill="#000000" stroke="#000000" points="1064.5412,-156.5001 1054.5412,-160 1064.5412,-163.5001 1064.5412,-156.5001"/>
</g>
<!-- PopoverComponent -->
<g id="node5" class="node">
<title>PopoverComponent</title>
<polygon fill="#ffffb3" stroke="#000000" points="1497.9902,-122 1370.0098,-122 1370.0098,-86 1497.9902,-86 1497.9902,-122"/>
<text text-anchor="middle" x="1434" y="-99.8" font-family="Times,serif" font-size="14.00" fill="#000000">PopoverComponent</text>
</g>
<!-- PopoverComponent&#45;&gt;CoreModule -->
<g id="edge5" class="edge">
<title>PopoverComponent&#45;&gt;CoreModule</title>
<path fill="none" stroke="#000000" d="M1384.7081,-122.2396C1384.7081,-137.5706 1384.7081,-157 1384.7081,-157 1384.7081,-157 1064.6005,-157 1064.6005,-157"/>
<polygon fill="#000000" stroke="#000000" points="1064.6005,-153.5001 1054.6005,-157 1064.6004,-160.5001 1064.6005,-153.5001"/>
</g>
<!-- SidePanelComponent -->
<g id="node6" class="node">
<title>SidePanelComponent</title>
<polygon fill="#ffffb3" stroke="#000000" points="1351.823,-122 1214.177,-122 1214.177,-86 1351.823,-86 1351.823,-122"/>
<text text-anchor="middle" x="1283" y="-99.8" font-family="Times,serif" font-size="14.00" fill="#000000">SidePanelComponent</text>
</g>
<!-- SidePanelComponent&#45;&gt;CoreModule -->
<g id="edge6" class="edge">
<title>SidePanelComponent&#45;&gt;CoreModule</title>
<path fill="none" stroke="#000000" d="M1227.651,-122.0511C1227.651,-136.373 1227.651,-154 1227.651,-154 1227.651,-154 1064.3218,-154 1064.3218,-154"/>
<polygon fill="#000000" stroke="#000000" points="1064.3219,-150.5001 1054.3218,-154 1064.3218,-157.5001 1064.3219,-150.5001"/>
</g>
<!-- NotificationsComponent -->
<g id="node7" class="node">
<title>NotificationsComponent</title>
<polygon fill="#ffffb3" stroke="#000000" points="1196.427,-122 1041.573,-122 1041.573,-86 1196.427,-86 1196.427,-122"/>
<text text-anchor="middle" x="1119" y="-99.8" font-family="Times,serif" font-size="14.00" fill="#000000">NotificationsComponent</text>
</g>
<!-- NotificationsComponent&#45;&gt;CoreModule -->
<g id="edge7" class="edge">
<title>NotificationsComponent&#45;&gt;CoreModule</title>
<path fill="none" stroke="#000000" d="M1048.0838,-122.1061C1048.0838,-122.1061 1048.0838,-140.991 1048.0838,-140.991"/>
<polygon fill="#000000" stroke="#000000" points="1044.5839,-140.9909 1048.0838,-150.991 1051.5839,-140.991 1044.5839,-140.9909"/>
</g>
<!-- DebounceInputDirective -->
<g id="node8" class="node">
<title>DebounceInputDirective</title>
<polygon fill="#ffffb3" stroke="#000000" points="1024.3849,-122 869.6151,-122 869.6151,-86 1024.3849,-86 1024.3849,-122"/>
<text text-anchor="middle" x="947" y="-99.8" font-family="Times,serif" font-size="14.00" fill="#000000">DebounceInputDirective</text>
</g>
<!-- DebounceInputDirective&#45;&gt;CoreModule -->
<g id="edge8" class="edge">
<title>DebounceInputDirective&#45;&gt;CoreModule</title>
<path fill="none" stroke="#000000" d="M995.9057,-122.1061C995.9057,-122.1061 995.9057,-140.991 995.9057,-140.991"/>
<polygon fill="#000000" stroke="#000000" points="992.4058,-140.9909 995.9057,-150.991 999.4058,-140.991 992.4058,-140.9909"/>
</g>
<!-- ClickStopPropagation -->
<g id="node9" class="node">
<title>ClickStopPropagation</title>
<polygon fill="#ffffb3" stroke="#000000" points="851.6596,-122 712.3404,-122 712.3404,-86 851.6596,-86 851.6596,-122"/>
<text text-anchor="middle" x="782" y="-99.8" font-family="Times,serif" font-size="14.00" fill="#000000">ClickStopPropagation</text>
</g>
<!-- ClickStopPropagation&#45;&gt;CoreModule -->
<g id="edge9" class="edge">
<title>ClickStopPropagation&#45;&gt;CoreModule</title>
<path fill="none" stroke="#000000" d="M816.4437,-122.0511C816.4437,-136.373 816.4437,-154 816.4437,-154 816.4437,-154 957.3378,-154 957.3378,-154"/>
<polygon fill="#000000" stroke="#000000" points="957.3378,-157.5001 967.3378,-154 957.3377,-150.5001 957.3378,-157.5001"/>
</g>
<!-- SpinningIconDirective -->
<g id="node10" class="node">
<title>SpinningIconDirective</title>
<polygon fill="#ffffb3" stroke="#000000" points="693.5226,-122 550.4774,-122 550.4774,-86 693.5226,-86 693.5226,-122"/>
<text text-anchor="middle" x="622" y="-99.8" font-family="Times,serif" font-size="14.00" fill="#000000">SpinningIconDirective</text>
</g>
<!-- SpinningIconDirective&#45;&gt;CoreModule -->
<g id="edge10" class="edge">
<title>SpinningIconDirective&#45;&gt;CoreModule</title>
<path fill="none" stroke="#000000" d="M669.5086,-122.2396C669.5086,-137.5706 669.5086,-157 669.5086,-157 669.5086,-157 957.403,-157 957.403,-157"/>
<polygon fill="#000000" stroke="#000000" points="957.4031,-160.5001 967.403,-157 957.403,-153.5001 957.4031,-160.5001"/>
</g>
<!-- ValidatorsDirective -->
<g id="node11" class="node">
<title>ValidatorsDirective</title>
<polygon fill="#ffffb3" stroke="#000000" points="532.3962,-122 405.6038,-122 405.6038,-86 532.3962,-86 532.3962,-122"/>
<text text-anchor="middle" x="469" y="-99.8" font-family="Times,serif" font-size="14.00" fill="#000000">ValidatorsDirective</text>
</g>
<!-- ValidatorsDirective&#45;&gt;CoreModule -->
<g id="edge11" class="edge">
<title>ValidatorsDirective&#45;&gt;CoreModule</title>
<path fill="none" stroke="#000000" d="M506.3435,-122.027C506.3435,-138.3976 506.3435,-160 506.3435,-160 506.3435,-160 957.5365,-160 957.5365,-160"/>
<polygon fill="#000000" stroke="#000000" points="957.5365,-163.5001 967.5365,-160 957.5364,-156.5001 957.5365,-163.5001"/>
</g>
<!-- ShowPasswordDirective -->
<g id="node12" class="node">
<title>ShowPasswordDirective</title>
<polygon fill="#ffffb3" stroke="#000000" points="387.6261,-122 234.3739,-122 234.3739,-86 387.6261,-86 387.6261,-122"/>
<text text-anchor="middle" x="311" y="-99.8" font-family="Times,serif" font-size="14.00" fill="#000000">ShowPasswordDirective</text>
</g>
<!-- ShowPasswordDirective&#45;&gt;CoreModule -->
<g id="edge12" class="edge">
<title>ShowPasswordDirective&#45;&gt;CoreModule</title>
<path fill="none" stroke="#000000" d="M360.4325,-122.0225C360.4325,-139.3734 360.4325,-163 360.4325,-163 360.4325,-163 957.5578,-163 957.5578,-163"/>
<polygon fill="#000000" stroke="#000000" points="957.5578,-166.5001 967.5578,-163 957.5577,-159.5001 957.5578,-166.5001"/>
</g>
<!-- ToId -->
<g id="node13" class="node">
<title>ToId</title>
<polygon fill="#ffffb3" stroke="#000000" points="216,-122 162,-122 162,-86 216,-86 216,-122"/>
<text text-anchor="middle" x="189" y="-99.8" font-family="Times,serif" font-size="14.00" fill="#000000">ToId</text>
</g>
<!-- ToId&#45;&gt;CoreModule -->
<g id="edge13" class="edge">
<title>ToId&#45;&gt;CoreModule</title>
<path fill="none" stroke="#000000" d="M189,-122.302C189,-140.2699 189,-165 189,-165 189,-165 957.675,-165 957.675,-165"/>
<polygon fill="#000000" stroke="#000000" points="957.675,-168.5001 967.675,-165 957.675,-161.5001 957.675,-168.5001"/>
</g>
<!-- SidebarComponent  -->
<g id="node16" class="node">
<title>SidebarComponent </title>
<polygon fill="#fb8072" stroke="#000000" points="2006.596,-252 1879.404,-252 1879.404,-216 2006.596,-216 2006.596,-252"/>
<text text-anchor="middle" x="1943" y="-229.8" font-family="Times,serif" font-size="14.00" fill="#000000">SidebarComponent </text>
</g>
<!-- CoreModule&#45;&gt;SidebarComponent  -->
<g id="edge15" class="edge">
<title>CoreModule&#45;&gt;SidebarComponent </title>
<path fill="none" stroke="#000000" stroke-dasharray="5,2" d="M1054.3115,-171C1232.8922,-171 1902.7334,-171 1902.7334,-171 1902.7334,-171 1902.7334,-205.7778 1902.7334,-205.7778"/>
<polygon fill="#000000" stroke="#000000" points="1899.2334,-205.7778 1902.7334,-215.7778 1906.2334,-205.7778 1899.2334,-205.7778"/>
</g>
<!-- NavbarComponent  -->
<g id="node17" class="node">
<title>NavbarComponent </title>
<polygon fill="#fb8072" stroke="#000000" points="1861.0288,-252 1734.9712,-252 1734.9712,-216 1861.0288,-216 1861.0288,-252"/>
<text text-anchor="middle" x="1798" y="-229.8" font-family="Times,serif" font-size="14.00" fill="#000000">NavbarComponent </text>
</g>
<!-- CoreModule&#45;&gt;NavbarComponent  -->
<g id="edge16" class="edge">
<title>CoreModule&#45;&gt;NavbarComponent </title>
<path fill="none" stroke="#000000" stroke-dasharray="5,2" d="M1054.5158,-174C1214.4036,-174 1760.1541,-174 1760.1541,-174 1760.1541,-174 1760.1541,-205.998 1760.1541,-205.998"/>
<polygon fill="#000000" stroke="#000000" points="1756.6542,-205.998 1760.1541,-215.998 1763.6542,-205.9981 1756.6542,-205.998"/>
</g>
<!-- FormErrorsComponent  -->
<g id="node18" class="node">
<title>FormErrorsComponent </title>
<polygon fill="#fb8072" stroke="#000000" points="1717.1453,-252 1566.8547,-252 1566.8547,-216 1717.1453,-216 1717.1453,-252"/>
<text text-anchor="middle" x="1642" y="-229.8" font-family="Times,serif" font-size="14.00" fill="#000000">FormErrorsComponent </text>
</g>
<!-- CoreModule&#45;&gt;FormErrorsComponent  -->
<g id="edge17" class="edge">
<title>CoreModule&#45;&gt;FormErrorsComponent </title>
<path fill="none" stroke="#000000" stroke-dasharray="5,2" d="M1054.316,-176C1189.3422,-176 1593.631,-176 1593.631,-176 1593.631,-176 1593.631,-205.9664 1593.631,-205.9664"/>
<polygon fill="#000000" stroke="#000000" points="1590.131,-205.9663 1593.631,-215.9664 1597.131,-205.9664 1590.131,-205.9663"/>
</g>
<!-- PopoverComponent  -->
<g id="node19" class="node">
<title>PopoverComponent </title>
<polygon fill="#fb8072" stroke="#000000" points="1548.9911,-252 1417.0089,-252 1417.0089,-216 1548.9911,-216 1548.9911,-252"/>
<text text-anchor="middle" x="1483" y="-229.8" font-family="Times,serif" font-size="14.00" fill="#000000">PopoverComponent </text>
</g>
<!-- CoreModule&#45;&gt;PopoverComponent  -->
<g id="edge18" class="edge">
<title>CoreModule&#45;&gt;PopoverComponent </title>
<path fill="none" stroke="#000000" stroke-dasharray="5,2" d="M1054.6375,-179C1167.0199,-179 1457.625,-179 1457.625,-179 1457.625,-179 1457.625,-205.9909 1457.625,-205.9909"/>
<polygon fill="#000000" stroke="#000000" points="1454.1251,-205.9909 1457.625,-215.9909 1461.1251,-205.991 1454.1251,-205.9909"/>
</g>
<!-- SidePanelComponent  -->
<g id="node20" class="node">
<title>SidePanelComponent </title>
<polygon fill="#fb8072" stroke="#000000" points="1399.3227,-252 1258.6773,-252 1258.6773,-216 1399.3227,-216 1399.3227,-252"/>
<text text-anchor="middle" x="1329" y="-229.8" font-family="Times,serif" font-size="14.00" fill="#000000">SidePanelComponent </text>
</g>
<!-- CoreModule&#45;&gt;SidePanelComponent  -->
<g id="edge19" class="edge">
<title>CoreModule&#45;&gt;SidePanelComponent </title>
<path fill="none" stroke="#000000" stroke-dasharray="5,2" d="M1054.3992,-182C1136.215,-182 1305.125,-182 1305.125,-182 1305.125,-182 1305.125,-205.8129 1305.125,-205.8129"/>
<polygon fill="#000000" stroke="#000000" points="1301.6251,-205.8129 1305.125,-215.8129 1308.6251,-205.813 1301.6251,-205.8129"/>
</g>
<!-- NotificationsComponent  -->
<g id="node21" class="node">
<title>NotificationsComponent </title>
<polygon fill="#fb8072" stroke="#000000" points="1240.9264,-252 1083.0736,-252 1083.0736,-216 1240.9264,-216 1240.9264,-252"/>
<text text-anchor="middle" x="1162" y="-229.8" font-family="Times,serif" font-size="14.00" fill="#000000">NotificationsComponent </text>
</g>
<!-- CoreModule&#45;&gt;NotificationsComponent  -->
<g id="edge20" class="edge">
<title>CoreModule&#45;&gt;NotificationsComponent </title>
<path fill="none" stroke="#000000" stroke-dasharray="5,2" d="M1054.5466,-185C1091.8617,-185 1139.625,-185 1139.625,-185 1139.625,-185 1139.625,-205.7542 1139.625,-205.7542"/>
<polygon fill="#000000" stroke="#000000" points="1136.1251,-205.7542 1139.625,-215.7542 1143.1251,-205.7542 1136.1251,-205.7542"/>
</g>
<!-- BoxComponent  -->
<g id="node22" class="node">
<title>BoxComponent </title>
<polygon fill="#fb8072" stroke="#000000" points="1065.1691,-252 956.8309,-252 956.8309,-216 1065.1691,-216 1065.1691,-252"/>
<text text-anchor="middle" x="1011" y="-229.8" font-family="Times,serif" font-size="14.00" fill="#000000">BoxComponent </text>
</g>
<!-- CoreModule&#45;&gt;BoxComponent  -->
<g id="edge21" class="edge">
<title>CoreModule&#45;&gt;BoxComponent </title>
<path fill="none" stroke="#000000" stroke-dasharray="5,2" d="M1011,-187.1061C1011,-187.1061 1011,-205.991 1011,-205.991"/>
<polygon fill="#000000" stroke="#000000" points="1007.5001,-205.9909 1011,-215.991 1014.5001,-205.991 1007.5001,-205.9909"/>
</g>
<!-- DebounceInputDirective  -->
<g id="node23" class="node">
<title>DebounceInputDirective </title>
<polygon fill="#fb8072" stroke="#000000" points="938.8844,-252 781.1156,-252 781.1156,-216 938.8844,-216 938.8844,-252"/>
<text text-anchor="middle" x="860" y="-229.8" font-family="Times,serif" font-size="14.00" fill="#000000">DebounceInputDirective </text>
</g>
<!-- CoreModule&#45;&gt;DebounceInputDirective  -->
<g id="edge22" class="edge">
<title>CoreModule&#45;&gt;DebounceInputDirective </title>
<path fill="none" stroke="#000000" stroke-dasharray="5,2" d="M967.6315,-185C938.1118,-185 904.375,-185 904.375,-185 904.375,-185 904.375,-205.7542 904.375,-205.7542"/>
<polygon fill="#000000" stroke="#000000" points="900.8751,-205.7542 904.375,-215.7542 907.8751,-205.7542 900.8751,-205.7542"/>
</g>
<!-- BootstrapModule  -->
<g id="node24" class="node">
<title>BootstrapModule </title>
<polygon fill="#fb8072" stroke="#000000" points="762.9884,-252 645.0116,-252 645.0116,-216 762.9884,-216 762.9884,-252"/>
<text text-anchor="middle" x="704" y="-229.8" font-family="Times,serif" font-size="14.00" fill="#000000">BootstrapModule </text>
</g>
<!-- CoreModule&#45;&gt;BootstrapModule  -->
<g id="edge23" class="edge">
<title>CoreModule&#45;&gt;BootstrapModule </title>
<path fill="none" stroke="#000000" stroke-dasharray="5,2" d="M967.6563,-182C890.5246,-182 737.4571,-182 737.4571,-182 737.4571,-182 737.4571,-205.8129 737.4571,-205.8129"/>
<polygon fill="#000000" stroke="#000000" points="733.9571,-205.8129 737.4571,-215.8129 740.9571,-205.813 733.9571,-205.8129"/>
</g>
<!-- SpinningIconDirective  -->
<g id="node25" class="node">
<title>SpinningIconDirective </title>
<polygon fill="#fb8072" stroke="#000000" points="627.5218,-252 480.4782,-252 480.4782,-216 627.5218,-216 627.5218,-252"/>
<text text-anchor="middle" x="554" y="-229.8" font-family="Times,serif" font-size="14.00" fill="#000000">SpinningIconDirective </text>
</g>
<!-- CoreModule&#45;&gt;SpinningIconDirective  -->
<g id="edge24" class="edge">
<title>CoreModule&#45;&gt;SpinningIconDirective </title>
<path fill="none" stroke="#000000" stroke-dasharray="5,2" d="M967.4151,-179C859.5629,-179 588.875,-179 588.875,-179 588.875,-179 588.875,-205.9909 588.875,-205.9909"/>
<polygon fill="#000000" stroke="#000000" points="585.3751,-205.9909 588.875,-215.9909 592.3751,-205.991 585.3751,-205.9909"/>
</g>
<!-- ValidatorsDirective  -->
<g id="node26" class="node">
<title>ValidatorsDirective </title>
<polygon fill="#fb8072" stroke="#000000" points="462.8956,-252 333.1044,-252 333.1044,-216 462.8956,-216 462.8956,-252"/>
<text text-anchor="middle" x="398" y="-229.8" font-family="Times,serif" font-size="14.00" fill="#000000">ValidatorsDirective </text>
</g>
<!-- CoreModule&#45;&gt;ValidatorsDirective  -->
<g id="edge25" class="edge">
<title>CoreModule&#45;&gt;ValidatorsDirective </title>
<path fill="none" stroke="#000000" stroke-dasharray="5,2" d="M967.6594,-176C833.5586,-176 434.375,-176 434.375,-176 434.375,-176 434.375,-205.9664 434.375,-205.9664"/>
<polygon fill="#000000" stroke="#000000" points="430.8751,-205.9663 434.375,-215.9664 437.8751,-205.9664 430.8751,-205.9663"/>
</g>
<!-- ShowPasswordDirective  -->
<g id="node27" class="node">
<title>ShowPasswordDirective </title>
<polygon fill="#fb8072" stroke="#000000" points="314.6257,-252 157.3743,-252 157.3743,-216 314.6257,-216 314.6257,-252"/>
<text text-anchor="middle" x="236" y="-229.8" font-family="Times,serif" font-size="14.00" fill="#000000">ShowPasswordDirective </text>
</g>
<!-- CoreModule&#45;&gt;ShowPasswordDirective  -->
<g id="edge26" class="edge">
<title>CoreModule&#45;&gt;ShowPasswordDirective </title>
<path fill="none" stroke="#000000" stroke-dasharray="5,2" d="M967.6708,-174C809.7709,-174 274.375,-174 274.375,-174 274.375,-174 274.375,-205.998 274.375,-205.998"/>
<polygon fill="#000000" stroke="#000000" points="270.8751,-205.998 274.375,-215.998 277.8751,-205.9981 270.8751,-205.998"/>
</g>
<!-- ToId  -->
<g id="node28" class="node">
<title>ToId </title>
<polygon fill="#fb8072" stroke="#000000" points="139,-252 85,-252 85,-216 139,-216 139,-252"/>
<text text-anchor="middle" x="112" y="-229.8" font-family="Times,serif" font-size="14.00" fill="#000000">ToId </text>
</g>
<!-- CoreModule&#45;&gt;ToId  -->
<g id="edge27" class="edge">
<title>CoreModule&#45;&gt;ToId </title>
<path fill="none" stroke="#000000" stroke-dasharray="5,2" d="M967.4382,-171C788.6185,-171 120.3291,-171 120.3291,-171 120.3291,-171 120.3291,-205.7778 120.3291,-205.7778"/>
<polygon fill="#000000" stroke="#000000" points="116.829,-205.7778 120.3291,-215.7778 123.829,-205.7778 116.829,-205.7778"/>
</g>
<!-- BootstrapModule -->
<g id="node15" class="node">
<title>BootstrapModule</title>
<polygon fill="#8dd3c7" stroke="#000000" points="137.9874,-122 134.9874,-126 113.9874,-126 110.9874,-122 24.0126,-122 24.0126,-86 137.9874,-86 137.9874,-122"/>
<text text-anchor="middle" x="81" y="-99.8" font-family="Times,serif" font-size="14.00" fill="#000000">BootstrapModule</text>
</g>
<!-- BootstrapModule&#45;&gt;CoreModule -->
<g id="edge14" class="edge">
<title>BootstrapModule&#45;&gt;CoreModule</title>
<path fill="none" stroke="#000000" d="M102.6646,-122.1686C102.6646,-141.0898 102.6646,-168 102.6646,-168 102.6646,-168 957.4951,-168 957.4951,-168"/>
<polygon fill="#000000" stroke="#000000" points="957.4951,-171.5001 967.4951,-168 957.4951,-164.5001 957.4951,-171.5001"/>
</g>
</g>
</svg>
