<?xml version="1.0" encoding="UTF-8" standalone="no"?>
<!DOCTYPE svg PUBLIC "-//W3C//DTD SVG 1.1//EN"
 "http://www.w3.org/Graphics/SVG/1.1/DTD/svg11.dtd">
<!-- Generated by graphviz version 2.40.1 (20161225.0304)
 -->
<!-- Title: dependencies Pages: 1 -->
<svg width="504pt" height="284pt"
 viewBox="0.00 0.00 504.00 284.00" xmlns="http://www.w3.org/2000/svg" xmlns:xlink="http://www.w3.org/1999/xlink">
<g id="graph0" class="graph" transform="scale(1 1) rotate(0) translate(4 280)">
<title>dependencies</title>
<polygon fill="#ffffff" stroke="transparent" points="-4,4 -4,-280 500,-280 500,4 -4,4"/>
<text text-anchor="start" x="227.0091" y="-42.4" font-family="sans-serif" font-weight="bold" font-size="14.00" fill="#000000">Legend</text>
<polygon fill="#ffffb3" stroke="transparent" points="14,-10 14,-30 34,-30 34,-10 14,-10"/>
<text text-anchor="start" x="37.629" y="-15.4" font-family="sans-serif" font-size="14.00" fill="#000000"> &#160;Declarations</text>
<polygon fill="#8dd3c7" stroke="transparent" points="127,-10 127,-30 147,-30 147,-10 127,-10"/>
<text text-anchor="start" x="150.7251" y="-15.4" font-family="sans-serif" font-size="14.00" fill="#000000"> &#160;Module</text>
<polygon fill="#80b1d3" stroke="transparent" points="213,-10 213,-30 233,-30 233,-10 213,-10"/>
<text text-anchor="start" x="236.7812" y="-15.4" font-family="sans-serif" font-size="14.00" fill="#000000"> &#160;Bootstrap</text>
<polygon fill="#fdb462" stroke="transparent" points="310,-10 310,-30 330,-30 330,-10 310,-10"/>
<text text-anchor="start" x="333.6732" y="-15.4" font-family="sans-serif" font-size="14.00" fill="#000000"> &#160;Providers</text>
<polygon fill="#fb8072" stroke="transparent" points="406,-10 406,-30 426,-30 426,-10 406,-10"/>
<text text-anchor="start" x="429.7258" y="-15.4" font-family="sans-serif" font-size="14.00" fill="#000000"> &#160;Exports</text>
<g id="clust1" class="cluster">
<title>cluster_CltMapModule</title>
<polygon fill="none" stroke="#000000" stroke-dasharray="1,5" points="79,-70 79,-268 417,-268 417,-70 79,-70"/>
</g>
<g id="clust2" class="cluster">
<title>cluster_CltMapModule_declarations</title>
<polygon fill="none" stroke="#000000" points="91,-78 91,-130 405,-130 405,-78 91,-78"/>
</g>
<g id="clust6" class="cluster">
<title>cluster_CltMapModule_exports</title>
<polygon fill="none" stroke="#000000" points="87,-208 87,-260 409,-260 409,-208 87,-208"/>
</g>
<!-- CltMapComponent -->
<g id="node1" class="node">
<title>CltMapComponent</title>
<polygon fill="#ffffb3" stroke="#000000" points="397.1094,-122 272.8906,-122 272.8906,-86 397.1094,-86 397.1094,-122"/>
<text text-anchor="middle" x="335" y="-99.8" font-family="Times,serif" font-size="14.00" fill="#000000">CltMapComponent</text>
</g>
<!-- CltMapModule -->
<g id="node3" class="node">
<title>CltMapModule</title>
<polygon fill="#8dd3c7" stroke="#000000" points="229.3273,-187 226.3273,-191 205.3273,-191 202.3273,-187 126.6727,-187 126.6727,-151 229.3273,-151 229.3273,-187"/>
<text text-anchor="middle" x="178" y="-164.8" font-family="Times,serif" font-size="14.00" fill="#000000">CltMapModule</text>
</g>
<!-- CltMapComponent&#45;&gt;CltMapModule -->
<g id="edge1" class="edge">
<title>CltMapComponent&#45;&gt;CltMapModule</title>
<path fill="none" stroke="#000000" d="M355.7682,-122.0225C355.7682,-139.3734 355.7682,-163 355.7682,-163 355.7682,-163 239.4179,-163 239.4179,-163"/>
<polygon fill="#000000" stroke="#000000" points="239.418,-159.5001 229.4179,-163 239.4179,-166.5001 239.418,-159.5001"/>
</g>
<!-- CltMapLayerComponent -->
<g id="node2" class="node">
<title>CltMapLayerComponent</title>
<polygon fill="#ffffb3" stroke="#000000" points="255.252,-122 98.748,-122 98.748,-86 255.252,-86 255.252,-122"/>
<text text-anchor="middle" x="177" y="-99.8" font-family="Times,serif" font-size="14.00" fill="#000000">CltMapLayerComponent</text>
</g>
<!-- CltMapLayerComponent&#45;&gt;CltMapModule -->
<g id="edge2" class="edge">
<title>CltMapLayerComponent&#45;&gt;CltMapModule</title>
<path fill="none" stroke="#000000" d="M178,-122.1061C178,-122.1061 178,-140.991 178,-140.991"/>
<polygon fill="#000000" stroke="#000000" points="174.5001,-140.9909 178,-150.991 181.5001,-140.991 174.5001,-140.9909"/>
</g>
<!-- CltMapComponent  -->
<g id="node4" class="node">
<title>CltMapComponent </title>
<polygon fill="#fb8072" stroke="#000000" points="400.61,-252 273.39,-252 273.39,-216 400.61,-216 400.61,-252"/>
<text text-anchor="middle" x="337" y="-229.8" font-family="Times,serif" font-size="14.00" fill="#000000">CltMapComponent </text>
</g>
<!-- CltMapModule&#45;&gt;CltMapComponent  -->
<g id="edge3" class="edge">
<title>CltMapModule&#45;&gt;CltMapComponent </title>
<path fill="none" stroke="#000000" stroke-dasharray="5,2" d="M229.2091,-175C267.9363,-175 314.4818,-175 314.4818,-175 314.4818,-175 314.4818,-205.9775 314.4818,-205.9775"/>
<polygon fill="#000000" stroke="#000000" points="310.9819,-205.9774 314.4818,-215.9775 317.9819,-205.9775 310.9819,-205.9774"/>
</g>
<!-- CltMapLayerComponent  -->
<g id="node5" class="node">
<title>CltMapLayerComponent </title>
<polygon fill="#fb8072" stroke="#000000" points="255.252,-252 94.748,-252 94.748,-216 255.252,-216 255.252,-252"/>
<text text-anchor="middle" x="175" y="-229.8" font-family="Times,serif" font-size="14.00" fill="#000000">CltMapLayerComponent </text>
</g>
<!-- CltMapModule&#45;&gt;CltMapLayerComponent  -->
<g id="edge4" class="edge">
<title>CltMapModule&#45;&gt;CltMapLayerComponent </title>
<path fill="none" stroke="#000000" stroke-dasharray="5,2" d="M178,-187.1061C178,-187.1061 178,-205.991 178,-205.991"/>
<polygon fill="#000000" stroke="#000000" points="174.5001,-205.9909 178,-215.991 181.5001,-205.991 174.5001,-205.9909"/>
</g>
</g>
</svg>
