<?xml version="1.0" encoding="UTF-8" standalone="no"?>
<!DOCTYPE svg PUBLIC "-//W3C//DTD SVG 1.1//EN"
 "http://www.w3.org/Graphics/SVG/1.1/DTD/svg11.dtd">
<!-- Generated by graphviz version 2.40.1 (20161225.0304)
 -->
<!-- Title: dependencies Pages: 1 -->
<svg width="554pt" height="211pt"
 viewBox="0.00 0.00 554.00 211.00" xmlns="http://www.w3.org/2000/svg" xmlns:xlink="http://www.w3.org/1999/xlink">
<g id="graph0" class="graph" transform="scale(1 1) rotate(0) translate(4 207)">
<title>dependencies</title>
<polygon fill="#ffffff" stroke="transparent" points="-4,4 -4,-207 550,-207 550,4 -4,4"/>
<text text-anchor="start" x="252.0091" y="-42.4" font-family="sans-serif" font-weight="bold" font-size="14.00" fill="#000000">Legend</text>
<polygon fill="#ffffb3" stroke="transparent" points="39,-10 39,-30 59,-30 59,-10 39,-10"/>
<text text-anchor="start" x="62.629" y="-15.4" font-family="sans-serif" font-size="14.00" fill="#000000"> &#160;Declarations</text>
<polygon fill="#8dd3c7" stroke="transparent" points="152,-10 152,-30 172,-30 172,-10 152,-10"/>
<text text-anchor="start" x="175.7251" y="-15.4" font-family="sans-serif" font-size="14.00" fill="#000000"> &#160;Module</text>
<polygon fill="#80b1d3" stroke="transparent" points="238,-10 238,-30 258,-30 258,-10 238,-10"/>
<text text-anchor="start" x="261.7812" y="-15.4" font-family="sans-serif" font-size="14.00" fill="#000000"> &#160;Bootstrap</text>
<polygon fill="#fdb462" stroke="transparent" points="335,-10 335,-30 355,-30 355,-10 335,-10"/>
<text text-anchor="start" x="358.6732" y="-15.4" font-family="sans-serif" font-size="14.00" fill="#000000"> &#160;Providers</text>
<polygon fill="#fb8072" stroke="transparent" points="431,-10 431,-30 451,-30 451,-10 431,-10"/>
<text text-anchor="start" x="454.7258" y="-15.4" font-family="sans-serif" font-size="14.00" fill="#000000"> &#160;Exports</text>
<g id="clust1" class="cluster">
<title>cluster_DemoModule</title>
<polygon fill="none" stroke="#000000" stroke-dasharray="1,5" points="8,-70 8,-195 538,-195 538,-70 8,-70"/>
</g>
<g id="clust2" class="cluster">
<title>cluster_DemoModule_declarations</title>
<polygon fill="none" stroke="#000000" points="264,-78 264,-130 530,-130 530,-78 264,-78"/>
</g>
<g id="clust5" class="cluster">
<title>cluster_DemoModule_imports</title>
<polygon fill="none" stroke="#000000" points="16,-78 16,-130 256,-130 256,-78 16,-78"/>
</g>
<!-- HomeComponent -->
<g id="node1" class="node">
<title>HomeComponent</title>
<polygon fill="#ffffb3" stroke="#000000" points="521.5451,-122 406.4549,-122 406.4549,-86 521.5451,-86 521.5451,-122"/>
<text text-anchor="middle" x="464" y="-99.8" font-family="Times,serif" font-size="14.00" fill="#000000">HomeComponent</text>
</g>
<!-- DemoModule -->
<g id="node3" class="node">
<title>DemoModule</title>
<polygon fill="#8dd3c7" stroke="#000000" points="303.7619,-187 300.7619,-191 279.7619,-191 276.7619,-187 210.2381,-187 210.2381,-151 303.7619,-151 303.7619,-187"/>
<text text-anchor="middle" x="257" y="-164.8" font-family="Times,serif" font-size="14.00" fill="#000000">DemoModule</text>
</g>
<!-- HomeComponent&#45;&gt;DemoModule -->
<g id="edge1" class="edge">
<title>HomeComponent&#45;&gt;DemoModule</title>
<path fill="none" stroke="#000000" d="M464,-122.1061C464,-141.3391 464,-169 464,-169 464,-169 313.9715,-169 313.9715,-169"/>
<polygon fill="#000000" stroke="#000000" points="313.9715,-165.5001 303.9715,-169 313.9715,-172.5001 313.9715,-165.5001"/>
</g>
<!-- DemoComponent -->
<g id="node2" class="node">
<title>DemoComponent</title>
<polygon fill="#ffffb3" stroke="#000000" points="387.5451,-122 272.4549,-122 272.4549,-86 387.5451,-86 387.5451,-122"/>
<text text-anchor="middle" x="330" y="-99.8" font-family="Times,serif" font-size="14.00" fill="#000000">DemoComponent</text>
</g>
<!-- DemoComponent&#45;&gt;DemoModule -->
<g id="edge2" class="edge">
<title>DemoComponent&#45;&gt;DemoModule</title>
<path fill="none" stroke="#000000" d="M288.0544,-122.1061C288.0544,-122.1061 288.0544,-140.991 288.0544,-140.991"/>
<polygon fill="#000000" stroke="#000000" points="284.5544,-140.9909 288.0544,-150.991 291.5544,-140.991 284.5544,-140.9909"/>
</g>
<!-- MapModuleSample -->
<g id="node4" class="node">
<title>MapModuleSample</title>
<polygon fill="#8dd3c7" stroke="#000000" points="247.7022,-122 244.7022,-126 223.7022,-126 220.7022,-122 120.2978,-122 120.2978,-86 247.7022,-86 247.7022,-122"/>
<text text-anchor="middle" x="184" y="-99.8" font-family="Times,serif" font-size="14.00" fill="#000000">MapModuleSample</text>
</g>
<!-- MapModuleSample&#45;&gt;DemoModule -->
<g id="edge3" class="edge">
<title>MapModuleSample&#45;&gt;DemoModule</title>
<path fill="none" stroke="#000000" d="M228.8601,-122.1061C228.8601,-122.1061 228.8601,-140.991 228.8601,-140.991"/>
<polygon fill="#000000" stroke="#000000" points="225.3602,-140.9909 228.8601,-150.991 232.3602,-140.991 225.3602,-140.9909"/>
</g>
<!-- DemoSDK -->
<g id="node5" class="node">
<title>DemoSDK</title>
<polygon fill="#8dd3c7" stroke="#000000" points="102.2079,-122 99.2079,-126 78.2079,-126 75.2079,-122 23.7921,-122 23.7921,-86 102.2079,-86 102.2079,-122"/>
<text text-anchor="middle" x="63" y="-99.8" font-family="Times,serif" font-size="14.00" fill="#000000">DemoSDK</text>
</g>
<!-- DemoSDK&#45;&gt;DemoModule -->
<g id="edge4" class="edge">
<title>DemoSDK&#45;&gt;DemoModule</title>
<path fill="none" stroke="#000000" d="M63,-122.1061C63,-141.3391 63,-169 63,-169 63,-169 200.038,-169 200.038,-169"/>
<polygon fill="#000000" stroke="#000000" points="200.038,-172.5001 210.038,-169 200.038,-165.5001 200.038,-172.5001"/>
</g>
</g>
</svg>
