<?xml version="1.0" encoding="UTF-8" standalone="no"?>
<!DOCTYPE svg PUBLIC "-//W3C//DTD SVG 1.1//EN"
 "http://www.w3.org/Graphics/SVG/1.1/DTD/svg11.dtd">
<!-- Generated by graphviz version 2.40.1 (20161225.0304)
 -->
<!-- Title: dependencies Pages: 1 -->
<svg width="543pt" height="284pt"
 viewBox="0.00 0.00 543.00 284.00" xmlns="http://www.w3.org/2000/svg" xmlns:xlink="http://www.w3.org/1999/xlink">
<g id="graph0" class="graph" transform="scale(1 1) rotate(0) translate(4 280)">
<title>dependencies</title>
<polygon fill="#ffffff" stroke="transparent" points="-4,4 -4,-280 539,-280 539,4 -4,4"/>
<text text-anchor="start" x="246.5091" y="-42.4" font-family="sans-serif" font-weight="bold" font-size="14.00" fill="#000000">Legend</text>
<polygon fill="#ffffb3" stroke="transparent" points="33.5,-10 33.5,-30 53.5,-30 53.5,-10 33.5,-10"/>
<text text-anchor="start" x="57.129" y="-15.4" font-family="sans-serif" font-size="14.00" fill="#000000"> &#160;Declarations</text>
<polygon fill="#8dd3c7" stroke="transparent" points="146.5,-10 146.5,-30 166.5,-30 166.5,-10 146.5,-10"/>
<text text-anchor="start" x="170.2251" y="-15.4" font-family="sans-serif" font-size="14.00" fill="#000000"> &#160;Module</text>
<polygon fill="#80b1d3" stroke="transparent" points="232.5,-10 232.5,-30 252.5,-30 252.5,-10 232.5,-10"/>
<text text-anchor="start" x="256.2812" y="-15.4" font-family="sans-serif" font-size="14.00" fill="#000000"> &#160;Bootstrap</text>
<polygon fill="#fdb462" stroke="transparent" points="329.5,-10 329.5,-30 349.5,-30 349.5,-10 329.5,-10"/>
<text text-anchor="start" x="353.1732" y="-15.4" font-family="sans-serif" font-size="14.00" fill="#000000"> &#160;Providers</text>
<polygon fill="#fb8072" stroke="transparent" points="425.5,-10 425.5,-30 445.5,-30 445.5,-10 425.5,-10"/>
<text text-anchor="start" x="449.2258" y="-15.4" font-family="sans-serif" font-size="14.00" fill="#000000"> &#160;Exports</text>
<g id="clust1" class="cluster">
<title>cluster_ThemeModule</title>
<polygon fill="none" stroke="#000000" stroke-dasharray="1,5" points="8,-70 8,-268 527,-268 527,-70 8,-70"/>
</g>
<g id="clust2" class="cluster">
<title>cluster_ThemeModule_declarations</title>
<polygon fill="none" stroke="#000000" points="333,-78 333,-130 519,-130 519,-78 333,-78"/>
</g>
<g id="clust4" class="cluster">
<title>cluster_ThemeModule_imports</title>
<polygon fill="none" stroke="#000000" points="16,-78 16,-130 325,-130 325,-78 16,-78"/>
</g>
<g id="clust5" class="cluster">
<title>cluster_ThemeModule_exports</title>
<polygon fill="none" stroke="#000000" points="149,-208 149,-260 339,-260 339,-208 149,-208"/>
</g>
<!-- ThemeManagerComponent -->
<g id="node1" class="node">
<title>ThemeManagerComponent</title>
<polygon fill="#ffffb3" stroke="#000000" points="510.9538,-122 341.0462,-122 341.0462,-86 510.9538,-86 510.9538,-122"/>
<text text-anchor="middle" x="426" y="-99.8" font-family="Times,serif" font-size="14.00" fill="#000000">ThemeManagerComponent</text>
</g>
<!-- ThemeModule -->
<g id="node2" class="node">
<title>ThemeModule</title>
<polygon fill="#8dd3c7" stroke="#000000" points="293.4231,-187 290.4231,-191 269.4231,-191 266.4231,-187 194.5769,-187 194.5769,-151 293.4231,-151 293.4231,-187"/>
<text text-anchor="middle" x="244" y="-164.8" font-family="Times,serif" font-size="14.00" fill="#000000">ThemeModule</text>
</g>
<!-- ThemeManagerComponent&#45;&gt;ThemeModule -->
<g id="edge1" class="edge">
<title>ThemeManagerComponent&#45;&gt;ThemeModule</title>
<path fill="none" stroke="#000000" d="M426,-122.1061C426,-141.3391 426,-169 426,-169 426,-169 303.2518,-169 303.2518,-169"/>
<polygon fill="#000000" stroke="#000000" points="303.2519,-165.5001 293.2518,-169 303.2518,-172.5001 303.2519,-165.5001"/>
</g>
<!-- ThemeManagerComponent  -->
<g id="node5" class="node">
<title>ThemeManagerComponent </title>
<polygon fill="#fb8072" stroke="#000000" points="330.9544,-252 157.0456,-252 157.0456,-216 330.9544,-216 330.9544,-252"/>
<text text-anchor="middle" x="244" y="-229.8" font-family="Times,serif" font-size="14.00" fill="#000000">ThemeManagerComponent </text>
</g>
<!-- ThemeModule&#45;&gt;ThemeManagerComponent  -->
<g id="edge4" class="edge">
<title>ThemeModule&#45;&gt;ThemeManagerComponent </title>
<path fill="none" stroke="#000000" stroke-dasharray="5,2" d="M244,-187.1061C244,-187.1061 244,-205.991 244,-205.991"/>
<polygon fill="#000000" stroke="#000000" points="240.5001,-205.9909 244,-215.991 247.5001,-205.991 240.5001,-205.9909"/>
</g>
<!-- DefiContainersModule -->
<g id="node3" class="node">
<title>DefiContainersModule</title>
<polygon fill="#8dd3c7" stroke="#000000" points="316.5744,-122 313.5744,-126 292.5744,-126 289.5744,-122 171.4256,-122 171.4256,-86 316.5744,-86 316.5744,-122"/>
<text text-anchor="middle" x="244" y="-99.8" font-family="Times,serif" font-size="14.00" fill="#000000">DefiContainersModule</text>
</g>
<!-- DefiContainersModule&#45;&gt;ThemeModule -->
<g id="edge2" class="edge">
<title>DefiContainersModule&#45;&gt;ThemeModule</title>
<path fill="none" stroke="#000000" d="M244,-122.1061C244,-122.1061 244,-140.991 244,-140.991"/>
<polygon fill="#000000" stroke="#000000" points="240.5001,-140.9909 244,-150.991 247.5001,-140.991 240.5001,-140.9909"/>
</g>
<!-- DefiOverlayModule -->
<g id="node4" class="node">
<title>DefiOverlayModule</title>
<polygon fill="#8dd3c7" stroke="#000000" points="153.5101,-122 150.5101,-126 129.5101,-126 126.5101,-122 24.4899,-122 24.4899,-86 153.5101,-86 153.5101,-122"/>
<text text-anchor="middle" x="89" y="-99.8" font-family="Times,serif" font-size="14.00" fill="#000000">DefiOverlayModule</text>
</g>
<!-- DefiOverlayModule&#45;&gt;ThemeModule -->
<g id="edge3" class="edge">
<title>DefiOverlayModule&#45;&gt;ThemeModule</title>
<path fill="none" stroke="#000000" d="M89,-122.1061C89,-141.3391 89,-169 89,-169 89,-169 184.5309,-169 184.5309,-169"/>
<polygon fill="#000000" stroke="#000000" points="184.5309,-172.5001 194.5309,-169 184.5308,-165.5001 184.5309,-172.5001"/>
</g>
</g>
</svg>
