<?xml version="1.0" encoding="UTF-8" standalone="no"?>
<!DOCTYPE svg PUBLIC "-//W3C//DTD SVG 1.1//EN"
 "http://www.w3.org/Graphics/SVG/1.1/DTD/svg11.dtd">
<!-- Generated by graphviz version 2.40.1 (20161225.0304)
 -->
<!-- Title: dependencies Pages: 1 -->
<svg width="504pt" height="284pt"
 viewBox="0.00 0.00 504.00 284.00" xmlns="http://www.w3.org/2000/svg" xmlns:xlink="http://www.w3.org/1999/xlink">
<g id="graph0" class="graph" transform="scale(1 1) rotate(0) translate(4 280)">
<title>dependencies</title>
<polygon fill="#ffffff" stroke="transparent" points="-4,4 -4,-280 500,-280 500,4 -4,4"/>
<text text-anchor="start" x="227.0091" y="-42.4" font-family="sans-serif" font-weight="bold" font-size="14.00" fill="#000000">Legend</text>
<polygon fill="#ffffb3" stroke="transparent" points="14,-10 14,-30 34,-30 34,-10 14,-10"/>
<text text-anchor="start" x="37.629" y="-15.4" font-family="sans-serif" font-size="14.00" fill="#000000"> &#160;Declarations</text>
<polygon fill="#8dd3c7" stroke="transparent" points="127,-10 127,-30 147,-30 147,-10 127,-10"/>
<text text-anchor="start" x="150.7251" y="-15.4" font-family="sans-serif" font-size="14.00" fill="#000000"> &#160;Module</text>
<polygon fill="#80b1d3" stroke="transparent" points="213,-10 213,-30 233,-30 233,-10 213,-10"/>
<text text-anchor="start" x="236.7812" y="-15.4" font-family="sans-serif" font-size="14.00" fill="#000000"> &#160;Bootstrap</text>
<polygon fill="#fdb462" stroke="transparent" points="310,-10 310,-30 330,-30 330,-10 310,-10"/>
<text text-anchor="start" x="333.6732" y="-15.4" font-family="sans-serif" font-size="14.00" fill="#000000"> &#160;Providers</text>
<polygon fill="#fb8072" stroke="transparent" points="406,-10 406,-30 426,-30 426,-10 406,-10"/>
<text text-anchor="start" x="429.7258" y="-15.4" font-family="sans-serif" font-size="14.00" fill="#000000"> &#160;Exports</text>
<g id="clust1" class="cluster">
<title>cluster_DefiDisplayModule</title>
<polygon fill="none" stroke="#000000" stroke-dasharray="1,5" points="63.5,-70 63.5,-268 432.5,-268 432.5,-70 63.5,-70"/>
</g>
<g id="clust2" class="cluster">
<title>cluster_DefiDisplayModule_declarations</title>
<polygon fill="none" stroke="#000000" points="75.5,-78 75.5,-130 421.5,-130 421.5,-78 75.5,-78"/>
</g>
<g id="clust6" class="cluster">
<title>cluster_DefiDisplayModule_exports</title>
<polygon fill="none" stroke="#000000" points="71.5,-208 71.5,-260 424.5,-260 424.5,-208 71.5,-208"/>
</g>
<!-- DefiDisplayComponent -->
<g id="node1" class="node">
<title>DefiDisplayComponent</title>
<polygon fill="#ffffb3" stroke="#000000" points="413.252,-122 263.748,-122 263.748,-86 413.252,-86 413.252,-122"/>
<text text-anchor="middle" x="338.5" y="-99.8" font-family="Times,serif" font-size="14.00" fill="#000000">DefiDisplayComponent</text>
</g>
<!-- DefiDisplayModule -->
<g id="node3" class="node">
<title>DefiDisplayModule</title>
<polygon fill="#8dd3c7" stroke="#000000" points="229.4692,-187 226.4692,-191 205.4692,-191 202.4692,-187 101.5308,-187 101.5308,-151 229.4692,-151 229.4692,-187"/>
<text text-anchor="middle" x="165.5" y="-164.8" font-family="Times,serif" font-size="14.00" fill="#000000">DefiDisplayModule</text>
</g>
<!-- DefiDisplayComponent&#45;&gt;DefiDisplayModule -->
<g id="edge1" class="edge">
<title>DefiDisplayComponent&#45;&gt;DefiDisplayModule</title>
<path fill="none" stroke="#000000" d="M363.4586,-122.0225C363.4586,-139.3734 363.4586,-163 363.4586,-163 363.4586,-163 239.4981,-163 239.4981,-163"/>
<polygon fill="#000000" stroke="#000000" points="239.4982,-159.5001 229.4981,-163 239.4981,-166.5001 239.4982,-159.5001"/>
</g>
<!-- DefiDisplayItemDirective -->
<g id="node2" class="node">
<title>DefiDisplayItemDirective</title>
<polygon fill="#ffffb3" stroke="#000000" points="245.6587,-122 83.3413,-122 83.3413,-86 245.6587,-86 245.6587,-122"/>
<text text-anchor="middle" x="164.5" y="-99.8" font-family="Times,serif" font-size="14.00" fill="#000000">DefiDisplayItemDirective</text>
</g>
<!-- DefiDisplayItemDirective&#45;&gt;DefiDisplayModule -->
<g id="edge2" class="edge">
<title>DefiDisplayItemDirective&#45;&gt;DefiDisplayModule</title>
<path fill="none" stroke="#000000" d="M165.5,-122.1061C165.5,-122.1061 165.5,-140.991 165.5,-140.991"/>
<polygon fill="#000000" stroke="#000000" points="162.0001,-140.9909 165.5,-150.991 169.0001,-140.991 162.0001,-140.9909"/>
</g>
<!-- DefiDisplayComponent  -->
<g id="node4" class="node">
<title>DefiDisplayComponent </title>
<polygon fill="#fb8072" stroke="#000000" points="416.252,-252 262.748,-252 262.748,-216 416.252,-216 416.252,-252"/>
<text text-anchor="middle" x="339.5" y="-229.8" font-family="Times,serif" font-size="14.00" fill="#000000">DefiDisplayComponent </text>
</g>
<!-- DefiDisplayModule&#45;&gt;DefiDisplayComponent  -->
<g id="edge3" class="edge">
<title>DefiDisplayModule&#45;&gt;DefiDisplayComponent </title>
<path fill="none" stroke="#000000" stroke-dasharray="5,2" d="M229.5721,-175C269.582,-175 313.5414,-175 313.5414,-175 313.5414,-175 313.5414,-205.9775 313.5414,-205.9775"/>
<polygon fill="#000000" stroke="#000000" points="310.0415,-205.9774 313.5414,-215.9775 317.0415,-205.9775 310.0415,-205.9774"/>
</g>
<!-- DefiDisplayItemDirective  -->
<g id="node5" class="node">
<title>DefiDisplayItemDirective </title>
<polygon fill="#fb8072" stroke="#000000" points="245.159,-252 79.841,-252 79.841,-216 245.159,-216 245.159,-252"/>
<text text-anchor="middle" x="162.5" y="-229.8" font-family="Times,serif" font-size="14.00" fill="#000000">DefiDisplayItemDirective </text>
</g>
<!-- DefiDisplayModule&#45;&gt;DefiDisplayItemDirective  -->
<g id="edge4" class="edge">
<title>DefiDisplayModule&#45;&gt;DefiDisplayItemDirective </title>
<path fill="none" stroke="#000000" stroke-dasharray="5,2" d="M165.5,-187.1061C165.5,-187.1061 165.5,-205.991 165.5,-205.991"/>
<polygon fill="#000000" stroke="#000000" points="162.0001,-205.9909 165.5,-215.991 169.0001,-205.991 162.0001,-205.9909"/>
</g>
</g>
</svg>
