<?xml version="1.0" encoding="UTF-8" standalone="no"?>
<!DOCTYPE svg PUBLIC "-//W3C//DTD SVG 1.1//EN"
 "http://www.w3.org/Graphics/SVG/1.1/DTD/svg11.dtd">
<!-- Generated by graphviz version 2.40.1 (20161225.0304)
 -->
<!-- Title: dependencies Pages: 1 -->
<svg width="1037pt" height="284pt"
 viewBox="0.00 0.00 1037.00 284.00" xmlns="http://www.w3.org/2000/svg" xmlns:xlink="http://www.w3.org/1999/xlink">
<g id="graph0" class="graph" transform="scale(1 1) rotate(0) translate(4 280)">
<title>dependencies</title>
<polygon fill="#ffffff" stroke="transparent" points="-4,4 -4,-280 1033,-280 1033,4 -4,4"/>
<text text-anchor="start" x="493.5091" y="-42.4" font-family="sans-serif" font-weight="bold" font-size="14.00" fill="#000000">Legend</text>
<polygon fill="#ffffb3" stroke="transparent" points="280.5,-10 280.5,-30 300.5,-30 300.5,-10 280.5,-10"/>
<text text-anchor="start" x="304.129" y="-15.4" font-family="sans-serif" font-size="14.00" fill="#000000"> &#160;Declarations</text>
<polygon fill="#8dd3c7" stroke="transparent" points="393.5,-10 393.5,-30 413.5,-30 413.5,-10 393.5,-10"/>
<text text-anchor="start" x="417.2251" y="-15.4" font-family="sans-serif" font-size="14.00" fill="#000000"> &#160;Module</text>
<polygon fill="#80b1d3" stroke="transparent" points="479.5,-10 479.5,-30 499.5,-30 499.5,-10 479.5,-10"/>
<text text-anchor="start" x="503.2812" y="-15.4" font-family="sans-serif" font-size="14.00" fill="#000000"> &#160;Bootstrap</text>
<polygon fill="#fdb462" stroke="transparent" points="576.5,-10 576.5,-30 596.5,-30 596.5,-10 576.5,-10"/>
<text text-anchor="start" x="600.1732" y="-15.4" font-family="sans-serif" font-size="14.00" fill="#000000"> &#160;Providers</text>
<polygon fill="#fb8072" stroke="transparent" points="672.5,-10 672.5,-30 692.5,-30 692.5,-10 672.5,-10"/>
<text text-anchor="start" x="696.2258" y="-15.4" font-family="sans-serif" font-size="14.00" fill="#000000"> &#160;Exports</text>
<g id="clust1" class="cluster">
<title>cluster_AppModule</title>
<polygon fill="none" stroke="#000000" stroke-dasharray="1,5" points="8,-70 8,-268 1021,-268 1021,-70 8,-70"/>
</g>
<g id="clust2" class="cluster">
<title>cluster_AppModule_declarations</title>
<polygon fill="none" stroke="#000000" points="891,-78 891,-130 1013,-130 1013,-78 891,-78"/>
</g>
<g id="clust4" class="cluster">
<title>cluster_AppModule_imports</title>
<polygon fill="none" stroke="#000000" points="16,-78 16,-130 883,-130 883,-78 16,-78"/>
</g>
<g id="clust6" class="cluster">
<title>cluster_AppModule_bootstrap</title>
<polygon fill="none" stroke="#000000" points="463,-208 463,-260 587,-260 587,-208 463,-208"/>
</g>
<!-- AppComponent -->
<g id="node1" class="node">
<title>AppComponent</title>
<polygon fill="#ffffb3" stroke="#000000" points="1004.9399,-122 899.0601,-122 899.0601,-86 1004.9399,-86 1004.9399,-122"/>
<text text-anchor="middle" x="952" y="-99.8" font-family="Times,serif" font-size="14.00" fill="#000000">AppComponent</text>
</g>
<!-- AppModule -->
<g id="node2" class="node">
<title>AppModule</title>
<polygon fill="#8dd3c7" stroke="#000000" points="566.6571,-187 563.6571,-191 542.6571,-191 539.6571,-187 483.3429,-187 483.3429,-151 566.6571,-151 566.6571,-187"/>
<text text-anchor="middle" x="525" y="-164.8" font-family="Times,serif" font-size="14.00" fill="#000000">AppModule</text>
</g>
<!-- AppComponent&#45;&gt;AppModule -->
<g id="edge1" class="edge">
<title>AppComponent&#45;&gt;AppModule</title>
<path fill="none" stroke="#000000" d="M952,-122.2921C952,-144.2057 952,-178 952,-178 952,-178 576.72,-178 576.72,-178"/>
<polygon fill="#000000" stroke="#000000" points="576.7201,-174.5001 566.72,-178 576.72,-181.5001 576.7201,-174.5001"/>
</g>
<!-- AppComponent  -->
<g id="node9" class="node">
<title>AppComponent </title>
<polygon fill="#80b1d3" stroke="#000000" points="579.439,-252 470.561,-252 470.561,-216 579.439,-216 579.439,-252"/>
<text text-anchor="middle" x="525" y="-229.8" font-family="Times,serif" font-size="14.00" fill="#000000">AppComponent </text>
</g>
<!-- AppModule&#45;&gt;AppComponent  -->
<g id="edge8" class="edge">
<title>AppModule&#45;&gt;AppComponent </title>
<path fill="none" stroke="#000000" stroke-dasharray="1,5" d="M525,-187.1061C525,-187.1061 525,-205.991 525,-205.991"/>
<polygon fill="#000000" stroke="#000000" points="521.5001,-205.9909 525,-215.991 528.5001,-205.991 521.5001,-205.9909"/>
</g>
<!-- CltDemoSDKModule -->
<g id="node3" class="node">
<title>CltDemoSDKModule</title>
<polygon fill="#8dd3c7" stroke="#000000" points="875.3753,-122 872.3753,-126 851.3753,-126 848.3753,-122 736.6247,-122 736.6247,-86 875.3753,-86 875.3753,-122"/>
<text text-anchor="middle" x="806" y="-99.8" font-family="Times,serif" font-size="14.00" fill="#000000">CltDemoSDKModule</text>
</g>
<!-- CltDemoSDKModule&#45;&gt;AppModule -->
<g id="edge2" class="edge">
<title>CltDemoSDKModule&#45;&gt;AppModule</title>
<path fill="none" stroke="#000000" d="M806,-122.1061C806,-141.3391 806,-169 806,-169 806,-169 576.7651,-169 576.7651,-169"/>
<polygon fill="#000000" stroke="#000000" points="576.7652,-165.5001 566.7651,-169 576.7651,-172.5001 576.7652,-165.5001"/>
</g>
<!-- CltCoreModule -->
<g id="node4" class="node">
<title>CltCoreModule</title>
<polygon fill="#8dd3c7" stroke="#000000" points="718.8795,-122 715.8795,-126 694.8795,-126 691.8795,-122 615.1205,-122 615.1205,-86 718.8795,-86 718.8795,-122"/>
<text text-anchor="middle" x="667" y="-99.8" font-family="Times,serif" font-size="14.00" fill="#000000">CltCoreModule</text>
</g>
<!-- CltCoreModule&#45;&gt;AppModule -->
<g id="edge3" class="edge">
<title>CltCoreModule&#45;&gt;AppModule</title>
<path fill="none" stroke="#000000" d="M667,-122.027C667,-138.3976 667,-160 667,-160 667,-160 576.8367,-160 576.8367,-160"/>
<polygon fill="#000000" stroke="#000000" points="576.8367,-156.5001 566.8367,-160 576.8366,-163.5001 576.8367,-156.5001"/>
</g>
<!-- CltNavigationsModule -->
<g id="node5" class="node">
<title>CltNavigationsModule</title>
<polygon fill="#8dd3c7" stroke="#000000" points="597.3202,-122 594.3202,-126 573.3202,-126 570.3202,-122 452.6798,-122 452.6798,-86 597.3202,-86 597.3202,-122"/>
<text text-anchor="middle" x="525" y="-99.8" font-family="Times,serif" font-size="14.00" fill="#000000">CltNavigationsModule</text>
</g>
<!-- CltNavigationsModule&#45;&gt;AppModule -->
<g id="edge4" class="edge">
<title>CltNavigationsModule&#45;&gt;AppModule</title>
<path fill="none" stroke="#000000" d="M525,-122.1061C525,-122.1061 525,-140.991 525,-140.991"/>
<polygon fill="#000000" stroke="#000000" points="521.5001,-140.9909 525,-150.991 528.5001,-140.991 521.5001,-140.9909"/>
</g>
<!-- CltOverlayModule -->
<g id="node6" class="node">
<title>CltOverlayModule</title>
<polygon fill="#8dd3c7" stroke="#000000" points="434.7548,-122 431.7548,-126 410.7548,-126 407.7548,-122 313.2452,-122 313.2452,-86 434.7548,-86 434.7548,-122"/>
<text text-anchor="middle" x="374" y="-99.8" font-family="Times,serif" font-size="14.00" fill="#000000">CltOverlayModule</text>
</g>
<!-- CltOverlayModule&#45;&gt;AppModule -->
<g id="edge5" class="edge">
<title>CltOverlayModule&#45;&gt;AppModule</title>
<path fill="none" stroke="#000000" d="M374,-122.027C374,-138.3976 374,-160 374,-160 374,-160 473.3389,-160 473.3389,-160"/>
<polygon fill="#000000" stroke="#000000" points="473.3389,-163.5001 483.3389,-160 473.3388,-156.5001 473.3389,-163.5001"/>
</g>
<!-- CltThemeModule -->
<g id="node7" class="node">
<title>CltThemeModule</title>
<polygon fill="#8dd3c7" stroke="#000000" points="294.5409,-122 291.5409,-126 270.5409,-126 267.5409,-122 179.4591,-122 179.4591,-86 294.5409,-86 294.5409,-122"/>
<text text-anchor="middle" x="237" y="-99.8" font-family="Times,serif" font-size="14.00" fill="#000000">CltThemeModule</text>
</g>
<!-- CltThemeModule&#45;&gt;AppModule -->
<g id="edge6" class="edge">
<title>CltThemeModule&#45;&gt;AppModule</title>
<path fill="none" stroke="#000000" d="M237,-122.1061C237,-141.3391 237,-169 237,-169 237,-169 473.1223,-169 473.1223,-169"/>
<polygon fill="#000000" stroke="#000000" points="473.1224,-172.5001 483.1223,-169 473.1223,-165.5001 473.1224,-172.5001"/>
</g>
<!-- CltContainersModule -->
<g id="node8" class="node">
<title>CltContainersModule</title>
<polygon fill="#8dd3c7" stroke="#000000" points="161.8202,-122 158.8202,-126 137.8202,-126 134.8202,-122 24.1798,-122 24.1798,-86 161.8202,-86 161.8202,-122"/>
<text text-anchor="middle" x="93" y="-99.8" font-family="Times,serif" font-size="14.00" fill="#000000">CltContainersModule</text>
</g>
<!-- CltContainersModule&#45;&gt;AppModule -->
<g id="edge7" class="edge">
<title>CltContainersModule&#45;&gt;AppModule</title>
<path fill="none" stroke="#000000" d="M93,-122.2921C93,-144.2057 93,-178 93,-178 93,-178 473.1855,-178 473.1855,-178"/>
<polygon fill="#000000" stroke="#000000" points="473.1855,-181.5001 483.1855,-178 473.1855,-174.5001 473.1855,-181.5001"/>
</g>
</g>
</svg>
