<?xml version="1.0" encoding="UTF-8" standalone="no"?>
<!DOCTYPE svg PUBLIC "-//W3C//DTD SVG 1.1//EN"
 "http://www.w3.org/Graphics/SVG/1.1/DTD/svg11.dtd">
<!-- Generated by graphviz version 2.40.1 (20161225.0304)
 -->
<!-- Title: dependencies Pages: 1 -->
<svg width="960pt" height="284pt"
 viewBox="0.00 0.00 960.00 284.00" xmlns="http://www.w3.org/2000/svg" xmlns:xlink="http://www.w3.org/1999/xlink">
<g id="graph0" class="graph" transform="scale(1 1) rotate(0) translate(4 280)">
<title>dependencies</title>
<polygon fill="#ffffff" stroke="transparent" points="-4,4 -4,-280 956,-280 956,4 -4,4"/>
<text text-anchor="start" x="455.0091" y="-42.4" font-family="sans-serif" font-weight="bold" font-size="14.00" fill="#000000">Legend</text>
<polygon fill="#ffffb3" stroke="transparent" points="242,-10 242,-30 262,-30 262,-10 242,-10"/>
<text text-anchor="start" x="265.629" y="-15.4" font-family="sans-serif" font-size="14.00" fill="#000000"> &#160;Declarations</text>
<polygon fill="#8dd3c7" stroke="transparent" points="355,-10 355,-30 375,-30 375,-10 355,-10"/>
<text text-anchor="start" x="378.7251" y="-15.4" font-family="sans-serif" font-size="14.00" fill="#000000"> &#160;Module</text>
<polygon fill="#80b1d3" stroke="transparent" points="441,-10 441,-30 461,-30 461,-10 441,-10"/>
<text text-anchor="start" x="464.7812" y="-15.4" font-family="sans-serif" font-size="14.00" fill="#000000"> &#160;Bootstrap</text>
<polygon fill="#fdb462" stroke="transparent" points="538,-10 538,-30 558,-30 558,-10 538,-10"/>
<text text-anchor="start" x="561.6732" y="-15.4" font-family="sans-serif" font-size="14.00" fill="#000000"> &#160;Providers</text>
<polygon fill="#fb8072" stroke="transparent" points="634,-10 634,-30 654,-30 654,-10 634,-10"/>
<text text-anchor="start" x="657.7258" y="-15.4" font-family="sans-serif" font-size="14.00" fill="#000000"> &#160;Exports</text>
<g id="clust1" class="cluster">
<title>cluster_AppModule</title>
<polygon fill="none" stroke="#000000" stroke-dasharray="1,5" points="8,-70 8,-268 944,-268 944,-70 8,-70"/>
</g>
<g id="clust2" class="cluster">
<title>cluster_AppModule_declarations</title>
<polygon fill="none" stroke="#000000" points="814,-78 814,-130 936,-130 936,-78 814,-78"/>
</g>
<g id="clust4" class="cluster">
<title>cluster_AppModule_imports</title>
<polygon fill="none" stroke="#000000" points="16,-78 16,-130 806,-130 806,-78 16,-78"/>
</g>
<g id="clust6" class="cluster">
<title>cluster_AppModule_bootstrap</title>
<polygon fill="none" stroke="#000000" points="446,-208 446,-260 570,-260 570,-208 446,-208"/>
</g>
<!-- AppComponent -->
<g id="node1" class="node">
<title>AppComponent</title>
<polygon fill="#ffffb3" stroke="#000000" points="927.9399,-122 822.0601,-122 822.0601,-86 927.9399,-86 927.9399,-122"/>
<text text-anchor="middle" x="875" y="-99.8" font-family="Times,serif" font-size="14.00" fill="#000000">AppComponent</text>
</g>
<!-- AppModule -->
<g id="node2" class="node">
<title>AppModule</title>
<polygon fill="#8dd3c7" stroke="#000000" points="549.6571,-187 546.6571,-191 525.6571,-191 522.6571,-187 466.3429,-187 466.3429,-151 549.6571,-151 549.6571,-187"/>
<text text-anchor="middle" x="508" y="-164.8" font-family="Times,serif" font-size="14.00" fill="#000000">AppModule</text>
</g>
<!-- AppComponent&#45;&gt;AppModule -->
<g id="edge1" class="edge">
<title>AppComponent&#45;&gt;AppModule</title>
<path fill="none" stroke="#000000" d="M875,-122.2921C875,-144.2057 875,-178 875,-178 875,-178 559.7423,-178 559.7423,-178"/>
<polygon fill="#000000" stroke="#000000" points="559.7423,-174.5001 549.7423,-178 559.7422,-181.5001 559.7423,-174.5001"/>
</g>
<!-- AppComponent  -->
<g id="node9" class="node">
<title>AppComponent </title>
<polygon fill="#80b1d3" stroke="#000000" points="562.439,-252 453.561,-252 453.561,-216 562.439,-216 562.439,-252"/>
<text text-anchor="middle" x="508" y="-229.8" font-family="Times,serif" font-size="14.00" fill="#000000">AppComponent </text>
</g>
<!-- AppModule&#45;&gt;AppComponent  -->
<g id="edge8" class="edge">
<title>AppModule&#45;&gt;AppComponent </title>
<path fill="none" stroke="#000000" stroke-dasharray="1,5" d="M508,-187.1061C508,-187.1061 508,-205.991 508,-205.991"/>
<polygon fill="#000000" stroke="#000000" points="504.5001,-205.9909 508,-215.991 511.5001,-205.991 504.5001,-205.9909"/>
</g>
<!-- DemoSDK -->
<g id="node3" class="node">
<title>DemoSDK</title>
<polygon fill="#8dd3c7" stroke="#000000" points="798.2079,-122 795.2079,-126 774.2079,-126 771.2079,-122 719.7921,-122 719.7921,-86 798.2079,-86 798.2079,-122"/>
<text text-anchor="middle" x="759" y="-99.8" font-family="Times,serif" font-size="14.00" fill="#000000">DemoSDK</text>
</g>
<!-- DemoSDK&#45;&gt;AppModule -->
<g id="edge2" class="edge">
<title>DemoSDK&#45;&gt;AppModule</title>
<path fill="none" stroke="#000000" d="M759,-122.1061C759,-141.3391 759,-169 759,-169 759,-169 559.7293,-169 559.7293,-169"/>
<polygon fill="#000000" stroke="#000000" points="559.7293,-165.5001 549.7293,-169 559.7293,-172.5001 559.7293,-165.5001"/>
</g>
<!-- CltCoreModule -->
<g id="node4" class="node">
<title>CltCoreModule</title>
<polygon fill="#8dd3c7" stroke="#000000" points="701.8795,-122 698.8795,-126 677.8795,-126 674.8795,-122 598.1205,-122 598.1205,-86 701.8795,-86 701.8795,-122"/>
<text text-anchor="middle" x="650" y="-99.8" font-family="Times,serif" font-size="14.00" fill="#000000">CltCoreModule</text>
</g>
<!-- CltCoreModule&#45;&gt;AppModule -->
<g id="edge3" class="edge">
<title>CltCoreModule&#45;&gt;AppModule</title>
<path fill="none" stroke="#000000" d="M650,-122.027C650,-138.3976 650,-160 650,-160 650,-160 559.8367,-160 559.8367,-160"/>
<polygon fill="#000000" stroke="#000000" points="559.8367,-156.5001 549.8367,-160 559.8366,-163.5001 559.8367,-156.5001"/>
</g>
<!-- CltNavigationsModule -->
<g id="node5" class="node">
<title>CltNavigationsModule</title>
<polygon fill="#8dd3c7" stroke="#000000" points="580.3202,-122 577.3202,-126 556.3202,-126 553.3202,-122 435.6798,-122 435.6798,-86 580.3202,-86 580.3202,-122"/>
<text text-anchor="middle" x="508" y="-99.8" font-family="Times,serif" font-size="14.00" fill="#000000">CltNavigationsModule</text>
</g>
<!-- CltNavigationsModule&#45;&gt;AppModule -->
<g id="edge4" class="edge">
<title>CltNavigationsModule&#45;&gt;AppModule</title>
<path fill="none" stroke="#000000" d="M508,-122.1061C508,-122.1061 508,-140.991 508,-140.991"/>
<polygon fill="#000000" stroke="#000000" points="504.5001,-140.9909 508,-150.991 511.5001,-140.991 504.5001,-140.9909"/>
</g>
<!-- CltOverlayModule -->
<g id="node6" class="node">
<title>CltOverlayModule</title>
<polygon fill="#8dd3c7" stroke="#000000" points="417.7548,-122 414.7548,-126 393.7548,-126 390.7548,-122 296.2452,-122 296.2452,-86 417.7548,-86 417.7548,-122"/>
<text text-anchor="middle" x="357" y="-99.8" font-family="Times,serif" font-size="14.00" fill="#000000">CltOverlayModule</text>
</g>
<!-- CltOverlayModule&#45;&gt;AppModule -->
<g id="edge5" class="edge">
<title>CltOverlayModule&#45;&gt;AppModule</title>
<path fill="none" stroke="#000000" d="M357,-122.027C357,-138.3976 357,-160 357,-160 357,-160 456.3389,-160 456.3389,-160"/>
<polygon fill="#000000" stroke="#000000" points="456.3389,-163.5001 466.3389,-160 456.3388,-156.5001 456.3389,-163.5001"/>
</g>
<!-- ThemeModule -->
<g id="node7" class="node">
<title>ThemeModule</title>
<polygon fill="#8dd3c7" stroke="#000000" points="278.4231,-122 275.4231,-126 254.4231,-126 251.4231,-122 179.5769,-122 179.5769,-86 278.4231,-86 278.4231,-122"/>
<text text-anchor="middle" x="229" y="-99.8" font-family="Times,serif" font-size="14.00" fill="#000000">ThemeModule</text>
</g>
<!-- ThemeModule&#45;&gt;AppModule -->
<g id="edge6" class="edge">
<title>ThemeModule&#45;&gt;AppModule</title>
<path fill="none" stroke="#000000" d="M229,-122.1061C229,-141.3391 229,-169 229,-169 229,-169 456.2309,-169 456.2309,-169"/>
<polygon fill="#000000" stroke="#000000" points="456.2309,-172.5001 466.2309,-169 456.2308,-165.5001 456.2309,-172.5001"/>
</g>
<!-- CltContainersModule -->
<g id="node8" class="node">
<title>CltContainersModule</title>
<polygon fill="#8dd3c7" stroke="#000000" points="161.8202,-122 158.8202,-126 137.8202,-126 134.8202,-122 24.1798,-122 24.1798,-86 161.8202,-86 161.8202,-122"/>
<text text-anchor="middle" x="93" y="-99.8" font-family="Times,serif" font-size="14.00" fill="#000000">CltContainersModule</text>
</g>
<!-- CltContainersModule&#45;&gt;AppModule -->
<g id="edge7" class="edge">
<title>CltContainersModule&#45;&gt;AppModule</title>
<path fill="none" stroke="#000000" d="M93,-122.2921C93,-144.2057 93,-178 93,-178 93,-178 456.3081,-178 456.3081,-178"/>
<polygon fill="#000000" stroke="#000000" points="456.3081,-181.5001 466.3081,-178 456.3081,-174.5001 456.3081,-181.5001"/>
</g>
</g>
</svg>
