<?xml version="1.0" encoding="UTF-8" standalone="no"?>
<!DOCTYPE svg PUBLIC "-//W3C//DTD SVG 1.1//EN"
 "http://www.w3.org/Graphics/SVG/1.1/DTD/svg11.dtd">
<!-- Generated by graphviz version 2.40.1 (20161225.0304)
 -->
<!-- Title: dependencies Pages: 1 -->
<svg width="614pt" height="211pt"
 viewBox="0.00 0.00 614.00 211.00" xmlns="http://www.w3.org/2000/svg" xmlns:xlink="http://www.w3.org/1999/xlink">
<g id="graph0" class="graph" transform="scale(1 1) rotate(0) translate(4 207)">
<title>dependencies</title>
<polygon fill="#ffffff" stroke="transparent" points="-4,4 -4,-207 610,-207 610,4 -4,4"/>
<text text-anchor="start" x="282.0091" y="-42.4" font-family="sans-serif" font-weight="bold" font-size="14.00" fill="#000000">Legend</text>
<polygon fill="#ffffb3" stroke="transparent" points="69,-10 69,-30 89,-30 89,-10 69,-10"/>
<text text-anchor="start" x="92.629" y="-15.4" font-family="sans-serif" font-size="14.00" fill="#000000"> &#160;Declarations</text>
<polygon fill="#8dd3c7" stroke="transparent" points="182,-10 182,-30 202,-30 202,-10 182,-10"/>
<text text-anchor="start" x="205.7251" y="-15.4" font-family="sans-serif" font-size="14.00" fill="#000000"> &#160;Module</text>
<polygon fill="#80b1d3" stroke="transparent" points="268,-10 268,-30 288,-30 288,-10 268,-10"/>
<text text-anchor="start" x="291.7812" y="-15.4" font-family="sans-serif" font-size="14.00" fill="#000000"> &#160;Bootstrap</text>
<polygon fill="#fdb462" stroke="transparent" points="365,-10 365,-30 385,-30 385,-10 365,-10"/>
<text text-anchor="start" x="388.6732" y="-15.4" font-family="sans-serif" font-size="14.00" fill="#000000"> &#160;Providers</text>
<polygon fill="#fb8072" stroke="transparent" points="461,-10 461,-30 481,-30 481,-10 461,-10"/>
<text text-anchor="start" x="484.7258" y="-15.4" font-family="sans-serif" font-size="14.00" fill="#000000"> &#160;Exports</text>
<g id="clust1" class="cluster">
<title>cluster_DemoModule</title>
<polygon fill="none" stroke="#000000" stroke-dasharray="1,5" points="8,-70 8,-195 598,-195 598,-70 8,-70"/>
</g>
<g id="clust2" class="cluster">
<title>cluster_DemoModule_declarations</title>
<polygon fill="none" stroke="#000000" points="324,-78 324,-130 590,-130 590,-78 324,-78"/>
</g>
<g id="clust5" class="cluster">
<title>cluster_DemoModule_imports</title>
<polygon fill="none" stroke="#000000" points="16,-78 16,-130 316,-130 316,-78 16,-78"/>
</g>
<!-- HomeComponent -->
<g id="node1" class="node">
<title>HomeComponent</title>
<polygon fill="#ffffb3" stroke="#000000" points="581.5451,-122 466.4549,-122 466.4549,-86 581.5451,-86 581.5451,-122"/>
<text text-anchor="middle" x="524" y="-99.8" font-family="Times,serif" font-size="14.00" fill="#000000">HomeComponent</text>
</g>
<!-- DemoModule -->
<g id="node3" class="node">
<title>DemoModule</title>
<polygon fill="#8dd3c7" stroke="#000000" points="363.7619,-187 360.7619,-191 339.7619,-191 336.7619,-187 270.2381,-187 270.2381,-151 363.7619,-151 363.7619,-187"/>
<text text-anchor="middle" x="317" y="-164.8" font-family="Times,serif" font-size="14.00" fill="#000000">DemoModule</text>
</g>
<!-- HomeComponent&#45;&gt;DemoModule -->
<g id="edge1" class="edge">
<title>HomeComponent&#45;&gt;DemoModule</title>
<path fill="none" stroke="#000000" d="M524,-122.1061C524,-141.3391 524,-169 524,-169 524,-169 373.9715,-169 373.9715,-169"/>
<polygon fill="#000000" stroke="#000000" points="373.9715,-165.5001 363.9715,-169 373.9715,-172.5001 373.9715,-165.5001"/>
</g>
<!-- DemoComponent -->
<g id="node2" class="node">
<title>DemoComponent</title>
<polygon fill="#ffffb3" stroke="#000000" points="447.5451,-122 332.4549,-122 332.4549,-86 447.5451,-86 447.5451,-122"/>
<text text-anchor="middle" x="390" y="-99.8" font-family="Times,serif" font-size="14.00" fill="#000000">DemoComponent</text>
</g>
<!-- DemoComponent&#45;&gt;DemoModule -->
<g id="edge2" class="edge">
<title>DemoComponent&#45;&gt;DemoModule</title>
<path fill="none" stroke="#000000" d="M348.0544,-122.1061C348.0544,-122.1061 348.0544,-140.991 348.0544,-140.991"/>
<polygon fill="#000000" stroke="#000000" points="344.5544,-140.9909 348.0544,-150.991 351.5544,-140.991 344.5544,-140.9909"/>
</g>
<!-- MapModuleSample -->
<g id="node4" class="node">
<title>MapModuleSample</title>
<polygon fill="#8dd3c7" stroke="#000000" points="307.7022,-122 304.7022,-126 283.7022,-126 280.7022,-122 180.2978,-122 180.2978,-86 307.7022,-86 307.7022,-122"/>
<text text-anchor="middle" x="244" y="-99.8" font-family="Times,serif" font-size="14.00" fill="#000000">MapModuleSample</text>
</g>
<!-- MapModuleSample&#45;&gt;DemoModule -->
<g id="edge3" class="edge">
<title>MapModuleSample&#45;&gt;DemoModule</title>
<path fill="none" stroke="#000000" d="M288.8601,-122.1061C288.8601,-122.1061 288.8601,-140.991 288.8601,-140.991"/>
<polygon fill="#000000" stroke="#000000" points="285.3602,-140.9909 288.8601,-150.991 292.3602,-140.991 285.3602,-140.9909"/>
</g>
<!-- CltDemoSDKModule -->
<g id="node5" class="node">
<title>CltDemoSDKModule</title>
<polygon fill="#8dd3c7" stroke="#000000" points="162.3753,-122 159.3753,-126 138.3753,-126 135.3753,-122 23.6247,-122 23.6247,-86 162.3753,-86 162.3753,-122"/>
<text text-anchor="middle" x="93" y="-99.8" font-family="Times,serif" font-size="14.00" fill="#000000">CltDemoSDKModule</text>
</g>
<!-- CltDemoSDKModule&#45;&gt;DemoModule -->
<g id="edge4" class="edge">
<title>CltDemoSDKModule&#45;&gt;DemoModule</title>
<path fill="none" stroke="#000000" d="M93,-122.1061C93,-141.3391 93,-169 93,-169 93,-169 260.0423,-169 260.0423,-169"/>
<polygon fill="#000000" stroke="#000000" points="260.0423,-172.5001 270.0423,-169 260.0422,-165.5001 260.0423,-172.5001"/>
</g>
</g>
</svg>
