<?xml version="1.0" encoding="UTF-8" standalone="no"?>
<!DOCTYPE svg PUBLIC "-//W3C//DTD SVG 1.1//EN"
 "http://www.w3.org/Graphics/SVG/1.1/DTD/svg11.dtd">
<!-- Generated by graphviz version 2.40.1 (20161225.0304)
 -->
<!-- Title: dependencies Pages: 1 -->
<svg width="1051pt" height="211pt"
 viewBox="0.00 0.00 1051.00 211.00" xmlns="http://www.w3.org/2000/svg" xmlns:xlink="http://www.w3.org/1999/xlink">
<g id="graph0" class="graph" transform="scale(1 1) rotate(0) translate(4 207)">
<title>dependencies</title>
<polygon fill="#ffffff" stroke="transparent" points="-4,4 -4,-207 1047,-207 1047,4 -4,4"/>
<text text-anchor="start" x="500.5091" y="-42.4" font-family="sans-serif" font-weight="bold" font-size="14.00" fill="#000000">Legend</text>
<polygon fill="#ffffb3" stroke="transparent" points="287.5,-10 287.5,-30 307.5,-30 307.5,-10 287.5,-10"/>
<text text-anchor="start" x="311.129" y="-15.4" font-family="sans-serif" font-size="14.00" fill="#000000"> &#160;Declarations</text>
<polygon fill="#8dd3c7" stroke="transparent" points="400.5,-10 400.5,-30 420.5,-30 420.5,-10 400.5,-10"/>
<text text-anchor="start" x="424.2251" y="-15.4" font-family="sans-serif" font-size="14.00" fill="#000000"> &#160;Module</text>
<polygon fill="#80b1d3" stroke="transparent" points="486.5,-10 486.5,-30 506.5,-30 506.5,-10 486.5,-10"/>
<text text-anchor="start" x="510.2812" y="-15.4" font-family="sans-serif" font-size="14.00" fill="#000000"> &#160;Bootstrap</text>
<polygon fill="#fdb462" stroke="transparent" points="583.5,-10 583.5,-30 603.5,-30 603.5,-10 583.5,-10"/>
<text text-anchor="start" x="607.1732" y="-15.4" font-family="sans-serif" font-size="14.00" fill="#000000"> &#160;Providers</text>
<polygon fill="#fb8072" stroke="transparent" points="679.5,-10 679.5,-30 699.5,-30 699.5,-10 679.5,-10"/>
<text text-anchor="start" x="703.2258" y="-15.4" font-family="sans-serif" font-size="14.00" fill="#000000"> &#160;Exports</text>
<g id="clust1" class="cluster">
<title>cluster_DemoModule</title>
<polygon fill="none" stroke="#000000" stroke-dasharray="1,5" points="8,-70 8,-195 1035,-195 1035,-70 8,-70"/>
</g>
<g id="clust2" class="cluster">
<title>cluster_DemoModule_declarations</title>
<polygon fill="none" stroke="#000000" points="771,-78 771,-130 1027,-130 1027,-78 771,-78"/>
</g>
<g id="clust5" class="cluster">
<title>cluster_DemoModule_imports</title>
<polygon fill="none" stroke="#000000" points="16,-78 16,-130 763,-130 763,-78 16,-78"/>
</g>
<!-- MapComponent -->
<g id="node1" class="node">
<title>MapComponent</title>
<polygon fill="#ffffb3" stroke="#000000" points="1019.4916,-122 912.5084,-122 912.5084,-86 1019.4916,-86 1019.4916,-122"/>
<text text-anchor="middle" x="966" y="-99.8" font-family="Times,serif" font-size="14.00" fill="#000000">MapComponent</text>
</g>
<!-- DemoModule -->
<g id="node3" class="node">
<title>DemoModule</title>
<polygon fill="#8dd3c7" stroke="#000000" points="587.7619,-187 584.7619,-191 563.7619,-191 560.7619,-187 494.2381,-187 494.2381,-151 587.7619,-151 587.7619,-187"/>
<text text-anchor="middle" x="541" y="-164.8" font-family="Times,serif" font-size="14.00" fill="#000000">DemoModule</text>
</g>
<!-- MapComponent&#45;&gt;DemoModule -->
<g id="edge1" class="edge">
<title>MapComponent&#45;&gt;DemoModule</title>
<path fill="none" stroke="#000000" d="M966,-122.2921C966,-144.2057 966,-178 966,-178 966,-178 598.1063,-178 598.1063,-178"/>
<polygon fill="#000000" stroke="#000000" points="598.1063,-174.5001 588.1063,-178 598.1062,-181.5001 598.1063,-174.5001"/>
</g>
<!-- HomeComponent -->
<g id="node2" class="node">
<title>HomeComponent</title>
<polygon fill="#ffffb3" stroke="#000000" points="894.5451,-122 779.4549,-122 779.4549,-86 894.5451,-86 894.5451,-122"/>
<text text-anchor="middle" x="837" y="-99.8" font-family="Times,serif" font-size="14.00" fill="#000000">HomeComponent</text>
</g>
<!-- HomeComponent&#45;&gt;DemoModule -->
<g id="edge2" class="edge">
<title>HomeComponent&#45;&gt;DemoModule</title>
<path fill="none" stroke="#000000" d="M837,-122.1061C837,-141.3391 837,-169 837,-169 837,-169 597.9021,-169 597.9021,-169"/>
<polygon fill="#000000" stroke="#000000" points="597.9021,-165.5001 587.9021,-169 597.902,-172.5001 597.9021,-165.5001"/>
</g>
<!-- DefiFormsModule -->
<g id="node4" class="node">
<title>DefiFormsModule</title>
<polygon fill="#8dd3c7" stroke="#000000" points="755.2008,-122 752.2008,-126 731.2008,-126 728.2008,-122 634.7992,-122 634.7992,-86 755.2008,-86 755.2008,-122"/>
<text text-anchor="middle" x="695" y="-99.8" font-family="Times,serif" font-size="14.00" fill="#000000">DefiFormsModule</text>
</g>
<!-- DefiFormsModule&#45;&gt;DemoModule -->
<g id="edge3" class="edge">
<title>DefiFormsModule&#45;&gt;DemoModule</title>
<path fill="none" stroke="#000000" d="M695,-122.027C695,-138.3976 695,-160 695,-160 695,-160 598.0419,-160 598.0419,-160"/>
<polygon fill="#000000" stroke="#000000" points="598.0419,-156.5001 588.0419,-160 598.0418,-163.5001 598.0419,-156.5001"/>
</g>
<!-- DefiNavigationsModule -->
<g id="node5" class="node">
<title>DefiNavigationsModule</title>
<polygon fill="#8dd3c7" stroke="#000000" points="617.0744,-122 614.0744,-126 593.0744,-126 590.0744,-122 464.9256,-122 464.9256,-86 617.0744,-86 617.0744,-122"/>
<text text-anchor="middle" x="541" y="-99.8" font-family="Times,serif" font-size="14.00" fill="#000000">DefiNavigationsModule</text>
</g>
<!-- DefiNavigationsModule&#45;&gt;DemoModule -->
<g id="edge4" class="edge">
<title>DefiNavigationsModule&#45;&gt;DemoModule</title>
<path fill="none" stroke="#000000" d="M541,-122.1061C541,-122.1061 541,-140.991 541,-140.991"/>
<polygon fill="#000000" stroke="#000000" points="537.5001,-140.9909 541,-150.991 544.5001,-140.991 537.5001,-140.9909"/>
</g>
<!-- DefiContainersModule -->
<g id="node6" class="node">
<title>DefiContainersModule</title>
<polygon fill="#8dd3c7" stroke="#000000" points="446.5744,-122 443.5744,-126 422.5744,-126 419.5744,-122 301.4256,-122 301.4256,-86 446.5744,-86 446.5744,-122"/>
<text text-anchor="middle" x="374" y="-99.8" font-family="Times,serif" font-size="14.00" fill="#000000">DefiContainersModule</text>
</g>
<!-- DefiContainersModule&#45;&gt;DemoModule -->
<g id="edge5" class="edge">
<title>DefiContainersModule&#45;&gt;DemoModule</title>
<path fill="none" stroke="#000000" d="M374,-122.027C374,-138.3976 374,-160 374,-160 374,-160 484.0368,-160 484.0368,-160"/>
<polygon fill="#000000" stroke="#000000" points="484.0368,-163.5001 494.0368,-160 484.0367,-156.5001 484.0368,-163.5001"/>
</g>
<!-- DefiOverlayModule -->
<g id="node7" class="node">
<title>DefiOverlayModule</title>
<polygon fill="#8dd3c7" stroke="#000000" points="283.5101,-122 280.5101,-126 259.5101,-126 256.5101,-122 154.4899,-122 154.4899,-86 283.5101,-86 283.5101,-122"/>
<text text-anchor="middle" x="219" y="-99.8" font-family="Times,serif" font-size="14.00" fill="#000000">DefiOverlayModule</text>
</g>
<!-- DefiOverlayModule&#45;&gt;DemoModule -->
<g id="edge6" class="edge">
<title>DefiOverlayModule&#45;&gt;DemoModule</title>
<path fill="none" stroke="#000000" d="M219,-122.1061C219,-141.3391 219,-169 219,-169 219,-169 484.1784,-169 484.1784,-169"/>
<polygon fill="#000000" stroke="#000000" points="484.1785,-172.5001 494.1784,-169 484.1784,-165.5001 484.1785,-172.5001"/>
</g>
<!-- DefiCoreModule -->
<g id="node8" class="node">
<title>DefiCoreModule</title>
<polygon fill="#8dd3c7" stroke="#000000" points="135.6346,-122 132.6346,-126 111.6346,-126 108.6346,-122 24.3654,-122 24.3654,-86 135.6346,-86 135.6346,-122"/>
<text text-anchor="middle" x="80" y="-99.8" font-family="Times,serif" font-size="14.00" fill="#000000">DefiCoreModule</text>
</g>
<!-- DefiCoreModule&#45;&gt;DemoModule -->
<g id="edge7" class="edge">
<title>DefiCoreModule&#45;&gt;DemoModule</title>
<path fill="none" stroke="#000000" d="M80,-122.2921C80,-144.2057 80,-178 80,-178 80,-178 483.8314,-178 483.8314,-178"/>
<polygon fill="#000000" stroke="#000000" points="483.8314,-181.5001 493.8314,-178 483.8313,-174.5001 483.8314,-181.5001"/>
</g>
</g>
</svg>
