<?xml version="1.0" encoding="UTF-8" standalone="no"?>
<!DOCTYPE svg PUBLIC "-//W3C//DTD SVG 1.1//EN"
 "http://www.w3.org/Graphics/SVG/1.1/DTD/svg11.dtd">
<!-- Generated by graphviz version 2.40.1 (20161225.0304)
 -->
<!-- Title: dependencies Pages: 1 -->
<svg width="805pt" height="284pt"
 viewBox="0.00 0.00 805.00 284.00" xmlns="http://www.w3.org/2000/svg" xmlns:xlink="http://www.w3.org/1999/xlink">
<g id="graph0" class="graph" transform="scale(1 1) rotate(0) translate(4 280)">
<title>dependencies</title>
<polygon fill="#ffffff" stroke="transparent" points="-4,4 -4,-280 801,-280 801,4 -4,4"/>
<text text-anchor="start" x="377.5091" y="-42.4" font-family="sans-serif" font-weight="bold" font-size="14.00" fill="#000000">Legend</text>
<polygon fill="#ffffb3" stroke="transparent" points="164.5,-10 164.5,-30 184.5,-30 184.5,-10 164.5,-10"/>
<text text-anchor="start" x="188.129" y="-15.4" font-family="sans-serif" font-size="14.00" fill="#000000"> &#160;Declarations</text>
<polygon fill="#8dd3c7" stroke="transparent" points="277.5,-10 277.5,-30 297.5,-30 297.5,-10 277.5,-10"/>
<text text-anchor="start" x="301.2251" y="-15.4" font-family="sans-serif" font-size="14.00" fill="#000000"> &#160;Module</text>
<polygon fill="#80b1d3" stroke="transparent" points="363.5,-10 363.5,-30 383.5,-30 383.5,-10 363.5,-10"/>
<text text-anchor="start" x="387.2812" y="-15.4" font-family="sans-serif" font-size="14.00" fill="#000000"> &#160;Bootstrap</text>
<polygon fill="#fdb462" stroke="transparent" points="460.5,-10 460.5,-30 480.5,-30 480.5,-10 460.5,-10"/>
<text text-anchor="start" x="484.1732" y="-15.4" font-family="sans-serif" font-size="14.00" fill="#000000"> &#160;Providers</text>
<polygon fill="#fb8072" stroke="transparent" points="556.5,-10 556.5,-30 576.5,-30 576.5,-10 556.5,-10"/>
<text text-anchor="start" x="580.2258" y="-15.4" font-family="sans-serif" font-size="14.00" fill="#000000"> &#160;Exports</text>
<g id="clust1" class="cluster">
<title>cluster_DefiFormsModule</title>
<polygon fill="none" stroke="#000000" stroke-dasharray="1,5" points="8,-70 8,-268 789,-268 789,-70 8,-70"/>
</g>
<g id="clust2" class="cluster">
<title>cluster_DefiFormsModule_declarations</title>
<polygon fill="none" stroke="#000000" points="25,-78 25,-130 775,-130 775,-78 25,-78"/>
</g>
<g id="clust8" class="cluster">
<title>cluster_DefiFormsModule_exports</title>
<polygon fill="none" stroke="#000000" points="16,-208 16,-260 781,-260 781,-208 16,-208"/>
</g>
<!-- DefiFormErrorsComponent -->
<g id="node1" class="node">
<title>DefiFormErrorsComponent</title>
<polygon fill="#ffffb3" stroke="#000000" points="766.5183,-122 595.4817,-122 595.4817,-86 766.5183,-86 766.5183,-122"/>
<text text-anchor="middle" x="681" y="-99.8" font-family="Times,serif" font-size="14.00" fill="#000000">DefiFormErrorsComponent</text>
</g>
<!-- DefiFormsModule -->
<g id="node5" class="node">
<title>DefiFormsModule</title>
<polygon fill="#8dd3c7" stroke="#000000" points="367.2008,-187 364.2008,-191 343.2008,-191 340.2008,-187 246.7992,-187 246.7992,-151 367.2008,-151 367.2008,-187"/>
<text text-anchor="middle" x="307" y="-164.8" font-family="Times,serif" font-size="14.00" fill="#000000">DefiFormsModule</text>
</g>
<!-- DefiFormErrorsComponent&#45;&gt;DefiFormsModule -->
<g id="edge1" class="edge">
<title>DefiFormErrorsComponent&#45;&gt;DefiFormsModule</title>
<path fill="none" stroke="#000000" d="M710.3363,-122.2667C710.3363,-140.5552 710.3363,-166 710.3363,-166 710.3363,-166 377.3835,-166 377.3835,-166"/>
<polygon fill="#000000" stroke="#000000" points="377.3835,-162.5001 367.3835,-166 377.3835,-169.5001 377.3835,-162.5001"/>
</g>
<!-- DefiDebounceInputDirective -->
<g id="node2" class="node">
<title>DefiDebounceInputDirective</title>
<polygon fill="#ffffb3" stroke="#000000" points="577.757,-122 398.243,-122 398.243,-86 577.757,-86 577.757,-122"/>
<text text-anchor="middle" x="488" y="-99.8" font-family="Times,serif" font-size="14.00" fill="#000000">DefiDebounceInputDirective</text>
</g>
<!-- DefiDebounceInputDirective&#45;&gt;DefiFormsModule -->
<g id="edge2" class="edge">
<title>DefiDebounceInputDirective&#45;&gt;DefiFormsModule</title>
<path fill="none" stroke="#000000" d="M517.8761,-122.0091C517.8761,-138.0494 517.8761,-159 517.8761,-159 517.8761,-159 377.1464,-159 377.1464,-159"/>
<polygon fill="#000000" stroke="#000000" points="377.1465,-155.5001 367.1464,-159 377.1464,-162.5001 377.1465,-155.5001"/>
</g>
<!-- DefiValidatorsDirective -->
<g id="node3" class="node">
<title>DefiValidatorsDirective</title>
<polygon fill="#ffffb3" stroke="#000000" points="380.7682,-122 229.2318,-122 229.2318,-86 380.7682,-86 380.7682,-122"/>
<text text-anchor="middle" x="305" y="-99.8" font-family="Times,serif" font-size="14.00" fill="#000000">DefiValidatorsDirective</text>
</g>
<!-- DefiValidatorsDirective&#45;&gt;DefiFormsModule -->
<g id="edge3" class="edge">
<title>DefiValidatorsDirective&#45;&gt;DefiFormsModule</title>
<path fill="none" stroke="#000000" d="M307,-122.1061C307,-122.1061 307,-140.991 307,-140.991"/>
<polygon fill="#000000" stroke="#000000" points="303.5001,-140.9909 307,-150.991 310.5001,-140.991 303.5001,-140.9909"/>
</g>
<!-- DefiShowPasswordDirective -->
<g id="node4" class="node">
<title>DefiShowPasswordDirective</title>
<polygon fill="#ffffb3" stroke="#000000" points="211.4987,-122 32.5013,-122 32.5013,-86 211.4987,-86 211.4987,-122"/>
<text text-anchor="middle" x="122" y="-99.8" font-family="Times,serif" font-size="14.00" fill="#000000">DefiShowPasswordDirective</text>
</g>
<!-- DefiShowPasswordDirective&#45;&gt;DefiFormsModule -->
<g id="edge4" class="edge">
<title>DefiShowPasswordDirective&#45;&gt;DefiFormsModule</title>
<path fill="none" stroke="#000000" d="M148.2497,-122.0225C148.2497,-139.3734 148.2497,-163 148.2497,-163 148.2497,-163 236.5304,-163 236.5304,-163"/>
<polygon fill="#000000" stroke="#000000" points="236.5305,-166.5001 246.5304,-163 236.5304,-159.5001 236.5305,-166.5001"/>
</g>
<!-- DefiFormErrorsComponent  -->
<g id="node6" class="node">
<title>DefiFormErrorsComponent </title>
<polygon fill="#fb8072" stroke="#000000" points="772.5176,-252 597.4824,-252 597.4824,-216 772.5176,-216 772.5176,-252"/>
<text text-anchor="middle" x="685" y="-229.8" font-family="Times,serif" font-size="14.00" fill="#000000">DefiFormErrorsComponent </text>
</g>
<!-- DefiFormsModule&#45;&gt;DefiFormErrorsComponent  -->
<g id="edge5" class="edge">
<title>DefiFormsModule&#45;&gt;DefiFormErrorsComponent </title>
<path fill="none" stroke="#000000" stroke-dasharray="5,2" d="M367.4278,-173C466.8209,-173 653.9137,-173 653.9137,-173 653.9137,-173 653.9137,-205.698 653.9137,-205.698"/>
<polygon fill="#000000" stroke="#000000" points="650.4138,-205.698 653.9137,-215.698 657.4138,-205.698 650.4138,-205.698"/>
</g>
<!-- DefiDebounceInputDirective  -->
<g id="node7" class="node">
<title>DefiDebounceInputDirective </title>
<polygon fill="#fb8072" stroke="#000000" points="579.257,-252 396.743,-252 396.743,-216 579.257,-216 579.257,-252"/>
<text text-anchor="middle" x="488" y="-229.8" font-family="Times,serif" font-size="14.00" fill="#000000">DefiDebounceInputDirective </text>
</g>
<!-- DefiFormsModule&#45;&gt;DefiDebounceInputDirective  -->
<g id="edge6" class="edge">
<title>DefiFormsModule&#45;&gt;DefiDebounceInputDirective </title>
<path fill="none" stroke="#000000" stroke-dasharray="5,2" d="M367.1624,-180C409.306,-180 458.1239,-180 458.1239,-180 458.1239,-180 458.1239,-205.7181 458.1239,-205.7181"/>
<polygon fill="#000000" stroke="#000000" points="454.624,-205.718 458.1239,-215.7181 461.624,-205.7181 454.624,-205.718"/>
</g>
<!-- DefiValidatorsDirective  -->
<g id="node8" class="node">
<title>DefiValidatorsDirective </title>
<polygon fill="#fb8072" stroke="#000000" points="378.2682,-252 223.7318,-252 223.7318,-216 378.2682,-216 378.2682,-252"/>
<text text-anchor="middle" x="301" y="-229.8" font-family="Times,serif" font-size="14.00" fill="#000000">DefiValidatorsDirective </text>
</g>
<!-- DefiFormsModule&#45;&gt;DefiValidatorsDirective  -->
<g id="edge7" class="edge">
<title>DefiFormsModule&#45;&gt;DefiValidatorsDirective </title>
<path fill="none" stroke="#000000" stroke-dasharray="5,2" d="M307,-187.1061C307,-187.1061 307,-205.991 307,-205.991"/>
<polygon fill="#000000" stroke="#000000" points="303.5001,-205.9909 307,-215.991 310.5001,-205.991 303.5001,-205.9909"/>
</g>
<!-- DefiShowPasswordDirective  -->
<g id="node9" class="node">
<title>DefiShowPasswordDirective </title>
<polygon fill="#fb8072" stroke="#000000" points="205.998,-252 24.002,-252 24.002,-216 205.998,-216 205.998,-252"/>
<text text-anchor="middle" x="115" y="-229.8" font-family="Times,serif" font-size="14.00" fill="#000000">DefiShowPasswordDirective </text>
</g>
<!-- DefiFormsModule&#45;&gt;DefiShowPasswordDirective  -->
<g id="edge8" class="edge">
<title>DefiFormsModule&#45;&gt;DefiShowPasswordDirective </title>
<path fill="none" stroke="#000000" stroke-dasharray="5,2" d="M246.6928,-175C182.6323,-175 90.5003,-175 90.5003,-175 90.5003,-175 90.5003,-205.9775 90.5003,-205.9775"/>
<polygon fill="#000000" stroke="#000000" points="87.0004,-205.9774 90.5003,-215.9775 94.0004,-205.9775 87.0004,-205.9774"/>
</g>
</g>
</svg>
