<?xml version="1.0" encoding="UTF-8" standalone="no"?>
<!DOCTYPE svg PUBLIC "-//W3C//DTD SVG 1.1//EN"
 "http://www.w3.org/Graphics/SVG/1.1/DTD/svg11.dtd">
<!-- Generated by graphviz version 2.40.1 (20161225.0304)
 -->
<!-- Title: dependencies Pages: 1 -->
<svg width="774pt" height="284pt"
 viewBox="0.00 0.00 774.00 284.00" xmlns="http://www.w3.org/2000/svg" xmlns:xlink="http://www.w3.org/1999/xlink">
<g id="graph0" class="graph" transform="scale(1 1) rotate(0) translate(4 280)">
<title>dependencies</title>
<polygon fill="#ffffff" stroke="transparent" points="-4,4 -4,-280 770,-280 770,4 -4,4"/>
<text text-anchor="start" x="362.0091" y="-42.4" font-family="sans-serif" font-weight="bold" font-size="14.00" fill="#000000">Legend</text>
<polygon fill="#ffffb3" stroke="transparent" points="149,-10 149,-30 169,-30 169,-10 149,-10"/>
<text text-anchor="start" x="172.629" y="-15.4" font-family="sans-serif" font-size="14.00" fill="#000000"> &#160;Declarations</text>
<polygon fill="#8dd3c7" stroke="transparent" points="262,-10 262,-30 282,-30 282,-10 262,-10"/>
<text text-anchor="start" x="285.7251" y="-15.4" font-family="sans-serif" font-size="14.00" fill="#000000"> &#160;Module</text>
<polygon fill="#80b1d3" stroke="transparent" points="348,-10 348,-30 368,-30 368,-10 348,-10"/>
<text text-anchor="start" x="371.7812" y="-15.4" font-family="sans-serif" font-size="14.00" fill="#000000"> &#160;Bootstrap</text>
<polygon fill="#fdb462" stroke="transparent" points="445,-10 445,-30 465,-30 465,-10 445,-10"/>
<text text-anchor="start" x="468.6732" y="-15.4" font-family="sans-serif" font-size="14.00" fill="#000000"> &#160;Providers</text>
<polygon fill="#fb8072" stroke="transparent" points="541,-10 541,-30 561,-30 561,-10 541,-10"/>
<text text-anchor="start" x="564.7258" y="-15.4" font-family="sans-serif" font-size="14.00" fill="#000000"> &#160;Exports</text>
<g id="clust1" class="cluster">
<title>cluster_CltFormsModule</title>
<polygon fill="none" stroke="#000000" stroke-dasharray="1,5" points="8,-70 8,-268 758,-268 758,-70 8,-70"/>
</g>
<g id="clust2" class="cluster">
<title>cluster_CltFormsModule_declarations</title>
<polygon fill="none" stroke="#000000" points="24,-78 24,-130 744,-130 744,-78 24,-78"/>
</g>
<g id="clust8" class="cluster">
<title>cluster_CltFormsModule_exports</title>
<polygon fill="none" stroke="#000000" points="16,-208 16,-260 750,-260 750,-208 16,-208"/>
</g>
<!-- CltFormErrorsComponent -->
<g id="node1" class="node">
<title>CltFormErrorsComponent</title>
<polygon fill="#ffffb3" stroke="#000000" points="735.7632,-122 572.2368,-122 572.2368,-86 735.7632,-86 735.7632,-122"/>
<text text-anchor="middle" x="654" y="-99.8" font-family="Times,serif" font-size="14.00" fill="#000000">CltFormErrorsComponent</text>
</g>
<!-- CltFormsModule -->
<g id="node5" class="node">
<title>CltFormsModule</title>
<polygon fill="#8dd3c7" stroke="#000000" points="351.4469,-187 348.4469,-191 327.4469,-191 324.4469,-187 238.5531,-187 238.5531,-151 351.4469,-151 351.4469,-187"/>
<text text-anchor="middle" x="295" y="-164.8" font-family="Times,serif" font-size="14.00" fill="#000000">CltFormsModule</text>
</g>
<!-- CltFormErrorsComponent&#45;&gt;CltFormsModule -->
<g id="edge1" class="edge">
<title>CltFormErrorsComponent&#45;&gt;CltFormsModule</title>
<path fill="none" stroke="#000000" d="M682.0438,-122.2667C682.0438,-140.5552 682.0438,-166 682.0438,-166 682.0438,-166 361.2795,-166 361.2795,-166"/>
<polygon fill="#000000" stroke="#000000" points="361.2795,-162.5001 351.2795,-166 361.2795,-169.5001 361.2795,-162.5001"/>
</g>
<!-- CltDebounceInputDirective -->
<g id="node2" class="node">
<title>CltDebounceInputDirective</title>
<polygon fill="#ffffb3" stroke="#000000" points="553.5029,-122 382.4971,-122 382.4971,-86 553.5029,-86 553.5029,-122"/>
<text text-anchor="middle" x="468" y="-99.8" font-family="Times,serif" font-size="14.00" fill="#000000">CltDebounceInputDirective</text>
</g>
<!-- CltDebounceInputDirective&#45;&gt;CltFormsModule -->
<g id="edge2" class="edge">
<title>CltDebounceInputDirective&#45;&gt;CltFormsModule</title>
<path fill="none" stroke="#000000" d="M496.5837,-122.0091C496.5837,-138.0494 496.5837,-159 496.5837,-159 496.5837,-159 361.4203,-159 361.4203,-159"/>
<polygon fill="#000000" stroke="#000000" points="361.4204,-155.5001 351.4203,-159 361.4203,-162.5001 361.4204,-155.5001"/>
</g>
<!-- CltValidatorsDirective -->
<g id="node3" class="node">
<title>CltValidatorsDirective</title>
<polygon fill="#ffffb3" stroke="#000000" points="363.5142,-122 220.4858,-122 220.4858,-86 363.5142,-86 363.5142,-122"/>
<text text-anchor="middle" x="292" y="-99.8" font-family="Times,serif" font-size="14.00" fill="#000000">CltValidatorsDirective</text>
</g>
<!-- CltValidatorsDirective&#45;&gt;CltFormsModule -->
<g id="edge3" class="edge">
<title>CltValidatorsDirective&#45;&gt;CltFormsModule</title>
<path fill="none" stroke="#000000" d="M295,-122.1061C295,-122.1061 295,-140.991 295,-140.991"/>
<polygon fill="#000000" stroke="#000000" points="291.5001,-140.9909 295,-150.991 298.5001,-140.991 291.5001,-140.9909"/>
</g>
<!-- CltShowPasswordDirective -->
<g id="node4" class="node">
<title>CltShowPasswordDirective</title>
<polygon fill="#ffffb3" stroke="#000000" points="202.2436,-122 31.7564,-122 31.7564,-86 202.2436,-86 202.2436,-122"/>
<text text-anchor="middle" x="117" y="-99.8" font-family="Times,serif" font-size="14.00" fill="#000000">CltShowPasswordDirective</text>
</g>
<!-- CltShowPasswordDirective&#45;&gt;CltFormsModule -->
<g id="edge4" class="edge">
<title>CltShowPasswordDirective&#45;&gt;CltFormsModule</title>
<path fill="none" stroke="#000000" d="M142.6239,-122.0225C142.6239,-139.3734 142.6239,-163 142.6239,-163 142.6239,-163 228.6937,-163 228.6937,-163"/>
<polygon fill="#000000" stroke="#000000" points="228.6937,-166.5001 238.6937,-163 228.6937,-159.5001 228.6937,-166.5001"/>
</g>
<!-- CltFormErrorsComponent  -->
<g id="node6" class="node">
<title>CltFormErrorsComponent </title>
<polygon fill="#fb8072" stroke="#000000" points="741.7632,-252 574.2368,-252 574.2368,-216 741.7632,-216 741.7632,-252"/>
<text text-anchor="middle" x="658" y="-229.8" font-family="Times,serif" font-size="14.00" fill="#000000">CltFormErrorsComponent </text>
</g>
<!-- CltFormsModule&#45;&gt;CltFormErrorsComponent  -->
<g id="edge5" class="edge">
<title>CltFormsModule&#45;&gt;CltFormErrorsComponent </title>
<path fill="none" stroke="#000000" stroke-dasharray="5,2" d="M351.5239,-173C446.5891,-173 628.2062,-173 628.2062,-173 628.2062,-173 628.2062,-205.698 628.2062,-205.698"/>
<polygon fill="#000000" stroke="#000000" points="624.7063,-205.698 628.2062,-215.698 631.7063,-205.698 624.7063,-205.698"/>
</g>
<!-- CltDebounceInputDirective  -->
<g id="node7" class="node">
<title>CltDebounceInputDirective </title>
<polygon fill="#fb8072" stroke="#000000" points="556.5022,-252 381.4978,-252 381.4978,-216 556.5022,-216 556.5022,-252"/>
<text text-anchor="middle" x="469" y="-229.8" font-family="Times,serif" font-size="14.00" fill="#000000">CltDebounceInputDirective </text>
</g>
<!-- CltFormsModule&#45;&gt;CltDebounceInputDirective  -->
<g id="edge6" class="edge">
<title>CltFormsModule&#45;&gt;CltDebounceInputDirective </title>
<path fill="none" stroke="#000000" stroke-dasharray="5,2" d="M351.2486,-180C391.7983,-180 439.4163,-180 439.4163,-180 439.4163,-180 439.4163,-205.7181 439.4163,-205.7181"/>
<polygon fill="#000000" stroke="#000000" points="435.9164,-205.718 439.4163,-215.7181 442.9164,-205.7181 435.9164,-205.718"/>
</g>
<!-- CltValidatorsDirective  -->
<g id="node8" class="node">
<title>CltValidatorsDirective </title>
<polygon fill="#fb8072" stroke="#000000" points="363.5134,-252 216.4866,-252 216.4866,-216 363.5134,-216 363.5134,-252"/>
<text text-anchor="middle" x="290" y="-229.8" font-family="Times,serif" font-size="14.00" fill="#000000">CltValidatorsDirective </text>
</g>
<!-- CltFormsModule&#45;&gt;CltValidatorsDirective  -->
<g id="edge7" class="edge">
<title>CltFormsModule&#45;&gt;CltValidatorsDirective </title>
<path fill="none" stroke="#000000" stroke-dasharray="5,2" d="M295,-187.1061C295,-187.1061 295,-205.991 295,-205.991"/>
<polygon fill="#000000" stroke="#000000" points="291.5001,-205.9909 295,-215.991 298.5001,-205.991 291.5001,-205.9909"/>
</g>
<!-- CltShowPasswordDirective  -->
<g id="node9" class="node">
<title>CltShowPasswordDirective </title>
<polygon fill="#fb8072" stroke="#000000" points="198.2436,-252 23.7564,-252 23.7564,-216 198.2436,-216 198.2436,-252"/>
<text text-anchor="middle" x="111" y="-229.8" font-family="Times,serif" font-size="14.00" fill="#000000">CltShowPasswordDirective </text>
</g>
<!-- CltFormsModule&#45;&gt;CltShowPasswordDirective  -->
<g id="edge8" class="edge">
<title>CltFormsModule&#45;&gt;CltShowPasswordDirective </title>
<path fill="none" stroke="#000000" stroke-dasharray="5,2" d="M238.7463,-175C177.1836,-175 87.1261,-175 87.1261,-175 87.1261,-175 87.1261,-205.9775 87.1261,-205.9775"/>
<polygon fill="#000000" stroke="#000000" points="83.6262,-205.9774 87.1261,-215.9775 90.6262,-205.9775 83.6262,-205.9774"/>
</g>
</g>
</svg>
