<?xml version="1.0" encoding="UTF-8" standalone="no"?>
<!DOCTYPE svg PUBLIC "-//W3C//DTD SVG 1.1//EN"
 "http://www.w3.org/Graphics/SVG/1.1/DTD/svg11.dtd">
<!-- Generated by graphviz version 2.40.1 (20161225.0304)
 -->
<!-- Title: dependencies Pages: 1 -->
<svg width="681pt" height="211pt"
 viewBox="0.00 0.00 681.00 211.00" xmlns="http://www.w3.org/2000/svg" xmlns:xlink="http://www.w3.org/1999/xlink">
<g id="graph0" class="graph" transform="scale(1 1) rotate(0) translate(4 207)">
<title>dependencies</title>
<polygon fill="#ffffff" stroke="transparent" points="-4,4 -4,-207 677,-207 677,4 -4,4"/>
<text text-anchor="start" x="315.5091" y="-42.4" font-family="sans-serif" font-weight="bold" font-size="14.00" fill="#000000">Legend</text>
<polygon fill="#ffffb3" stroke="transparent" points="102.5,-10 102.5,-30 122.5,-30 122.5,-10 102.5,-10"/>
<text text-anchor="start" x="126.129" y="-15.4" font-family="sans-serif" font-size="14.00" fill="#000000"> &#160;Declarations</text>
<polygon fill="#8dd3c7" stroke="transparent" points="215.5,-10 215.5,-30 235.5,-30 235.5,-10 215.5,-10"/>
<text text-anchor="start" x="239.2251" y="-15.4" font-family="sans-serif" font-size="14.00" fill="#000000"> &#160;Module</text>
<polygon fill="#80b1d3" stroke="transparent" points="301.5,-10 301.5,-30 321.5,-30 321.5,-10 301.5,-10"/>
<text text-anchor="start" x="325.2812" y="-15.4" font-family="sans-serif" font-size="14.00" fill="#000000"> &#160;Bootstrap</text>
<polygon fill="#fdb462" stroke="transparent" points="398.5,-10 398.5,-30 418.5,-30 418.5,-10 398.5,-10"/>
<text text-anchor="start" x="422.1732" y="-15.4" font-family="sans-serif" font-size="14.00" fill="#000000"> &#160;Providers</text>
<polygon fill="#fb8072" stroke="transparent" points="494.5,-10 494.5,-30 514.5,-30 514.5,-10 494.5,-10"/>
<text text-anchor="start" x="518.2258" y="-15.4" font-family="sans-serif" font-size="14.00" fill="#000000"> &#160;Exports</text>
<g id="clust1" class="cluster">
<title>cluster_MapModuleSample</title>
<polygon fill="none" stroke="#000000" stroke-dasharray="1,5" points="8,-70 8,-195 665,-195 665,-70 8,-70"/>
</g>
<g id="clust2" class="cluster">
<title>cluster_MapModuleSample_declarations</title>
<polygon fill="none" stroke="#000000" points="222,-78 222,-130 657,-130 657,-78 222,-78"/>
</g>
<g id="clust6" class="cluster">
<title>cluster_MapModuleSample_imports</title>
<polygon fill="none" stroke="#000000" points="16,-78 16,-130 214,-130 214,-78 16,-78"/>
</g>
<!-- MapComponent -->
<g id="node1" class="node">
<title>MapComponent</title>
<polygon fill="#ffffb3" stroke="#000000" points="649.4916,-122 542.5084,-122 542.5084,-86 649.4916,-86 649.4916,-122"/>
<text text-anchor="middle" x="596" y="-99.8" font-family="Times,serif" font-size="14.00" fill="#000000">MapComponent</text>
</g>
<!-- MapModuleSample -->
<g id="node4" class="node">
<title>MapModuleSample</title>
<polygon fill="#8dd3c7" stroke="#000000" points="366.7022,-187 363.7022,-191 342.7022,-191 339.7022,-187 239.2978,-187 239.2978,-151 366.7022,-151 366.7022,-187"/>
<text text-anchor="middle" x="303" y="-164.8" font-family="Times,serif" font-size="14.00" fill="#000000">MapModuleSample</text>
</g>
<!-- MapComponent&#45;&gt;MapModuleSample -->
<g id="edge1" class="edge">
<title>MapComponent&#45;&gt;MapModuleSample</title>
<path fill="none" stroke="#000000" d="M596,-122.2843C596,-143.3211 596,-175 596,-175 596,-175 376.938,-175 376.938,-175"/>
<polygon fill="#000000" stroke="#000000" points="376.9381,-171.5001 366.938,-175 376.938,-178.5001 376.9381,-171.5001"/>
</g>
<!-- Sample1Component -->
<g id="node2" class="node">
<title>Sample1Component</title>
<polygon fill="#ffffb3" stroke="#000000" points="524.3258,-122 393.6742,-122 393.6742,-86 524.3258,-86 524.3258,-122"/>
<text text-anchor="middle" x="459" y="-99.8" font-family="Times,serif" font-size="14.00" fill="#000000">Sample1Component</text>
</g>
<!-- Sample1Component&#45;&gt;MapModuleSample -->
<g id="edge2" class="edge">
<title>Sample1Component&#45;&gt;MapModuleSample</title>
<path fill="none" stroke="#000000" d="M459,-122.0225C459,-139.3734 459,-163 459,-163 459,-163 376.9013,-163 376.9013,-163"/>
<polygon fill="#000000" stroke="#000000" points="376.9013,-159.5001 366.9013,-163 376.9012,-166.5001 376.9013,-159.5001"/>
</g>
<!-- MapBridgeComponent -->
<g id="node3" class="node">
<title>MapBridgeComponent</title>
<polygon fill="#ffffb3" stroke="#000000" points="375.594,-122 230.406,-122 230.406,-86 375.594,-86 375.594,-122"/>
<text text-anchor="middle" x="303" y="-99.8" font-family="Times,serif" font-size="14.00" fill="#000000">MapBridgeComponent</text>
</g>
<!-- MapBridgeComponent&#45;&gt;MapModuleSample -->
<g id="edge3" class="edge">
<title>MapBridgeComponent&#45;&gt;MapModuleSample</title>
<path fill="none" stroke="#000000" d="M303,-122.1061C303,-122.1061 303,-140.991 303,-140.991"/>
<polygon fill="#000000" stroke="#000000" points="299.5001,-140.9909 303,-150.991 306.5001,-140.991 299.5001,-140.9909"/>
</g>
<!-- MapModule -->
<g id="node5" class="node">
<title>MapModule</title>
<polygon fill="#8dd3c7" stroke="#000000" points="205.7093,-122 202.7093,-126 181.7093,-126 178.7093,-122 120.2907,-122 120.2907,-86 205.7093,-86 205.7093,-122"/>
<text text-anchor="middle" x="163" y="-99.8" font-family="Times,serif" font-size="14.00" fill="#000000">MapModule</text>
</g>
<!-- MapModule&#45;&gt;MapModuleSample -->
<g id="edge4" class="edge">
<title>MapModule&#45;&gt;MapModuleSample</title>
<path fill="none" stroke="#000000" d="M163,-122.0225C163,-139.3734 163,-163 163,-163 163,-163 229.1453,-163 229.1453,-163"/>
<polygon fill="#000000" stroke="#000000" points="229.1453,-166.5001 239.1453,-163 229.1453,-159.5001 229.1453,-166.5001"/>
</g>
<!-- DemoSDK -->
<g id="node6" class="node">
<title>DemoSDK</title>
<polygon fill="#8dd3c7" stroke="#000000" points="102.2079,-122 99.2079,-126 78.2079,-126 75.2079,-122 23.7921,-122 23.7921,-86 102.2079,-86 102.2079,-122"/>
<text text-anchor="middle" x="63" y="-99.8" font-family="Times,serif" font-size="14.00" fill="#000000">DemoSDK</text>
</g>
<!-- DemoSDK&#45;&gt;MapModuleSample -->
<g id="edge5" class="edge">
<title>DemoSDK&#45;&gt;MapModuleSample</title>
<path fill="none" stroke="#000000" d="M63,-122.2843C63,-143.3211 63,-175 63,-175 63,-175 229.3145,-175 229.3145,-175"/>
<polygon fill="#000000" stroke="#000000" points="229.3145,-178.5001 239.3145,-175 229.3145,-171.5001 229.3145,-178.5001"/>
</g>
</g>
</svg>
