<?xml version="1.0" encoding="UTF-8" standalone="no"?>
<!DOCTYPE svg PUBLIC "-//W3C//DTD SVG 1.1//EN"
 "http://www.w3.org/Graphics/SVG/1.1/DTD/svg11.dtd">
<!-- Generated by graphviz version 2.40.1 (20161225.0304)
 -->
<!-- Title: dependencies Pages: 1 -->
<svg width="504pt" height="284pt"
 viewBox="0.00 0.00 504.00 284.00" xmlns="http://www.w3.org/2000/svg" xmlns:xlink="http://www.w3.org/1999/xlink">
<g id="graph0" class="graph" transform="scale(1 1) rotate(0) translate(4 280)">
<title>dependencies</title>
<polygon fill="#ffffff" stroke="transparent" points="-4,4 -4,-280 500,-280 500,4 -4,4"/>
<text text-anchor="start" x="227.0091" y="-42.4" font-family="sans-serif" font-weight="bold" font-size="14.00" fill="#000000">Legend</text>
<polygon fill="#ffffb3" stroke="transparent" points="14,-10 14,-30 34,-30 34,-10 14,-10"/>
<text text-anchor="start" x="37.629" y="-15.4" font-family="sans-serif" font-size="14.00" fill="#000000"> &#160;Declarations</text>
<polygon fill="#8dd3c7" stroke="transparent" points="127,-10 127,-30 147,-30 147,-10 127,-10"/>
<text text-anchor="start" x="150.7251" y="-15.4" font-family="sans-serif" font-size="14.00" fill="#000000"> &#160;Module</text>
<polygon fill="#80b1d3" stroke="transparent" points="213,-10 213,-30 233,-30 233,-10 213,-10"/>
<text text-anchor="start" x="236.7812" y="-15.4" font-family="sans-serif" font-size="14.00" fill="#000000"> &#160;Bootstrap</text>
<polygon fill="#fdb462" stroke="transparent" points="310,-10 310,-30 330,-30 330,-10 310,-10"/>
<text text-anchor="start" x="333.6732" y="-15.4" font-family="sans-serif" font-size="14.00" fill="#000000"> &#160;Providers</text>
<polygon fill="#fb8072" stroke="transparent" points="406,-10 406,-30 426,-30 426,-10 406,-10"/>
<text text-anchor="start" x="429.7258" y="-15.4" font-family="sans-serif" font-size="14.00" fill="#000000"> &#160;Exports</text>
<g id="clust1" class="cluster">
<title>cluster_DefiContainersModule</title>
<polygon fill="none" stroke="#000000" stroke-dasharray="1,5" points="98.5,-70 98.5,-268 397.5,-268 397.5,-70 98.5,-70"/>
</g>
<g id="clust2" class="cluster">
<title>cluster_DefiContainersModule_declarations</title>
<polygon fill="none" stroke="#000000" points="109.5,-78 109.5,-130 385.5,-130 385.5,-78 109.5,-78"/>
</g>
<g id="clust6" class="cluster">
<title>cluster_DefiContainersModule_exports</title>
<polygon fill="none" stroke="#000000" points="106.5,-208 106.5,-260 389.5,-260 389.5,-208 106.5,-208"/>
</g>
<!-- DefiBoxComponent -->
<g id="node1" class="node">
<title>DefiBoxComponent</title>
<polygon fill="#ffffb3" stroke="#000000" points="377.0422,-122 247.9578,-122 247.9578,-86 377.0422,-86 377.0422,-122"/>
<text text-anchor="middle" x="312.5" y="-99.8" font-family="Times,serif" font-size="14.00" fill="#000000">DefiBoxComponent</text>
</g>
<!-- DefiContainersModule -->
<g id="node3" class="node">
<title>DefiContainersModule</title>
<polygon fill="#8dd3c7" stroke="#000000" points="317.0744,-187 314.0744,-191 293.0744,-191 290.0744,-187 171.9256,-187 171.9256,-151 317.0744,-151 317.0744,-187"/>
<text text-anchor="middle" x="244.5" y="-164.8" font-family="Times,serif" font-size="14.00" fill="#000000">DefiContainersModule</text>
</g>
<!-- DefiBoxComponent&#45;&gt;DefiContainersModule -->
<g id="edge1" class="edge">
<title>DefiBoxComponent&#45;&gt;DefiContainersModule</title>
<path fill="none" stroke="#000000" d="M282.3832,-122.1061C282.3832,-122.1061 282.3832,-140.991 282.3832,-140.991"/>
<polygon fill="#000000" stroke="#000000" points="278.8833,-140.9909 282.3832,-150.991 285.8833,-140.991 278.8833,-140.9909"/>
</g>
<!-- PanelComponent -->
<g id="node2" class="node">
<title>PanelComponent</title>
<polygon fill="#ffffb3" stroke="#000000" points="229.9356,-122 117.0644,-122 117.0644,-86 229.9356,-86 229.9356,-122"/>
<text text-anchor="middle" x="173.5" y="-99.8" font-family="Times,serif" font-size="14.00" fill="#000000">PanelComponent</text>
</g>
<!-- PanelComponent&#45;&gt;DefiContainersModule -->
<g id="edge2" class="edge">
<title>PanelComponent&#45;&gt;DefiContainersModule</title>
<path fill="none" stroke="#000000" d="M200.8401,-122.1061C200.8401,-122.1061 200.8401,-140.991 200.8401,-140.991"/>
<polygon fill="#000000" stroke="#000000" points="197.3402,-140.9909 200.8401,-150.991 204.3402,-140.991 197.3402,-140.9909"/>
</g>
<!-- DefiBoxComponent  -->
<g id="node4" class="node">
<title>DefiBoxComponent </title>
<polygon fill="#fb8072" stroke="#000000" points="381.0414,-252 247.9586,-252 247.9586,-216 381.0414,-216 381.0414,-252"/>
<text text-anchor="middle" x="314.5" y="-229.8" font-family="Times,serif" font-size="14.00" fill="#000000">DefiBoxComponent </text>
</g>
<!-- DefiContainersModule&#45;&gt;DefiBoxComponent  -->
<g id="edge3" class="edge">
<title>DefiContainersModule&#45;&gt;DefiBoxComponent </title>
<path fill="none" stroke="#000000" stroke-dasharray="5,2" d="M282.5082,-187.1061C282.5082,-187.1061 282.5082,-205.991 282.5082,-205.991"/>
<polygon fill="#000000" stroke="#000000" points="279.0083,-205.9909 282.5082,-215.991 286.0083,-205.991 279.0083,-205.9909"/>
</g>
<!-- PanelComponent  -->
<g id="node5" class="node">
<title>PanelComponent </title>
<polygon fill="#fb8072" stroke="#000000" points="230.4348,-252 114.5652,-252 114.5652,-216 230.4348,-216 230.4348,-252"/>
<text text-anchor="middle" x="172.5" y="-229.8" font-family="Times,serif" font-size="14.00" fill="#000000">PanelComponent </text>
</g>
<!-- DefiContainersModule&#45;&gt;PanelComponent  -->
<g id="edge4" class="edge">
<title>DefiContainersModule&#45;&gt;PanelComponent </title>
<path fill="none" stroke="#000000" stroke-dasharray="5,2" d="M201.2151,-187.1061C201.2151,-187.1061 201.2151,-205.991 201.2151,-205.991"/>
<polygon fill="#000000" stroke="#000000" points="197.7152,-205.9909 201.2151,-215.991 204.7152,-205.991 197.7152,-205.9909"/>
</g>
</g>
</svg>
