<?xml version="1.0" encoding="UTF-8" standalone="no"?>
<!DOCTYPE svg PUBLIC "-//W3C//DTD SVG 1.1//EN"
 "http://www.w3.org/Graphics/SVG/1.1/DTD/svg11.dtd">
<!-- Generated by graphviz version 2.40.1 (20161225.0304)
 -->
<!-- Title: dependencies Pages: 1 -->
<svg width="504pt" height="284pt"
 viewBox="0.00 0.00 504.00 284.00" xmlns="http://www.w3.org/2000/svg" xmlns:xlink="http://www.w3.org/1999/xlink">
<g id="graph0" class="graph" transform="scale(1 1) rotate(0) translate(4 280)">
<title>dependencies</title>
<polygon fill="#ffffff" stroke="transparent" points="-4,4 -4,-280 500,-280 500,4 -4,4"/>
<text text-anchor="start" x="227.0091" y="-42.4" font-family="sans-serif" font-weight="bold" font-size="14.00" fill="#000000">Legend</text>
<polygon fill="#ffffb3" stroke="transparent" points="14,-10 14,-30 34,-30 34,-10 14,-10"/>
<text text-anchor="start" x="37.629" y="-15.4" font-family="sans-serif" font-size="14.00" fill="#000000"> &#160;Declarations</text>
<polygon fill="#8dd3c7" stroke="transparent" points="127,-10 127,-30 147,-30 147,-10 127,-10"/>
<text text-anchor="start" x="150.7251" y="-15.4" font-family="sans-serif" font-size="14.00" fill="#000000"> &#160;Module</text>
<polygon fill="#80b1d3" stroke="transparent" points="213,-10 213,-30 233,-30 233,-10 213,-10"/>
<text text-anchor="start" x="236.7812" y="-15.4" font-family="sans-serif" font-size="14.00" fill="#000000"> &#160;Bootstrap</text>
<polygon fill="#fdb462" stroke="transparent" points="310,-10 310,-30 330,-30 330,-10 310,-10"/>
<text text-anchor="start" x="333.6732" y="-15.4" font-family="sans-serif" font-size="14.00" fill="#000000"> &#160;Providers</text>
<polygon fill="#fb8072" stroke="transparent" points="406,-10 406,-30 426,-30 426,-10 406,-10"/>
<text text-anchor="start" x="429.7258" y="-15.4" font-family="sans-serif" font-size="14.00" fill="#000000"> &#160;Exports</text>
<g id="clust1" class="cluster">
<title>cluster_MapModule</title>
<polygon fill="none" stroke="#000000" stroke-dasharray="1,5" points="96,-70 96,-268 400,-268 400,-70 96,-70"/>
</g>
<g id="clust2" class="cluster">
<title>cluster_MapModule_declarations</title>
<polygon fill="none" stroke="#000000" points="108,-78 108,-130 388,-130 388,-78 108,-78"/>
</g>
<g id="clust6" class="cluster">
<title>cluster_MapModule_exports</title>
<polygon fill="none" stroke="#000000" points="104,-208 104,-260 392,-260 392,-208 104,-208"/>
</g>
<!-- MapComponent -->
<g id="node1" class="node">
<title>MapComponent</title>
<polygon fill="#ffffb3" stroke="#000000" points="380.4916,-122 273.5084,-122 273.5084,-86 380.4916,-86 380.4916,-122"/>
<text text-anchor="middle" x="327" y="-99.8" font-family="Times,serif" font-size="14.00" fill="#000000">MapComponent</text>
</g>
<!-- MapModule -->
<g id="node3" class="node">
<title>MapModule</title>
<polygon fill="#8dd3c7" stroke="#000000" points="229.7093,-187 226.7093,-191 205.7093,-191 202.7093,-187 144.2907,-187 144.2907,-151 229.7093,-151 229.7093,-187"/>
<text text-anchor="middle" x="187" y="-164.8" font-family="Times,serif" font-size="14.00" fill="#000000">MapModule</text>
</g>
<!-- MapComponent&#45;&gt;MapModule -->
<g id="edge1" class="edge">
<title>MapComponent&#45;&gt;MapModule</title>
<path fill="none" stroke="#000000" d="M344.9153,-122.0225C344.9153,-139.3734 344.9153,-163 344.9153,-163 344.9153,-163 239.7341,-163 239.7341,-163"/>
<polygon fill="#000000" stroke="#000000" points="239.7342,-159.5001 229.7341,-163 239.7341,-166.5001 239.7342,-159.5001"/>
</g>
<!-- MapLayerComponent -->
<g id="node2" class="node">
<title>MapLayerComponent</title>
<polygon fill="#ffffb3" stroke="#000000" points="255.6345,-122 116.3655,-122 116.3655,-86 255.6345,-86 255.6345,-122"/>
<text text-anchor="middle" x="186" y="-99.8" font-family="Times,serif" font-size="14.00" fill="#000000">MapLayerComponent</text>
</g>
<!-- MapLayerComponent&#45;&gt;MapModule -->
<g id="edge2" class="edge">
<title>MapLayerComponent&#45;&gt;MapModule</title>
<path fill="none" stroke="#000000" d="M187,-122.1061C187,-122.1061 187,-140.991 187,-140.991"/>
<polygon fill="#000000" stroke="#000000" points="183.5001,-140.9909 187,-150.991 190.5001,-140.991 183.5001,-140.9909"/>
</g>
<!-- MapComponent  -->
<g id="node4" class="node">
<title>MapComponent </title>
<polygon fill="#fb8072" stroke="#000000" points="384.4927,-252 273.5073,-252 273.5073,-216 384.4927,-216 384.4927,-252"/>
<text text-anchor="middle" x="329" y="-229.8" font-family="Times,serif" font-size="14.00" fill="#000000">MapComponent </text>
</g>
<!-- MapModule&#45;&gt;MapComponent  -->
<g id="edge3" class="edge">
<title>MapModule&#45;&gt;MapComponent </title>
<path fill="none" stroke="#000000" stroke-dasharray="5,2" d="M229.7868,-175C265.0646,-175 309.3347,-175 309.3347,-175 309.3347,-175 309.3347,-205.9775 309.3347,-205.9775"/>
<polygon fill="#000000" stroke="#000000" points="305.8348,-205.9774 309.3347,-215.9775 312.8348,-205.9775 305.8348,-205.9774"/>
</g>
<!-- MapLayerComponent  -->
<g id="node5" class="node">
<title>MapLayerComponent </title>
<polygon fill="#fb8072" stroke="#000000" points="255.6341,-252 112.3659,-252 112.3659,-216 255.6341,-216 255.6341,-252"/>
<text text-anchor="middle" x="184" y="-229.8" font-family="Times,serif" font-size="14.00" fill="#000000">MapLayerComponent </text>
</g>
<!-- MapModule&#45;&gt;MapLayerComponent  -->
<g id="edge4" class="edge">
<title>MapModule&#45;&gt;MapLayerComponent </title>
<path fill="none" stroke="#000000" stroke-dasharray="5,2" d="M187,-187.1061C187,-187.1061 187,-205.991 187,-205.991"/>
<polygon fill="#000000" stroke="#000000" points="183.5001,-205.9909 187,-215.991 190.5001,-205.991 183.5001,-205.9909"/>
</g>
</g>
</svg>
