<?xml version="1.0" encoding="UTF-8" standalone="no"?>
<!DOCTYPE svg PUBLIC "-//W3C//DTD SVG 1.1//EN"
 "http://www.w3.org/Graphics/SVG/1.1/DTD/svg11.dtd">
<!-- Generated by graphviz version 2.40.1 (20161225.0304)
 -->
<!-- Title: dependencies Pages: 1 -->
<svg width="758pt" height="211pt"
 viewBox="0.00 0.00 758.00 211.00" xmlns="http://www.w3.org/2000/svg" xmlns:xlink="http://www.w3.org/1999/xlink">
<g id="graph0" class="graph" transform="scale(1 1) rotate(0) translate(4 207)">
<title>dependencies</title>
<polygon fill="#ffffff" stroke="transparent" points="-4,4 -4,-207 754,-207 754,4 -4,4"/>
<text text-anchor="start" x="354.0091" y="-42.4" font-family="sans-serif" font-weight="bold" font-size="14.00" fill="#000000">Legend</text>
<polygon fill="#ffffb3" stroke="transparent" points="141,-10 141,-30 161,-30 161,-10 141,-10"/>
<text text-anchor="start" x="164.629" y="-15.4" font-family="sans-serif" font-size="14.00" fill="#000000"> &#160;Declarations</text>
<polygon fill="#8dd3c7" stroke="transparent" points="254,-10 254,-30 274,-30 274,-10 254,-10"/>
<text text-anchor="start" x="277.7251" y="-15.4" font-family="sans-serif" font-size="14.00" fill="#000000"> &#160;Module</text>
<polygon fill="#80b1d3" stroke="transparent" points="340,-10 340,-30 360,-30 360,-10 340,-10"/>
<text text-anchor="start" x="363.7812" y="-15.4" font-family="sans-serif" font-size="14.00" fill="#000000"> &#160;Bootstrap</text>
<polygon fill="#fdb462" stroke="transparent" points="437,-10 437,-30 457,-30 457,-10 437,-10"/>
<text text-anchor="start" x="460.6732" y="-15.4" font-family="sans-serif" font-size="14.00" fill="#000000"> &#160;Providers</text>
<polygon fill="#fb8072" stroke="transparent" points="533,-10 533,-30 553,-30 553,-10 533,-10"/>
<text text-anchor="start" x="556.7258" y="-15.4" font-family="sans-serif" font-size="14.00" fill="#000000"> &#160;Exports</text>
<g id="clust1" class="cluster">
<title>cluster_MapModuleSample</title>
<polygon fill="none" stroke="#000000" stroke-dasharray="1,5" points="8,-70 8,-195 742,-195 742,-70 8,-70"/>
</g>
<g id="clust2" class="cluster">
<title>cluster_MapModuleSample_declarations</title>
<polygon fill="none" stroke="#000000" points="299,-78 299,-130 734,-130 734,-78 299,-78"/>
</g>
<g id="clust6" class="cluster">
<title>cluster_MapModuleSample_imports</title>
<polygon fill="none" stroke="#000000" points="16,-78 16,-130 291,-130 291,-78 16,-78"/>
</g>
<!-- MapComponent -->
<g id="node1" class="node">
<title>MapComponent</title>
<polygon fill="#ffffb3" stroke="#000000" points="726.4916,-122 619.5084,-122 619.5084,-86 726.4916,-86 726.4916,-122"/>
<text text-anchor="middle" x="673" y="-99.8" font-family="Times,serif" font-size="14.00" fill="#000000">MapComponent</text>
</g>
<!-- MapModuleSample -->
<g id="node4" class="node">
<title>MapModuleSample</title>
<polygon fill="#8dd3c7" stroke="#000000" points="443.7022,-187 440.7022,-191 419.7022,-191 416.7022,-187 316.2978,-187 316.2978,-151 443.7022,-151 443.7022,-187"/>
<text text-anchor="middle" x="380" y="-164.8" font-family="Times,serif" font-size="14.00" fill="#000000">MapModuleSample</text>
</g>
<!-- MapComponent&#45;&gt;MapModuleSample -->
<g id="edge1" class="edge">
<title>MapComponent&#45;&gt;MapModuleSample</title>
<path fill="none" stroke="#000000" d="M673,-122.2843C673,-143.3211 673,-175 673,-175 673,-175 453.938,-175 453.938,-175"/>
<polygon fill="#000000" stroke="#000000" points="453.9381,-171.5001 443.938,-175 453.938,-178.5001 453.9381,-171.5001"/>
</g>
<!-- Sample1Component -->
<g id="node2" class="node">
<title>Sample1Component</title>
<polygon fill="#ffffb3" stroke="#000000" points="601.3258,-122 470.6742,-122 470.6742,-86 601.3258,-86 601.3258,-122"/>
<text text-anchor="middle" x="536" y="-99.8" font-family="Times,serif" font-size="14.00" fill="#000000">Sample1Component</text>
</g>
<!-- Sample1Component&#45;&gt;MapModuleSample -->
<g id="edge2" class="edge">
<title>Sample1Component&#45;&gt;MapModuleSample</title>
<path fill="none" stroke="#000000" d="M536,-122.0225C536,-139.3734 536,-163 536,-163 536,-163 453.9013,-163 453.9013,-163"/>
<polygon fill="#000000" stroke="#000000" points="453.9013,-159.5001 443.9013,-163 453.9012,-166.5001 453.9013,-159.5001"/>
</g>
<!-- MapBridgeComponent -->
<g id="node3" class="node">
<title>MapBridgeComponent</title>
<polygon fill="#ffffb3" stroke="#000000" points="452.594,-122 307.406,-122 307.406,-86 452.594,-86 452.594,-122"/>
<text text-anchor="middle" x="380" y="-99.8" font-family="Times,serif" font-size="14.00" fill="#000000">MapBridgeComponent</text>
</g>
<!-- MapBridgeComponent&#45;&gt;MapModuleSample -->
<g id="edge3" class="edge">
<title>MapBridgeComponent&#45;&gt;MapModuleSample</title>
<path fill="none" stroke="#000000" d="M380,-122.1061C380,-122.1061 380,-140.991 380,-140.991"/>
<polygon fill="#000000" stroke="#000000" points="376.5001,-140.9909 380,-150.991 383.5001,-140.991 376.5001,-140.9909"/>
</g>
<!-- CltMapModule -->
<g id="node5" class="node">
<title>CltMapModule</title>
<polygon fill="#8dd3c7" stroke="#000000" points="283.3273,-122 280.3273,-126 259.3273,-126 256.3273,-122 180.6727,-122 180.6727,-86 283.3273,-86 283.3273,-122"/>
<text text-anchor="middle" x="232" y="-99.8" font-family="Times,serif" font-size="14.00" fill="#000000">CltMapModule</text>
</g>
<!-- CltMapModule&#45;&gt;MapModuleSample -->
<g id="edge4" class="edge">
<title>CltMapModule&#45;&gt;MapModuleSample</title>
<path fill="none" stroke="#000000" d="M232,-122.0225C232,-139.3734 232,-163 232,-163 232,-163 306.3758,-163 306.3758,-163"/>
<polygon fill="#000000" stroke="#000000" points="306.3758,-166.5001 316.3758,-163 306.3757,-159.5001 306.3758,-166.5001"/>
</g>
<!-- CltDemoSDKModule -->
<g id="node6" class="node">
<title>CltDemoSDKModule</title>
<polygon fill="#8dd3c7" stroke="#000000" points="162.3753,-122 159.3753,-126 138.3753,-126 135.3753,-122 23.6247,-122 23.6247,-86 162.3753,-86 162.3753,-122"/>
<text text-anchor="middle" x="93" y="-99.8" font-family="Times,serif" font-size="14.00" fill="#000000">CltDemoSDKModule</text>
</g>
<!-- CltDemoSDKModule&#45;&gt;MapModuleSample -->
<g id="edge5" class="edge">
<title>CltDemoSDKModule&#45;&gt;MapModuleSample</title>
<path fill="none" stroke="#000000" d="M93,-122.2843C93,-143.3211 93,-175 93,-175 93,-175 306.3054,-175 306.3054,-175"/>
<polygon fill="#000000" stroke="#000000" points="306.3054,-178.5001 316.3054,-175 306.3054,-171.5001 306.3054,-178.5001"/>
</g>
</g>
</svg>
