<?xml version="1.0" encoding="UTF-8" standalone="no"?>
<!DOCTYPE svg PUBLIC "-//W3C//DTD SVG 1.1//EN"
 "http://www.w3.org/Graphics/SVG/1.1/DTD/svg11.dtd">
<!-- Generated by graphviz version 2.40.1 (20161225.0304)
 -->
<!-- Title: dependencies Pages: 1 -->
<svg width="698pt" height="284pt"
 viewBox="0.00 0.00 698.00 284.00" xmlns="http://www.w3.org/2000/svg" xmlns:xlink="http://www.w3.org/1999/xlink">
<g id="graph0" class="graph" transform="scale(1 1) rotate(0) translate(4 280)">
<title>dependencies</title>
<polygon fill="#ffffff" stroke="transparent" points="-4,4 -4,-280 694,-280 694,4 -4,4"/>
<text text-anchor="start" x="324.0091" y="-42.4" font-family="sans-serif" font-weight="bold" font-size="14.00" fill="#000000">Legend</text>
<polygon fill="#ffffb3" stroke="transparent" points="111,-10 111,-30 131,-30 131,-10 111,-10"/>
<text text-anchor="start" x="134.629" y="-15.4" font-family="sans-serif" font-size="14.00" fill="#000000"> &#160;Declarations</text>
<polygon fill="#8dd3c7" stroke="transparent" points="224,-10 224,-30 244,-30 244,-10 224,-10"/>
<text text-anchor="start" x="247.7251" y="-15.4" font-family="sans-serif" font-size="14.00" fill="#000000"> &#160;Module</text>
<polygon fill="#80b1d3" stroke="transparent" points="310,-10 310,-30 330,-30 330,-10 310,-10"/>
<text text-anchor="start" x="333.7812" y="-15.4" font-family="sans-serif" font-size="14.00" fill="#000000"> &#160;Bootstrap</text>
<polygon fill="#fdb462" stroke="transparent" points="407,-10 407,-30 427,-30 427,-10 407,-10"/>
<text text-anchor="start" x="430.6732" y="-15.4" font-family="sans-serif" font-size="14.00" fill="#000000"> &#160;Providers</text>
<polygon fill="#fb8072" stroke="transparent" points="503,-10 503,-30 523,-30 523,-10 503,-10"/>
<text text-anchor="start" x="526.7258" y="-15.4" font-family="sans-serif" font-size="14.00" fill="#000000"> &#160;Exports</text>
<g id="clust1" class="cluster">
<title>cluster_CltCoreModule</title>
<polygon fill="none" stroke="#000000" stroke-dasharray="1,5" points="8,-70 8,-268 682,-268 682,-70 8,-70"/>
</g>
<g id="clust2" class="cluster">
<title>cluster_CltCoreModule_declarations</title>
<polygon fill="none" stroke="#000000" points="23,-78 23,-130 668,-130 668,-78 23,-78"/>
</g>
<g id="clust8" class="cluster">
<title>cluster_CltCoreModule_exports</title>
<polygon fill="none" stroke="#000000" points="16,-208 16,-260 674,-260 674,-208 16,-208"/>
</g>
<!-- CltClickStopPropagationDirective -->
<g id="node1" class="node">
<title>CltClickStopPropagationDirective</title>
<polygon fill="#ffffb3" stroke="#000000" points="660.3598,-122 451.6402,-122 451.6402,-86 660.3598,-86 660.3598,-122"/>
<text text-anchor="middle" x="556" y="-99.8" font-family="Times,serif" font-size="14.00" fill="#000000">CltClickStopPropagationDirective</text>
</g>
<!-- CltCoreModule -->
<g id="node5" class="node">
<title>CltCoreModule</title>
<polygon fill="#8dd3c7" stroke="#000000" points="391.8795,-187 388.8795,-191 367.8795,-191 364.8795,-187 288.1205,-187 288.1205,-151 391.8795,-151 391.8795,-187"/>
<text text-anchor="middle" x="340" y="-164.8" font-family="Times,serif" font-size="14.00" fill="#000000">CltCoreModule</text>
</g>
<!-- CltClickStopPropagationDirective&#45;&gt;CltCoreModule -->
<g id="edge1" class="edge">
<title>CltClickStopPropagationDirective&#45;&gt;CltCoreModule</title>
<path fill="none" stroke="#000000" d="M467.7428,-122.027C467.7428,-138.3976 467.7428,-160 467.7428,-160 467.7428,-160 401.9579,-160 401.9579,-160"/>
<polygon fill="#000000" stroke="#000000" points="401.9579,-156.5001 391.9579,-160 401.9579,-163.5001 401.9579,-156.5001"/>
</g>
<!-- CltSpinningIconDirective -->
<g id="node2" class="node">
<title>CltSpinningIconDirective</title>
<polygon fill="#ffffb3" stroke="#000000" points="433.14,-122 272.86,-122 272.86,-86 433.14,-86 433.14,-122"/>
<text text-anchor="middle" x="353" y="-99.8" font-family="Times,serif" font-size="14.00" fill="#000000">CltSpinningIconDirective</text>
</g>
<!-- CltSpinningIconDirective&#45;&gt;CltCoreModule -->
<g id="edge2" class="edge">
<title>CltSpinningIconDirective&#45;&gt;CltCoreModule</title>
<path fill="none" stroke="#000000" d="M340,-122.1061C340,-122.1061 340,-140.991 340,-140.991"/>
<polygon fill="#000000" stroke="#000000" points="336.5001,-140.9909 340,-150.991 343.5001,-140.991 336.5001,-140.9909"/>
</g>
<!-- CltToId -->
<g id="node3" class="node">
<title>CltToId</title>
<polygon fill="#ffffb3" stroke="#000000" points="255.3319,-122 194.6681,-122 194.6681,-86 255.3319,-86 255.3319,-122"/>
<text text-anchor="middle" x="225" y="-99.8" font-family="Times,serif" font-size="14.00" fill="#000000">CltToId</text>
</g>
<!-- CltToId&#45;&gt;CltCoreModule -->
<g id="edge3" class="edge">
<title>CltToId&#45;&gt;CltCoreModule</title>
<path fill="none" stroke="#000000" d="M244.938,-122.027C244.938,-138.3976 244.938,-160 244.938,-160 244.938,-160 278.0187,-160 278.0187,-160"/>
<polygon fill="#000000" stroke="#000000" points="278.0188,-163.5001 288.0187,-160 278.0187,-156.5001 278.0188,-163.5001"/>
</g>
<!-- CltPopoverComponent -->
<g id="node4" class="node">
<title>CltPopoverComponent</title>
<polygon fill="#ffffb3" stroke="#000000" points="176.608,-122 31.392,-122 31.392,-86 176.608,-86 176.608,-122"/>
<text text-anchor="middle" x="104" y="-99.8" font-family="Times,serif" font-size="14.00" fill="#000000">CltPopoverComponent</text>
</g>
<!-- CltPopoverComponent&#45;&gt;CltCoreModule -->
<g id="edge4" class="edge">
<title>CltPopoverComponent&#45;&gt;CltCoreModule</title>
<path fill="none" stroke="#000000" d="M104,-122.1061C104,-141.3391 104,-169 104,-169 104,-169 277.9166,-169 277.9166,-169"/>
<polygon fill="#000000" stroke="#000000" points="277.9167,-172.5001 287.9166,-169 277.9166,-165.5001 277.9167,-172.5001"/>
</g>
<!-- CltSpinningIconDirective  -->
<g id="node6" class="node">
<title>CltSpinningIconDirective </title>
<polygon fill="#fb8072" stroke="#000000" points="666.1397,-252 501.8603,-252 501.8603,-216 666.1397,-216 666.1397,-252"/>
<text text-anchor="middle" x="584" y="-229.8" font-family="Times,serif" font-size="14.00" fill="#000000">CltSpinningIconDirective </text>
</g>
<!-- CltCoreModule&#45;&gt;CltSpinningIconDirective  -->
<g id="edge5" class="edge">
<title>CltCoreModule&#45;&gt;CltSpinningIconDirective </title>
<path fill="none" stroke="#000000" stroke-dasharray="5,2" d="M392.0355,-169C462.9359,-169 581.18,-169 581.18,-169 581.18,-169 581.18,-205.8939 581.18,-205.8939"/>
<polygon fill="#000000" stroke="#000000" points="577.6801,-205.8938 581.18,-215.8939 584.6801,-205.8939 577.6801,-205.8938"/>
</g>
<!-- CltToId  -->
<g id="node7" class="node">
<title>CltToId </title>
<polygon fill="#fb8072" stroke="#000000" points="483.8312,-252 420.1688,-252 420.1688,-216 483.8312,-216 483.8312,-252"/>
<text text-anchor="middle" x="452" y="-229.8" font-family="Times,serif" font-size="14.00" fill="#000000">CltToId </text>
</g>
<!-- CltCoreModule&#45;&gt;CltToId  -->
<g id="edge6" class="edge">
<title>CltCoreModule&#45;&gt;CltToId </title>
<path fill="none" stroke="#000000" stroke-dasharray="5,2" d="M391.9366,-178C410.4018,-178 426.7022,-178 426.7022,-178 426.7022,-178 426.7022,-205.973 426.7022,-205.973"/>
<polygon fill="#000000" stroke="#000000" points="423.2022,-205.973 426.7022,-215.973 430.2022,-205.973 423.2022,-205.973"/>
</g>
<!-- CltPopoverComponent  -->
<g id="node8" class="node">
<title>CltPopoverComponent </title>
<polygon fill="#fb8072" stroke="#000000" points="402.1085,-252 253.8915,-252 253.8915,-216 402.1085,-216 402.1085,-252"/>
<text text-anchor="middle" x="328" y="-229.8" font-family="Times,serif" font-size="14.00" fill="#000000">CltPopoverComponent </text>
</g>
<!-- CltCoreModule&#45;&gt;CltPopoverComponent  -->
<g id="edge7" class="edge">
<title>CltCoreModule&#45;&gt;CltPopoverComponent </title>
<path fill="none" stroke="#000000" stroke-dasharray="5,2" d="M340,-187.1061C340,-187.1061 340,-205.991 340,-205.991"/>
<polygon fill="#000000" stroke="#000000" points="336.5001,-205.9909 340,-215.991 343.5001,-205.991 336.5001,-205.9909"/>
</g>
<!-- CltClickStopPropagationDirective  -->
<g id="node9" class="node">
<title>CltClickStopPropagationDirective </title>
<polygon fill="#fb8072" stroke="#000000" points="236.3601,-252 23.6399,-252 23.6399,-216 236.3601,-216 236.3601,-252"/>
<text text-anchor="middle" x="130" y="-229.8" font-family="Times,serif" font-size="14.00" fill="#000000">CltClickStopPropagationDirective </text>
</g>
<!-- CltCoreModule&#45;&gt;CltClickStopPropagationDirective  -->
<g id="edge8" class="edge">
<title>CltCoreModule&#45;&gt;CltClickStopPropagationDirective </title>
<path fill="none" stroke="#000000" stroke-dasharray="5,2" d="M287.9252,-178C253.8109,-178 215.5072,-178 215.5072,-178 215.5072,-178 215.5072,-205.973 215.5072,-205.973"/>
<polygon fill="#000000" stroke="#000000" points="212.0073,-205.973 215.5072,-215.973 219.0073,-205.973 212.0073,-205.973"/>
</g>
</g>
</svg>
