<?xml version="1.0" encoding="UTF-8" standalone="no"?>
<!DOCTYPE svg PUBLIC "-//W3C//DTD SVG 1.1//EN"
 "http://www.w3.org/Graphics/SVG/1.1/DTD/svg11.dtd">
<!-- Generated by graphviz version 2.40.1 (20161225.0304)
 -->
<!-- Title: dependencies Pages: 1 -->
<svg width="1071pt" height="284pt"
 viewBox="0.00 0.00 1071.00 284.00" xmlns="http://www.w3.org/2000/svg" xmlns:xlink="http://www.w3.org/1999/xlink">
<g id="graph0" class="graph" transform="scale(1 1) rotate(0) translate(4 280)">
<title>dependencies</title>
<polygon fill="#ffffff" stroke="transparent" points="-4,4 -4,-280 1067,-280 1067,4 -4,4"/>
<text text-anchor="start" x="510.5091" y="-42.4" font-family="sans-serif" font-weight="bold" font-size="14.00" fill="#000000">Legend</text>
<polygon fill="#ffffb3" stroke="transparent" points="297.5,-10 297.5,-30 317.5,-30 317.5,-10 297.5,-10"/>
<text text-anchor="start" x="321.129" y="-15.4" font-family="sans-serif" font-size="14.00" fill="#000000"> &#160;Declarations</text>
<polygon fill="#8dd3c7" stroke="transparent" points="410.5,-10 410.5,-30 430.5,-30 430.5,-10 410.5,-10"/>
<text text-anchor="start" x="434.2251" y="-15.4" font-family="sans-serif" font-size="14.00" fill="#000000"> &#160;Module</text>
<polygon fill="#80b1d3" stroke="transparent" points="496.5,-10 496.5,-30 516.5,-30 516.5,-10 496.5,-10"/>
<text text-anchor="start" x="520.2812" y="-15.4" font-family="sans-serif" font-size="14.00" fill="#000000"> &#160;Bootstrap</text>
<polygon fill="#fdb462" stroke="transparent" points="593.5,-10 593.5,-30 613.5,-30 613.5,-10 593.5,-10"/>
<text text-anchor="start" x="617.1732" y="-15.4" font-family="sans-serif" font-size="14.00" fill="#000000"> &#160;Providers</text>
<polygon fill="#fb8072" stroke="transparent" points="689.5,-10 689.5,-30 709.5,-30 709.5,-10 689.5,-10"/>
<text text-anchor="start" x="713.2258" y="-15.4" font-family="sans-serif" font-size="14.00" fill="#000000"> &#160;Exports</text>
<g id="clust1" class="cluster">
<title>cluster_CltDemoSDKModule</title>
<polygon fill="none" stroke="#000000" stroke-dasharray="1,5" points="8,-70 8,-268 1055,-268 1055,-70 8,-70"/>
</g>
<g id="clust2" class="cluster">
<title>cluster_CltDemoSDKModule_declarations</title>
<polygon fill="none" stroke="#000000" points="528,-78 528,-130 824,-130 824,-78 528,-78"/>
</g>
<g id="clust5" class="cluster">
<title>cluster_CltDemoSDKModule_imports</title>
<polygon fill="none" stroke="#000000" points="236,-78 236,-130 520,-130 520,-78 236,-78"/>
</g>
<g id="clust6" class="cluster">
<title>cluster_CltDemoSDKModule_exports</title>
<polygon fill="none" stroke="#000000" points="16,-208 16,-260 1047,-260 1047,-208 16,-208"/>
</g>
<!-- SampleCodeComponent -->
<g id="node1" class="node">
<title>SampleCodeComponent</title>
<polygon fill="#ffffb3" stroke="#000000" points="816.3766,-122 663.6234,-122 663.6234,-86 816.3766,-86 816.3766,-122"/>
<text text-anchor="middle" x="740" y="-99.8" font-family="Times,serif" font-size="14.00" fill="#000000">SampleCodeComponent</text>
</g>
<!-- CltDemoSDKModule -->
<g id="node3" class="node">
<title>CltDemoSDKModule</title>
<polygon fill="#8dd3c7" stroke="#000000" points="586.3753,-187 583.3753,-191 562.3753,-191 559.3753,-187 447.6247,-187 447.6247,-151 586.3753,-151 586.3753,-187"/>
<text text-anchor="middle" x="517" y="-164.8" font-family="Times,serif" font-size="14.00" fill="#000000">CltDemoSDKModule</text>
</g>
<!-- SampleCodeComponent&#45;&gt;CltDemoSDKModule -->
<g id="edge1" class="edge">
<title>SampleCodeComponent&#45;&gt;CltDemoSDKModule</title>
<path fill="none" stroke="#000000" d="M698.4858,-122.027C698.4858,-138.3976 698.4858,-160 698.4858,-160 698.4858,-160 596.3888,-160 596.3888,-160"/>
<polygon fill="#000000" stroke="#000000" points="596.3889,-156.5001 586.3888,-160 596.3888,-163.5001 596.3889,-156.5001"/>
</g>
<!-- SampleDirective -->
<g id="node2" class="node">
<title>SampleDirective</title>
<polygon fill="#ffffb3" stroke="#000000" points="646.0758,-122 535.9242,-122 535.9242,-86 646.0758,-86 646.0758,-122"/>
<text text-anchor="middle" x="591" y="-99.8" font-family="Times,serif" font-size="14.00" fill="#000000">SampleDirective</text>
</g>
<!-- SampleDirective&#45;&gt;CltDemoSDKModule -->
<g id="edge2" class="edge">
<title>SampleDirective&#45;&gt;CltDemoSDKModule</title>
<path fill="none" stroke="#000000" d="M561.1999,-122.1061C561.1999,-122.1061 561.1999,-140.991 561.1999,-140.991"/>
<polygon fill="#000000" stroke="#000000" points="557.6999,-140.9909 561.1999,-150.991 564.6999,-140.991 557.6999,-140.9909"/>
</g>
<!-- SampleCodeComponent  -->
<g id="node6" class="node">
<title>SampleCodeComponent </title>
<polygon fill="#fb8072" stroke="#000000" points="1039.3771,-252 882.6229,-252 882.6229,-216 1039.3771,-216 1039.3771,-252"/>
<text text-anchor="middle" x="961" y="-229.8" font-family="Times,serif" font-size="14.00" fill="#000000">SampleCodeComponent </text>
</g>
<!-- CltDemoSDKModule&#45;&gt;SampleCodeComponent  -->
<g id="edge5" class="edge">
<title>CltDemoSDKModule&#45;&gt;SampleCodeComponent </title>
<path fill="none" stroke="#000000" stroke-dasharray="5,2" d="M586.8634,-169C711.9,-169 961,-169 961,-169 961,-169 961,-205.8939 961,-205.8939"/>
<polygon fill="#000000" stroke="#000000" points="957.5001,-205.8938 961,-215.8939 964.5001,-205.8939 957.5001,-205.8938"/>
</g>
<!-- SampleDirective  -->
<g id="node7" class="node">
<title>SampleDirective </title>
<polygon fill="#fb8072" stroke="#000000" points="864.5766,-252 751.4234,-252 751.4234,-216 864.5766,-216 864.5766,-252"/>
<text text-anchor="middle" x="808" y="-229.8" font-family="Times,serif" font-size="14.00" fill="#000000">SampleDirective </text>
</g>
<!-- CltDemoSDKModule&#45;&gt;SampleDirective  -->
<g id="edge6" class="edge">
<title>CltDemoSDKModule&#45;&gt;SampleDirective </title>
<path fill="none" stroke="#000000" stroke-dasharray="5,2" d="M586.4086,-178C665.4677,-178 783.8252,-178 783.8252,-178 783.8252,-178 783.8252,-205.973 783.8252,-205.973"/>
<polygon fill="#000000" stroke="#000000" points="780.3253,-205.973 783.8252,-215.973 787.3253,-205.973 780.3253,-205.973"/>
</g>
<!-- CltContainersModule  -->
<g id="node8" class="node">
<title>CltContainersModule </title>
<polygon fill="#fb8072" stroke="#000000" points="733.3199,-252 592.6801,-252 592.6801,-216 733.3199,-216 733.3199,-252"/>
<text text-anchor="middle" x="663" y="-229.8" font-family="Times,serif" font-size="14.00" fill="#000000">CltContainersModule </text>
</g>
<!-- CltDemoSDKModule&#45;&gt;CltContainersModule  -->
<g id="edge7" class="edge">
<title>CltDemoSDKModule&#45;&gt;CltContainersModule </title>
<path fill="none" stroke="#000000" stroke-dasharray="5,2" d="M580.7053,-187.1061C580.7053,-206.3391 580.7053,-234 580.7053,-234 580.7053,-234 582.4961,-234 582.4961,-234"/>
<polygon fill="#000000" stroke="#000000" points="582.4962,-237.5001 592.4961,-234 582.4961,-230.5001 582.4962,-237.5001"/>
</g>
<!-- CltFormsModule  -->
<g id="node9" class="node">
<title>CltFormsModule </title>
<polygon fill="#fb8072" stroke="#000000" points="574.946,-252 459.054,-252 459.054,-216 574.946,-216 574.946,-252"/>
<text text-anchor="middle" x="517" y="-229.8" font-family="Times,serif" font-size="14.00" fill="#000000">CltFormsModule </text>
</g>
<!-- CltDemoSDKModule&#45;&gt;CltFormsModule  -->
<g id="edge8" class="edge">
<title>CltDemoSDKModule&#45;&gt;CltFormsModule </title>
<path fill="none" stroke="#000000" stroke-dasharray="5,2" d="M517,-187.1061C517,-187.1061 517,-205.991 517,-205.991"/>
<polygon fill="#000000" stroke="#000000" points="513.5001,-205.9909 517,-215.991 520.5001,-205.991 513.5001,-205.9909"/>
</g>
<!-- CltNavigationsModule  -->
<g id="node10" class="node">
<title>CltNavigationsModule </title>
<polygon fill="#fb8072" stroke="#000000" points="440.8199,-252 293.1801,-252 293.1801,-216 440.8199,-216 440.8199,-252"/>
<text text-anchor="middle" x="367" y="-229.8" font-family="Times,serif" font-size="14.00" fill="#000000">CltNavigationsModule </text>
</g>
<!-- CltDemoSDKModule&#45;&gt;CltNavigationsModule  -->
<g id="edge9" class="edge">
<title>CltDemoSDKModule&#45;&gt;CltNavigationsModule </title>
<path fill="none" stroke="#000000" stroke-dasharray="5,2" d="M453.2947,-187.1061C453.2947,-206.3391 453.2947,-234 453.2947,-234 453.2947,-234 450.9308,-234 450.9308,-234"/>
<polygon fill="#000000" stroke="#000000" points="450.9308,-230.5001 440.9308,-234 450.9307,-237.5001 450.9308,-230.5001"/>
</g>
<!-- CltOverlayModule  -->
<g id="node11" class="node">
<title>CltOverlayModule </title>
<polygon fill="#fb8072" stroke="#000000" points="274.7549,-252 149.2451,-252 149.2451,-216 274.7549,-216 274.7549,-252"/>
<text text-anchor="middle" x="212" y="-229.8" font-family="Times,serif" font-size="14.00" fill="#000000">CltOverlayModule </text>
</g>
<!-- CltDemoSDKModule&#45;&gt;CltOverlayModule  -->
<g id="edge10" class="edge">
<title>CltDemoSDKModule&#45;&gt;CltOverlayModule </title>
<path fill="none" stroke="#000000" stroke-dasharray="5,2" d="M447.5758,-178C371.2199,-178 259.2021,-178 259.2021,-178 259.2021,-178 259.2021,-205.973 259.2021,-205.973"/>
<polygon fill="#000000" stroke="#000000" points="255.7022,-205.973 259.2021,-215.973 262.7022,-205.973 255.7022,-205.973"/>
</g>
<!-- CltCoreModule  -->
<g id="node12" class="node">
<title>CltCoreModule </title>
<polygon fill="#fb8072" stroke="#000000" points="131.8801,-252 24.1199,-252 24.1199,-216 131.8801,-216 131.8801,-252"/>
<text text-anchor="middle" x="78" y="-229.8" font-family="Times,serif" font-size="14.00" fill="#000000">CltCoreModule </text>
</g>
<!-- CltDemoSDKModule&#45;&gt;CltCoreModule  -->
<g id="edge11" class="edge">
<title>CltDemoSDKModule&#45;&gt;CltCoreModule </title>
<path fill="none" stroke="#000000" stroke-dasharray="5,2" d="M447.4391,-169C323.653,-169 78,-169 78,-169 78,-169 78,-205.8939 78,-205.8939"/>
<polygon fill="#000000" stroke="#000000" points="74.5001,-205.8938 78,-215.8939 81.5001,-205.8939 74.5001,-205.8938"/>
</g>
<!-- CltContainersModule -->
<g id="node4" class="node">
<title>CltContainersModule</title>
<polygon fill="#8dd3c7" stroke="#000000" points="511.8202,-122 508.8202,-126 487.8202,-126 484.8202,-122 374.1798,-122 374.1798,-86 511.8202,-86 511.8202,-122"/>
<text text-anchor="middle" x="443" y="-99.8" font-family="Times,serif" font-size="14.00" fill="#000000">CltContainersModule</text>
</g>
<!-- CltContainersModule&#45;&gt;CltDemoSDKModule -->
<g id="edge3" class="edge">
<title>CltContainersModule&#45;&gt;CltDemoSDKModule</title>
<path fill="none" stroke="#000000" d="M479.6112,-122.1061C479.6112,-122.1061 479.6112,-140.991 479.6112,-140.991"/>
<polygon fill="#000000" stroke="#000000" points="476.1112,-140.9909 479.6112,-150.991 483.1112,-140.991 476.1112,-140.9909"/>
</g>
<!-- CltFormsModule -->
<g id="node5" class="node">
<title>CltFormsModule</title>
<polygon fill="#8dd3c7" stroke="#000000" points="356.4469,-122 353.4469,-126 332.4469,-126 329.4469,-122 243.5531,-122 243.5531,-86 356.4469,-86 356.4469,-122"/>
<text text-anchor="middle" x="300" y="-99.8" font-family="Times,serif" font-size="14.00" fill="#000000">CltFormsModule</text>
</g>
<!-- CltFormsModule&#45;&gt;CltDemoSDKModule -->
<g id="edge4" class="edge">
<title>CltFormsModule&#45;&gt;CltDemoSDKModule</title>
<path fill="none" stroke="#000000" d="M324.6566,-122.027C324.6566,-138.3976 324.6566,-160 324.6566,-160 324.6566,-160 437.5596,-160 437.5596,-160"/>
<polygon fill="#000000" stroke="#000000" points="437.5596,-163.5001 447.5596,-160 437.5596,-156.5001 437.5596,-163.5001"/>
</g>
</g>
</svg>
