<?xml version="1.0" encoding="UTF-8" standalone="no"?>
<!DOCTYPE svg PUBLIC "-//W3C//DTD SVG 1.1//EN"
 "http://www.w3.org/Graphics/SVG/1.1/DTD/svg11.dtd">
<!-- Generated by graphviz version 2.40.1 (20161225.0304)
 -->
<!-- Title: dependencies Pages: 1 -->
<svg width="678pt" height="284pt"
 viewBox="0.00 0.00 678.00 284.00" xmlns="http://www.w3.org/2000/svg" xmlns:xlink="http://www.w3.org/1999/xlink">
<g id="graph0" class="graph" transform="scale(1 1) rotate(0) translate(4 280)">
<title>dependencies</title>
<polygon fill="#ffffff" stroke="transparent" points="-4,4 -4,-280 674,-280 674,4 -4,4"/>
<text text-anchor="start" x="314.0091" y="-42.4" font-family="sans-serif" font-weight="bold" font-size="14.00" fill="#000000">Legend</text>
<polygon fill="#ffffb3" stroke="transparent" points="101,-10 101,-30 121,-30 121,-10 101,-10"/>
<text text-anchor="start" x="124.629" y="-15.4" font-family="sans-serif" font-size="14.00" fill="#000000"> &#160;Declarations</text>
<polygon fill="#8dd3c7" stroke="transparent" points="214,-10 214,-30 234,-30 234,-10 214,-10"/>
<text text-anchor="start" x="237.7251" y="-15.4" font-family="sans-serif" font-size="14.00" fill="#000000"> &#160;Module</text>
<polygon fill="#80b1d3" stroke="transparent" points="300,-10 300,-30 320,-30 320,-10 300,-10"/>
<text text-anchor="start" x="323.7812" y="-15.4" font-family="sans-serif" font-size="14.00" fill="#000000"> &#160;Bootstrap</text>
<polygon fill="#fdb462" stroke="transparent" points="397,-10 397,-30 417,-30 417,-10 397,-10"/>
<text text-anchor="start" x="420.6732" y="-15.4" font-family="sans-serif" font-size="14.00" fill="#000000"> &#160;Providers</text>
<polygon fill="#fb8072" stroke="transparent" points="493,-10 493,-30 513,-30 513,-10 493,-10"/>
<text text-anchor="start" x="516.7258" y="-15.4" font-family="sans-serif" font-size="14.00" fill="#000000"> &#160;Exports</text>
<g id="clust1" class="cluster">
<title>cluster_DefiCoreModule</title>
<polygon fill="none" stroke="#000000" stroke-dasharray="1,5" points="8,-70 8,-268 662,-268 662,-70 8,-70"/>
</g>
<g id="clust2" class="cluster">
<title>cluster_DefiCoreModule_declarations</title>
<polygon fill="none" stroke="#000000" points="24,-78 24,-130 646,-130 646,-78 24,-78"/>
</g>
<g id="clust8" class="cluster">
<title>cluster_DefiCoreModule_exports</title>
<polygon fill="none" stroke="#000000" points="16,-208 16,-260 654,-260 654,-208 16,-208"/>
</g>
<!-- DefiClickStopPropagation -->
<g id="node1" class="node">
<title>DefiClickStopPropagation</title>
<polygon fill="#ffffb3" stroke="#000000" points="638.0323,-122 473.9677,-122 473.9677,-86 638.0323,-86 638.0323,-122"/>
<text text-anchor="middle" x="556" y="-99.8" font-family="Times,serif" font-size="14.00" fill="#000000">DefiClickStopPropagation</text>
</g>
<!-- DefiCoreModule -->
<g id="node5" class="node">
<title>DefiCoreModule</title>
<polygon fill="#8dd3c7" stroke="#000000" points="385.6346,-187 382.6346,-191 361.6346,-191 358.6346,-187 274.3654,-187 274.3654,-151 385.6346,-151 385.6346,-187"/>
<text text-anchor="middle" x="330" y="-164.8" font-family="Times,serif" font-size="14.00" fill="#000000">DefiCoreModule</text>
</g>
<!-- DefiClickStopPropagation&#45;&gt;DefiCoreModule -->
<g id="edge1" class="edge">
<title>DefiClickStopPropagation&#45;&gt;DefiCoreModule</title>
<path fill="none" stroke="#000000" d="M583.5282,-122.0225C583.5282,-139.3734 583.5282,-163 583.5282,-163 583.5282,-163 395.6378,-163 395.6378,-163"/>
<polygon fill="#000000" stroke="#000000" points="395.6379,-159.5001 385.6378,-163 395.6378,-166.5001 395.6379,-159.5001"/>
</g>
<!-- DefiSpinningIconDirective -->
<g id="node2" class="node">
<title>DefiSpinningIconDirective</title>
<polygon fill="#ffffb3" stroke="#000000" points="456.3947,-122 287.6053,-122 287.6053,-86 456.3947,-86 456.3947,-122"/>
<text text-anchor="middle" x="372" y="-99.8" font-family="Times,serif" font-size="14.00" fill="#000000">DefiSpinningIconDirective</text>
</g>
<!-- DefiSpinningIconDirective&#45;&gt;DefiCoreModule -->
<g id="edge2" class="edge">
<title>DefiSpinningIconDirective&#45;&gt;DefiCoreModule</title>
<path fill="none" stroke="#000000" d="M336.81,-122.1061C336.81,-122.1061 336.81,-140.991 336.81,-140.991"/>
<polygon fill="#000000" stroke="#000000" points="333.31,-140.9909 336.81,-150.991 340.31,-140.991 333.31,-140.9909"/>
</g>
<!-- DefiToId -->
<g id="node3" class="node">
<title>DefiToId</title>
<polygon fill="#ffffb3" stroke="#000000" points="270.0857,-122 201.9143,-122 201.9143,-86 270.0857,-86 270.0857,-122"/>
<text text-anchor="middle" x="236" y="-99.8" font-family="Times,serif" font-size="14.00" fill="#000000">DefiToId</text>
</g>
<!-- DefiToId&#45;&gt;DefiCoreModule -->
<g id="edge3" class="edge">
<title>DefiToId&#45;&gt;DefiCoreModule</title>
<path fill="none" stroke="#000000" d="M270.1014,-104C276.3767,-104 280.993,-104 280.993,-104 280.993,-104 280.993,-140.8939 280.993,-140.8939"/>
<polygon fill="#000000" stroke="#000000" points="277.493,-140.8938 280.993,-150.8939 284.493,-140.8939 277.493,-140.8938"/>
</g>
<!-- DefiPopoverComponent -->
<g id="node4" class="node">
<title>DefiPopoverComponent</title>
<polygon fill="#ffffb3" stroke="#000000" points="184.3627,-122 31.6373,-122 31.6373,-86 184.3627,-86 184.3627,-122"/>
<text text-anchor="middle" x="108" y="-99.8" font-family="Times,serif" font-size="14.00" fill="#000000">DefiPopoverComponent</text>
</g>
<!-- DefiPopoverComponent&#45;&gt;DefiCoreModule -->
<g id="edge4" class="edge">
<title>DefiPopoverComponent&#45;&gt;DefiCoreModule</title>
<path fill="none" stroke="#000000" d="M108,-122.0225C108,-139.3734 108,-163 108,-163 108,-163 264.2666,-163 264.2666,-163"/>
<polygon fill="#000000" stroke="#000000" points="264.2666,-166.5001 274.2666,-163 264.2665,-159.5001 264.2666,-166.5001"/>
</g>
<!-- DefiSpinningIconDirective  -->
<g id="node6" class="node">
<title>DefiSpinningIconDirective </title>
<polygon fill="#fb8072" stroke="#000000" points="645.8942,-252 474.1058,-252 474.1058,-216 645.8942,-216 645.8942,-252"/>
<text text-anchor="middle" x="560" y="-229.8" font-family="Times,serif" font-size="14.00" fill="#000000">DefiSpinningIconDirective </text>
</g>
<!-- DefiCoreModule&#45;&gt;DefiSpinningIconDirective  -->
<g id="edge5" class="edge">
<title>DefiCoreModule&#45;&gt;DefiSpinningIconDirective </title>
<path fill="none" stroke="#000000" stroke-dasharray="5,2" d="M385.6386,-175C444.4478,-175 528.7905,-175 528.7905,-175 528.7905,-175 528.7905,-205.9775 528.7905,-205.9775"/>
<polygon fill="#000000" stroke="#000000" points="525.2906,-205.9774 528.7905,-215.9775 532.2906,-205.9775 525.2906,-205.9774"/>
</g>
<!-- DefiToId  -->
<g id="node7" class="node">
<title>DefiToId </title>
<polygon fill="#fb8072" stroke="#000000" points="455.5868,-252 384.4132,-252 384.4132,-216 455.5868,-216 455.5868,-252"/>
<text text-anchor="middle" x="420" y="-229.8" font-family="Times,serif" font-size="14.00" fill="#000000">DefiToId </text>
</g>
<!-- DefiCoreModule&#45;&gt;DefiToId  -->
<g id="edge6" class="edge">
<title>DefiCoreModule&#45;&gt;DefiToId </title>
<path fill="none" stroke="#000000" stroke-dasharray="5,2" d="M375.1943,-187.1061C375.1943,-206.3391 375.1943,-234 375.1943,-234 375.1943,-234 376.101,-234 376.101,-234"/>
<polygon fill="#000000" stroke="#000000" points="374.2614,-237.5001 384.2614,-234 374.2613,-230.5001 374.2614,-237.5001"/>
</g>
<!-- DefiPopoverComponent  -->
<g id="node8" class="node">
<title>DefiPopoverComponent </title>
<polygon fill="#fb8072" stroke="#000000" points="366.363,-252 209.637,-252 209.637,-216 366.363,-216 366.363,-252"/>
<text text-anchor="middle" x="288" y="-229.8" font-family="Times,serif" font-size="14.00" fill="#000000">DefiPopoverComponent </text>
</g>
<!-- DefiCoreModule&#45;&gt;DefiPopoverComponent  -->
<g id="edge7" class="edge">
<title>DefiCoreModule&#45;&gt;DefiPopoverComponent </title>
<path fill="none" stroke="#000000" stroke-dasharray="5,2" d="M320.1822,-187.1061C320.1822,-187.1061 320.1822,-205.991 320.1822,-205.991"/>
<polygon fill="#000000" stroke="#000000" points="316.6822,-205.9909 320.1822,-215.991 323.6822,-205.991 316.6822,-205.9909"/>
</g>
<!-- DefiClickStopPropagation  -->
<g id="node9" class="node">
<title>DefiClickStopPropagation </title>
<polygon fill="#fb8072" stroke="#000000" points="192.0316,-252 23.9684,-252 23.9684,-216 192.0316,-216 192.0316,-252"/>
<text text-anchor="middle" x="108" y="-229.8" font-family="Times,serif" font-size="14.00" fill="#000000">DefiClickStopPropagation </text>
</g>
<!-- DefiCoreModule&#45;&gt;DefiClickStopPropagation  -->
<g id="edge8" class="edge">
<title>DefiCoreModule&#45;&gt;DefiClickStopPropagation </title>
<path fill="none" stroke="#000000" stroke-dasharray="5,2" d="M273.9662,-175C234.3372,-175 188.2236,-175 188.2236,-175 188.2236,-175 188.2236,-205.9775 188.2236,-205.9775"/>
<polygon fill="#000000" stroke="#000000" points="184.7236,-205.9774 188.2236,-215.9775 191.7236,-205.9775 184.7236,-205.9774"/>
</g>
</g>
</svg>
