<?xml version="1.0" encoding="UTF-8" standalone="no"?>
<!DOCTYPE svg PUBLIC "-//W3C//DTD SVG 1.1//EN"
 "http://www.w3.org/Graphics/SVG/1.1/DTD/svg11.dtd">
<!-- Generated by graphviz version 2.40.1 (20161225.0304)
 -->
<!-- Title: dependencies Pages: 1 -->
<svg width="779pt" height="284pt"
 viewBox="0.00 0.00 779.00 284.00" xmlns="http://www.w3.org/2000/svg" xmlns:xlink="http://www.w3.org/1999/xlink">
<g id="graph0" class="graph" transform="scale(1 1) rotate(0) translate(4 280)">
<title>dependencies</title>
<polygon fill="#ffffff" stroke="transparent" points="-4,4 -4,-280 775,-280 775,4 -4,4"/>
<text text-anchor="start" x="364.5091" y="-42.4" font-family="sans-serif" font-weight="bold" font-size="14.00" fill="#000000">Legend</text>
<polygon fill="#ffffb3" stroke="transparent" points="151.5,-10 151.5,-30 171.5,-30 171.5,-10 151.5,-10"/>
<text text-anchor="start" x="175.129" y="-15.4" font-family="sans-serif" font-size="14.00" fill="#000000"> &#160;Declarations</text>
<polygon fill="#8dd3c7" stroke="transparent" points="264.5,-10 264.5,-30 284.5,-30 284.5,-10 264.5,-10"/>
<text text-anchor="start" x="288.2251" y="-15.4" font-family="sans-serif" font-size="14.00" fill="#000000"> &#160;Module</text>
<polygon fill="#80b1d3" stroke="transparent" points="350.5,-10 350.5,-30 370.5,-30 370.5,-10 350.5,-10"/>
<text text-anchor="start" x="374.2812" y="-15.4" font-family="sans-serif" font-size="14.00" fill="#000000"> &#160;Bootstrap</text>
<polygon fill="#fdb462" stroke="transparent" points="447.5,-10 447.5,-30 467.5,-30 467.5,-10 447.5,-10"/>
<text text-anchor="start" x="471.1732" y="-15.4" font-family="sans-serif" font-size="14.00" fill="#000000"> &#160;Providers</text>
<polygon fill="#fb8072" stroke="transparent" points="543.5,-10 543.5,-30 563.5,-30 563.5,-10 543.5,-10"/>
<text text-anchor="start" x="567.2258" y="-15.4" font-family="sans-serif" font-size="14.00" fill="#000000"> &#160;Exports</text>
<g id="clust1" class="cluster">
<title>cluster_AppModule</title>
<polygon fill="none" stroke="#000000" stroke-dasharray="1,5" points="8,-70 8,-268 763,-268 763,-70 8,-70"/>
</g>
<g id="clust2" class="cluster">
<title>cluster_AppModule_declarations</title>
<polygon fill="none" stroke="#000000" points="633,-78 633,-130 755,-130 755,-78 633,-78"/>
</g>
<g id="clust4" class="cluster">
<title>cluster_AppModule_imports</title>
<polygon fill="none" stroke="#000000" points="16,-78 16,-130 625,-130 625,-78 16,-78"/>
</g>
<g id="clust6" class="cluster">
<title>cluster_AppModule_bootstrap</title>
<polygon fill="none" stroke="#000000" points="349,-208 349,-260 473,-260 473,-208 349,-208"/>
</g>
<!-- AppComponent -->
<g id="node1" class="node">
<title>AppComponent</title>
<polygon fill="#ffffb3" stroke="#000000" points="746.9399,-122 641.0601,-122 641.0601,-86 746.9399,-86 746.9399,-122"/>
<text text-anchor="middle" x="694" y="-99.8" font-family="Times,serif" font-size="14.00" fill="#000000">AppComponent</text>
</g>
<!-- AppModule -->
<g id="node2" class="node">
<title>AppModule</title>
<polygon fill="#8dd3c7" stroke="#000000" points="452.6571,-187 449.6571,-191 428.6571,-191 425.6571,-187 369.3429,-187 369.3429,-151 452.6571,-151 452.6571,-187"/>
<text text-anchor="middle" x="411" y="-164.8" font-family="Times,serif" font-size="14.00" fill="#000000">AppModule</text>
</g>
<!-- AppComponent&#45;&gt;AppModule -->
<g id="edge1" class="edge">
<title>AppComponent&#45;&gt;AppModule</title>
<path fill="none" stroke="#000000" d="M694,-122.2843C694,-143.3211 694,-175 694,-175 694,-175 462.7576,-175 462.7576,-175"/>
<polygon fill="#000000" stroke="#000000" points="462.7577,-171.5001 452.7576,-175 462.7576,-178.5001 462.7577,-171.5001"/>
</g>
<!-- AppComponent  -->
<g id="node7" class="node">
<title>AppComponent </title>
<polygon fill="#80b1d3" stroke="#000000" points="465.439,-252 356.561,-252 356.561,-216 465.439,-216 465.439,-252"/>
<text text-anchor="middle" x="411" y="-229.8" font-family="Times,serif" font-size="14.00" fill="#000000">AppComponent </text>
</g>
<!-- AppModule&#45;&gt;AppComponent  -->
<g id="edge6" class="edge">
<title>AppModule&#45;&gt;AppComponent </title>
<path fill="none" stroke="#000000" stroke-dasharray="1,5" d="M411,-187.1061C411,-187.1061 411,-205.991 411,-205.991"/>
<polygon fill="#000000" stroke="#000000" points="407.5001,-205.9909 411,-215.991 414.5001,-205.991 407.5001,-205.9909"/>
</g>
<!-- DefiCoreModule -->
<g id="node3" class="node">
<title>DefiCoreModule</title>
<polygon fill="#8dd3c7" stroke="#000000" points="616.6346,-122 613.6346,-126 592.6346,-126 589.6346,-122 505.3654,-122 505.3654,-86 616.6346,-86 616.6346,-122"/>
<text text-anchor="middle" x="561" y="-99.8" font-family="Times,serif" font-size="14.00" fill="#000000">DefiCoreModule</text>
</g>
<!-- DefiCoreModule&#45;&gt;AppModule -->
<g id="edge2" class="edge">
<title>DefiCoreModule&#45;&gt;AppModule</title>
<path fill="none" stroke="#000000" d="M561,-122.0225C561,-139.3734 561,-163 561,-163 561,-163 462.7834,-163 462.7834,-163"/>
<polygon fill="#000000" stroke="#000000" points="462.7834,-159.5001 452.7834,-163 462.7833,-166.5001 462.7834,-159.5001"/>
</g>
<!-- DefiNavigationsModule -->
<g id="node4" class="node">
<title>DefiNavigationsModule</title>
<polygon fill="#8dd3c7" stroke="#000000" points="487.0744,-122 484.0744,-126 463.0744,-126 460.0744,-122 334.9256,-122 334.9256,-86 487.0744,-86 487.0744,-122"/>
<text text-anchor="middle" x="411" y="-99.8" font-family="Times,serif" font-size="14.00" fill="#000000">DefiNavigationsModule</text>
</g>
<!-- DefiNavigationsModule&#45;&gt;AppModule -->
<g id="edge3" class="edge">
<title>DefiNavigationsModule&#45;&gt;AppModule</title>
<path fill="none" stroke="#000000" d="M411,-122.1061C411,-122.1061 411,-140.991 411,-140.991"/>
<polygon fill="#000000" stroke="#000000" points="407.5001,-140.9909 411,-150.991 414.5001,-140.991 407.5001,-140.9909"/>
</g>
<!-- DefiContainersModule -->
<g id="node5" class="node">
<title>DefiContainersModule</title>
<polygon fill="#8dd3c7" stroke="#000000" points="316.5744,-122 313.5744,-126 292.5744,-126 289.5744,-122 171.4256,-122 171.4256,-86 316.5744,-86 316.5744,-122"/>
<text text-anchor="middle" x="244" y="-99.8" font-family="Times,serif" font-size="14.00" fill="#000000">DefiContainersModule</text>
</g>
<!-- DefiContainersModule&#45;&gt;AppModule -->
<g id="edge4" class="edge">
<title>DefiContainersModule&#45;&gt;AppModule</title>
<path fill="none" stroke="#000000" d="M244,-122.0225C244,-139.3734 244,-163 244,-163 244,-163 359.2896,-163 359.2896,-163"/>
<polygon fill="#000000" stroke="#000000" points="359.2897,-166.5001 369.2896,-163 359.2896,-159.5001 359.2897,-166.5001"/>
</g>
<!-- DefiOverlayModule -->
<g id="node6" class="node">
<title>DefiOverlayModule</title>
<polygon fill="#8dd3c7" stroke="#000000" points="153.5101,-122 150.5101,-126 129.5101,-126 126.5101,-122 24.4899,-122 24.4899,-86 153.5101,-86 153.5101,-122"/>
<text text-anchor="middle" x="89" y="-99.8" font-family="Times,serif" font-size="14.00" fill="#000000">DefiOverlayModule</text>
</g>
<!-- DefiOverlayModule&#45;&gt;AppModule -->
<g id="edge5" class="edge">
<title>DefiOverlayModule&#45;&gt;AppModule</title>
<path fill="none" stroke="#000000" d="M89,-122.2843C89,-143.3211 89,-175 89,-175 89,-175 359.2342,-175 359.2342,-175"/>
<polygon fill="#000000" stroke="#000000" points="359.2343,-178.5001 369.2342,-175 359.2342,-171.5001 359.2343,-178.5001"/>
</g>
</g>
</svg>
