<?xml version="1.0" encoding="UTF-8" standalone="no"?>
<!DOCTYPE svg PUBLIC "-//W3C//DTD SVG 1.1//EN"
 "http://www.w3.org/Graphics/SVG/1.1/DTD/svg11.dtd">
<!-- Generated by graphviz version 2.40.1 (20161225.0304)
 -->
<!-- Title: dependencies Pages: 1 -->
<svg width="666pt" height="284pt"
 viewBox="0.00 0.00 666.00 284.00" xmlns="http://www.w3.org/2000/svg" xmlns:xlink="http://www.w3.org/1999/xlink">
<g id="graph0" class="graph" transform="scale(1 1) rotate(0) translate(4 280)">
<title>dependencies</title>
<polygon fill="#ffffff" stroke="transparent" points="-4,4 -4,-280 662,-280 662,4 -4,4"/>
<text text-anchor="start" x="308.0091" y="-42.4" font-family="sans-serif" font-weight="bold" font-size="14.00" fill="#000000">Legend</text>
<polygon fill="#ffffb3" stroke="transparent" points="95,-10 95,-30 115,-30 115,-10 95,-10"/>
<text text-anchor="start" x="118.629" y="-15.4" font-family="sans-serif" font-size="14.00" fill="#000000"> &#160;Declarations</text>
<polygon fill="#8dd3c7" stroke="transparent" points="208,-10 208,-30 228,-30 228,-10 208,-10"/>
<text text-anchor="start" x="231.7251" y="-15.4" font-family="sans-serif" font-size="14.00" fill="#000000"> &#160;Module</text>
<polygon fill="#80b1d3" stroke="transparent" points="294,-10 294,-30 314,-30 314,-10 294,-10"/>
<text text-anchor="start" x="317.7812" y="-15.4" font-family="sans-serif" font-size="14.00" fill="#000000"> &#160;Bootstrap</text>
<polygon fill="#fdb462" stroke="transparent" points="391,-10 391,-30 411,-30 411,-10 391,-10"/>
<text text-anchor="start" x="414.6732" y="-15.4" font-family="sans-serif" font-size="14.00" fill="#000000"> &#160;Providers</text>
<polygon fill="#fb8072" stroke="transparent" points="487,-10 487,-30 507,-30 507,-10 487,-10"/>
<text text-anchor="start" x="510.7258" y="-15.4" font-family="sans-serif" font-size="14.00" fill="#000000"> &#160;Exports</text>
<g id="clust1" class="cluster">
<title>cluster_CltOverlayModule</title>
<polygon fill="none" stroke="#000000" stroke-dasharray="1,5" points="8,-70 8,-268 650,-268 650,-70 8,-70"/>
</g>
<g id="clust2" class="cluster">
<title>cluster_CltOverlayModule_declarations</title>
<polygon fill="none" stroke="#000000" points="25,-78 25,-130 636,-130 636,-78 25,-78"/>
</g>
<g id="clust8" class="cluster">
<title>cluster_CltOverlayModule_exports</title>
<polygon fill="none" stroke="#000000" points="16,-208 16,-260 642,-260 642,-208 16,-208"/>
</g>
<!-- CltNotificationsComponent -->
<g id="node1" class="node">
<title>CltNotificationsComponent</title>
<polygon fill="#ffffb3" stroke="#000000" points="627.5448,-122 456.4552,-122 456.4552,-86 627.5448,-86 627.5448,-122"/>
<text text-anchor="middle" x="542" y="-99.8" font-family="Times,serif" font-size="14.00" fill="#000000">CltNotificationsComponent</text>
</g>
<!-- CltOverlayModule -->
<g id="node5" class="node">
<title>CltOverlayModule</title>
<polygon fill="#8dd3c7" stroke="#000000" points="317.7548,-187 314.7548,-191 293.7548,-191 290.7548,-187 196.2452,-187 196.2452,-151 317.7548,-151 317.7548,-187"/>
<text text-anchor="middle" x="257" y="-164.8" font-family="Times,serif" font-size="14.00" fill="#000000">CltOverlayModule</text>
</g>
<!-- CltNotificationsComponent&#45;&gt;CltOverlayModule -->
<g id="edge1" class="edge">
<title>CltNotificationsComponent&#45;&gt;CltOverlayModule</title>
<path fill="none" stroke="#000000" d="M571.3407,-122.0225C571.3407,-139.3734 571.3407,-163 571.3407,-163 571.3407,-163 327.9808,-163 327.9808,-163"/>
<polygon fill="#000000" stroke="#000000" points="327.9808,-159.5001 317.9808,-163 327.9807,-166.5001 327.9808,-159.5001"/>
</g>
<!-- PopupComponent -->
<g id="node2" class="node">
<title>PopupComponent</title>
<polygon fill="#ffffb3" stroke="#000000" points="438.6151,-122 321.3849,-122 321.3849,-86 438.6151,-86 438.6151,-122"/>
<text text-anchor="middle" x="380" y="-99.8" font-family="Times,serif" font-size="14.00" fill="#000000">PopupComponent</text>
</g>
<!-- PopupComponent&#45;&gt;CltOverlayModule -->
<g id="edge2" class="edge">
<title>PopupComponent&#45;&gt;CltOverlayModule</title>
<path fill="none" stroke="#000000" d="M321.3961,-104C314.8845,-104 310.5435,-104 310.5435,-104 310.5435,-104 310.5435,-140.8939 310.5435,-140.8939"/>
<polygon fill="#000000" stroke="#000000" points="307.0436,-140.8938 310.5435,-150.8939 314.0436,-140.8939 307.0436,-140.8938"/>
</g>
<!-- BodyDirective -->
<g id="node3" class="node">
<title>BodyDirective</title>
<polygon fill="#ffffb3" stroke="#000000" points="303.4203,-122 204.5797,-122 204.5797,-86 303.4203,-86 303.4203,-122"/>
<text text-anchor="middle" x="254" y="-99.8" font-family="Times,serif" font-size="14.00" fill="#000000">BodyDirective</text>
</g>
<!-- BodyDirective&#45;&gt;CltOverlayModule -->
<g id="edge3" class="edge">
<title>BodyDirective&#45;&gt;CltOverlayModule</title>
<path fill="none" stroke="#000000" d="M254,-122.1061C254,-122.1061 254,-140.991 254,-140.991"/>
<polygon fill="#000000" stroke="#000000" points="250.5001,-140.9909 254,-150.991 257.5001,-140.991 250.5001,-140.9909"/>
</g>
<!-- CltSidePanelComponent -->
<g id="node4" class="node">
<title>CltSidePanelComponent</title>
<polygon fill="#ffffb3" stroke="#000000" points="187.441,-122 32.559,-122 32.559,-86 187.441,-86 187.441,-122"/>
<text text-anchor="middle" x="110" y="-99.8" font-family="Times,serif" font-size="14.00" fill="#000000">CltSidePanelComponent</text>
</g>
<!-- CltSidePanelComponent&#45;&gt;CltOverlayModule -->
<g id="edge4" class="edge">
<title>CltSidePanelComponent&#45;&gt;CltOverlayModule</title>
<path fill="none" stroke="#000000" d="M187.4963,-104C195.3206,-104 200.4565,-104 200.4565,-104 200.4565,-104 200.4565,-140.8939 200.4565,-140.8939"/>
<polygon fill="#000000" stroke="#000000" points="196.9566,-140.8938 200.4565,-150.8939 203.9566,-140.8939 196.9566,-140.8938"/>
</g>
<!-- CltNotificationsComponent  -->
<g id="node6" class="node">
<title>CltNotificationsComponent </title>
<polygon fill="#fb8072" stroke="#000000" points="633.5442,-252 458.4558,-252 458.4558,-216 633.5442,-216 633.5442,-252"/>
<text text-anchor="middle" x="546" y="-229.8" font-family="Times,serif" font-size="14.00" fill="#000000">CltNotificationsComponent </text>
</g>
<!-- CltOverlayModule&#45;&gt;CltNotificationsComponent  -->
<g id="edge5" class="edge">
<title>CltOverlayModule&#45;&gt;CltNotificationsComponent </title>
<path fill="none" stroke="#000000" stroke-dasharray="5,2" d="M317.7943,-175C394.0436,-175 514.9093,-175 514.9093,-175 514.9093,-175 514.9093,-205.9775 514.9093,-205.9775"/>
<polygon fill="#000000" stroke="#000000" points="511.4094,-205.9774 514.9093,-215.9775 518.4094,-205.9775 511.4094,-205.9774"/>
</g>
<!-- PopupComponent  -->
<g id="node7" class="node">
<title>PopupComponent </title>
<polygon fill="#fb8072" stroke="#000000" points="440.1156,-252 319.8844,-252 319.8844,-216 440.1156,-216 440.1156,-252"/>
<text text-anchor="middle" x="380" y="-229.8" font-family="Times,serif" font-size="14.00" fill="#000000">PopupComponent </text>
</g>
<!-- CltOverlayModule&#45;&gt;PopupComponent  -->
<g id="edge6" class="edge">
<title>CltOverlayModule&#45;&gt;PopupComponent </title>
<path fill="none" stroke="#000000" stroke-dasharray="5,2" d="M309.9185,-187.1061C309.9185,-206.3391 309.9185,-234 309.9185,-234 309.9185,-234 310.893,-234 310.893,-234"/>
<polygon fill="#000000" stroke="#000000" points="309.6631,-237.5001 319.663,-234 309.663,-230.5001 309.6631,-237.5001"/>
</g>
<!-- BodyDirective  -->
<g id="node8" class="node">
<title>BodyDirective </title>
<polygon fill="#fb8072" stroke="#000000" points="301.9194,-252 200.0806,-252 200.0806,-216 301.9194,-216 301.9194,-252"/>
<text text-anchor="middle" x="251" y="-229.8" font-family="Times,serif" font-size="14.00" fill="#000000">BodyDirective </text>
</g>
<!-- CltOverlayModule&#45;&gt;BodyDirective  -->
<g id="edge7" class="edge">
<title>CltOverlayModule&#45;&gt;BodyDirective </title>
<path fill="none" stroke="#000000" stroke-dasharray="5,2" d="M251,-187.1061C251,-187.1061 251,-205.991 251,-205.991"/>
<polygon fill="#000000" stroke="#000000" points="247.5001,-205.9909 251,-215.991 254.5001,-205.991 247.5001,-205.9909"/>
</g>
<!-- CltSidePanelComponent  -->
<g id="node9" class="node">
<title>CltSidePanelComponent </title>
<polygon fill="#fb8072" stroke="#000000" points="181.9404,-252 24.0596,-252 24.0596,-216 181.9404,-216 181.9404,-252"/>
<text text-anchor="middle" x="103" y="-229.8" font-family="Times,serif" font-size="14.00" fill="#000000">CltSidePanelComponent </text>
</g>
<!-- CltOverlayModule&#45;&gt;CltSidePanelComponent  -->
<g id="edge8" class="edge">
<title>CltOverlayModule&#45;&gt;CltSidePanelComponent </title>
<path fill="none" stroke="#000000" stroke-dasharray="5,2" d="M196.1418,-169C154.7173,-169 107.375,-169 107.375,-169 107.375,-169 107.375,-205.8939 107.375,-205.8939"/>
<polygon fill="#000000" stroke="#000000" points="103.8751,-205.8938 107.375,-215.8939 110.8751,-205.8939 103.8751,-205.8938"/>
</g>
</g>
</svg>
