<?xml version="1.0" encoding="UTF-8" standalone="no"?>
<!DOCTYPE svg PUBLIC "-//W3C//DTD SVG 1.1//EN"
 "http://www.w3.org/Graphics/SVG/1.1/DTD/svg11.dtd">
<!-- Generated by graphviz version 2.40.1 (20161225.0304)
 -->
<!-- Title: dependencies Pages: 1 -->
<svg width="699pt" height="284pt"
 viewBox="0.00 0.00 699.00 284.00" xmlns="http://www.w3.org/2000/svg" xmlns:xlink="http://www.w3.org/1999/xlink">
<g id="graph0" class="graph" transform="scale(1 1) rotate(0) translate(4 280)">
<title>dependencies</title>
<polygon fill="#ffffff" stroke="transparent" points="-4,4 -4,-280 695,-280 695,4 -4,4"/>
<text text-anchor="start" x="324.5091" y="-42.4" font-family="sans-serif" font-weight="bold" font-size="14.00" fill="#000000">Legend</text>
<polygon fill="#ffffb3" stroke="transparent" points="111.5,-10 111.5,-30 131.5,-30 131.5,-10 111.5,-10"/>
<text text-anchor="start" x="135.129" y="-15.4" font-family="sans-serif" font-size="14.00" fill="#000000"> &#160;Declarations</text>
<polygon fill="#8dd3c7" stroke="transparent" points="224.5,-10 224.5,-30 244.5,-30 244.5,-10 224.5,-10"/>
<text text-anchor="start" x="248.2251" y="-15.4" font-family="sans-serif" font-size="14.00" fill="#000000"> &#160;Module</text>
<polygon fill="#80b1d3" stroke="transparent" points="310.5,-10 310.5,-30 330.5,-30 330.5,-10 310.5,-10"/>
<text text-anchor="start" x="334.2812" y="-15.4" font-family="sans-serif" font-size="14.00" fill="#000000"> &#160;Bootstrap</text>
<polygon fill="#fdb462" stroke="transparent" points="407.5,-10 407.5,-30 427.5,-30 427.5,-10 407.5,-10"/>
<text text-anchor="start" x="431.1732" y="-15.4" font-family="sans-serif" font-size="14.00" fill="#000000"> &#160;Providers</text>
<polygon fill="#fb8072" stroke="transparent" points="503.5,-10 503.5,-30 523.5,-30 523.5,-10 503.5,-10"/>
<text text-anchor="start" x="527.2258" y="-15.4" font-family="sans-serif" font-size="14.00" fill="#000000"> &#160;Exports</text>
<g id="clust1" class="cluster">
<title>cluster_CltOverlayModule</title>
<polygon fill="none" stroke="#000000" stroke-dasharray="1,5" points="8,-70 8,-268 683,-268 683,-70 8,-70"/>
</g>
<g id="clust2" class="cluster">
<title>cluster_CltOverlayModule_declarations</title>
<polygon fill="none" stroke="#000000" points="24,-78 24,-130 670,-130 670,-78 24,-78"/>
</g>
<g id="clust8" class="cluster">
<title>cluster_CltOverlayModule_exports</title>
<polygon fill="none" stroke="#000000" points="16,-208 16,-260 675,-260 675,-208 16,-208"/>
</g>
<!-- CltNotificationsComponent -->
<g id="node1" class="node">
<title>CltNotificationsComponent</title>
<polygon fill="#ffffb3" stroke="#000000" points="661.5448,-122 490.4552,-122 490.4552,-86 661.5448,-86 661.5448,-122"/>
<text text-anchor="middle" x="576" y="-99.8" font-family="Times,serif" font-size="14.00" fill="#000000">CltNotificationsComponent</text>
</g>
<!-- CltOverlayModule -->
<g id="node5" class="node">
<title>CltOverlayModule</title>
<polygon fill="#8dd3c7" stroke="#000000" points="324.7548,-187 321.7548,-191 300.7548,-191 297.7548,-187 203.2452,-187 203.2452,-151 324.7548,-151 324.7548,-187"/>
<text text-anchor="middle" x="264" y="-164.8" font-family="Times,serif" font-size="14.00" fill="#000000">CltOverlayModule</text>
</g>
<!-- CltNotificationsComponent&#45;&gt;CltOverlayModule -->
<g id="edge1" class="edge">
<title>CltNotificationsComponent&#45;&gt;CltOverlayModule</title>
<path fill="none" stroke="#000000" d="M605.0074,-122.2667C605.0074,-140.5552 605.0074,-166 605.0074,-166 605.0074,-166 334.9653,-166 334.9653,-166"/>
<polygon fill="#000000" stroke="#000000" points="334.9653,-162.5001 324.9653,-166 334.9652,-169.5001 334.9653,-162.5001"/>
</g>
<!-- CltPopupComponent -->
<g id="node2" class="node">
<title>CltPopupComponent</title>
<polygon fill="#ffffb3" stroke="#000000" points="472.233,-122 337.767,-122 337.767,-86 472.233,-86 472.233,-122"/>
<text text-anchor="middle" x="405" y="-99.8" font-family="Times,serif" font-size="14.00" fill="#000000">CltPopupComponent</text>
</g>
<!-- CltPopupComponent&#45;&gt;CltOverlayModule -->
<g id="edge2" class="edge">
<title>CltPopupComponent&#45;&gt;CltOverlayModule</title>
<path fill="none" stroke="#000000" d="M427.3721,-122.0091C427.3721,-138.0494 427.3721,-159 427.3721,-159 427.3721,-159 334.8338,-159 334.8338,-159"/>
<polygon fill="#000000" stroke="#000000" points="334.8338,-155.5001 324.8338,-159 334.8337,-162.5001 334.8338,-155.5001"/>
</g>
<!-- CltBodyDirective -->
<g id="node3" class="node">
<title>CltBodyDirective</title>
<polygon fill="#ffffb3" stroke="#000000" points="319.5381,-122 204.4619,-122 204.4619,-86 319.5381,-86 319.5381,-122"/>
<text text-anchor="middle" x="262" y="-99.8" font-family="Times,serif" font-size="14.00" fill="#000000">CltBodyDirective</text>
</g>
<!-- CltBodyDirective&#45;&gt;CltOverlayModule -->
<g id="edge3" class="edge">
<title>CltBodyDirective&#45;&gt;CltOverlayModule</title>
<path fill="none" stroke="#000000" d="M262,-122.1061C262,-122.1061 262,-140.991 262,-140.991"/>
<polygon fill="#000000" stroke="#000000" points="258.5001,-140.9909 262,-150.991 265.5001,-140.991 258.5001,-140.9909"/>
</g>
<!-- CltSidePanelComponent -->
<g id="node4" class="node">
<title>CltSidePanelComponent</title>
<polygon fill="#ffffb3" stroke="#000000" points="186.441,-122 31.559,-122 31.559,-86 186.441,-86 186.441,-122"/>
<text text-anchor="middle" x="109" y="-99.8" font-family="Times,serif" font-size="14.00" fill="#000000">CltSidePanelComponent</text>
</g>
<!-- CltSidePanelComponent&#45;&gt;CltOverlayModule -->
<g id="edge4" class="edge">
<title>CltSidePanelComponent&#45;&gt;CltOverlayModule</title>
<path fill="none" stroke="#000000" d="M131.9067,-122.0225C131.9067,-139.3734 131.9067,-163 131.9067,-163 131.9067,-163 192.9799,-163 192.9799,-163"/>
<polygon fill="#000000" stroke="#000000" points="192.98,-166.5001 202.9799,-163 192.9799,-159.5001 192.98,-166.5001"/>
</g>
<!-- CltNotificationsComponent  -->
<g id="node6" class="node">
<title>CltNotificationsComponent </title>
<polygon fill="#fb8072" stroke="#000000" points="666.5442,-252 491.4558,-252 491.4558,-216 666.5442,-216 666.5442,-252"/>
<text text-anchor="middle" x="579" y="-229.8" font-family="Times,serif" font-size="14.00" fill="#000000">CltNotificationsComponent </text>
</g>
<!-- CltOverlayModule&#45;&gt;CltNotificationsComponent  -->
<g id="edge5" class="edge">
<title>CltOverlayModule&#45;&gt;CltNotificationsComponent </title>
<path fill="none" stroke="#000000" stroke-dasharray="5,2" d="M324.9772,-173C408.497,-173 548.2426,-173 548.2426,-173 548.2426,-173 548.2426,-205.698 548.2426,-205.698"/>
<polygon fill="#000000" stroke="#000000" points="544.7427,-205.698 548.2426,-215.698 551.7427,-205.698 544.7427,-205.698"/>
</g>
<!-- CltPopupComponent  -->
<g id="node7" class="node">
<title>CltPopupComponent </title>
<polygon fill="#fb8072" stroke="#000000" points="473.7331,-252 336.2669,-252 336.2669,-216 473.7331,-216 473.7331,-252"/>
<text text-anchor="middle" x="405" y="-229.8" font-family="Times,serif" font-size="14.00" fill="#000000">CltPopupComponent </text>
</g>
<!-- CltOverlayModule&#45;&gt;CltPopupComponent  -->
<g id="edge6" class="edge">
<title>CltOverlayModule&#45;&gt;CltPopupComponent </title>
<path fill="none" stroke="#000000" stroke-dasharray="5,2" d="M325.0514,-180C354.1181,-180 382.6279,-180 382.6279,-180 382.6279,-180 382.6279,-205.7181 382.6279,-205.7181"/>
<polygon fill="#000000" stroke="#000000" points="379.128,-205.718 382.6279,-215.7181 386.128,-205.7181 379.128,-205.718"/>
</g>
<!-- CltBodyDirective  -->
<g id="node8" class="node">
<title>CltBodyDirective </title>
<polygon fill="#fb8072" stroke="#000000" points="318.5372,-252 199.4628,-252 199.4628,-216 318.5372,-216 318.5372,-252"/>
<text text-anchor="middle" x="259" y="-229.8" font-family="Times,serif" font-size="14.00" fill="#000000">CltBodyDirective </text>
</g>
<!-- CltOverlayModule&#45;&gt;CltBodyDirective  -->
<g id="edge7" class="edge">
<title>CltOverlayModule&#45;&gt;CltBodyDirective </title>
<path fill="none" stroke="#000000" stroke-dasharray="5,2" d="M260.8207,-187.1061C260.8207,-187.1061 260.8207,-205.991 260.8207,-205.991"/>
<polygon fill="#000000" stroke="#000000" points="257.3207,-205.9909 260.8207,-215.991 264.3207,-205.991 257.3207,-205.9909"/>
</g>
<!-- CltSidePanelComponent  -->
<g id="node9" class="node">
<title>CltSidePanelComponent </title>
<polygon fill="#fb8072" stroke="#000000" points="181.9404,-252 24.0596,-252 24.0596,-216 181.9404,-216 181.9404,-252"/>
<text text-anchor="middle" x="103" y="-229.8" font-family="Times,serif" font-size="14.00" fill="#000000">CltSidePanelComponent </text>
</g>
<!-- CltOverlayModule&#45;&gt;CltSidePanelComponent  -->
<g id="edge8" class="edge">
<title>CltOverlayModule&#45;&gt;CltSidePanelComponent </title>
<path fill="none" stroke="#000000" stroke-dasharray="5,2" d="M203.0912,-175C150.1369,-175 81.8433,-175 81.8433,-175 81.8433,-175 81.8433,-205.9775 81.8433,-205.9775"/>
<polygon fill="#000000" stroke="#000000" points="78.3434,-205.9774 81.8433,-215.9775 85.3434,-205.9775 78.3434,-205.9774"/>
</g>
</g>
</svg>
