<?xml version="1.0" encoding="UTF-8" standalone="no"?>
<!DOCTYPE svg PUBLIC "-//W3C//DTD SVG 1.1//EN"
 "http://www.w3.org/Graphics/SVG/1.1/DTD/svg11.dtd">
<!-- Generated by graphviz version 2.40.1 (20161225.0304)
 -->
<!-- Title: dependencies Pages: 1 -->
<svg width="927pt" height="284pt"
 viewBox="0.00 0.00 927.00 284.00" xmlns="http://www.w3.org/2000/svg" xmlns:xlink="http://www.w3.org/1999/xlink">
<g id="graph0" class="graph" transform="scale(1 1) rotate(0) translate(4 280)">
<title>dependencies</title>
<polygon fill="#ffffff" stroke="transparent" points="-4,4 -4,-280 923,-280 923,4 -4,4"/>
<text text-anchor="start" x="438.5091" y="-42.4" font-family="sans-serif" font-weight="bold" font-size="14.00" fill="#000000">Legend</text>
<polygon fill="#ffffb3" stroke="transparent" points="225.5,-10 225.5,-30 245.5,-30 245.5,-10 225.5,-10"/>
<text text-anchor="start" x="249.129" y="-15.4" font-family="sans-serif" font-size="14.00" fill="#000000"> &#160;Declarations</text>
<polygon fill="#8dd3c7" stroke="transparent" points="338.5,-10 338.5,-30 358.5,-30 358.5,-10 338.5,-10"/>
<text text-anchor="start" x="362.2251" y="-15.4" font-family="sans-serif" font-size="14.00" fill="#000000"> &#160;Module</text>
<polygon fill="#80b1d3" stroke="transparent" points="424.5,-10 424.5,-30 444.5,-30 444.5,-10 424.5,-10"/>
<text text-anchor="start" x="448.2812" y="-15.4" font-family="sans-serif" font-size="14.00" fill="#000000"> &#160;Bootstrap</text>
<polygon fill="#fdb462" stroke="transparent" points="521.5,-10 521.5,-30 541.5,-30 541.5,-10 521.5,-10"/>
<text text-anchor="start" x="545.1732" y="-15.4" font-family="sans-serif" font-size="14.00" fill="#000000"> &#160;Providers</text>
<polygon fill="#fb8072" stroke="transparent" points="617.5,-10 617.5,-30 637.5,-30 637.5,-10 617.5,-10"/>
<text text-anchor="start" x="641.2258" y="-15.4" font-family="sans-serif" font-size="14.00" fill="#000000"> &#160;Exports</text>
<g id="clust1" class="cluster">
<title>cluster_DemoModule</title>
<polygon fill="none" stroke="#000000" stroke-dasharray="1,5" points="8,-70 8,-268 911,-268 911,-70 8,-70"/>
</g>
<g id="clust2" class="cluster">
<title>cluster_DemoModule_declarations</title>
<polygon fill="none" stroke="#000000" points="771,-78 771,-130 903,-130 903,-78 771,-78"/>
</g>
<g id="clust4" class="cluster">
<title>cluster_DemoModule_imports</title>
<polygon fill="none" stroke="#000000" points="16,-78 16,-130 763,-130 763,-78 16,-78"/>
</g>
<g id="clust5" class="cluster">
<title>cluster_DemoModule_exports</title>
<polygon fill="none" stroke="#000000" points="389,-208 389,-260 525,-260 525,-208 389,-208"/>
</g>
<!-- DemoComponent -->
<g id="node1" class="node">
<title>DemoComponent</title>
<polygon fill="#ffffb3" stroke="#000000" points="894.5451,-122 779.4549,-122 779.4549,-86 894.5451,-86 894.5451,-122"/>
<text text-anchor="middle" x="837" y="-99.8" font-family="Times,serif" font-size="14.00" fill="#000000">DemoComponent</text>
</g>
<!-- DemoModule -->
<g id="node2" class="node">
<title>DemoModule</title>
<polygon fill="#8dd3c7" stroke="#000000" points="503.7619,-187 500.7619,-191 479.7619,-191 476.7619,-187 410.2381,-187 410.2381,-151 503.7619,-151 503.7619,-187"/>
<text text-anchor="middle" x="457" y="-164.8" font-family="Times,serif" font-size="14.00" fill="#000000">DemoModule</text>
</g>
<!-- DemoComponent&#45;&gt;DemoModule -->
<g id="edge1" class="edge">
<title>DemoComponent&#45;&gt;DemoModule</title>
<path fill="none" stroke="#000000" d="M837,-122.2843C837,-143.3211 837,-175 837,-175 837,-175 513.9766,-175 513.9766,-175"/>
<polygon fill="#000000" stroke="#000000" points="513.9766,-171.5001 503.9766,-175 513.9766,-178.5001 513.9766,-171.5001"/>
</g>
<!-- DemoComponent  -->
<g id="node8" class="node">
<title>DemoComponent </title>
<polygon fill="#fb8072" stroke="#000000" points="516.5442,-252 397.4558,-252 397.4558,-216 516.5442,-216 516.5442,-252"/>
<text text-anchor="middle" x="457" y="-229.8" font-family="Times,serif" font-size="14.00" fill="#000000">DemoComponent </text>
</g>
<!-- DemoModule&#45;&gt;DemoComponent  -->
<g id="edge7" class="edge">
<title>DemoModule&#45;&gt;DemoComponent </title>
<path fill="none" stroke="#000000" stroke-dasharray="5,2" d="M457,-187.1061C457,-187.1061 457,-205.991 457,-205.991"/>
<polygon fill="#000000" stroke="#000000" points="453.5001,-205.9909 457,-215.991 460.5001,-205.991 453.5001,-205.9909"/>
</g>
<!-- DefiFormsModule -->
<g id="node3" class="node">
<title>DefiFormsModule</title>
<polygon fill="#8dd3c7" stroke="#000000" points="755.2008,-122 752.2008,-126 731.2008,-126 728.2008,-122 634.7992,-122 634.7992,-86 755.2008,-86 755.2008,-122"/>
<text text-anchor="middle" x="695" y="-99.8" font-family="Times,serif" font-size="14.00" fill="#000000">DefiFormsModule</text>
</g>
<!-- DefiFormsModule&#45;&gt;DemoModule -->
<g id="edge2" class="edge">
<title>DefiFormsModule&#45;&gt;DemoModule</title>
<path fill="none" stroke="#000000" d="M695,-122.0225C695,-139.3734 695,-163 695,-163 695,-163 514.0211,-163 514.0211,-163"/>
<polygon fill="#000000" stroke="#000000" points="514.0212,-159.5001 504.0211,-163 514.0211,-166.5001 514.0212,-159.5001"/>
</g>
<!-- DefiNavigationsModule -->
<g id="node4" class="node">
<title>DefiNavigationsModule</title>
<polygon fill="#8dd3c7" stroke="#000000" points="617.0744,-122 614.0744,-126 593.0744,-126 590.0744,-122 464.9256,-122 464.9256,-86 617.0744,-86 617.0744,-122"/>
<text text-anchor="middle" x="541" y="-99.8" font-family="Times,serif" font-size="14.00" fill="#000000">DefiNavigationsModule</text>
</g>
<!-- DefiNavigationsModule&#45;&gt;DemoModule -->
<g id="edge3" class="edge">
<title>DefiNavigationsModule&#45;&gt;DemoModule</title>
<path fill="none" stroke="#000000" d="M484.4218,-122.1061C484.4218,-122.1061 484.4218,-140.991 484.4218,-140.991"/>
<polygon fill="#000000" stroke="#000000" points="480.9219,-140.9909 484.4218,-150.991 487.9219,-140.991 480.9219,-140.9909"/>
</g>
<!-- DefiContainersModule -->
<g id="node5" class="node">
<title>DefiContainersModule</title>
<polygon fill="#8dd3c7" stroke="#000000" points="446.5744,-122 443.5744,-126 422.5744,-126 419.5744,-122 301.4256,-122 301.4256,-86 446.5744,-86 446.5744,-122"/>
<text text-anchor="middle" x="374" y="-99.8" font-family="Times,serif" font-size="14.00" fill="#000000">DefiContainersModule</text>
</g>
<!-- DefiContainersModule&#45;&gt;DemoModule -->
<g id="edge4" class="edge">
<title>DefiContainersModule&#45;&gt;DemoModule</title>
<path fill="none" stroke="#000000" d="M428.3282,-122.1061C428.3282,-122.1061 428.3282,-140.991 428.3282,-140.991"/>
<polygon fill="#000000" stroke="#000000" points="424.8283,-140.9909 428.3282,-150.991 431.8283,-140.991 424.8283,-140.9909"/>
</g>
<!-- DefiOverlayModule -->
<g id="node6" class="node">
<title>DefiOverlayModule</title>
<polygon fill="#8dd3c7" stroke="#000000" points="283.5101,-122 280.5101,-126 259.5101,-126 256.5101,-122 154.4899,-122 154.4899,-86 283.5101,-86 283.5101,-122"/>
<text text-anchor="middle" x="219" y="-99.8" font-family="Times,serif" font-size="14.00" fill="#000000">DefiOverlayModule</text>
</g>
<!-- DefiOverlayModule&#45;&gt;DemoModule -->
<g id="edge5" class="edge">
<title>DefiOverlayModule&#45;&gt;DemoModule</title>
<path fill="none" stroke="#000000" d="M219,-122.0225C219,-139.3734 219,-163 219,-163 219,-163 399.9789,-163 399.9789,-163"/>
<polygon fill="#000000" stroke="#000000" points="399.9789,-166.5001 409.9789,-163 399.9788,-159.5001 399.9789,-166.5001"/>
</g>
<!-- DefiCoreModule -->
<g id="node7" class="node">
<title>DefiCoreModule</title>
<polygon fill="#8dd3c7" stroke="#000000" points="135.6346,-122 132.6346,-126 111.6346,-126 108.6346,-122 24.3654,-122 24.3654,-86 135.6346,-86 135.6346,-122"/>
<text text-anchor="middle" x="80" y="-99.8" font-family="Times,serif" font-size="14.00" fill="#000000">DefiCoreModule</text>
</g>
<!-- DefiCoreModule&#45;&gt;DemoModule -->
<g id="edge6" class="edge">
<title>DefiCoreModule&#45;&gt;DemoModule</title>
<path fill="none" stroke="#000000" d="M80,-122.2843C80,-143.3211 80,-175 80,-175 80,-175 400.015,-175 400.015,-175"/>
<polygon fill="#000000" stroke="#000000" points="400.015,-178.5001 410.015,-175 400.0149,-171.5001 400.015,-178.5001"/>
</g>
</g>
</svg>
