<?xml version="1.0" encoding="UTF-8" standalone="no"?>
<!DOCTYPE svg PUBLIC "-//W3C//DTD SVG 1.1//EN"
 "http://www.w3.org/Graphics/SVG/1.1/DTD/svg11.dtd">
<!-- Generated by graphviz version 2.40.1 (20161225.0304)
 -->
<!-- Title: dependencies Pages: 1 -->
<svg width="516pt" height="284pt"
 viewBox="0.00 0.00 516.00 284.00" xmlns="http://www.w3.org/2000/svg" xmlns:xlink="http://www.w3.org/1999/xlink">
<g id="graph0" class="graph" transform="scale(1 1) rotate(0) translate(4 280)">
<title>dependencies</title>
<polygon fill="#ffffff" stroke="transparent" points="-4,4 -4,-280 512,-280 512,4 -4,4"/>
<text text-anchor="start" x="233.0091" y="-42.4" font-family="sans-serif" font-weight="bold" font-size="14.00" fill="#000000">Legend</text>
<polygon fill="#ffffb3" stroke="transparent" points="20,-10 20,-30 40,-30 40,-10 20,-10"/>
<text text-anchor="start" x="43.629" y="-15.4" font-family="sans-serif" font-size="14.00" fill="#000000"> &#160;Declarations</text>
<polygon fill="#8dd3c7" stroke="transparent" points="133,-10 133,-30 153,-30 153,-10 133,-10"/>
<text text-anchor="start" x="156.7251" y="-15.4" font-family="sans-serif" font-size="14.00" fill="#000000"> &#160;Module</text>
<polygon fill="#80b1d3" stroke="transparent" points="219,-10 219,-30 239,-30 239,-10 219,-10"/>
<text text-anchor="start" x="242.7812" y="-15.4" font-family="sans-serif" font-size="14.00" fill="#000000"> &#160;Bootstrap</text>
<polygon fill="#fdb462" stroke="transparent" points="316,-10 316,-30 336,-30 336,-10 316,-10"/>
<text text-anchor="start" x="339.6732" y="-15.4" font-family="sans-serif" font-size="14.00" fill="#000000"> &#160;Providers</text>
<polygon fill="#fb8072" stroke="transparent" points="412,-10 412,-30 432,-30 432,-10 412,-10"/>
<text text-anchor="start" x="435.7258" y="-15.4" font-family="sans-serif" font-size="14.00" fill="#000000"> &#160;Exports</text>
<g id="clust1" class="cluster">
<title>cluster_CltDisplayModule</title>
<polygon fill="none" stroke="#000000" stroke-dasharray="1,5" points="8,-70 8,-268 500,-268 500,-70 8,-70"/>
</g>
<g id="clust2" class="cluster">
<title>cluster_CltDisplayModule_declarations</title>
<polygon fill="none" stroke="#000000" points="162,-78 162,-130 492,-130 492,-78 162,-78"/>
</g>
<g id="clust5" class="cluster">
<title>cluster_CltDisplayModule_imports</title>
<polygon fill="none" stroke="#000000" points="16,-78 16,-130 154,-130 154,-78 16,-78"/>
</g>
<g id="clust6" class="cluster">
<title>cluster_CltDisplayModule_exports</title>
<polygon fill="none" stroke="#000000" points="85,-208 85,-260 423,-260 423,-208 85,-208"/>
</g>
<!-- CltDisplayComponent -->
<g id="node1" class="node">
<title>CltDisplayComponent</title>
<polygon fill="#ffffb3" stroke="#000000" points="483.9972,-122 342.0028,-122 342.0028,-86 483.9972,-86 483.9972,-122"/>
<text text-anchor="middle" x="413" y="-99.8" font-family="Times,serif" font-size="14.00" fill="#000000">CltDisplayComponent</text>
</g>
<!-- CltDisplayModule -->
<g id="node3" class="node">
<title>CltDisplayModule</title>
<polygon fill="#8dd3c7" stroke="#000000" points="307.2148,-187 304.2148,-191 283.2148,-191 280.2148,-187 186.7852,-187 186.7852,-151 307.2148,-151 307.2148,-187"/>
<text text-anchor="middle" x="247" y="-164.8" font-family="Times,serif" font-size="14.00" fill="#000000">CltDisplayModule</text>
</g>
<!-- CltDisplayComponent&#45;&gt;CltDisplayModule -->
<g id="edge1" class="edge">
<title>CltDisplayComponent&#45;&gt;CltDisplayModule</title>
<path fill="none" stroke="#000000" d="M378.375,-122.1061C378.375,-141.3391 378.375,-169 378.375,-169 378.375,-169 317.3044,-169 317.3044,-169"/>
<polygon fill="#000000" stroke="#000000" points="317.3045,-165.5001 307.3044,-169 317.3044,-172.5001 317.3045,-165.5001"/>
</g>
<!-- CltDisplayItemDirective -->
<g id="node2" class="node">
<title>CltDisplayItemDirective</title>
<polygon fill="#ffffb3" stroke="#000000" points="324.4045,-122 169.5955,-122 169.5955,-86 324.4045,-86 324.4045,-122"/>
<text text-anchor="middle" x="247" y="-99.8" font-family="Times,serif" font-size="14.00" fill="#000000">CltDisplayItemDirective</text>
</g>
<!-- CltDisplayItemDirective&#45;&gt;CltDisplayModule -->
<g id="edge2" class="edge">
<title>CltDisplayItemDirective&#45;&gt;CltDisplayModule</title>
<path fill="none" stroke="#000000" d="M247,-122.1061C247,-122.1061 247,-140.991 247,-140.991"/>
<polygon fill="#000000" stroke="#000000" points="243.5001,-140.9909 247,-150.991 250.5001,-140.991 243.5001,-140.9909"/>
</g>
<!-- CltDisplayComponent  -->
<g id="node5" class="node">
<title>CltDisplayComponent </title>
<polygon fill="#fb8072" stroke="#000000" points="414.9981,-252 269.0019,-252 269.0019,-216 414.9981,-216 414.9981,-252"/>
<text text-anchor="middle" x="342" y="-229.8" font-family="Times,serif" font-size="14.00" fill="#000000">CltDisplayComponent </text>
</g>
<!-- CltDisplayModule&#45;&gt;CltDisplayComponent  -->
<g id="edge4" class="edge">
<title>CltDisplayModule&#45;&gt;CltDisplayComponent </title>
<path fill="none" stroke="#000000" stroke-dasharray="5,2" d="M288.1794,-187.1061C288.1794,-187.1061 288.1794,-205.991 288.1794,-205.991"/>
<polygon fill="#000000" stroke="#000000" points="284.6794,-205.9909 288.1794,-215.991 291.6794,-205.991 284.6794,-205.9909"/>
</g>
<!-- CltDisplayItemDirective  -->
<g id="node6" class="node">
<title>CltDisplayItemDirective </title>
<polygon fill="#fb8072" stroke="#000000" points="250.904,-252 93.096,-252 93.096,-216 250.904,-216 250.904,-252"/>
<text text-anchor="middle" x="172" y="-229.8" font-family="Times,serif" font-size="14.00" fill="#000000">CltDisplayItemDirective </text>
</g>
<!-- CltDisplayModule&#45;&gt;CltDisplayItemDirective  -->
<g id="edge5" class="edge">
<title>CltDisplayModule&#45;&gt;CltDisplayItemDirective </title>
<path fill="none" stroke="#000000" stroke-dasharray="5,2" d="M218.9224,-187.1061C218.9224,-187.1061 218.9224,-205.991 218.9224,-205.991"/>
<polygon fill="#000000" stroke="#000000" points="215.4224,-205.9909 218.9224,-215.991 222.4224,-205.991 215.4224,-205.9909"/>
</g>
<!-- CltOverlayModule -->
<g id="node4" class="node">
<title>CltOverlayModule</title>
<polygon fill="#8dd3c7" stroke="#000000" points="145.7548,-122 142.7548,-126 121.7548,-126 118.7548,-122 24.2452,-122 24.2452,-86 145.7548,-86 145.7548,-122"/>
<text text-anchor="middle" x="85" y="-99.8" font-family="Times,serif" font-size="14.00" fill="#000000">CltOverlayModule</text>
</g>
<!-- CltOverlayModule&#45;&gt;CltDisplayModule -->
<g id="edge3" class="edge">
<title>CltOverlayModule&#45;&gt;CltDisplayModule</title>
<path fill="none" stroke="#000000" d="M119.4627,-122.1061C119.4627,-141.3391 119.4627,-169 119.4627,-169 119.4627,-169 176.5927,-169 176.5927,-169"/>
<polygon fill="#000000" stroke="#000000" points="176.5928,-172.5001 186.5927,-169 176.5927,-165.5001 176.5928,-172.5001"/>
</g>
</g>
</svg>
