<?xml version="1.0" encoding="UTF-8" standalone="no"?>
<!DOCTYPE svg PUBLIC "-//W3C//DTD SVG 1.1//EN"
 "http://www.w3.org/Graphics/SVG/1.1/DTD/svg11.dtd">
<!-- Generated by graphviz version 2.40.1 (20161225.0304)
 -->
<!-- Title: dependencies Pages: 1 -->
<svg width="681pt" height="284pt"
 viewBox="0.00 0.00 681.00 284.00" xmlns="http://www.w3.org/2000/svg" xmlns:xlink="http://www.w3.org/1999/xlink">
<g id="graph0" class="graph" transform="scale(1 1) rotate(0) translate(4 280)">
<title>dependencies</title>
<polygon fill="#ffffff" stroke="transparent" points="-4,4 -4,-280 677,-280 677,4 -4,4"/>
<text text-anchor="start" x="315.5091" y="-42.4" font-family="sans-serif" font-weight="bold" font-size="14.00" fill="#000000">Legend</text>
<polygon fill="#ffffb3" stroke="transparent" points="102.5,-10 102.5,-30 122.5,-30 122.5,-10 102.5,-10"/>
<text text-anchor="start" x="126.129" y="-15.4" font-family="sans-serif" font-size="14.00" fill="#000000"> &#160;Declarations</text>
<polygon fill="#8dd3c7" stroke="transparent" points="215.5,-10 215.5,-30 235.5,-30 235.5,-10 215.5,-10"/>
<text text-anchor="start" x="239.2251" y="-15.4" font-family="sans-serif" font-size="14.00" fill="#000000"> &#160;Module</text>
<polygon fill="#80b1d3" stroke="transparent" points="301.5,-10 301.5,-30 321.5,-30 321.5,-10 301.5,-10"/>
<text text-anchor="start" x="325.2812" y="-15.4" font-family="sans-serif" font-size="14.00" fill="#000000"> &#160;Bootstrap</text>
<polygon fill="#fdb462" stroke="transparent" points="398.5,-10 398.5,-30 418.5,-30 418.5,-10 398.5,-10"/>
<text text-anchor="start" x="422.1732" y="-15.4" font-family="sans-serif" font-size="14.00" fill="#000000"> &#160;Providers</text>
<polygon fill="#fb8072" stroke="transparent" points="494.5,-10 494.5,-30 514.5,-30 514.5,-10 494.5,-10"/>
<text text-anchor="start" x="518.2258" y="-15.4" font-family="sans-serif" font-size="14.00" fill="#000000"> &#160;Exports</text>
<g id="clust1" class="cluster">
<title>cluster_DefiOverlayModule</title>
<polygon fill="none" stroke="#000000" stroke-dasharray="1,5" points="8,-70 8,-268 665,-268 665,-70 8,-70"/>
</g>
<g id="clust2" class="cluster">
<title>cluster_DefiOverlayModule_declarations</title>
<polygon fill="none" stroke="#000000" points="24,-78 24,-130 651,-130 651,-78 24,-78"/>
</g>
<g id="clust8" class="cluster">
<title>cluster_DefiOverlayModule_exports</title>
<polygon fill="none" stroke="#000000" points="16,-208 16,-260 657,-260 657,-208 16,-208"/>
</g>
<!-- DefiNotificationsComponent -->
<g id="node1" class="node">
<title>DefiNotificationsComponent</title>
<polygon fill="#ffffb3" stroke="#000000" points="642.799,-122 463.201,-122 463.201,-86 642.799,-86 642.799,-122"/>
<text text-anchor="middle" x="553" y="-99.8" font-family="Times,serif" font-size="14.00" fill="#000000">DefiNotificationsComponent</text>
</g>
<!-- DefiOverlayModule -->
<g id="node5" class="node">
<title>DefiOverlayModule</title>
<polygon fill="#8dd3c7" stroke="#000000" points="328.5101,-187 325.5101,-191 304.5101,-191 301.5101,-187 199.4899,-187 199.4899,-151 328.5101,-151 328.5101,-187"/>
<text text-anchor="middle" x="264" y="-164.8" font-family="Times,serif" font-size="14.00" fill="#000000">DefiOverlayModule</text>
</g>
<!-- DefiNotificationsComponent&#45;&gt;DefiOverlayModule -->
<g id="edge1" class="edge">
<title>DefiNotificationsComponent&#45;&gt;DefiOverlayModule</title>
<path fill="none" stroke="#000000" d="M583.9665,-122.0225C583.9665,-139.3734 583.9665,-163 583.9665,-163 583.9665,-163 338.75,-163 338.75,-163"/>
<polygon fill="#000000" stroke="#000000" points="338.75,-159.5001 328.75,-163 338.75,-166.5001 338.75,-159.5001"/>
</g>
<!-- PopupComponent -->
<g id="node2" class="node">
<title>PopupComponent</title>
<polygon fill="#ffffb3" stroke="#000000" points="445.6151,-122 328.3849,-122 328.3849,-86 445.6151,-86 445.6151,-122"/>
<text text-anchor="middle" x="387" y="-99.8" font-family="Times,serif" font-size="14.00" fill="#000000">PopupComponent</text>
</g>
<!-- PopupComponent&#45;&gt;DefiOverlayModule -->
<g id="edge2" class="edge">
<title>PopupComponent&#45;&gt;DefiOverlayModule</title>
<path fill="none" stroke="#000000" d="M328.1733,-104C322.7998,-104 319.3261,-104 319.3261,-104 319.3261,-104 319.3261,-140.8939 319.3261,-140.8939"/>
<polygon fill="#000000" stroke="#000000" points="315.8262,-140.8938 319.3261,-150.8939 322.8262,-140.8939 315.8262,-140.8938"/>
</g>
<!-- BodyDirective -->
<g id="node3" class="node">
<title>BodyDirective</title>
<polygon fill="#ffffb3" stroke="#000000" points="310.4203,-122 211.5797,-122 211.5797,-86 310.4203,-86 310.4203,-122"/>
<text text-anchor="middle" x="261" y="-99.8" font-family="Times,serif" font-size="14.00" fill="#000000">BodyDirective</text>
</g>
<!-- BodyDirective&#45;&gt;DefiOverlayModule -->
<g id="edge3" class="edge">
<title>BodyDirective&#45;&gt;DefiOverlayModule</title>
<path fill="none" stroke="#000000" d="M261,-122.1061C261,-122.1061 261,-140.991 261,-140.991"/>
<polygon fill="#000000" stroke="#000000" points="257.5001,-140.9909 261,-150.991 264.5001,-140.991 257.5001,-140.9909"/>
</g>
<!-- DefiSidePanelComponent -->
<g id="node4" class="node">
<title>DefiSidePanelComponent</title>
<polygon fill="#ffffb3" stroke="#000000" points="194.1951,-122 31.8049,-122 31.8049,-86 194.1951,-86 194.1951,-122"/>
<text text-anchor="middle" x="113" y="-99.8" font-family="Times,serif" font-size="14.00" fill="#000000">DefiSidePanelComponent</text>
</g>
<!-- DefiSidePanelComponent&#45;&gt;DefiOverlayModule -->
<g id="edge4" class="edge">
<title>DefiSidePanelComponent&#45;&gt;DefiOverlayModule</title>
<path fill="none" stroke="#000000" d="M194.1733,-104C201.0907,-104 205.5179,-104 205.5179,-104 205.5179,-104 205.5179,-140.8939 205.5179,-140.8939"/>
<polygon fill="#000000" stroke="#000000" points="202.0179,-140.8938 205.5179,-150.8939 209.0179,-140.8939 202.0179,-140.8938"/>
</g>
<!-- DefiNotificationsComponent  -->
<g id="node6" class="node">
<title>DefiNotificationsComponent </title>
<polygon fill="#fb8072" stroke="#000000" points="649.2989,-252 466.7011,-252 466.7011,-216 649.2989,-216 649.2989,-252"/>
<text text-anchor="middle" x="558" y="-229.8" font-family="Times,serif" font-size="14.00" fill="#000000">DefiNotificationsComponent </text>
</g>
<!-- DefiOverlayModule&#45;&gt;DefiNotificationsComponent  -->
<g id="edge5" class="edge">
<title>DefiOverlayModule&#45;&gt;DefiNotificationsComponent </title>
<path fill="none" stroke="#000000" stroke-dasharray="5,2" d="M328.587,-175C405.9605,-175 525.2835,-175 525.2835,-175 525.2835,-175 525.2835,-205.9775 525.2835,-205.9775"/>
<polygon fill="#000000" stroke="#000000" points="521.7836,-205.9774 525.2835,-215.9775 528.7836,-205.9775 521.7836,-205.9774"/>
</g>
<!-- PopupComponent  -->
<g id="node7" class="node">
<title>PopupComponent </title>
<polygon fill="#fb8072" stroke="#000000" points="448.1156,-252 327.8844,-252 327.8844,-216 448.1156,-216 448.1156,-252"/>
<text text-anchor="middle" x="388" y="-229.8" font-family="Times,serif" font-size="14.00" fill="#000000">PopupComponent </text>
</g>
<!-- DefiOverlayModule&#45;&gt;PopupComponent  -->
<g id="edge6" class="edge">
<title>DefiOverlayModule&#45;&gt;PopupComponent </title>
<path fill="none" stroke="#000000" stroke-dasharray="5,2" d="M318.8261,-187.1061C318.8261,-206.3391 318.8261,-234 318.8261,-234 318.8261,-234 319.7304,-234 319.7304,-234"/>
<polygon fill="#000000" stroke="#000000" points="317.8694,-237.5001 327.8694,-234 317.8693,-230.5001 317.8694,-237.5001"/>
</g>
<!-- BodyDirective  -->
<g id="node8" class="node">
<title>BodyDirective </title>
<polygon fill="#fb8072" stroke="#000000" points="309.9194,-252 208.0806,-252 208.0806,-216 309.9194,-216 309.9194,-252"/>
<text text-anchor="middle" x="259" y="-229.8" font-family="Times,serif" font-size="14.00" fill="#000000">BodyDirective </text>
</g>
<!-- DefiOverlayModule&#45;&gt;BodyDirective  -->
<g id="edge7" class="edge">
<title>DefiOverlayModule&#45;&gt;BodyDirective </title>
<path fill="none" stroke="#000000" stroke-dasharray="5,2" d="M259,-187.1061C259,-187.1061 259,-205.991 259,-205.991"/>
<polygon fill="#000000" stroke="#000000" points="255.5001,-205.9909 259,-215.991 262.5001,-205.991 255.5001,-205.9909"/>
</g>
<!-- DefiSidePanelComponent  -->
<g id="node9" class="node">
<title>DefiSidePanelComponent </title>
<polygon fill="#fb8072" stroke="#000000" points="189.6953,-252 24.3047,-252 24.3047,-216 189.6953,-216 189.6953,-252"/>
<text text-anchor="middle" x="107" y="-229.8" font-family="Times,serif" font-size="14.00" fill="#000000">DefiSidePanelComponent </text>
</g>
<!-- DefiOverlayModule&#45;&gt;DefiSidePanelComponent  -->
<g id="edge8" class="edge">
<title>DefiOverlayModule&#45;&gt;DefiSidePanelComponent </title>
<path fill="none" stroke="#000000" stroke-dasharray="5,2" d="M203.6429,-187.1061C203.6429,-206.3391 203.6429,-234 203.6429,-234 203.6429,-234 199.7963,-234 199.7963,-234"/>
<polygon fill="#000000" stroke="#000000" points="199.7963,-230.5001 189.7963,-234 199.7963,-237.5001 199.7963,-230.5001"/>
</g>
</g>
</svg>
