<?xml version="1.0" encoding="UTF-8" standalone="no"?>
<!DOCTYPE svg PUBLIC "-//W3C//DTD SVG 1.1//EN"
 "http://www.w3.org/Graphics/SVG/1.1/DTD/svg11.dtd">
<!-- Generated by graphviz version 2.40.1 (20161225.0304)
 -->
<!-- Title: dependencies Pages: 1 -->
<svg width="1071pt" height="284pt"
 viewBox="0.00 0.00 1071.00 284.00" xmlns="http://www.w3.org/2000/svg" xmlns:xlink="http://www.w3.org/1999/xlink">
<g id="graph0" class="graph" transform="scale(1 1) rotate(0) translate(4 280)">
<title>dependencies</title>
<polygon fill="#ffffff" stroke="transparent" points="-4,4 -4,-280 1067,-280 1067,4 -4,4"/>
<text text-anchor="start" x="510.5091" y="-42.4" font-family="sans-serif" font-weight="bold" font-size="14.00" fill="#000000">Legend</text>
<polygon fill="#ffffb3" stroke="transparent" points="297.5,-10 297.5,-30 317.5,-30 317.5,-10 297.5,-10"/>
<text text-anchor="start" x="321.129" y="-15.4" font-family="sans-serif" font-size="14.00" fill="#000000"> &#160;Declarations</text>
<polygon fill="#8dd3c7" stroke="transparent" points="410.5,-10 410.5,-30 430.5,-30 430.5,-10 410.5,-10"/>
<text text-anchor="start" x="434.2251" y="-15.4" font-family="sans-serif" font-size="14.00" fill="#000000"> &#160;Module</text>
<polygon fill="#80b1d3" stroke="transparent" points="496.5,-10 496.5,-30 516.5,-30 516.5,-10 496.5,-10"/>
<text text-anchor="start" x="520.2812" y="-15.4" font-family="sans-serif" font-size="14.00" fill="#000000"> &#160;Bootstrap</text>
<polygon fill="#fdb462" stroke="transparent" points="593.5,-10 593.5,-30 613.5,-30 613.5,-10 593.5,-10"/>
<text text-anchor="start" x="617.1732" y="-15.4" font-family="sans-serif" font-size="14.00" fill="#000000"> &#160;Providers</text>
<polygon fill="#fb8072" stroke="transparent" points="689.5,-10 689.5,-30 709.5,-30 709.5,-10 689.5,-10"/>
<text text-anchor="start" x="713.2258" y="-15.4" font-family="sans-serif" font-size="14.00" fill="#000000"> &#160;Exports</text>
<g id="clust1" class="cluster">
<title>cluster_DemoSDK</title>
<polygon fill="none" stroke="#000000" stroke-dasharray="1,5" points="8,-70 8,-268 1055,-268 1055,-70 8,-70"/>
</g>
<g id="clust2" class="cluster">
<title>cluster_DemoSDK_declarations</title>
<polygon fill="none" stroke="#000000" points="528,-78 528,-130 824,-130 824,-78 528,-78"/>
</g>
<g id="clust5" class="cluster">
<title>cluster_DemoSDK_imports</title>
<polygon fill="none" stroke="#000000" points="236,-78 236,-130 520,-130 520,-78 236,-78"/>
</g>
<g id="clust6" class="cluster">
<title>cluster_DemoSDK_exports</title>
<polygon fill="none" stroke="#000000" points="16,-208 16,-260 1047,-260 1047,-208 16,-208"/>
</g>
<!-- SampleCodeComponent -->
<g id="node1" class="node">
<title>SampleCodeComponent</title>
<polygon fill="#ffffb3" stroke="#000000" points="816.3766,-122 663.6234,-122 663.6234,-86 816.3766,-86 816.3766,-122"/>
<text text-anchor="middle" x="740" y="-99.8" font-family="Times,serif" font-size="14.00" fill="#000000">SampleCodeComponent</text>
</g>
<!-- DemoSDK -->
<g id="node3" class="node">
<title>DemoSDK</title>
<polygon fill="#8dd3c7" stroke="#000000" points="556.2079,-187 553.2079,-191 532.2079,-191 529.2079,-187 477.7921,-187 477.7921,-151 556.2079,-151 556.2079,-187"/>
<text text-anchor="middle" x="517" y="-164.8" font-family="Times,serif" font-size="14.00" fill="#000000">DemoSDK</text>
</g>
<!-- SampleCodeComponent&#45;&gt;DemoSDK -->
<g id="edge1" class="edge">
<title>SampleCodeComponent&#45;&gt;DemoSDK</title>
<path fill="none" stroke="#000000" d="M698.4858,-122.0091C698.4858,-138.0494 698.4858,-159 698.4858,-159 698.4858,-159 566.3797,-159 566.3797,-159"/>
<polygon fill="#000000" stroke="#000000" points="566.3798,-155.5001 556.3797,-159 566.3797,-162.5001 566.3798,-155.5001"/>
</g>
<!-- SampleDirective -->
<g id="node2" class="node">
<title>SampleDirective</title>
<polygon fill="#ffffb3" stroke="#000000" points="646.0758,-122 535.9242,-122 535.9242,-86 646.0758,-86 646.0758,-122"/>
<text text-anchor="middle" x="591" y="-99.8" font-family="Times,serif" font-size="14.00" fill="#000000">SampleDirective</text>
</g>
<!-- SampleDirective&#45;&gt;DemoSDK -->
<g id="edge2" class="edge">
<title>SampleDirective&#45;&gt;DemoSDK</title>
<path fill="none" stroke="#000000" d="M546.033,-122.1061C546.033,-122.1061 546.033,-140.991 546.033,-140.991"/>
<polygon fill="#000000" stroke="#000000" points="542.533,-140.9909 546.033,-150.991 549.533,-140.991 542.533,-140.9909"/>
</g>
<!-- SampleCodeComponent  -->
<g id="node6" class="node">
<title>SampleCodeComponent </title>
<polygon fill="#fb8072" stroke="#000000" points="1039.3771,-252 882.6229,-252 882.6229,-216 1039.3771,-216 1039.3771,-252"/>
<text text-anchor="middle" x="961" y="-229.8" font-family="Times,serif" font-size="14.00" fill="#000000">SampleCodeComponent </text>
</g>
<!-- DemoSDK&#45;&gt;SampleCodeComponent  -->
<g id="edge5" class="edge">
<title>DemoSDK&#45;&gt;SampleCodeComponent </title>
<path fill="none" stroke="#000000" stroke-dasharray="5,2" d="M556.402,-166C665.0655,-166 961,-166 961,-166 961,-166 961,-205.7772 961,-205.7772"/>
<polygon fill="#000000" stroke="#000000" points="957.5001,-205.7772 961,-215.7772 964.5001,-205.7773 957.5001,-205.7772"/>
</g>
<!-- SampleDirective  -->
<g id="node7" class="node">
<title>SampleDirective </title>
<polygon fill="#fb8072" stroke="#000000" points="864.5766,-252 751.4234,-252 751.4234,-216 864.5766,-216 864.5766,-252"/>
<text text-anchor="middle" x="808" y="-229.8" font-family="Times,serif" font-size="14.00" fill="#000000">SampleDirective </text>
</g>
<!-- DemoSDK&#45;&gt;SampleDirective  -->
<g id="edge6" class="edge">
<title>DemoSDK&#45;&gt;SampleDirective </title>
<path fill="none" stroke="#000000" stroke-dasharray="5,2" d="M556.371,-173C630.5929,-173 783.8252,-173 783.8252,-173 783.8252,-173 783.8252,-205.698 783.8252,-205.698"/>
<polygon fill="#000000" stroke="#000000" points="780.3253,-205.698 783.8252,-215.698 787.3253,-205.698 780.3253,-205.698"/>
</g>
<!-- CltContainersModule  -->
<g id="node8" class="node">
<title>CltContainersModule </title>
<polygon fill="#fb8072" stroke="#000000" points="733.3199,-252 592.6801,-252 592.6801,-216 733.3199,-216 733.3199,-252"/>
<text text-anchor="middle" x="663" y="-229.8" font-family="Times,serif" font-size="14.00" fill="#000000">CltContainersModule </text>
</g>
<!-- DemoSDK&#45;&gt;CltContainersModule  -->
<g id="edge7" class="edge">
<title>DemoSDK&#45;&gt;CltContainersModule </title>
<path fill="none" stroke="#000000" stroke-dasharray="5,2" d="M556.2647,-180C585.1177,-180 619.314,-180 619.314,-180 619.314,-180 619.314,-205.7181 619.314,-205.7181"/>
<polygon fill="#000000" stroke="#000000" points="615.8141,-205.718 619.314,-215.7181 622.8141,-205.7181 615.8141,-205.718"/>
</g>
<!-- CltFormsModule  -->
<g id="node9" class="node">
<title>CltFormsModule </title>
<polygon fill="#fb8072" stroke="#000000" points="574.946,-252 459.054,-252 459.054,-216 574.946,-216 574.946,-252"/>
<text text-anchor="middle" x="517" y="-229.8" font-family="Times,serif" font-size="14.00" fill="#000000">CltFormsModule </text>
</g>
<!-- DemoSDK&#45;&gt;CltFormsModule  -->
<g id="edge8" class="edge">
<title>DemoSDK&#45;&gt;CltFormsModule </title>
<path fill="none" stroke="#000000" stroke-dasharray="5,2" d="M517,-187.1061C517,-187.1061 517,-205.991 517,-205.991"/>
<polygon fill="#000000" stroke="#000000" points="513.5001,-205.9909 517,-215.991 520.5001,-205.991 513.5001,-205.9909"/>
</g>
<!-- CltNavigationsModule  -->
<g id="node10" class="node">
<title>CltNavigationsModule </title>
<polygon fill="#fb8072" stroke="#000000" points="440.8199,-252 293.1801,-252 293.1801,-216 440.8199,-216 440.8199,-252"/>
<text text-anchor="middle" x="367" y="-229.8" font-family="Times,serif" font-size="14.00" fill="#000000">CltNavigationsModule </text>
</g>
<!-- DemoSDK&#45;&gt;CltNavigationsModule  -->
<g id="edge9" class="edge">
<title>DemoSDK&#45;&gt;CltNavigationsModule </title>
<path fill="none" stroke="#000000" stroke-dasharray="5,2" d="M477.822,-180C446.4381,-180 407.625,-180 407.625,-180 407.625,-180 407.625,-205.7181 407.625,-205.7181"/>
<polygon fill="#000000" stroke="#000000" points="404.1251,-205.718 407.625,-215.7181 411.1251,-205.7181 404.1251,-205.718"/>
</g>
<!-- CltOverlayModule  -->
<g id="node11" class="node">
<title>CltOverlayModule </title>
<polygon fill="#fb8072" stroke="#000000" points="274.7549,-252 149.2451,-252 149.2451,-216 274.7549,-216 274.7549,-252"/>
<text text-anchor="middle" x="212" y="-229.8" font-family="Times,serif" font-size="14.00" fill="#000000">CltOverlayModule </text>
</g>
<!-- DemoSDK&#45;&gt;CltOverlayModule  -->
<g id="edge10" class="edge">
<title>DemoSDK&#45;&gt;CltOverlayModule </title>
<path fill="none" stroke="#000000" stroke-dasharray="5,2" d="M477.8461,-173C405.7279,-173 259.2021,-173 259.2021,-173 259.2021,-173 259.2021,-205.698 259.2021,-205.698"/>
<polygon fill="#000000" stroke="#000000" points="255.7022,-205.698 259.2021,-215.698 262.7022,-205.698 255.7022,-205.698"/>
</g>
<!-- CltCoreModule  -->
<g id="node12" class="node">
<title>CltCoreModule </title>
<polygon fill="#fb8072" stroke="#000000" points="131.8801,-252 24.1199,-252 24.1199,-216 131.8801,-216 131.8801,-252"/>
<text text-anchor="middle" x="78" y="-229.8" font-family="Times,serif" font-size="14.00" fill="#000000">CltCoreModule </text>
</g>
<!-- DemoSDK&#45;&gt;CltCoreModule  -->
<g id="edge11" class="edge">
<title>DemoSDK&#45;&gt;CltCoreModule </title>
<path fill="none" stroke="#000000" stroke-dasharray="5,2" d="M477.6553,-166C369.9023,-166 78,-166 78,-166 78,-166 78,-205.7772 78,-205.7772"/>
<polygon fill="#000000" stroke="#000000" points="74.5001,-205.7772 78,-215.7772 81.5001,-205.7773 74.5001,-205.7772"/>
</g>
<!-- CltContainersModule -->
<g id="node4" class="node">
<title>CltContainersModule</title>
<polygon fill="#8dd3c7" stroke="#000000" points="511.8202,-122 508.8202,-126 487.8202,-126 484.8202,-122 374.1798,-122 374.1798,-86 511.8202,-86 511.8202,-122"/>
<text text-anchor="middle" x="443" y="-99.8" font-family="Times,serif" font-size="14.00" fill="#000000">CltContainersModule</text>
</g>
<!-- CltContainersModule&#45;&gt;DemoSDK -->
<g id="edge3" class="edge">
<title>CltContainersModule&#45;&gt;DemoSDK</title>
<path fill="none" stroke="#000000" d="M494.7781,-122.1061C494.7781,-122.1061 494.7781,-140.991 494.7781,-140.991"/>
<polygon fill="#000000" stroke="#000000" points="491.2781,-140.9909 494.7781,-150.991 498.2781,-140.991 491.2781,-140.9909"/>
</g>
<!-- CltFormsModule -->
<g id="node5" class="node">
<title>CltFormsModule</title>
<polygon fill="#8dd3c7" stroke="#000000" points="356.4469,-122 353.4469,-126 332.4469,-126 329.4469,-122 243.5531,-122 243.5531,-86 356.4469,-86 356.4469,-122"/>
<text text-anchor="middle" x="300" y="-99.8" font-family="Times,serif" font-size="14.00" fill="#000000">CltFormsModule</text>
</g>
<!-- CltFormsModule&#45;&gt;DemoSDK -->
<g id="edge4" class="edge">
<title>CltFormsModule&#45;&gt;DemoSDK</title>
<path fill="none" stroke="#000000" d="M324.6566,-122.0091C324.6566,-138.0494 324.6566,-159 324.6566,-159 324.6566,-159 467.6123,-159 467.6123,-159"/>
<polygon fill="#000000" stroke="#000000" points="467.6123,-162.5001 477.6123,-159 467.6123,-155.5001 467.6123,-162.5001"/>
</g>
</g>
</svg>
