<?xml version="1.0" encoding="UTF-8" standalone="no"?>
<!DOCTYPE svg PUBLIC "-//W3C//DTD SVG 1.1//EN"
 "http://www.w3.org/Graphics/SVG/1.1/DTD/svg11.dtd">
<!-- Generated by graphviz version 2.40.1 (20161225.0304)
 -->
<!-- Title: dependencies Pages: 1 -->
<svg width="504pt" height="211pt"
 viewBox="0.00 0.00 504.00 211.00" xmlns="http://www.w3.org/2000/svg" xmlns:xlink="http://www.w3.org/1999/xlink">
<g id="graph0" class="graph" transform="scale(1 1) rotate(0) translate(4 207)">
<title>dependencies</title>
<polygon fill="#ffffff" stroke="transparent" points="-4,4 -4,-207 500,-207 500,4 -4,4"/>
<text text-anchor="start" x="227.0091" y="-42.4" font-family="sans-serif" font-weight="bold" font-size="14.00" fill="#000000">Legend</text>
<polygon fill="#ffffb3" stroke="transparent" points="14,-10 14,-30 34,-30 34,-10 14,-10"/>
<text text-anchor="start" x="37.629" y="-15.4" font-family="sans-serif" font-size="14.00" fill="#000000"> &#160;Declarations</text>
<polygon fill="#8dd3c7" stroke="transparent" points="127,-10 127,-30 147,-30 147,-10 127,-10"/>
<text text-anchor="start" x="150.7251" y="-15.4" font-family="sans-serif" font-size="14.00" fill="#000000"> &#160;Module</text>
<polygon fill="#80b1d3" stroke="transparent" points="213,-10 213,-30 233,-30 233,-10 213,-10"/>
<text text-anchor="start" x="236.7812" y="-15.4" font-family="sans-serif" font-size="14.00" fill="#000000"> &#160;Bootstrap</text>
<polygon fill="#fdb462" stroke="transparent" points="310,-10 310,-30 330,-30 330,-10 310,-10"/>
<text text-anchor="start" x="333.6732" y="-15.4" font-family="sans-serif" font-size="14.00" fill="#000000"> &#160;Providers</text>
<polygon fill="#fb8072" stroke="transparent" points="406,-10 406,-30 426,-30 426,-10 406,-10"/>
<text text-anchor="start" x="429.7258" y="-15.4" font-family="sans-serif" font-size="14.00" fill="#000000"> &#160;Exports</text>
<g id="clust1" class="cluster">
<title>cluster_DefiContainersModule</title>
<polygon fill="none" stroke="#000000" stroke-dasharray="1,5" points="77,-70 77,-195 419,-195 419,-70 77,-70"/>
</g>
<g id="clust2" class="cluster">
<title>cluster_DefiContainersModule_declarations</title>
<polygon fill="none" stroke="#000000" points="85,-78 85,-130 411,-130 411,-78 85,-78"/>
</g>
<!-- DefiSidePanelComponent -->
<g id="node1" class="node">
<title>DefiSidePanelComponent</title>
<polygon fill="#ffffb3" stroke="#000000" points="403.1951,-122 240.8049,-122 240.8049,-86 403.1951,-86 403.1951,-122"/>
<text text-anchor="middle" x="322" y="-99.8" font-family="Times,serif" font-size="14.00" fill="#000000">DefiSidePanelComponent</text>
</g>
<!-- DefiContainersModule -->
<g id="node3" class="node">
<title>DefiContainersModule</title>
<polygon fill="#8dd3c7" stroke="#000000" points="312.5744,-187 309.5744,-191 288.5744,-191 285.5744,-187 167.4256,-187 167.4256,-151 312.5744,-151 312.5744,-187"/>
<text text-anchor="middle" x="240" y="-164.8" font-family="Times,serif" font-size="14.00" fill="#000000">DefiContainersModule</text>
</g>
<!-- DefiSidePanelComponent&#45;&gt;DefiContainersModule -->
<g id="edge1" class="edge">
<title>DefiSidePanelComponent&#45;&gt;DefiContainersModule</title>
<path fill="none" stroke="#000000" d="M276.7198,-122.1061C276.7198,-122.1061 276.7198,-140.991 276.7198,-140.991"/>
<polygon fill="#000000" stroke="#000000" points="273.2199,-140.9909 276.7198,-150.991 280.2199,-140.991 273.2199,-140.9909"/>
</g>
<!-- DefiBoxComponent -->
<g id="node2" class="node">
<title>DefiBoxComponent</title>
<polygon fill="#ffffb3" stroke="#000000" points="222.5422,-122 93.4578,-122 93.4578,-86 222.5422,-86 222.5422,-122"/>
<text text-anchor="middle" x="158" y="-99.8" font-family="Times,serif" font-size="14.00" fill="#000000">DefiBoxComponent</text>
</g>
<!-- DefiBoxComponent&#45;&gt;DefiContainersModule -->
<g id="edge2" class="edge">
<title>DefiBoxComponent&#45;&gt;DefiContainersModule</title>
<path fill="none" stroke="#000000" d="M195.1168,-122.1061C195.1168,-122.1061 195.1168,-140.991 195.1168,-140.991"/>
<polygon fill="#000000" stroke="#000000" points="191.6168,-140.9909 195.1168,-150.991 198.6168,-140.991 191.6168,-140.9909"/>
</g>
</g>
</svg>
