<?xml version="1.0" encoding="UTF-8" standalone="no"?>
<!DOCTYPE svg PUBLIC "-//W3C//DTD SVG 1.1//EN"
 "http://www.w3.org/Graphics/SVG/1.1/DTD/svg11.dtd">
<!-- Generated by graphviz version 2.40.1 (20161225.0304)
 -->
<!-- Title: dependencies Pages: 1 -->
<svg width="504pt" height="284pt"
 viewBox="0.00 0.00 504.00 284.00" xmlns="http://www.w3.org/2000/svg" xmlns:xlink="http://www.w3.org/1999/xlink">
<g id="graph0" class="graph" transform="scale(1 1) rotate(0) translate(4 280)">
<title>dependencies</title>
<polygon fill="#ffffff" stroke="transparent" points="-4,4 -4,-280 500,-280 500,4 -4,4"/>
<text text-anchor="start" x="227.0091" y="-42.4" font-family="sans-serif" font-weight="bold" font-size="14.00" fill="#000000">Legend</text>
<polygon fill="#ffffb3" stroke="transparent" points="14,-10 14,-30 34,-30 34,-10 14,-10"/>
<text text-anchor="start" x="37.629" y="-15.4" font-family="sans-serif" font-size="14.00" fill="#000000"> &#160;Declarations</text>
<polygon fill="#8dd3c7" stroke="transparent" points="127,-10 127,-30 147,-30 147,-10 127,-10"/>
<text text-anchor="start" x="150.7251" y="-15.4" font-family="sans-serif" font-size="14.00" fill="#000000"> &#160;Module</text>
<polygon fill="#80b1d3" stroke="transparent" points="213,-10 213,-30 233,-30 233,-10 213,-10"/>
<text text-anchor="start" x="236.7812" y="-15.4" font-family="sans-serif" font-size="14.00" fill="#000000"> &#160;Bootstrap</text>
<polygon fill="#fdb462" stroke="transparent" points="310,-10 310,-30 330,-30 330,-10 310,-10"/>
<text text-anchor="start" x="333.6732" y="-15.4" font-family="sans-serif" font-size="14.00" fill="#000000"> &#160;Providers</text>
<polygon fill="#fb8072" stroke="transparent" points="406,-10 406,-30 426,-30 426,-10 406,-10"/>
<text text-anchor="start" x="429.7258" y="-15.4" font-family="sans-serif" font-size="14.00" fill="#000000"> &#160;Exports</text>
<g id="clust1" class="cluster">
<title>cluster_DefiContainersModule</title>
<polygon fill="none" stroke="#000000" stroke-dasharray="1,5" points="73.5,-70 73.5,-268 422.5,-268 422.5,-70 73.5,-70"/>
</g>
<g id="clust2" class="cluster">
<title>cluster_DefiContainersModule_declarations</title>
<polygon fill="none" stroke="#000000" points="85.5,-78 85.5,-130 411.5,-130 411.5,-78 85.5,-78"/>
</g>
<g id="clust6" class="cluster">
<title>cluster_DefiContainersModule_exports</title>
<polygon fill="none" stroke="#000000" points="81.5,-208 81.5,-260 414.5,-260 414.5,-208 81.5,-208"/>
</g>
<!-- DefiSidePanelComponent -->
<g id="node1" class="node">
<title>DefiSidePanelComponent</title>
<polygon fill="#ffffb3" stroke="#000000" points="403.6951,-122 241.3049,-122 241.3049,-86 403.6951,-86 403.6951,-122"/>
<text text-anchor="middle" x="322.5" y="-99.8" font-family="Times,serif" font-size="14.00" fill="#000000">DefiSidePanelComponent</text>
</g>
<!-- DefiContainersModule -->
<g id="node3" class="node">
<title>DefiContainersModule</title>
<polygon fill="#8dd3c7" stroke="#000000" points="232.0744,-187 229.0744,-191 208.0744,-191 205.0744,-187 86.9256,-187 86.9256,-151 232.0744,-151 232.0744,-187"/>
<text text-anchor="middle" x="159.5" y="-164.8" font-family="Times,serif" font-size="14.00" fill="#000000">DefiContainersModule</text>
</g>
<!-- DefiSidePanelComponent&#45;&gt;DefiContainersModule -->
<g id="edge1" class="edge">
<title>DefiSidePanelComponent&#45;&gt;DefiContainersModule</title>
<path fill="none" stroke="#000000" d="M241.2431,-104C233.0391,-104 227.654,-104 227.654,-104 227.654,-104 227.654,-140.8939 227.654,-140.8939"/>
<polygon fill="#000000" stroke="#000000" points="224.154,-140.8938 227.654,-150.8939 231.154,-140.8939 224.154,-140.8938"/>
</g>
<!-- DefiBoxComponent -->
<g id="node2" class="node">
<title>DefiBoxComponent</title>
<polygon fill="#ffffb3" stroke="#000000" points="223.0422,-122 93.9578,-122 93.9578,-86 223.0422,-86 223.0422,-122"/>
<text text-anchor="middle" x="158.5" y="-99.8" font-family="Times,serif" font-size="14.00" fill="#000000">DefiBoxComponent</text>
</g>
<!-- DefiBoxComponent&#45;&gt;DefiContainersModule -->
<g id="edge2" class="edge">
<title>DefiBoxComponent&#45;&gt;DefiContainersModule</title>
<path fill="none" stroke="#000000" d="M158.5,-122.1061C158.5,-122.1061 158.5,-140.991 158.5,-140.991"/>
<polygon fill="#000000" stroke="#000000" points="155.0001,-140.9909 158.5,-150.991 162.0001,-140.991 155.0001,-140.9909"/>
</g>
<!-- DefiSidePanelComponent  -->
<g id="node4" class="node">
<title>DefiSidePanelComponent </title>
<polygon fill="#fb8072" stroke="#000000" points="406.1953,-252 240.8047,-252 240.8047,-216 406.1953,-216 406.1953,-252"/>
<text text-anchor="middle" x="323.5" y="-229.8" font-family="Times,serif" font-size="14.00" fill="#000000">DefiSidePanelComponent </text>
</g>
<!-- DefiContainersModule&#45;&gt;DefiSidePanelComponent  -->
<g id="edge3" class="edge">
<title>DefiContainersModule&#45;&gt;DefiSidePanelComponent </title>
<path fill="none" stroke="#000000" stroke-dasharray="5,2" d="M227.529,-187.1061C227.529,-206.3391 227.529,-234 227.529,-234 227.529,-234 230.472,-234 230.472,-234"/>
<polygon fill="#000000" stroke="#000000" points="230.4721,-237.5001 240.472,-234 230.472,-230.5001 230.4721,-237.5001"/>
</g>
<!-- DefiBoxComponent  -->
<g id="node5" class="node">
<title>DefiBoxComponent </title>
<polygon fill="#fb8072" stroke="#000000" points="223.0414,-252 89.9586,-252 89.9586,-216 223.0414,-216 223.0414,-252"/>
<text text-anchor="middle" x="156.5" y="-229.8" font-family="Times,serif" font-size="14.00" fill="#000000">DefiBoxComponent </text>
</g>
<!-- DefiContainersModule&#45;&gt;DefiBoxComponent  -->
<g id="edge4" class="edge">
<title>DefiContainersModule&#45;&gt;DefiBoxComponent </title>
<path fill="none" stroke="#000000" stroke-dasharray="5,2" d="M156.5,-187.1061C156.5,-187.1061 156.5,-205.991 156.5,-205.991"/>
<polygon fill="#000000" stroke="#000000" points="153.0001,-205.9909 156.5,-215.991 160.0001,-205.991 153.0001,-205.9909"/>
</g>
</g>
</svg>
