<?xml version="1.0" encoding="UTF-8" standalone="no"?>
<!DOCTYPE svg PUBLIC "-//W3C//DTD SVG 1.1//EN"
 "http://www.w3.org/Graphics/SVG/1.1/DTD/svg11.dtd">
<!-- Generated by graphviz version 2.40.1 (20161225.0304)
 -->
<!-- Title: dependencies Pages: 1 -->
<svg width="528pt" height="284pt"
 viewBox="0.00 0.00 528.00 284.00" xmlns="http://www.w3.org/2000/svg" xmlns:xlink="http://www.w3.org/1999/xlink">
<g id="graph0" class="graph" transform="scale(1 1) rotate(0) translate(4 280)">
<title>dependencies</title>
<polygon fill="#ffffff" stroke="transparent" points="-4,4 -4,-280 524,-280 524,4 -4,4"/>
<text text-anchor="start" x="239.0091" y="-42.4" font-family="sans-serif" font-weight="bold" font-size="14.00" fill="#000000">Legend</text>
<polygon fill="#ffffb3" stroke="transparent" points="26,-10 26,-30 46,-30 46,-10 26,-10"/>
<text text-anchor="start" x="49.629" y="-15.4" font-family="sans-serif" font-size="14.00" fill="#000000"> &#160;Declarations</text>
<polygon fill="#8dd3c7" stroke="transparent" points="139,-10 139,-30 159,-30 159,-10 139,-10"/>
<text text-anchor="start" x="162.7251" y="-15.4" font-family="sans-serif" font-size="14.00" fill="#000000"> &#160;Module</text>
<polygon fill="#80b1d3" stroke="transparent" points="225,-10 225,-30 245,-30 245,-10 225,-10"/>
<text text-anchor="start" x="248.7812" y="-15.4" font-family="sans-serif" font-size="14.00" fill="#000000"> &#160;Bootstrap</text>
<polygon fill="#fdb462" stroke="transparent" points="322,-10 322,-30 342,-30 342,-10 322,-10"/>
<text text-anchor="start" x="345.6732" y="-15.4" font-family="sans-serif" font-size="14.00" fill="#000000"> &#160;Providers</text>
<polygon fill="#fb8072" stroke="transparent" points="418,-10 418,-30 438,-30 438,-10 418,-10"/>
<text text-anchor="start" x="441.7258" y="-15.4" font-family="sans-serif" font-size="14.00" fill="#000000"> &#160;Exports</text>
<g id="clust1" class="cluster">
<title>cluster_ThemeModule</title>
<polygon fill="none" stroke="#000000" stroke-dasharray="1,5" points="8,-70 8,-268 512,-268 512,-70 8,-70"/>
</g>
<g id="clust2" class="cluster">
<title>cluster_ThemeModule_declarations</title>
<polygon fill="none" stroke="#000000" points="318,-78 318,-130 504,-130 504,-78 318,-78"/>
</g>
<g id="clust4" class="cluster">
<title>cluster_ThemeModule_imports</title>
<polygon fill="none" stroke="#000000" points="16,-78 16,-130 310,-130 310,-78 16,-78"/>
</g>
<g id="clust5" class="cluster">
<title>cluster_ThemeModule_exports</title>
<polygon fill="none" stroke="#000000" points="138,-208 138,-260 328,-260 328,-208 138,-208"/>
</g>
<!-- ThemeManagerComponent -->
<g id="node1" class="node">
<title>ThemeManagerComponent</title>
<polygon fill="#ffffb3" stroke="#000000" points="495.9538,-122 326.0462,-122 326.0462,-86 495.9538,-86 495.9538,-122"/>
<text text-anchor="middle" x="411" y="-99.8" font-family="Times,serif" font-size="14.00" fill="#000000">ThemeManagerComponent</text>
</g>
<!-- ThemeModule -->
<g id="node2" class="node">
<title>ThemeModule</title>
<polygon fill="#8dd3c7" stroke="#000000" points="282.4231,-187 279.4231,-191 258.4231,-191 255.4231,-187 183.5769,-187 183.5769,-151 282.4231,-151 282.4231,-187"/>
<text text-anchor="middle" x="233" y="-164.8" font-family="Times,serif" font-size="14.00" fill="#000000">ThemeModule</text>
</g>
<!-- ThemeManagerComponent&#45;&gt;ThemeModule -->
<g id="edge1" class="edge">
<title>ThemeManagerComponent&#45;&gt;ThemeModule</title>
<path fill="none" stroke="#000000" d="M411,-122.1061C411,-141.3391 411,-169 411,-169 411,-169 292.5829,-169 292.5829,-169"/>
<polygon fill="#000000" stroke="#000000" points="292.583,-165.5001 282.5829,-169 292.5829,-172.5001 292.583,-165.5001"/>
</g>
<!-- ThemeManagerComponent  -->
<g id="node5" class="node">
<title>ThemeManagerComponent </title>
<polygon fill="#fb8072" stroke="#000000" points="319.9544,-252 146.0456,-252 146.0456,-216 319.9544,-216 319.9544,-252"/>
<text text-anchor="middle" x="233" y="-229.8" font-family="Times,serif" font-size="14.00" fill="#000000">ThemeManagerComponent </text>
</g>
<!-- ThemeModule&#45;&gt;ThemeManagerComponent  -->
<g id="edge4" class="edge">
<title>ThemeModule&#45;&gt;ThemeManagerComponent </title>
<path fill="none" stroke="#000000" stroke-dasharray="5,2" d="M233,-187.1061C233,-187.1061 233,-205.991 233,-205.991"/>
<polygon fill="#000000" stroke="#000000" points="229.5001,-205.9909 233,-215.991 236.5001,-205.991 229.5001,-205.9909"/>
</g>
<!-- CltContainersModule -->
<g id="node3" class="node">
<title>CltContainersModule</title>
<polygon fill="#8dd3c7" stroke="#000000" points="301.8202,-122 298.8202,-126 277.8202,-126 274.8202,-122 164.1798,-122 164.1798,-86 301.8202,-86 301.8202,-122"/>
<text text-anchor="middle" x="233" y="-99.8" font-family="Times,serif" font-size="14.00" fill="#000000">CltContainersModule</text>
</g>
<!-- CltContainersModule&#45;&gt;ThemeModule -->
<g id="edge2" class="edge">
<title>CltContainersModule&#45;&gt;ThemeModule</title>
<path fill="none" stroke="#000000" d="M233,-122.1061C233,-122.1061 233,-140.991 233,-140.991"/>
<polygon fill="#000000" stroke="#000000" points="229.5001,-140.9909 233,-150.991 236.5001,-140.991 229.5001,-140.9909"/>
</g>
<!-- CltOverlayModule -->
<g id="node4" class="node">
<title>CltOverlayModule</title>
<polygon fill="#8dd3c7" stroke="#000000" points="145.7548,-122 142.7548,-126 121.7548,-126 118.7548,-122 24.2452,-122 24.2452,-86 145.7548,-86 145.7548,-122"/>
<text text-anchor="middle" x="85" y="-99.8" font-family="Times,serif" font-size="14.00" fill="#000000">CltOverlayModule</text>
</g>
<!-- CltOverlayModule&#45;&gt;ThemeModule -->
<g id="edge3" class="edge">
<title>CltOverlayModule&#45;&gt;ThemeModule</title>
<path fill="none" stroke="#000000" d="M85,-122.1061C85,-141.3391 85,-169 85,-169 85,-169 173.7181,-169 173.7181,-169"/>
<polygon fill="#000000" stroke="#000000" points="173.7182,-172.5001 183.7181,-169 173.7181,-165.5001 173.7182,-172.5001"/>
</g>
</g>
</svg>
