<?xml version="1.0" encoding="UTF-8" standalone="no"?>
<!DOCTYPE svg PUBLIC "-//W3C//DTD SVG 1.1//EN"
 "http://www.w3.org/Graphics/SVG/1.1/DTD/svg11.dtd">
<!-- Generated by graphviz version 2.40.1 (20161225.0304)
 -->
<!-- Title: dependencies Pages: 1 -->
<svg width="504pt" height="284pt"
 viewBox="0.00 0.00 504.00 284.00" xmlns="http://www.w3.org/2000/svg" xmlns:xlink="http://www.w3.org/1999/xlink">
<g id="graph0" class="graph" transform="scale(1 1) rotate(0) translate(4 280)">
<title>dependencies</title>
<polygon fill="#ffffff" stroke="transparent" points="-4,4 -4,-280 500,-280 500,4 -4,4"/>
<text text-anchor="start" x="227.0091" y="-42.4" font-family="sans-serif" font-weight="bold" font-size="14.00" fill="#000000">Legend</text>
<polygon fill="#ffffb3" stroke="transparent" points="14,-10 14,-30 34,-30 34,-10 14,-10"/>
<text text-anchor="start" x="37.629" y="-15.4" font-family="sans-serif" font-size="14.00" fill="#000000"> &#160;Declarations</text>
<polygon fill="#8dd3c7" stroke="transparent" points="127,-10 127,-30 147,-30 147,-10 127,-10"/>
<text text-anchor="start" x="150.7251" y="-15.4" font-family="sans-serif" font-size="14.00" fill="#000000"> &#160;Module</text>
<polygon fill="#80b1d3" stroke="transparent" points="213,-10 213,-30 233,-30 233,-10 213,-10"/>
<text text-anchor="start" x="236.7812" y="-15.4" font-family="sans-serif" font-size="14.00" fill="#000000"> &#160;Bootstrap</text>
<polygon fill="#fdb462" stroke="transparent" points="310,-10 310,-30 330,-30 330,-10 310,-10"/>
<text text-anchor="start" x="333.6732" y="-15.4" font-family="sans-serif" font-size="14.00" fill="#000000"> &#160;Providers</text>
<polygon fill="#fb8072" stroke="transparent" points="406,-10 406,-30 426,-30 426,-10 406,-10"/>
<text text-anchor="start" x="429.7258" y="-15.4" font-family="sans-serif" font-size="14.00" fill="#000000"> &#160;Exports</text>
<g id="clust1" class="cluster">
<title>cluster_CltNavigationsModule</title>
<polygon fill="none" stroke="#000000" stroke-dasharray="1,5" points="79,-70 79,-268 417,-268 417,-70 79,-70"/>
</g>
<g id="clust2" class="cluster">
<title>cluster_CltNavigationsModule_declarations</title>
<polygon fill="none" stroke="#000000" points="91,-78 91,-130 406,-130 406,-78 91,-78"/>
</g>
<g id="clust6" class="cluster">
<title>cluster_CltNavigationsModule_exports</title>
<polygon fill="none" stroke="#000000" points="87,-208 87,-260 409,-260 409,-208 87,-208"/>
</g>
<!-- CltNavbarComponent -->
<g id="node1" class="node">
<title>CltNavbarComponent</title>
<polygon fill="#ffffb3" stroke="#000000" points="397.647,-122 258.353,-122 258.353,-86 397.647,-86 397.647,-122"/>
<text text-anchor="middle" x="328" y="-99.8" font-family="Times,serif" font-size="14.00" fill="#000000">CltNavbarComponent</text>
</g>
<!-- CltNavigationsModule -->
<g id="node3" class="node">
<title>CltNavigationsModule</title>
<polygon fill="#8dd3c7" stroke="#000000" points="242.3202,-187 239.3202,-191 218.3202,-191 215.3202,-187 97.6798,-187 97.6798,-151 242.3202,-151 242.3202,-187"/>
<text text-anchor="middle" x="170" y="-164.8" font-family="Times,serif" font-size="14.00" fill="#000000">CltNavigationsModule</text>
</g>
<!-- CltNavbarComponent&#45;&gt;CltNavigationsModule -->
<g id="edge1" class="edge">
<title>CltNavbarComponent&#45;&gt;CltNavigationsModule</title>
<path fill="none" stroke="#000000" d="M351.2744,-122.0225C351.2744,-139.3734 351.2744,-163 351.2744,-163 351.2744,-163 252.1653,-163 252.1653,-163"/>
<polygon fill="#000000" stroke="#000000" points="252.1654,-159.5001 242.1653,-163 252.1653,-166.5001 252.1654,-159.5001"/>
</g>
<!-- CltSidebarComponent -->
<g id="node2" class="node">
<title>CltSidebarComponent</title>
<polygon fill="#ffffb3" stroke="#000000" points="240.7134,-122 99.2866,-122 99.2866,-86 240.7134,-86 240.7134,-122"/>
<text text-anchor="middle" x="170" y="-99.8" font-family="Times,serif" font-size="14.00" fill="#000000">CltSidebarComponent</text>
</g>
<!-- CltSidebarComponent&#45;&gt;CltNavigationsModule -->
<g id="edge2" class="edge">
<title>CltSidebarComponent&#45;&gt;CltNavigationsModule</title>
<path fill="none" stroke="#000000" d="M170,-122.1061C170,-122.1061 170,-140.991 170,-140.991"/>
<polygon fill="#000000" stroke="#000000" points="166.5001,-140.9909 170,-150.991 173.5001,-140.991 166.5001,-140.9909"/>
</g>
<!-- CltNavbarComponent  -->
<g id="node4" class="node">
<title>CltNavbarComponent </title>
<polygon fill="#fb8072" stroke="#000000" points="400.6467,-252 257.3533,-252 257.3533,-216 400.6467,-216 400.6467,-252"/>
<text text-anchor="middle" x="329" y="-229.8" font-family="Times,serif" font-size="14.00" fill="#000000">CltNavbarComponent </text>
</g>
<!-- CltNavigationsModule&#45;&gt;CltNavbarComponent  -->
<g id="edge3" class="edge">
<title>CltNavigationsModule&#45;&gt;CltNavbarComponent </title>
<path fill="none" stroke="#000000" stroke-dasharray="5,2" d="M242.4895,-175C274.3781,-175 304.7256,-175 304.7256,-175 304.7256,-175 304.7256,-205.9775 304.7256,-205.9775"/>
<polygon fill="#000000" stroke="#000000" points="301.2257,-205.9774 304.7256,-215.9775 308.2257,-205.9775 301.2257,-205.9774"/>
</g>
<!-- CltSidebarComponent  -->
<g id="node5" class="node">
<title>CltSidebarComponent </title>
<polygon fill="#fb8072" stroke="#000000" points="239.2135,-252 94.7865,-252 94.7865,-216 239.2135,-216 239.2135,-252"/>
<text text-anchor="middle" x="167" y="-229.8" font-family="Times,serif" font-size="14.00" fill="#000000">CltSidebarComponent </text>
</g>
<!-- CltNavigationsModule&#45;&gt;CltSidebarComponent  -->
<g id="edge4" class="edge">
<title>CltNavigationsModule&#45;&gt;CltSidebarComponent </title>
<path fill="none" stroke="#000000" stroke-dasharray="5,2" d="M168.5984,-187.1061C168.5984,-187.1061 168.5984,-205.991 168.5984,-205.991"/>
<polygon fill="#000000" stroke="#000000" points="165.0984,-205.9909 168.5984,-215.991 172.0984,-205.991 165.0984,-205.9909"/>
</g>
</g>
</svg>
