<?xml version="1.0" encoding="UTF-8" standalone="no"?>
<!DOCTYPE svg PUBLIC "-//W3C//DTD SVG 1.1//EN"
 "http://www.w3.org/Graphics/SVG/1.1/DTD/svg11.dtd">
<!-- Generated by graphviz version 2.40.1 (20161225.0304)
 -->
<!-- Title: dependencies Pages: 1 -->
<svg width="540pt" height="284pt"
 viewBox="0.00 0.00 540.00 284.00" xmlns="http://www.w3.org/2000/svg" xmlns:xlink="http://www.w3.org/1999/xlink">
<g id="graph0" class="graph" transform="scale(1 1) rotate(0) translate(4 280)">
<title>dependencies</title>
<polygon fill="#ffffff" stroke="transparent" points="-4,4 -4,-280 536,-280 536,4 -4,4"/>
<text text-anchor="start" x="245.0091" y="-42.4" font-family="sans-serif" font-weight="bold" font-size="14.00" fill="#000000">Legend</text>
<polygon fill="#ffffb3" stroke="transparent" points="32,-10 32,-30 52,-30 52,-10 32,-10"/>
<text text-anchor="start" x="55.629" y="-15.4" font-family="sans-serif" font-size="14.00" fill="#000000"> &#160;Declarations</text>
<polygon fill="#8dd3c7" stroke="transparent" points="145,-10 145,-30 165,-30 165,-10 145,-10"/>
<text text-anchor="start" x="168.7251" y="-15.4" font-family="sans-serif" font-size="14.00" fill="#000000"> &#160;Module</text>
<polygon fill="#80b1d3" stroke="transparent" points="231,-10 231,-30 251,-30 251,-10 231,-10"/>
<text text-anchor="start" x="254.7812" y="-15.4" font-family="sans-serif" font-size="14.00" fill="#000000"> &#160;Bootstrap</text>
<polygon fill="#fdb462" stroke="transparent" points="328,-10 328,-30 348,-30 348,-10 328,-10"/>
<text text-anchor="start" x="351.6732" y="-15.4" font-family="sans-serif" font-size="14.00" fill="#000000"> &#160;Providers</text>
<polygon fill="#fb8072" stroke="transparent" points="424,-10 424,-30 444,-30 444,-10 424,-10"/>
<text text-anchor="start" x="447.7258" y="-15.4" font-family="sans-serif" font-size="14.00" fill="#000000"> &#160;Exports</text>
<g id="clust1" class="cluster">
<title>cluster_DefiDisplayModule</title>
<polygon fill="none" stroke="#000000" stroke-dasharray="1,5" points="8,-70 8,-268 524,-268 524,-70 8,-70"/>
</g>
<g id="clust2" class="cluster">
<title>cluster_DefiDisplayModule_declarations</title>
<polygon fill="none" stroke="#000000" points="170,-78 170,-130 516,-130 516,-78 170,-78"/>
</g>
<g id="clust5" class="cluster">
<title>cluster_DefiDisplayModule_imports</title>
<polygon fill="none" stroke="#000000" points="16,-78 16,-130 162,-130 162,-78 16,-78"/>
</g>
<g id="clust6" class="cluster">
<title>cluster_DefiDisplayModule_exports</title>
<polygon fill="none" stroke="#000000" points="90,-208 90,-260 443,-260 443,-208 90,-208"/>
</g>
<!-- DefiDisplayComponent -->
<g id="node1" class="node">
<title>DefiDisplayComponent</title>
<polygon fill="#ffffb3" stroke="#000000" points="507.752,-122 358.248,-122 358.248,-86 507.752,-86 507.752,-122"/>
<text text-anchor="middle" x="433" y="-99.8" font-family="Times,serif" font-size="14.00" fill="#000000">DefiDisplayComponent</text>
</g>
<!-- DefiDisplayModule -->
<g id="node3" class="node">
<title>DefiDisplayModule</title>
<polygon fill="#8dd3c7" stroke="#000000" points="322.9692,-187 319.9692,-191 298.9692,-191 295.9692,-187 195.0308,-187 195.0308,-151 322.9692,-151 322.9692,-187"/>
<text text-anchor="middle" x="259" y="-164.8" font-family="Times,serif" font-size="14.00" fill="#000000">DefiDisplayModule</text>
</g>
<!-- DefiDisplayComponent&#45;&gt;DefiDisplayModule -->
<g id="edge1" class="edge">
<title>DefiDisplayComponent&#45;&gt;DefiDisplayModule</title>
<path fill="none" stroke="#000000" d="M396.375,-122.1061C396.375,-141.3391 396.375,-169 396.375,-169 396.375,-169 333.2631,-169 333.2631,-169"/>
<polygon fill="#000000" stroke="#000000" points="333.2631,-165.5001 323.2631,-169 333.2631,-172.5001 333.2631,-165.5001"/>
</g>
<!-- DefiDisplayItemDirective -->
<g id="node2" class="node">
<title>DefiDisplayItemDirective</title>
<polygon fill="#ffffb3" stroke="#000000" points="340.1587,-122 177.8413,-122 177.8413,-86 340.1587,-86 340.1587,-122"/>
<text text-anchor="middle" x="259" y="-99.8" font-family="Times,serif" font-size="14.00" fill="#000000">DefiDisplayItemDirective</text>
</g>
<!-- DefiDisplayItemDirective&#45;&gt;DefiDisplayModule -->
<g id="edge2" class="edge">
<title>DefiDisplayItemDirective&#45;&gt;DefiDisplayModule</title>
<path fill="none" stroke="#000000" d="M259,-122.1061C259,-122.1061 259,-140.991 259,-140.991"/>
<polygon fill="#000000" stroke="#000000" points="255.5001,-140.9909 259,-150.991 262.5001,-140.991 255.5001,-140.9909"/>
</g>
<!-- DefiDisplayComponent  -->
<g id="node5" class="node">
<title>DefiDisplayComponent </title>
<polygon fill="#fb8072" stroke="#000000" points="434.752,-252 281.248,-252 281.248,-216 434.752,-216 434.752,-252"/>
<text text-anchor="middle" x="358" y="-229.8" font-family="Times,serif" font-size="14.00" fill="#000000">DefiDisplayComponent </text>
</g>
<!-- DefiDisplayModule&#45;&gt;DefiDisplayComponent  -->
<g id="edge4" class="edge">
<title>DefiDisplayModule&#45;&gt;DefiDisplayComponent </title>
<path fill="none" stroke="#000000" stroke-dasharray="5,2" d="M302.1794,-187.1061C302.1794,-187.1061 302.1794,-205.991 302.1794,-205.991"/>
<polygon fill="#000000" stroke="#000000" points="298.6794,-205.9909 302.1794,-215.991 305.6794,-205.991 298.6794,-205.9909"/>
</g>
<!-- DefiDisplayItemDirective  -->
<g id="node6" class="node">
<title>DefiDisplayItemDirective </title>
<polygon fill="#fb8072" stroke="#000000" points="263.659,-252 98.341,-252 98.341,-216 263.659,-216 263.659,-252"/>
<text text-anchor="middle" x="181" y="-229.8" font-family="Times,serif" font-size="14.00" fill="#000000">DefiDisplayItemDirective </text>
</g>
<!-- DefiDisplayModule&#45;&gt;DefiDisplayItemDirective  -->
<g id="edge5" class="edge">
<title>DefiDisplayModule&#45;&gt;DefiDisplayItemDirective </title>
<path fill="none" stroke="#000000" stroke-dasharray="5,2" d="M229.4224,-187.1061C229.4224,-187.1061 229.4224,-205.991 229.4224,-205.991"/>
<polygon fill="#000000" stroke="#000000" points="225.9224,-205.9909 229.4224,-215.991 232.9224,-205.991 225.9224,-205.9909"/>
</g>
<!-- DefiOverlayModule -->
<g id="node4" class="node">
<title>DefiOverlayModule</title>
<polygon fill="#8dd3c7" stroke="#000000" points="153.5101,-122 150.5101,-126 129.5101,-126 126.5101,-122 24.4899,-122 24.4899,-86 153.5101,-86 153.5101,-122"/>
<text text-anchor="middle" x="89" y="-99.8" font-family="Times,serif" font-size="14.00" fill="#000000">DefiOverlayModule</text>
</g>
<!-- DefiOverlayModule&#45;&gt;DefiDisplayModule -->
<g id="edge3" class="edge">
<title>DefiOverlayModule&#45;&gt;DefiDisplayModule</title>
<path fill="none" stroke="#000000" d="M125.9627,-122.1061C125.9627,-141.3391 125.9627,-169 125.9627,-169 125.9627,-169 184.8194,-169 184.8194,-169"/>
<polygon fill="#000000" stroke="#000000" points="184.8195,-172.5001 194.8194,-169 184.8194,-165.5001 184.8195,-172.5001"/>
</g>
</g>
</svg>
