<?xml version="1.0" encoding="UTF-8" standalone="no"?>
<!DOCTYPE svg PUBLIC "-//W3C//DTD SVG 1.1//EN"
 "http://www.w3.org/Graphics/SVG/1.1/DTD/svg11.dtd">
<!-- Generated by graphviz version 2.40.1 (20161225.0304)
 -->
<!-- Title: dependencies Pages: 1 -->
<svg width="662pt" height="284pt"
 viewBox="0.00 0.00 662.00 284.00" xmlns="http://www.w3.org/2000/svg" xmlns:xlink="http://www.w3.org/1999/xlink">
<g id="graph0" class="graph" transform="scale(1 1) rotate(0) translate(4 280)">
<title>dependencies</title>
<polygon fill="#ffffff" stroke="transparent" points="-4,4 -4,-280 658,-280 658,4 -4,4"/>
<text text-anchor="start" x="306.0091" y="-42.4" font-family="sans-serif" font-weight="bold" font-size="14.00" fill="#000000">Legend</text>
<polygon fill="#ffffb3" stroke="transparent" points="93,-10 93,-30 113,-30 113,-10 93,-10"/>
<text text-anchor="start" x="116.629" y="-15.4" font-family="sans-serif" font-size="14.00" fill="#000000"> &#160;Declarations</text>
<polygon fill="#8dd3c7" stroke="transparent" points="206,-10 206,-30 226,-30 226,-10 206,-10"/>
<text text-anchor="start" x="229.7251" y="-15.4" font-family="sans-serif" font-size="14.00" fill="#000000"> &#160;Module</text>
<polygon fill="#80b1d3" stroke="transparent" points="292,-10 292,-30 312,-30 312,-10 292,-10"/>
<text text-anchor="start" x="315.7812" y="-15.4" font-family="sans-serif" font-size="14.00" fill="#000000"> &#160;Bootstrap</text>
<polygon fill="#fdb462" stroke="transparent" points="389,-10 389,-30 409,-30 409,-10 389,-10"/>
<text text-anchor="start" x="412.6732" y="-15.4" font-family="sans-serif" font-size="14.00" fill="#000000"> &#160;Providers</text>
<polygon fill="#fb8072" stroke="transparent" points="485,-10 485,-30 505,-30 505,-10 485,-10"/>
<text text-anchor="start" x="508.7258" y="-15.4" font-family="sans-serif" font-size="14.00" fill="#000000"> &#160;Exports</text>
<g id="clust1" class="cluster">
<title>cluster_DefiCoreModule</title>
<polygon fill="none" stroke="#000000" stroke-dasharray="1,5" points="8,-70 8,-268 646,-268 646,-70 8,-70"/>
</g>
<g id="clust2" class="cluster">
<title>cluster_DefiCoreModule_declarations</title>
<polygon fill="none" stroke="#000000" points="16,-78 16,-130 638,-130 638,-78 16,-78"/>
</g>
<g id="clust8" class="cluster">
<title>cluster_DefiCoreModule_exports</title>
<polygon fill="none" stroke="#000000" points="81,-208 81,-260 533,-260 533,-208 81,-208"/>
</g>
<!-- DefiClickStopPropagation -->
<g id="node1" class="node">
<title>DefiClickStopPropagation</title>
<polygon fill="#ffffb3" stroke="#000000" points="630.0323,-122 465.9677,-122 465.9677,-86 630.0323,-86 630.0323,-122"/>
<text text-anchor="middle" x="548" y="-99.8" font-family="Times,serif" font-size="14.00" fill="#000000">DefiClickStopPropagation</text>
</g>
<!-- DefiCoreModule -->
<g id="node5" class="node">
<title>DefiCoreModule</title>
<polygon fill="#8dd3c7" stroke="#000000" points="354.6346,-187 351.6346,-191 330.6346,-191 327.6346,-187 243.3654,-187 243.3654,-151 354.6346,-151 354.6346,-187"/>
<text text-anchor="middle" x="299" y="-164.8" font-family="Times,serif" font-size="14.00" fill="#000000">DefiCoreModule</text>
</g>
<!-- DefiClickStopPropagation&#45;&gt;DefiCoreModule -->
<g id="edge1" class="edge">
<title>DefiClickStopPropagation&#45;&gt;DefiCoreModule</title>
<path fill="none" stroke="#000000" d="M495.3407,-122.1061C495.3407,-141.3391 495.3407,-169 495.3407,-169 495.3407,-169 364.7382,-169 364.7382,-169"/>
<polygon fill="#000000" stroke="#000000" points="364.7382,-165.5001 354.7382,-169 364.7381,-172.5001 364.7382,-165.5001"/>
</g>
<!-- DefiSpinningIconDirective -->
<g id="node2" class="node">
<title>DefiSpinningIconDirective</title>
<polygon fill="#ffffb3" stroke="#000000" points="448.3947,-122 279.6053,-122 279.6053,-86 448.3947,-86 448.3947,-122"/>
<text text-anchor="middle" x="364" y="-99.8" font-family="Times,serif" font-size="14.00" fill="#000000">DefiSpinningIconDirective</text>
</g>
<!-- DefiSpinningIconDirective&#45;&gt;DefiCoreModule -->
<g id="edge2" class="edge">
<title>DefiSpinningIconDirective&#45;&gt;DefiCoreModule</title>
<path fill="none" stroke="#000000" d="M317.31,-122.1061C317.31,-122.1061 317.31,-140.991 317.31,-140.991"/>
<polygon fill="#000000" stroke="#000000" points="313.81,-140.9909 317.31,-150.991 320.81,-140.991 313.81,-140.9909"/>
</g>
<!-- DefiToId -->
<g id="node3" class="node">
<title>DefiToId</title>
<polygon fill="#ffffb3" stroke="#000000" points="262.0857,-122 193.9143,-122 193.9143,-86 262.0857,-86 262.0857,-122"/>
<text text-anchor="middle" x="228" y="-99.8" font-family="Times,serif" font-size="14.00" fill="#000000">DefiToId</text>
</g>
<!-- DefiToId&#45;&gt;DefiCoreModule -->
<g id="edge3" class="edge">
<title>DefiToId&#45;&gt;DefiCoreModule</title>
<path fill="none" stroke="#000000" d="M252.6129,-122.1061C252.6129,-122.1061 252.6129,-140.991 252.6129,-140.991"/>
<polygon fill="#000000" stroke="#000000" points="249.113,-140.9909 252.6129,-150.991 256.113,-140.991 249.113,-140.9909"/>
</g>
<!-- DefiPopoverComponent -->
<g id="node4" class="node">
<title>DefiPopoverComponent</title>
<polygon fill="#ffffb3" stroke="#000000" points="176.3627,-122 23.6373,-122 23.6373,-86 176.3627,-86 176.3627,-122"/>
<text text-anchor="middle" x="100" y="-99.8" font-family="Times,serif" font-size="14.00" fill="#000000">DefiPopoverComponent</text>
</g>
<!-- DefiPopoverComponent&#45;&gt;DefiCoreModule -->
<g id="edge4" class="edge">
<title>DefiPopoverComponent&#45;&gt;DefiCoreModule</title>
<path fill="none" stroke="#000000" d="M132.625,-122.1061C132.625,-141.3391 132.625,-169 132.625,-169 132.625,-169 233.1367,-169 233.1367,-169"/>
<polygon fill="#000000" stroke="#000000" points="233.1367,-172.5001 243.1367,-169 233.1367,-165.5001 233.1367,-172.5001"/>
</g>
<!-- DefiSpinningIconDirective  -->
<g id="node6" class="node">
<title>DefiSpinningIconDirective </title>
<polygon fill="#fb8072" stroke="#000000" points="524.8942,-252 353.1058,-252 353.1058,-216 524.8942,-216 524.8942,-252"/>
<text text-anchor="middle" x="439" y="-229.8" font-family="Times,serif" font-size="14.00" fill="#000000">DefiSpinningIconDirective </text>
</g>
<!-- DefiCoreModule&#45;&gt;DefiSpinningIconDirective  -->
<g id="edge5" class="edge">
<title>DefiCoreModule&#45;&gt;DefiSpinningIconDirective </title>
<path fill="none" stroke="#000000" stroke-dasharray="5,2" d="M343.9229,-187.1061C343.9229,-206.3391 343.9229,-234 343.9229,-234 343.9229,-234 344.8345,-234 344.8345,-234"/>
<polygon fill="#000000" stroke="#000000" points="343.0393,-237.5001 353.0392,-234 343.0392,-230.5001 343.0393,-237.5001"/>
</g>
<!-- DefiToId  -->
<g id="node7" class="node">
<title>DefiToId </title>
<polygon fill="#fb8072" stroke="#000000" points="334.5868,-252 263.4132,-252 263.4132,-216 334.5868,-216 334.5868,-252"/>
<text text-anchor="middle" x="299" y="-229.8" font-family="Times,serif" font-size="14.00" fill="#000000">DefiToId </text>
</g>
<!-- DefiCoreModule&#45;&gt;DefiToId  -->
<g id="edge6" class="edge">
<title>DefiCoreModule&#45;&gt;DefiToId </title>
<path fill="none" stroke="#000000" stroke-dasharray="5,2" d="M299,-187.1061C299,-187.1061 299,-205.991 299,-205.991"/>
<polygon fill="#000000" stroke="#000000" points="295.5001,-205.9909 299,-215.991 302.5001,-205.991 295.5001,-205.9909"/>
</g>
<!-- DefiPopoverComponent  -->
<g id="node8" class="node">
<title>DefiPopoverComponent </title>
<polygon fill="#fb8072" stroke="#000000" points="245.363,-252 88.637,-252 88.637,-216 245.363,-216 245.363,-252"/>
<text text-anchor="middle" x="167" y="-229.8" font-family="Times,serif" font-size="14.00" fill="#000000">DefiPopoverComponent </text>
</g>
<!-- DefiCoreModule&#45;&gt;DefiPopoverComponent  -->
<g id="edge7" class="edge">
<title>DefiCoreModule&#45;&gt;DefiPopoverComponent </title>
<path fill="none" stroke="#000000" stroke-dasharray="5,2" d="M254.1943,-187.1061C254.1943,-206.3391 254.1943,-234 254.1943,-234 254.1943,-234 253.294,-234 253.294,-234"/>
<polygon fill="#000000" stroke="#000000" points="255.1914,-230.5001 245.1913,-234 255.1913,-237.5001 255.1914,-230.5001"/>
</g>
</g>
</svg>
