<?xml version="1.0" encoding="UTF-8" standalone="no"?>
<!DOCTYPE svg PUBLIC "-//W3C//DTD SVG 1.1//EN"
 "http://www.w3.org/Graphics/SVG/1.1/DTD/svg11.dtd">
<!-- Generated by graphviz version 2.40.1 (20161225.0304)
 -->
<!-- Title: dependencies Pages: 1 -->
<svg width="1110pt" height="284pt"
 viewBox="0.00 0.00 1110.00 284.00" xmlns="http://www.w3.org/2000/svg" xmlns:xlink="http://www.w3.org/1999/xlink">
<g id="graph0" class="graph" transform="scale(1 1) rotate(0) translate(4 280)">
<title>dependencies</title>
<polygon fill="#ffffff" stroke="transparent" points="-4,4 -4,-280 1106,-280 1106,4 -4,4"/>
<text text-anchor="start" x="530.0091" y="-42.4" font-family="sans-serif" font-weight="bold" font-size="14.00" fill="#000000">Legend</text>
<polygon fill="#ffffb3" stroke="transparent" points="317,-10 317,-30 337,-30 337,-10 317,-10"/>
<text text-anchor="start" x="340.629" y="-15.4" font-family="sans-serif" font-size="14.00" fill="#000000"> &#160;Declarations</text>
<polygon fill="#8dd3c7" stroke="transparent" points="430,-10 430,-30 450,-30 450,-10 430,-10"/>
<text text-anchor="start" x="453.7251" y="-15.4" font-family="sans-serif" font-size="14.00" fill="#000000"> &#160;Module</text>
<polygon fill="#80b1d3" stroke="transparent" points="516,-10 516,-30 536,-30 536,-10 516,-10"/>
<text text-anchor="start" x="539.7812" y="-15.4" font-family="sans-serif" font-size="14.00" fill="#000000"> &#160;Bootstrap</text>
<polygon fill="#fdb462" stroke="transparent" points="613,-10 613,-30 633,-30 633,-10 613,-10"/>
<text text-anchor="start" x="636.6732" y="-15.4" font-family="sans-serif" font-size="14.00" fill="#000000"> &#160;Providers</text>
<polygon fill="#fb8072" stroke="transparent" points="709,-10 709,-30 729,-30 729,-10 709,-10"/>
<text text-anchor="start" x="732.7258" y="-15.4" font-family="sans-serif" font-size="14.00" fill="#000000"> &#160;Exports</text>
<g id="clust1" class="cluster">
<title>cluster_DemoSDK</title>
<polygon fill="none" stroke="#000000" stroke-dasharray="1,5" points="8,-70 8,-268 1094,-268 1094,-70 8,-70"/>
</g>
<g id="clust2" class="cluster">
<title>cluster_DemoSDK_declarations</title>
<polygon fill="none" stroke="#000000" points="557,-78 557,-130 853,-130 853,-78 557,-78"/>
</g>
<g id="clust5" class="cluster">
<title>cluster_DemoSDK_imports</title>
<polygon fill="none" stroke="#000000" points="249,-78 249,-130 549,-130 549,-78 249,-78"/>
</g>
<g id="clust6" class="cluster">
<title>cluster_DemoSDK_exports</title>
<polygon fill="none" stroke="#000000" points="16,-208 16,-260 1086,-260 1086,-208 16,-208"/>
</g>
<!-- SampleCodeComponent -->
<g id="node1" class="node">
<title>SampleCodeComponent</title>
<polygon fill="#ffffb3" stroke="#000000" points="845.3766,-122 692.6234,-122 692.6234,-86 845.3766,-86 845.3766,-122"/>
<text text-anchor="middle" x="769" y="-99.8" font-family="Times,serif" font-size="14.00" fill="#000000">SampleCodeComponent</text>
</g>
<!-- DemoSDK -->
<g id="node3" class="node">
<title>DemoSDK</title>
<polygon fill="#8dd3c7" stroke="#000000" points="583.2079,-187 580.2079,-191 559.2079,-191 556.2079,-187 504.7921,-187 504.7921,-151 583.2079,-151 583.2079,-187"/>
<text text-anchor="middle" x="544" y="-164.8" font-family="Times,serif" font-size="14.00" fill="#000000">DemoSDK</text>
</g>
<!-- SampleCodeComponent&#45;&gt;DemoSDK -->
<g id="edge1" class="edge">
<title>SampleCodeComponent&#45;&gt;DemoSDK</title>
<path fill="none" stroke="#000000" d="M732.4245,-122.0091C732.4245,-138.0494 732.4245,-159 732.4245,-159 732.4245,-159 593.4999,-159 593.4999,-159"/>
<polygon fill="#000000" stroke="#000000" points="593.5,-155.5001 583.4999,-159 593.4999,-162.5001 593.5,-155.5001"/>
</g>
<!-- SampleDirective -->
<g id="node2" class="node">
<title>SampleDirective</title>
<polygon fill="#ffffb3" stroke="#000000" points="675.0758,-122 564.9242,-122 564.9242,-86 675.0758,-86 675.0758,-122"/>
<text text-anchor="middle" x="620" y="-99.8" font-family="Times,serif" font-size="14.00" fill="#000000">SampleDirective</text>
</g>
<!-- SampleDirective&#45;&gt;DemoSDK -->
<g id="edge2" class="edge">
<title>SampleDirective&#45;&gt;DemoSDK</title>
<path fill="none" stroke="#000000" d="M574.033,-122.1061C574.033,-122.1061 574.033,-140.991 574.033,-140.991"/>
<polygon fill="#000000" stroke="#000000" points="570.533,-140.9909 574.033,-150.991 577.533,-140.991 570.533,-140.9909"/>
</g>
<!-- SampleCodeComponent  -->
<g id="node6" class="node">
<title>SampleCodeComponent </title>
<polygon fill="#fb8072" stroke="#000000" points="1078.3771,-252 921.6229,-252 921.6229,-216 1078.3771,-216 1078.3771,-252"/>
<text text-anchor="middle" x="1000" y="-229.8" font-family="Times,serif" font-size="14.00" fill="#000000">SampleCodeComponent </text>
</g>
<!-- DemoSDK&#45;&gt;SampleCodeComponent  -->
<g id="edge5" class="edge">
<title>DemoSDK&#45;&gt;SampleCodeComponent </title>
<path fill="none" stroke="#000000" stroke-dasharray="5,2" d="M583.273,-166C693.882,-166 1000,-166 1000,-166 1000,-166 1000,-205.7772 1000,-205.7772"/>
<polygon fill="#000000" stroke="#000000" points="996.5001,-205.7772 1000,-215.7772 1003.5001,-205.7773 996.5001,-205.7772"/>
</g>
<!-- SampleDirective  -->
<g id="node7" class="node">
<title>SampleDirective </title>
<polygon fill="#fb8072" stroke="#000000" points="903.5766,-252 790.4234,-252 790.4234,-216 903.5766,-216 903.5766,-252"/>
<text text-anchor="middle" x="847" y="-229.8" font-family="Times,serif" font-size="14.00" fill="#000000">SampleDirective </text>
</g>
<!-- DemoSDK&#45;&gt;SampleDirective  -->
<g id="edge6" class="edge">
<title>DemoSDK&#45;&gt;SampleDirective </title>
<path fill="none" stroke="#000000" stroke-dasharray="5,2" d="M583.2325,-173C658.9476,-173 817.8252,-173 817.8252,-173 817.8252,-173 817.8252,-205.698 817.8252,-205.698"/>
<polygon fill="#000000" stroke="#000000" points="814.3253,-205.698 817.8252,-215.698 821.3253,-205.698 814.3253,-205.698"/>
</g>
<!-- DefiContainersModule  -->
<g id="node8" class="node">
<title>DefiContainersModule </title>
<polygon fill="#fb8072" stroke="#000000" points="772.075,-252 623.925,-252 623.925,-216 772.075,-216 772.075,-252"/>
<text text-anchor="middle" x="698" y="-229.8" font-family="Times,serif" font-size="14.00" fill="#000000">DefiContainersModule </text>
</g>
<!-- DemoSDK&#45;&gt;DefiContainersModule  -->
<g id="edge7" class="edge">
<title>DemoSDK&#45;&gt;DefiContainersModule </title>
<path fill="none" stroke="#000000" stroke-dasharray="5,2" d="M583.2379,-180C613.1976,-180 649.3754,-180 649.3754,-180 649.3754,-180 649.3754,-205.7181 649.3754,-205.7181"/>
<polygon fill="#000000" stroke="#000000" points="645.8754,-205.718 649.3754,-215.7181 652.8754,-205.7181 645.8754,-205.718"/>
</g>
<!-- DefiFormsModule  -->
<g id="node9" class="node">
<title>DefiFormsModule </title>
<polygon fill="#fb8072" stroke="#000000" points="605.701,-252 482.299,-252 482.299,-216 605.701,-216 605.701,-252"/>
<text text-anchor="middle" x="544" y="-229.8" font-family="Times,serif" font-size="14.00" fill="#000000">DefiFormsModule </text>
</g>
<!-- DemoSDK&#45;&gt;DefiFormsModule  -->
<g id="edge8" class="edge">
<title>DemoSDK&#45;&gt;DefiFormsModule </title>
<path fill="none" stroke="#000000" stroke-dasharray="5,2" d="M544,-187.1061C544,-187.1061 544,-205.991 544,-205.991"/>
<polygon fill="#000000" stroke="#000000" points="540.5001,-205.9909 544,-215.991 547.5001,-205.991 540.5001,-205.9909"/>
</g>
<!-- DefiNavigationsModule  -->
<g id="node10" class="node">
<title>DefiNavigationsModule </title>
<polygon fill="#fb8072" stroke="#000000" points="463.575,-252 308.425,-252 308.425,-216 463.575,-216 463.575,-252"/>
<text text-anchor="middle" x="386" y="-229.8" font-family="Times,serif" font-size="14.00" fill="#000000">DefiNavigationsModule </text>
</g>
<!-- DemoSDK&#45;&gt;DefiNavigationsModule  -->
<g id="edge9" class="edge">
<title>DemoSDK&#45;&gt;DefiNavigationsModule </title>
<path fill="none" stroke="#000000" stroke-dasharray="5,2" d="M504.6386,-180C471.554,-180 429.625,-180 429.625,-180 429.625,-180 429.625,-205.7181 429.625,-205.7181"/>
<polygon fill="#000000" stroke="#000000" points="426.1251,-205.718 429.625,-215.7181 433.1251,-205.7181 426.1251,-205.718"/>
</g>
<!-- DefiOverlayModule  -->
<g id="node11" class="node">
<title>DefiOverlayModule </title>
<polygon fill="#fb8072" stroke="#000000" points="290.5092,-252 157.4908,-252 157.4908,-216 290.5092,-216 290.5092,-252"/>
<text text-anchor="middle" x="224" y="-229.8" font-family="Times,serif" font-size="14.00" fill="#000000">DefiOverlayModule </text>
</g>
<!-- DemoSDK&#45;&gt;DefiOverlayModule  -->
<g id="edge10" class="edge">
<title>DemoSDK&#45;&gt;DefiOverlayModule </title>
<path fill="none" stroke="#000000" stroke-dasharray="5,2" d="M504.6964,-173C429.7299,-173 273.7022,-173 273.7022,-173 273.7022,-173 273.7022,-205.698 273.7022,-205.698"/>
<polygon fill="#000000" stroke="#000000" points="270.2022,-205.698 273.7022,-215.698 277.2022,-205.698 270.2022,-205.698"/>
</g>
<!-- DefiCoreModule  -->
<g id="node12" class="node">
<title>DefiCoreModule </title>
<polygon fill="#fb8072" stroke="#000000" points="139.6341,-252 24.3659,-252 24.3659,-216 139.6341,-216 139.6341,-252"/>
<text text-anchor="middle" x="82" y="-229.8" font-family="Times,serif" font-size="14.00" fill="#000000">DefiCoreModule </text>
</g>
<!-- DemoSDK&#45;&gt;DefiCoreModule  -->
<g id="edge11" class="edge">
<title>DemoSDK&#45;&gt;DefiCoreModule </title>
<path fill="none" stroke="#000000" stroke-dasharray="5,2" d="M504.6101,-166C392.8856,-166 82,-166 82,-166 82,-166 82,-205.7772 82,-205.7772"/>
<polygon fill="#000000" stroke="#000000" points="78.5001,-205.7772 82,-215.7772 85.5001,-205.7773 78.5001,-205.7772"/>
</g>
<!-- DefiContainersModule -->
<g id="node4" class="node">
<title>DefiContainersModule</title>
<polygon fill="#8dd3c7" stroke="#000000" points="540.5744,-122 537.5744,-126 516.5744,-126 513.5744,-122 395.4256,-122 395.4256,-86 540.5744,-86 540.5744,-122"/>
<text text-anchor="middle" x="468" y="-99.8" font-family="Times,serif" font-size="14.00" fill="#000000">DefiContainersModule</text>
</g>
<!-- DefiContainersModule&#45;&gt;DemoSDK -->
<g id="edge3" class="edge">
<title>DefiContainersModule&#45;&gt;DemoSDK</title>
<path fill="none" stroke="#000000" d="M522.7167,-122.1061C522.7167,-122.1061 522.7167,-140.991 522.7167,-140.991"/>
<polygon fill="#000000" stroke="#000000" points="519.2168,-140.9909 522.7167,-150.991 526.2168,-140.991 519.2168,-140.9909"/>
</g>
<!-- DefiFormsModule -->
<g id="node5" class="node">
<title>DefiFormsModule</title>
<polygon fill="#8dd3c7" stroke="#000000" points="377.2008,-122 374.2008,-126 353.2008,-126 350.2008,-122 256.7992,-122 256.7992,-86 377.2008,-86 377.2008,-122"/>
<text text-anchor="middle" x="317" y="-99.8" font-family="Times,serif" font-size="14.00" fill="#000000">DefiFormsModule</text>
</g>
<!-- DefiFormsModule&#45;&gt;DemoSDK -->
<g id="edge4" class="edge">
<title>DefiFormsModule&#45;&gt;DemoSDK</title>
<path fill="none" stroke="#000000" d="M342.6566,-122.0091C342.6566,-138.0494 342.6566,-159 342.6566,-159 342.6566,-159 494.701,-159 494.701,-159"/>
<polygon fill="#000000" stroke="#000000" points="494.701,-162.5001 504.701,-159 494.7009,-155.5001 494.701,-162.5001"/>
</g>
</g>
</svg>
