<?xml version="1.0" encoding="UTF-8" standalone="no"?>
<!DOCTYPE svg PUBLIC "-//W3C//DTD SVG 1.1//EN"
 "http://www.w3.org/Graphics/SVG/1.1/DTD/svg11.dtd">
<!-- Generated by graphviz version 2.40.1 (20161225.0304)
 -->
<!-- Title: dependencies Pages: 1 -->
<svg width="546pt" height="284pt"
 viewBox="0.00 0.00 546.00 284.00" xmlns="http://www.w3.org/2000/svg" xmlns:xlink="http://www.w3.org/1999/xlink">
<g id="graph0" class="graph" transform="scale(1 1) rotate(0) translate(4 280)">
<title>dependencies</title>
<polygon fill="#ffffff" stroke="transparent" points="-4,4 -4,-280 542,-280 542,4 -4,4"/>
<text text-anchor="start" x="248.0091" y="-42.4" font-family="sans-serif" font-weight="bold" font-size="14.00" fill="#000000">Legend</text>
<polygon fill="#ffffb3" stroke="transparent" points="35,-10 35,-30 55,-30 55,-10 35,-10"/>
<text text-anchor="start" x="58.629" y="-15.4" font-family="sans-serif" font-size="14.00" fill="#000000"> &#160;Declarations</text>
<polygon fill="#8dd3c7" stroke="transparent" points="148,-10 148,-30 168,-30 168,-10 148,-10"/>
<text text-anchor="start" x="171.7251" y="-15.4" font-family="sans-serif" font-size="14.00" fill="#000000"> &#160;Module</text>
<polygon fill="#80b1d3" stroke="transparent" points="234,-10 234,-30 254,-30 254,-10 234,-10"/>
<text text-anchor="start" x="257.7812" y="-15.4" font-family="sans-serif" font-size="14.00" fill="#000000"> &#160;Bootstrap</text>
<polygon fill="#fdb462" stroke="transparent" points="331,-10 331,-30 351,-30 351,-10 331,-10"/>
<text text-anchor="start" x="354.6732" y="-15.4" font-family="sans-serif" font-size="14.00" fill="#000000"> &#160;Providers</text>
<polygon fill="#fb8072" stroke="transparent" points="427,-10 427,-30 447,-30 447,-10 427,-10"/>
<text text-anchor="start" x="450.7258" y="-15.4" font-family="sans-serif" font-size="14.00" fill="#000000"> &#160;Exports</text>
<g id="clust1" class="cluster">
<title>cluster_CltThemeModule</title>
<polygon fill="none" stroke="#000000" stroke-dasharray="1,5" points="8,-70 8,-268 530,-268 530,-70 8,-70"/>
</g>
<g id="clust2" class="cluster">
<title>cluster_CltThemeModule_declarations</title>
<polygon fill="none" stroke="#000000" points="318,-78 318,-130 522,-130 522,-78 318,-78"/>
</g>
<g id="clust4" class="cluster">
<title>cluster_CltThemeModule_imports</title>
<polygon fill="none" stroke="#000000" points="16,-78 16,-130 310,-130 310,-78 16,-78"/>
</g>
<g id="clust5" class="cluster">
<title>cluster_CltThemeModule_exports</title>
<polygon fill="none" stroke="#000000" points="130,-208 130,-260 336,-260 336,-208 130,-208"/>
</g>
<!-- CltThemeManagerComponent -->
<g id="node1" class="node">
<title>CltThemeManagerComponent</title>
<polygon fill="#ffffb3" stroke="#000000" points="513.5716,-122 326.4284,-122 326.4284,-86 513.5716,-86 513.5716,-122"/>
<text text-anchor="middle" x="420" y="-99.8" font-family="Times,serif" font-size="14.00" fill="#000000">CltThemeManagerComponent</text>
</g>
<!-- CltThemeModule -->
<g id="node2" class="node">
<title>CltThemeModule</title>
<polygon fill="#8dd3c7" stroke="#000000" points="290.5409,-187 287.5409,-191 266.5409,-191 263.5409,-187 175.4591,-187 175.4591,-151 290.5409,-151 290.5409,-187"/>
<text text-anchor="middle" x="233" y="-164.8" font-family="Times,serif" font-size="14.00" fill="#000000">CltThemeModule</text>
</g>
<!-- CltThemeManagerComponent&#45;&gt;CltThemeModule -->
<g id="edge1" class="edge">
<title>CltThemeManagerComponent&#45;&gt;CltThemeModule</title>
<path fill="none" stroke="#000000" d="M420.9108,-122.1061C420.9108,-141.3391 420.9108,-169 420.9108,-169 420.9108,-169 300.6565,-169 300.6565,-169"/>
<polygon fill="#000000" stroke="#000000" points="300.6565,-165.5001 290.6565,-169 300.6564,-172.5001 300.6565,-165.5001"/>
</g>
<!-- CltThemeManagerComponent  -->
<g id="node5" class="node">
<title>CltThemeManagerComponent </title>
<polygon fill="#fb8072" stroke="#000000" points="328.0721,-252 137.9279,-252 137.9279,-216 328.0721,-216 328.0721,-252"/>
<text text-anchor="middle" x="233" y="-229.8" font-family="Times,serif" font-size="14.00" fill="#000000">CltThemeManagerComponent </text>
</g>
<!-- CltThemeModule&#45;&gt;CltThemeManagerComponent  -->
<g id="edge4" class="edge">
<title>CltThemeModule&#45;&gt;CltThemeManagerComponent </title>
<path fill="none" stroke="#000000" stroke-dasharray="5,2" d="M233,-187.1061C233,-187.1061 233,-205.991 233,-205.991"/>
<polygon fill="#000000" stroke="#000000" points="229.5001,-205.9909 233,-215.991 236.5001,-205.991 229.5001,-205.9909"/>
</g>
<!-- CltContainersModule -->
<g id="node3" class="node">
<title>CltContainersModule</title>
<polygon fill="#8dd3c7" stroke="#000000" points="301.8202,-122 298.8202,-126 277.8202,-126 274.8202,-122 164.1798,-122 164.1798,-86 301.8202,-86 301.8202,-122"/>
<text text-anchor="middle" x="233" y="-99.8" font-family="Times,serif" font-size="14.00" fill="#000000">CltContainersModule</text>
</g>
<!-- CltContainersModule&#45;&gt;CltThemeModule -->
<g id="edge2" class="edge">
<title>CltContainersModule&#45;&gt;CltThemeModule</title>
<path fill="none" stroke="#000000" d="M233,-122.1061C233,-122.1061 233,-140.991 233,-140.991"/>
<polygon fill="#000000" stroke="#000000" points="229.5001,-140.9909 233,-150.991 236.5001,-140.991 229.5001,-140.9909"/>
</g>
<!-- CltOverlayModule -->
<g id="node4" class="node">
<title>CltOverlayModule</title>
<polygon fill="#8dd3c7" stroke="#000000" points="145.7548,-122 142.7548,-126 121.7548,-126 118.7548,-122 24.2452,-122 24.2452,-86 145.7548,-86 145.7548,-122"/>
<text text-anchor="middle" x="85" y="-99.8" font-family="Times,serif" font-size="14.00" fill="#000000">CltOverlayModule</text>
</g>
<!-- CltOverlayModule&#45;&gt;CltThemeModule -->
<g id="edge3" class="edge">
<title>CltOverlayModule&#45;&gt;CltThemeModule</title>
<path fill="none" stroke="#000000" d="M141.7958,-122.1061C141.7958,-141.3391 141.7958,-169 141.7958,-169 141.7958,-169 165.239,-169 165.239,-169"/>
<polygon fill="#000000" stroke="#000000" points="165.239,-172.5001 175.239,-169 165.2389,-165.5001 165.239,-172.5001"/>
</g>
</g>
</svg>
