<?xml version="1.0" encoding="UTF-8" standalone="no"?>
<!DOCTYPE svg PUBLIC "-//W3C//DTD SVG 1.1//EN"
 "http://www.w3.org/Graphics/SVG/1.1/DTD/svg11.dtd">
<!-- Generated by graphviz version 2.40.1 (20161225.0304)
 -->
<!-- Title: dependencies Pages: 1 -->
<svg width="896pt" height="284pt"
 viewBox="0.00 0.00 896.00 284.00" xmlns="http://www.w3.org/2000/svg" xmlns:xlink="http://www.w3.org/1999/xlink">
<g id="graph0" class="graph" transform="scale(1 1) rotate(0) translate(4 280)">
<title>dependencies</title>
<polygon fill="#ffffff" stroke="transparent" points="-4,4 -4,-280 892,-280 892,4 -4,4"/>
<text text-anchor="start" x="423.0091" y="-42.4" font-family="sans-serif" font-weight="bold" font-size="14.00" fill="#000000">Legend</text>
<polygon fill="#ffffb3" stroke="transparent" points="210,-10 210,-30 230,-30 230,-10 210,-10"/>
<text text-anchor="start" x="233.629" y="-15.4" font-family="sans-serif" font-size="14.00" fill="#000000"> &#160;Declarations</text>
<polygon fill="#8dd3c7" stroke="transparent" points="323,-10 323,-30 343,-30 343,-10 323,-10"/>
<text text-anchor="start" x="346.7251" y="-15.4" font-family="sans-serif" font-size="14.00" fill="#000000"> &#160;Module</text>
<polygon fill="#80b1d3" stroke="transparent" points="409,-10 409,-30 429,-30 429,-10 409,-10"/>
<text text-anchor="start" x="432.7812" y="-15.4" font-family="sans-serif" font-size="14.00" fill="#000000"> &#160;Bootstrap</text>
<polygon fill="#fdb462" stroke="transparent" points="506,-10 506,-30 526,-30 526,-10 506,-10"/>
<text text-anchor="start" x="529.6732" y="-15.4" font-family="sans-serif" font-size="14.00" fill="#000000"> &#160;Providers</text>
<polygon fill="#fb8072" stroke="transparent" points="602,-10 602,-30 622,-30 622,-10 602,-10"/>
<text text-anchor="start" x="625.7258" y="-15.4" font-family="sans-serif" font-size="14.00" fill="#000000"> &#160;Exports</text>
<g id="clust1" class="cluster">
<title>cluster_AppModule</title>
<polygon fill="none" stroke="#000000" stroke-dasharray="1,5" points="8,-70 8,-268 880,-268 880,-70 8,-70"/>
</g>
<g id="clust2" class="cluster">
<title>cluster_AppModule_declarations</title>
<polygon fill="none" stroke="#000000" points="750,-78 750,-130 872,-130 872,-78 750,-78"/>
</g>
<g id="clust4" class="cluster">
<title>cluster_AppModule_imports</title>
<polygon fill="none" stroke="#000000" points="16,-78 16,-130 742,-130 742,-78 16,-78"/>
</g>
<g id="clust6" class="cluster">
<title>cluster_AppModule_bootstrap</title>
<polygon fill="none" stroke="#000000" points="386,-208 386,-260 510,-260 510,-208 386,-208"/>
</g>
<!-- AppComponent -->
<g id="node1" class="node">
<title>AppComponent</title>
<polygon fill="#ffffb3" stroke="#000000" points="863.9399,-122 758.0601,-122 758.0601,-86 863.9399,-86 863.9399,-122"/>
<text text-anchor="middle" x="811" y="-99.8" font-family="Times,serif" font-size="14.00" fill="#000000">AppComponent</text>
</g>
<!-- AppModule -->
<g id="node2" class="node">
<title>AppModule</title>
<polygon fill="#8dd3c7" stroke="#000000" points="489.6571,-187 486.6571,-191 465.6571,-191 462.6571,-187 406.3429,-187 406.3429,-151 489.6571,-151 489.6571,-187"/>
<text text-anchor="middle" x="448" y="-164.8" font-family="Times,serif" font-size="14.00" fill="#000000">AppModule</text>
</g>
<!-- AppComponent&#45;&gt;AppModule -->
<g id="edge1" class="edge">
<title>AppComponent&#45;&gt;AppModule</title>
<path fill="none" stroke="#000000" d="M811,-122.2843C811,-143.3211 811,-175 811,-175 811,-175 499.9953,-175 499.9953,-175"/>
<polygon fill="#000000" stroke="#000000" points="499.9954,-171.5001 489.9953,-175 499.9953,-178.5001 499.9954,-171.5001"/>
</g>
<!-- AppComponent  -->
<g id="node8" class="node">
<title>AppComponent </title>
<polygon fill="#80b1d3" stroke="#000000" points="502.439,-252 393.561,-252 393.561,-216 502.439,-216 502.439,-252"/>
<text text-anchor="middle" x="448" y="-229.8" font-family="Times,serif" font-size="14.00" fill="#000000">AppComponent </text>
</g>
<!-- AppModule&#45;&gt;AppComponent  -->
<g id="edge7" class="edge">
<title>AppModule&#45;&gt;AppComponent </title>
<path fill="none" stroke="#000000" stroke-dasharray="1,5" d="M448,-187.1061C448,-187.1061 448,-205.991 448,-205.991"/>
<polygon fill="#000000" stroke="#000000" points="444.5001,-205.9909 448,-215.991 451.5001,-205.991 444.5001,-205.9909"/>
</g>
<!-- DefiCoreModule -->
<g id="node3" class="node">
<title>DefiCoreModule</title>
<polygon fill="#8dd3c7" stroke="#000000" points="733.6346,-122 730.6346,-126 709.6346,-126 706.6346,-122 622.3654,-122 622.3654,-86 733.6346,-86 733.6346,-122"/>
<text text-anchor="middle" x="678" y="-99.8" font-family="Times,serif" font-size="14.00" fill="#000000">DefiCoreModule</text>
</g>
<!-- DefiCoreModule&#45;&gt;AppModule -->
<g id="edge2" class="edge">
<title>DefiCoreModule&#45;&gt;AppModule</title>
<path fill="none" stroke="#000000" d="M678,-122.0225C678,-139.3734 678,-163 678,-163 678,-163 499.9181,-163 499.9181,-163"/>
<polygon fill="#000000" stroke="#000000" points="499.9181,-159.5001 489.9181,-163 499.9181,-166.5001 499.9181,-159.5001"/>
</g>
<!-- DefiNavigationsModule -->
<g id="node4" class="node">
<title>DefiNavigationsModule</title>
<polygon fill="#8dd3c7" stroke="#000000" points="604.0744,-122 601.0744,-126 580.0744,-126 577.0744,-122 451.9256,-122 451.9256,-86 604.0744,-86 604.0744,-122"/>
<text text-anchor="middle" x="528" y="-99.8" font-family="Times,serif" font-size="14.00" fill="#000000">DefiNavigationsModule</text>
</g>
<!-- DefiNavigationsModule&#45;&gt;AppModule -->
<g id="edge3" class="edge">
<title>DefiNavigationsModule&#45;&gt;AppModule</title>
<path fill="none" stroke="#000000" d="M470.8955,-122.1061C470.8955,-122.1061 470.8955,-140.991 470.8955,-140.991"/>
<polygon fill="#000000" stroke="#000000" points="467.3956,-140.9909 470.8955,-150.991 474.3956,-140.991 467.3956,-140.9909"/>
</g>
<!-- DefiOverlayModule -->
<g id="node5" class="node">
<title>DefiOverlayModule</title>
<polygon fill="#8dd3c7" stroke="#000000" points="433.5101,-122 430.5101,-126 409.5101,-126 406.5101,-122 304.4899,-122 304.4899,-86 433.5101,-86 433.5101,-122"/>
<text text-anchor="middle" x="369" y="-99.8" font-family="Times,serif" font-size="14.00" fill="#000000">DefiOverlayModule</text>
</g>
<!-- DefiOverlayModule&#45;&gt;AppModule -->
<g id="edge4" class="edge">
<title>DefiOverlayModule&#45;&gt;AppModule</title>
<path fill="none" stroke="#000000" d="M419.9632,-122.1061C419.9632,-122.1061 419.9632,-140.991 419.9632,-140.991"/>
<polygon fill="#000000" stroke="#000000" points="416.4633,-140.9909 419.9632,-150.991 423.4633,-140.991 416.4633,-140.9909"/>
</g>
<!-- ThemeModule -->
<g id="node6" class="node">
<title>ThemeModule</title>
<polygon fill="#8dd3c7" stroke="#000000" points="286.4231,-122 283.4231,-126 262.4231,-126 259.4231,-122 187.5769,-122 187.5769,-86 286.4231,-86 286.4231,-122"/>
<text text-anchor="middle" x="237" y="-99.8" font-family="Times,serif" font-size="14.00" fill="#000000">ThemeModule</text>
</g>
<!-- ThemeModule&#45;&gt;AppModule -->
<g id="edge5" class="edge">
<title>ThemeModule&#45;&gt;AppModule</title>
<path fill="none" stroke="#000000" d="M237,-122.0225C237,-139.3734 237,-163 237,-163 237,-163 396.3132,-163 396.3132,-163"/>
<polygon fill="#000000" stroke="#000000" points="396.3132,-166.5001 406.3132,-163 396.3132,-159.5001 396.3132,-166.5001"/>
</g>
<!-- DefiContainersModule -->
<g id="node7" class="node">
<title>DefiContainersModule</title>
<polygon fill="#8dd3c7" stroke="#000000" points="169.5744,-122 166.5744,-126 145.5744,-126 142.5744,-122 24.4256,-122 24.4256,-86 169.5744,-86 169.5744,-122"/>
<text text-anchor="middle" x="97" y="-99.8" font-family="Times,serif" font-size="14.00" fill="#000000">DefiContainersModule</text>
</g>
<!-- DefiContainersModule&#45;&gt;AppModule -->
<g id="edge6" class="edge">
<title>DefiContainersModule&#45;&gt;AppModule</title>
<path fill="none" stroke="#000000" d="M97,-122.2843C97,-143.3211 97,-175 97,-175 97,-175 396.0098,-175 396.0098,-175"/>
<polygon fill="#000000" stroke="#000000" points="396.0099,-178.5001 406.0098,-175 396.0098,-171.5001 396.0099,-178.5001"/>
</g>
</g>
</svg>
