<?xml version="1.0" encoding="UTF-8" standalone="no"?>
<!DOCTYPE svg PUBLIC "-//W3C//DTD SVG 1.1//EN"
 "http://www.w3.org/Graphics/SVG/1.1/DTD/svg11.dtd">
<!-- Generated by graphviz version 2.40.1 (20161225.0304)
 -->
<!-- Title: dependencies Pages: 1 -->
<svg width="992pt" height="284pt"
 viewBox="0.00 0.00 992.00 284.00" xmlns="http://www.w3.org/2000/svg" xmlns:xlink="http://www.w3.org/1999/xlink">
<g id="graph0" class="graph" transform="scale(1 1) rotate(0) translate(4 280)">
<title>dependencies</title>
<polygon fill="#ffffff" stroke="transparent" points="-4,4 -4,-280 988,-280 988,4 -4,4"/>
<text text-anchor="start" x="471.0091" y="-42.4" font-family="sans-serif" font-weight="bold" font-size="14.00" fill="#000000">Legend</text>
<polygon fill="#ffffb3" stroke="transparent" points="258,-10 258,-30 278,-30 278,-10 258,-10"/>
<text text-anchor="start" x="281.629" y="-15.4" font-family="sans-serif" font-size="14.00" fill="#000000"> &#160;Declarations</text>
<polygon fill="#8dd3c7" stroke="transparent" points="371,-10 371,-30 391,-30 391,-10 371,-10"/>
<text text-anchor="start" x="394.7251" y="-15.4" font-family="sans-serif" font-size="14.00" fill="#000000"> &#160;Module</text>
<polygon fill="#80b1d3" stroke="transparent" points="457,-10 457,-30 477,-30 477,-10 457,-10"/>
<text text-anchor="start" x="480.7812" y="-15.4" font-family="sans-serif" font-size="14.00" fill="#000000"> &#160;Bootstrap</text>
<polygon fill="#fdb462" stroke="transparent" points="554,-10 554,-30 574,-30 574,-10 554,-10"/>
<text text-anchor="start" x="577.6732" y="-15.4" font-family="sans-serif" font-size="14.00" fill="#000000"> &#160;Providers</text>
<polygon fill="#fb8072" stroke="transparent" points="650,-10 650,-30 670,-30 670,-10 650,-10"/>
<text text-anchor="start" x="673.7258" y="-15.4" font-family="sans-serif" font-size="14.00" fill="#000000"> &#160;Exports</text>
<g id="clust1" class="cluster">
<title>cluster_AppModule</title>
<polygon fill="none" stroke="#000000" stroke-dasharray="1,5" points="8,-70 8,-268 976,-268 976,-70 8,-70"/>
</g>
<g id="clust2" class="cluster">
<title>cluster_AppModule_declarations</title>
<polygon fill="none" stroke="#000000" points="846,-78 846,-130 968,-130 968,-78 846,-78"/>
</g>
<g id="clust4" class="cluster">
<title>cluster_AppModule_imports</title>
<polygon fill="none" stroke="#000000" points="16,-78 16,-130 838,-130 838,-78 16,-78"/>
</g>
<g id="clust6" class="cluster">
<title>cluster_AppModule_bootstrap</title>
<polygon fill="none" stroke="#000000" points="466,-208 466,-260 590,-260 590,-208 466,-208"/>
</g>
<!-- AppComponent -->
<g id="node1" class="node">
<title>AppComponent</title>
<polygon fill="#ffffb3" stroke="#000000" points="959.9399,-122 854.0601,-122 854.0601,-86 959.9399,-86 959.9399,-122"/>
<text text-anchor="middle" x="907" y="-99.8" font-family="Times,serif" font-size="14.00" fill="#000000">AppComponent</text>
</g>
<!-- AppModule -->
<g id="node2" class="node">
<title>AppModule</title>
<polygon fill="#8dd3c7" stroke="#000000" points="569.6571,-187 566.6571,-191 545.6571,-191 542.6571,-187 486.3429,-187 486.3429,-151 569.6571,-151 569.6571,-187"/>
<text text-anchor="middle" x="528" y="-164.8" font-family="Times,serif" font-size="14.00" fill="#000000">AppModule</text>
</g>
<!-- AppComponent&#45;&gt;AppModule -->
<g id="edge1" class="edge">
<title>AppComponent&#45;&gt;AppModule</title>
<path fill="none" stroke="#000000" d="M907,-122.2921C907,-144.2057 907,-178 907,-178 907,-178 580.0077,-178 580.0077,-178"/>
<polygon fill="#000000" stroke="#000000" points="580.0077,-174.5001 570.0077,-178 580.0077,-181.5001 580.0077,-174.5001"/>
</g>
<!-- AppComponent  -->
<g id="node9" class="node">
<title>AppComponent </title>
<polygon fill="#80b1d3" stroke="#000000" points="582.439,-252 473.561,-252 473.561,-216 582.439,-216 582.439,-252"/>
<text text-anchor="middle" x="528" y="-229.8" font-family="Times,serif" font-size="14.00" fill="#000000">AppComponent </text>
</g>
<!-- AppModule&#45;&gt;AppComponent  -->
<g id="edge8" class="edge">
<title>AppModule&#45;&gt;AppComponent </title>
<path fill="none" stroke="#000000" stroke-dasharray="1,5" d="M528,-187.1061C528,-187.1061 528,-205.991 528,-205.991"/>
<polygon fill="#000000" stroke="#000000" points="524.5001,-205.9909 528,-215.991 531.5001,-205.991 524.5001,-205.9909"/>
</g>
<!-- DemoSDK -->
<g id="node3" class="node">
<title>DemoSDK</title>
<polygon fill="#8dd3c7" stroke="#000000" points="830.2079,-122 827.2079,-126 806.2079,-126 803.2079,-122 751.7921,-122 751.7921,-86 830.2079,-86 830.2079,-122"/>
<text text-anchor="middle" x="791" y="-99.8" font-family="Times,serif" font-size="14.00" fill="#000000">DemoSDK</text>
</g>
<!-- DemoSDK&#45;&gt;AppModule -->
<g id="edge2" class="edge">
<title>DemoSDK&#45;&gt;AppModule</title>
<path fill="none" stroke="#000000" d="M791,-122.1061C791,-141.3391 791,-169 791,-169 791,-169 579.6731,-169 579.6731,-169"/>
<polygon fill="#000000" stroke="#000000" points="579.6732,-165.5001 569.6731,-169 579.6731,-172.5001 579.6732,-165.5001"/>
</g>
<!-- DefiCoreModule -->
<g id="node4" class="node">
<title>DefiCoreModule</title>
<polygon fill="#8dd3c7" stroke="#000000" points="733.6346,-122 730.6346,-126 709.6346,-126 706.6346,-122 622.3654,-122 622.3654,-86 733.6346,-86 733.6346,-122"/>
<text text-anchor="middle" x="678" y="-99.8" font-family="Times,serif" font-size="14.00" fill="#000000">DefiCoreModule</text>
</g>
<!-- DefiCoreModule&#45;&gt;AppModule -->
<g id="edge3" class="edge">
<title>DefiCoreModule&#45;&gt;AppModule</title>
<path fill="none" stroke="#000000" d="M678,-122.027C678,-138.3976 678,-160 678,-160 678,-160 579.7834,-160 579.7834,-160"/>
<polygon fill="#000000" stroke="#000000" points="579.7834,-156.5001 569.7834,-160 579.7833,-163.5001 579.7834,-156.5001"/>
</g>
<!-- DefiNavigationsModule -->
<g id="node5" class="node">
<title>DefiNavigationsModule</title>
<polygon fill="#8dd3c7" stroke="#000000" points="604.0744,-122 601.0744,-126 580.0744,-126 577.0744,-122 451.9256,-122 451.9256,-86 604.0744,-86 604.0744,-122"/>
<text text-anchor="middle" x="528" y="-99.8" font-family="Times,serif" font-size="14.00" fill="#000000">DefiNavigationsModule</text>
</g>
<!-- DefiNavigationsModule&#45;&gt;AppModule -->
<g id="edge4" class="edge">
<title>DefiNavigationsModule&#45;&gt;AppModule</title>
<path fill="none" stroke="#000000" d="M528,-122.1061C528,-122.1061 528,-140.991 528,-140.991"/>
<polygon fill="#000000" stroke="#000000" points="524.5001,-140.9909 528,-150.991 531.5001,-140.991 524.5001,-140.9909"/>
</g>
<!-- DefiOverlayModule -->
<g id="node6" class="node">
<title>DefiOverlayModule</title>
<polygon fill="#8dd3c7" stroke="#000000" points="433.5101,-122 430.5101,-126 409.5101,-126 406.5101,-122 304.4899,-122 304.4899,-86 433.5101,-86 433.5101,-122"/>
<text text-anchor="middle" x="369" y="-99.8" font-family="Times,serif" font-size="14.00" fill="#000000">DefiOverlayModule</text>
</g>
<!-- DefiOverlayModule&#45;&gt;AppModule -->
<g id="edge5" class="edge">
<title>DefiOverlayModule&#45;&gt;AppModule</title>
<path fill="none" stroke="#000000" d="M369,-122.027C369,-138.3976 369,-160 369,-160 369,-160 476.2246,-160 476.2246,-160"/>
<polygon fill="#000000" stroke="#000000" points="476.2247,-163.5001 486.2246,-160 476.2246,-156.5001 476.2247,-163.5001"/>
</g>
<!-- ThemeModule -->
<g id="node7" class="node">
<title>ThemeModule</title>
<polygon fill="#8dd3c7" stroke="#000000" points="286.4231,-122 283.4231,-126 262.4231,-126 259.4231,-122 187.5769,-122 187.5769,-86 286.4231,-86 286.4231,-122"/>
<text text-anchor="middle" x="237" y="-99.8" font-family="Times,serif" font-size="14.00" fill="#000000">ThemeModule</text>
</g>
<!-- ThemeModule&#45;&gt;AppModule -->
<g id="edge6" class="edge">
<title>ThemeModule&#45;&gt;AppModule</title>
<path fill="none" stroke="#000000" d="M237,-122.1061C237,-141.3391 237,-169 237,-169 237,-169 476.3068,-169 476.3068,-169"/>
<polygon fill="#000000" stroke="#000000" points="476.3068,-172.5001 486.3068,-169 476.3068,-165.5001 476.3068,-172.5001"/>
</g>
<!-- DefiContainersModule -->
<g id="node8" class="node">
<title>DefiContainersModule</title>
<polygon fill="#8dd3c7" stroke="#000000" points="169.5744,-122 166.5744,-126 145.5744,-126 142.5744,-122 24.4256,-122 24.4256,-86 169.5744,-86 169.5744,-122"/>
<text text-anchor="middle" x="97" y="-99.8" font-family="Times,serif" font-size="14.00" fill="#000000">DefiContainersModule</text>
</g>
<!-- DefiContainersModule&#45;&gt;AppModule -->
<g id="edge7" class="edge">
<title>DefiContainersModule&#45;&gt;AppModule</title>
<path fill="none" stroke="#000000" d="M97,-122.2921C97,-144.2057 97,-178 97,-178 97,-178 476.2823,-178 476.2823,-178"/>
<polygon fill="#000000" stroke="#000000" points="476.2823,-181.5001 486.2823,-178 476.2823,-174.5001 476.2823,-181.5001"/>
</g>
</g>
</svg>
