<?xml version="1.0" encoding="UTF-8" standalone="no"?>
<!DOCTYPE svg PUBLIC "-//W3C//DTD SVG 1.1//EN"
 "http://www.w3.org/Graphics/SVG/1.1/DTD/svg11.dtd">
<!-- Generated by graphviz version 2.40.1 (20161225.0304)
 -->
<!-- Title: dependencies Pages: 1 -->
<svg width="3772pt" height="360pt"
 viewBox="0.00 0.00 3772.00 360.00" xmlns="http://www.w3.org/2000/svg" xmlns:xlink="http://www.w3.org/1999/xlink">
<g id="graph0" class="graph" transform="scale(1 1) rotate(0) translate(4 356)">
<title>dependencies</title>
<polygon fill="#ffffff" stroke="transparent" points="-4,4 -4,-356 3768,-356 3768,4 -4,4"/>
<text text-anchor="start" x="1861.0091" y="-42.4" font-family="sans-serif" font-weight="bold" font-size="14.00" fill="#000000">Legend</text>
<polygon fill="#ffffb3" stroke="transparent" points="1648,-10 1648,-30 1668,-30 1668,-10 1648,-10"/>
<text text-anchor="start" x="1671.629" y="-15.4" font-family="sans-serif" font-size="14.00" fill="#000000"> &#160;Declarations</text>
<polygon fill="#8dd3c7" stroke="transparent" points="1761,-10 1761,-30 1781,-30 1781,-10 1761,-10"/>
<text text-anchor="start" x="1784.7251" y="-15.4" font-family="sans-serif" font-size="14.00" fill="#000000"> &#160;Module</text>
<polygon fill="#80b1d3" stroke="transparent" points="1847,-10 1847,-30 1867,-30 1867,-10 1847,-10"/>
<text text-anchor="start" x="1870.7812" y="-15.4" font-family="sans-serif" font-size="14.00" fill="#000000"> &#160;Bootstrap</text>
<polygon fill="#fdb462" stroke="transparent" points="1944,-10 1944,-30 1964,-30 1964,-10 1944,-10"/>
<text text-anchor="start" x="1967.6732" y="-15.4" font-family="sans-serif" font-size="14.00" fill="#000000"> &#160;Providers</text>
<polygon fill="#fb8072" stroke="transparent" points="2040,-10 2040,-30 2060,-30 2060,-10 2040,-10"/>
<text text-anchor="start" x="2063.7258" y="-15.4" font-family="sans-serif" font-size="14.00" fill="#000000"> &#160;Exports</text>
<g id="clust1" class="cluster">
<title>cluster_AppModule</title>
<polygon fill="none" stroke="#000000" stroke-dasharray="1,5" points="1839,-146 1839,-344 2087,-344 2087,-146 1839,-146"/>
</g>
<g id="clust2" class="cluster">
<title>cluster_AppModule_declarations</title>
<polygon fill="none" stroke="#000000" points="1957,-154 1957,-206 2079,-206 2079,-154 1957,-154"/>
</g>
<g id="clust4" class="cluster">
<title>cluster_AppModule_imports</title>
<polygon fill="none" stroke="#000000" points="1847,-154 1847,-206 1949,-206 1949,-154 1847,-154"/>
</g>
<g id="clust6" class="cluster">
<title>cluster_AppModule_bootstrap</title>
<polygon fill="none" stroke="#000000" points="1901,-284 1901,-336 2025,-336 2025,-284 1901,-284"/>
</g>
<g id="clust8" class="cluster">
<title>cluster_CoreModule</title>
<polygon fill="none" stroke="#000000" stroke-dasharray="1,5" points="8,-70 8,-138 3756,-138 3756,-70 8,-70"/>
</g>
<g id="clust9" class="cluster">
<title>cluster_CoreModule_declarations</title>
<polygon fill="none" stroke="#000000" points="1826,-78 1826,-130 3748,-130 3748,-78 1826,-78"/>
</g>
<g id="clust24" class="cluster">
<title>cluster_CoreModule_exports</title>
<polygon fill="none" stroke="#000000" points="16,-78 16,-130 1818,-130 1818,-78 16,-78"/>
</g>
<!-- AppComponent -->
<g id="node1" class="node">
<title>AppComponent</title>
<polygon fill="#ffffb3" stroke="#000000" points="2070.9399,-198 1965.0601,-198 1965.0601,-162 2070.9399,-162 2070.9399,-198"/>
<text text-anchor="middle" x="2018" y="-175.8" font-family="Times,serif" font-size="14.00" fill="#000000">AppComponent</text>
</g>
<!-- AppModule -->
<g id="node2" class="node">
<title>AppModule</title>
<polygon fill="#8dd3c7" stroke="#000000" points="2004.6571,-263 2001.6571,-267 1980.6571,-267 1977.6571,-263 1921.3429,-263 1921.3429,-227 2004.6571,-227 2004.6571,-263"/>
<text text-anchor="middle" x="1963" y="-240.8" font-family="Times,serif" font-size="14.00" fill="#000000">AppModule</text>
</g>
<!-- AppComponent&#45;&gt;AppModule -->
<g id="edge1" class="edge">
<title>AppComponent&#45;&gt;AppModule</title>
<path fill="none" stroke="#000000" d="M1985.0544,-198.1061C1985.0544,-198.1061 1985.0544,-216.991 1985.0544,-216.991"/>
<polygon fill="#000000" stroke="#000000" points="1981.5544,-216.9909 1985.0544,-226.991 1988.5544,-216.991 1981.5544,-216.9909"/>
</g>
<!-- AppComponent  -->
<g id="node4" class="node">
<title>AppComponent </title>
<polygon fill="#80b1d3" stroke="#000000" points="2017.439,-328 1908.561,-328 1908.561,-292 2017.439,-292 2017.439,-328"/>
<text text-anchor="middle" x="1963" y="-305.8" font-family="Times,serif" font-size="14.00" fill="#000000">AppComponent </text>
</g>
<!-- AppModule&#45;&gt;AppComponent  -->
<g id="edge3" class="edge">
<title>AppModule&#45;&gt;AppComponent </title>
<path fill="none" stroke="#000000" stroke-dasharray="1,5" d="M1963,-263.1061C1963,-263.1061 1963,-281.991 1963,-281.991"/>
<polygon fill="#000000" stroke="#000000" points="1959.5001,-281.9909 1963,-291.991 1966.5001,-281.991 1959.5001,-281.9909"/>
</g>
<!-- CoreModule -->
<g id="node3" class="node">
<title>CoreModule</title>
<polygon fill="#8dd3c7" stroke="#000000" points="1941.2619,-198 1938.2619,-202 1917.2619,-202 1914.2619,-198 1854.7381,-198 1854.7381,-162 1941.2619,-162 1941.2619,-198"/>
<text text-anchor="middle" x="1898" y="-175.8" font-family="Times,serif" font-size="14.00" fill="#000000">CoreModule</text>
</g>
<!-- CoreModule&#45;&gt;AppModule -->
<g id="edge2" class="edge">
<title>CoreModule&#45;&gt;AppModule</title>
<path fill="none" stroke="#000000" d="M1931.2763,-198.1061C1931.2763,-198.1061 1931.2763,-216.991 1931.2763,-216.991"/>
<polygon fill="#000000" stroke="#000000" points="1927.7764,-216.9909 1931.2763,-226.991 1934.7764,-216.991 1927.7764,-216.9909"/>
</g>
<!-- SidebarComponent  -->
<g id="node18" class="node">
<title>SidebarComponent </title>
<polygon fill="#fb8072" stroke="#000000" points="1809.596,-122 1682.404,-122 1682.404,-86 1809.596,-86 1809.596,-122"/>
<text text-anchor="middle" x="1746" y="-99.8" font-family="Times,serif" font-size="14.00" fill="#000000">SidebarComponent </text>
</g>
<!-- CoreModule&#45;&gt;SidebarComponent  -->
<g id="edge17" class="edge">
<title>CoreModule&#45;&gt;SidebarComponent </title>
<path fill="none" stroke="#000000" stroke-dasharray="5,2" d="M1854.4429,-165C1809.5272,-165 1746,-165 1746,-165 1746,-165 1746,-132.302 1746,-132.302"/>
<polygon fill="#000000" stroke="#000000" points="1749.5001,-132.302 1746,-122.302 1742.5001,-132.302 1749.5001,-132.302"/>
</g>
<!-- NavbarComponent  -->
<g id="node19" class="node">
<title>NavbarComponent </title>
<polygon fill="#fb8072" stroke="#000000" points="1664.0288,-122 1537.9712,-122 1537.9712,-86 1664.0288,-86 1664.0288,-122"/>
<text text-anchor="middle" x="1601" y="-99.8" font-family="Times,serif" font-size="14.00" fill="#000000">NavbarComponent </text>
</g>
<!-- CoreModule&#45;&gt;NavbarComponent  -->
<g id="edge18" class="edge">
<title>CoreModule&#45;&gt;NavbarComponent </title>
<path fill="none" stroke="#000000" stroke-dasharray="5,2" d="M1854.4956,-168C1772.001,-168 1601,-168 1601,-168 1601,-168 1601,-132.1686 1601,-132.1686"/>
<polygon fill="#000000" stroke="#000000" points="1604.5001,-132.1686 1601,-122.1686 1597.5001,-132.1687 1604.5001,-132.1686"/>
</g>
<!-- FormErrorsComponent  -->
<g id="node20" class="node">
<title>FormErrorsComponent </title>
<polygon fill="#fb8072" stroke="#000000" points="1520.1453,-122 1369.8547,-122 1369.8547,-86 1520.1453,-86 1520.1453,-122"/>
<text text-anchor="middle" x="1445" y="-99.8" font-family="Times,serif" font-size="14.00" fill="#000000">FormErrorsComponent </text>
</g>
<!-- CoreModule&#45;&gt;FormErrorsComponent  -->
<g id="edge19" class="edge">
<title>CoreModule&#45;&gt;FormErrorsComponent </title>
<path fill="none" stroke="#000000" stroke-dasharray="5,2" d="M1854.5645,-171C1741.1822,-171 1445,-171 1445,-171 1445,-171 1445,-132.308 1445,-132.308"/>
<polygon fill="#000000" stroke="#000000" points="1448.5001,-132.308 1445,-122.308 1441.5001,-132.3081 1448.5001,-132.308"/>
</g>
<!-- SidePanelComponent  -->
<g id="node21" class="node">
<title>SidePanelComponent </title>
<polygon fill="#fb8072" stroke="#000000" points="1352.3227,-122 1211.6773,-122 1211.6773,-86 1352.3227,-86 1352.3227,-122"/>
<text text-anchor="middle" x="1282" y="-99.8" font-family="Times,serif" font-size="14.00" fill="#000000">SidePanelComponent </text>
</g>
<!-- CoreModule&#45;&gt;SidePanelComponent  -->
<g id="edge20" class="edge">
<title>CoreModule&#45;&gt;SidePanelComponent </title>
<path fill="none" stroke="#000000" stroke-dasharray="5,2" d="M1854.6841,-174C1714.4694,-174 1282,-174 1282,-174 1282,-174 1282,-132.0267 1282,-132.0267"/>
<polygon fill="#000000" stroke="#000000" points="1285.5001,-132.0267 1282,-122.0267 1278.5001,-132.0268 1285.5001,-132.0267"/>
</g>
<!-- NotificationsComponent  -->
<g id="node22" class="node">
<title>NotificationsComponent </title>
<polygon fill="#fb8072" stroke="#000000" points="1193.9264,-122 1036.0736,-122 1036.0736,-86 1193.9264,-86 1193.9264,-122"/>
<text text-anchor="middle" x="1115" y="-99.8" font-family="Times,serif" font-size="14.00" fill="#000000">NotificationsComponent </text>
</g>
<!-- CoreModule&#45;&gt;NotificationsComponent  -->
<g id="edge21" class="edge">
<title>CoreModule&#45;&gt;NotificationsComponent </title>
<path fill="none" stroke="#000000" stroke-dasharray="5,2" d="M1854.5064,-176C1689.9844,-176 1115,-176 1115,-176 1115,-176 1115,-132.1686 1115,-132.1686"/>
<polygon fill="#000000" stroke="#000000" points="1118.5001,-132.1686 1115,-122.1686 1111.5001,-132.1687 1118.5001,-132.1686"/>
</g>
<!-- BoxComponent  -->
<g id="node23" class="node">
<title>BoxComponent </title>
<polygon fill="#fb8072" stroke="#000000" points="1018.1691,-122 909.8309,-122 909.8309,-86 1018.1691,-86 1018.1691,-122"/>
<text text-anchor="middle" x="964" y="-99.8" font-family="Times,serif" font-size="14.00" fill="#000000">BoxComponent </text>
</g>
<!-- CoreModule&#45;&gt;BoxComponent  -->
<g id="edge22" class="edge">
<title>CoreModule&#45;&gt;BoxComponent </title>
<path fill="none" stroke="#000000" stroke-dasharray="5,2" d="M1854.5147,-179C1670.3416,-179 964,-179 964,-179 964,-179 964,-132.1554 964,-132.1554"/>
<polygon fill="#000000" stroke="#000000" points="967.5001,-132.1554 964,-122.1554 960.5001,-132.1554 967.5001,-132.1554"/>
</g>
<!-- DebounceInputDirective  -->
<g id="node24" class="node">
<title>DebounceInputDirective </title>
<polygon fill="#fb8072" stroke="#000000" points="891.8844,-122 734.1156,-122 734.1156,-86 891.8844,-86 891.8844,-122"/>
<text text-anchor="middle" x="813" y="-99.8" font-family="Times,serif" font-size="14.00" fill="#000000">DebounceInputDirective </text>
</g>
<!-- CoreModule&#45;&gt;DebounceInputDirective  -->
<g id="edge23" class="edge">
<title>CoreModule&#45;&gt;DebounceInputDirective </title>
<path fill="none" stroke="#000000" stroke-dasharray="5,2" d="M1854.4606,-182C1652.0682,-182 813,-182 813,-182 813,-182 813,-132.0908 813,-132.0908"/>
<polygon fill="#000000" stroke="#000000" points="816.5001,-132.0908 813,-122.0908 809.5001,-132.0909 816.5001,-132.0908"/>
</g>
<!-- SpinningIconDirective  -->
<g id="node25" class="node">
<title>SpinningIconDirective </title>
<polygon fill="#fb8072" stroke="#000000" points="716.5218,-122 569.4782,-122 569.4782,-86 716.5218,-86 716.5218,-122"/>
<text text-anchor="middle" x="643" y="-99.8" font-family="Times,serif" font-size="14.00" fill="#000000">SpinningIconDirective </text>
</g>
<!-- CoreModule&#45;&gt;SpinningIconDirective  -->
<g id="edge24" class="edge">
<title>CoreModule&#45;&gt;SpinningIconDirective </title>
<path fill="none" stroke="#000000" stroke-dasharray="5,2" d="M1854.4356,-185C1633.032,-185 643,-185 643,-185 643,-185 643,-132.3802 643,-132.3802"/>
<polygon fill="#000000" stroke="#000000" points="646.5001,-132.3801 643,-122.3802 639.5001,-132.3802 646.5001,-132.3801"/>
</g>
<!-- ValidatorsDirective  -->
<g id="node26" class="node">
<title>ValidatorsDirective </title>
<polygon fill="#fb8072" stroke="#000000" points="551.8956,-122 422.1044,-122 422.1044,-86 551.8956,-86 551.8956,-122"/>
<text text-anchor="middle" x="487" y="-99.8" font-family="Times,serif" font-size="14.00" fill="#000000">ValidatorsDirective </text>
</g>
<!-- CoreModule&#45;&gt;ValidatorsDirective  -->
<g id="edge25" class="edge">
<title>CoreModule&#45;&gt;ValidatorsDirective </title>
<path fill="none" stroke="#000000" stroke-dasharray="5,2" d="M1854.6135,-187C1617.2956,-187 487,-187 487,-187 487,-187 487,-132.0098 487,-132.0098"/>
<polygon fill="#000000" stroke="#000000" points="490.5001,-132.0097 487,-122.0098 483.5001,-132.0098 490.5001,-132.0097"/>
</g>
<!-- ShowPasswordDirective  -->
<g id="node27" class="node">
<title>ShowPasswordDirective </title>
<polygon fill="#fb8072" stroke="#000000" points="403.6257,-122 246.3743,-122 246.3743,-86 403.6257,-86 403.6257,-122"/>
<text text-anchor="middle" x="325" y="-99.8" font-family="Times,serif" font-size="14.00" fill="#000000">ShowPasswordDirective </text>
</g>
<!-- CoreModule&#45;&gt;ShowPasswordDirective  -->
<g id="edge26" class="edge">
<title>CoreModule&#45;&gt;ShowPasswordDirective </title>
<path fill="none" stroke="#000000" stroke-dasharray="5,2" d="M1854.6996,-190C1601.6198,-190 325,-190 325,-190 325,-190 325,-132.2384 325,-132.2384"/>
<polygon fill="#000000" stroke="#000000" points="328.5001,-132.2384 325,-122.2384 321.5001,-132.2384 328.5001,-132.2384"/>
</g>
<!-- ToId  -->
<g id="node28" class="node">
<title>ToId </title>
<polygon fill="#fb8072" stroke="#000000" points="228,-122 174,-122 174,-86 228,-86 228,-122"/>
<text text-anchor="middle" x="201" y="-99.8" font-family="Times,serif" font-size="14.00" fill="#000000">ToId </text>
</g>
<!-- CoreModule&#45;&gt;ToId  -->
<g id="edge27" class="edge">
<title>CoreModule&#45;&gt;ToId </title>
<path fill="none" stroke="#000000" stroke-dasharray="5,2" d="M1854.3461,-193C1588.7266,-193 201,-193 201,-193 201,-193 201,-132.0105 201,-132.0105"/>
<polygon fill="#000000" stroke="#000000" points="204.5001,-132.0104 201,-122.0105 197.5001,-132.0105 204.5001,-132.0104"/>
</g>
<!-- PopoverComponent  -->
<g id="node29" class="node">
<title>PopoverComponent </title>
<polygon fill="#fb8072" stroke="#000000" points="155.9911,-122 24.0089,-122 24.0089,-86 155.9911,-86 155.9911,-122"/>
<text text-anchor="middle" x="90" y="-99.8" font-family="Times,serif" font-size="14.00" fill="#000000">PopoverComponent </text>
</g>
<!-- CoreModule&#45;&gt;PopoverComponent  -->
<g id="edge28" class="edge">
<title>CoreModule&#45;&gt;PopoverComponent </title>
<path fill="none" stroke="#000000" stroke-dasharray="5,2" d="M1854.6482,-196C1579.6948,-196 90,-196 90,-196 90,-196 90,-132.1762 90,-132.1762"/>
<polygon fill="#000000" stroke="#000000" points="93.5001,-132.1762 90,-122.1762 86.5001,-132.1763 93.5001,-132.1762"/>
</g>
<!-- SidebarComponent -->
<g id="node5" class="node">
<title>SidebarComponent</title>
<polygon fill="#ffffb3" stroke="#000000" points="3740.0954,-122 3615.9046,-122 3615.9046,-86 3740.0954,-86 3740.0954,-122"/>
<text text-anchor="middle" x="3678" y="-99.8" font-family="Times,serif" font-size="14.00" fill="#000000">SidebarComponent</text>
</g>
<!-- SidebarComponent&#45;&gt;CoreModule -->
<g id="edge4" class="edge">
<title>SidebarComponent&#45;&gt;CoreModule</title>
<path fill="none" stroke="#000000" d="M3678,-122.0091C3678,-138.0494 3678,-159 3678,-159 3678,-159 1935.1835,-159 1935.1835,-159 1935.1835,-159 1935.1835,-159.292 1935.1835,-159.292"/>
<polygon fill="#000000" stroke="#000000" points="1931.6839,-151.9198 1935.1835,-161.92 1938.6839,-151.9201 1931.6839,-151.9198"/>
</g>
<!-- NavbarComponent -->
<g id="node6" class="node">
<title>NavbarComponent</title>
<polygon fill="#ffffb3" stroke="#000000" points="3598.0297,-122 3475.9703,-122 3475.9703,-86 3598.0297,-86 3598.0297,-122"/>
<text text-anchor="middle" x="3537" y="-99.8" font-family="Times,serif" font-size="14.00" fill="#000000">NavbarComponent</text>
</g>
<!-- NavbarComponent&#45;&gt;CoreModule -->
<g id="edge5" class="edge">
<title>NavbarComponent&#45;&gt;CoreModule</title>
<path fill="none" stroke="#000000" d="M3537,-122.1871C3537,-137.1824 3537,-156 3537,-156 3537,-156 1928.9863,-156 1928.9863,-156 1928.9863,-156 1928.9863,-156.581 1928.9863,-156.581"/>
<polygon fill="#000000" stroke="#000000" points="1925.4865,-151.8097 1928.9863,-161.8097 1932.4865,-151.8098 1925.4865,-151.8097"/>
</g>
<!-- FormErrorsComponent -->
<g id="node7" class="node">
<title>FormErrorsComponent</title>
<polygon fill="#ffffb3" stroke="#000000" points="3457.1456,-122 3310.8544,-122 3310.8544,-86 3457.1456,-86 3457.1456,-122"/>
<text text-anchor="middle" x="3384" y="-99.8" font-family="Times,serif" font-size="14.00" fill="#000000">FormErrorsComponent</text>
</g>
<!-- FormErrorsComponent&#45;&gt;CoreModule -->
<g id="edge6" class="edge">
<title>FormErrorsComponent&#45;&gt;CoreModule</title>
<path fill="none" stroke="#000000" d="M3384,-122.2458C3384,-136.1772 3384,-153 3384,-153 3384,-153 1922.789,-153 1922.789,-153 1922.789,-153 1922.789,-153.8841 1922.789,-153.8841"/>
<polygon fill="#000000" stroke="#000000" points="1919.2892,-151.8408 1922.789,-161.8408 1926.2892,-151.8409 1919.2892,-151.8408"/>
</g>
<!-- BoxComponent -->
<g id="node8" class="node">
<title>BoxComponent</title>
<polygon fill="#ffffb3" stroke="#000000" points="3292.1695,-122 3187.8305,-122 3187.8305,-86 3292.1695,-86 3292.1695,-122"/>
<text text-anchor="middle" x="3240" y="-99.8" font-family="Times,serif" font-size="14.00" fill="#000000">BoxComponent</text>
</g>
<!-- BoxComponent&#45;&gt;CoreModule -->
<g id="edge7" class="edge">
<title>BoxComponent&#45;&gt;CoreModule</title>
<path fill="none" stroke="#000000" d="M3240,-122.1804C3240,-135.0382 3240,-150 3240,-150 3240,-150 1916.5918,-150 1916.5918,-150 1916.5918,-150 1916.5918,-151.8568 1916.5918,-151.8568"/>
<polygon fill="#000000" stroke="#000000" points="1913.0919,-151.8568 1916.5918,-161.8568 1920.0919,-151.8568 1913.0919,-151.8568"/>
</g>
<!-- SidePanelComponent -->
<g id="node9" class="node">
<title>SidePanelComponent</title>
<polygon fill="#ffffb3" stroke="#000000" points="3169.823,-122 3032.177,-122 3032.177,-86 3169.823,-86 3169.823,-122"/>
<text text-anchor="middle" x="3101" y="-99.8" font-family="Times,serif" font-size="14.00" fill="#000000">SidePanelComponent</text>
</g>
<!-- SidePanelComponent&#45;&gt;CoreModule -->
<g id="edge8" class="edge">
<title>SidePanelComponent&#45;&gt;CoreModule</title>
<path fill="none" stroke="#000000" d="M3101,-122.4854C3101,-134.1399 3101,-147 3101,-147 3101,-147 1910.3945,-147 1910.3945,-147 1910.3945,-147 1910.3945,-151.9551 1910.3945,-151.9551"/>
<polygon fill="#000000" stroke="#000000" points="1906.8946,-151.9551 1910.3945,-161.9551 1913.8946,-151.9552 1906.8946,-151.9551"/>
</g>
<!-- NotificationsComponent -->
<g id="node10" class="node">
<title>NotificationsComponent</title>
<polygon fill="#ffffb3" stroke="#000000" points="3014.427,-122 2859.573,-122 2859.573,-86 3014.427,-86 3014.427,-122"/>
<text text-anchor="middle" x="2937" y="-99.8" font-family="Times,serif" font-size="14.00" fill="#000000">NotificationsComponent</text>
</g>
<!-- NotificationsComponent&#45;&gt;CoreModule -->
<g id="edge9" class="edge">
<title>NotificationsComponent&#45;&gt;CoreModule</title>
<path fill="none" stroke="#000000" d="M2937,-122.1274C2937,-132.7109 2937,-144 2937,-144 2937,-144 1904.1973,-144 1904.1973,-144 1904.1973,-144 1904.1973,-151.5782 1904.1973,-151.5782"/>
<polygon fill="#000000" stroke="#000000" points="1900.6974,-151.5781 1904.1973,-161.5782 1907.6974,-151.5782 1900.6974,-151.5781"/>
</g>
<!-- DebounceInputDirective -->
<g id="node11" class="node">
<title>DebounceInputDirective</title>
<polygon fill="#ffffb3" stroke="#000000" points="2842.3849,-122 2687.6151,-122 2687.6151,-86 2842.3849,-86 2842.3849,-122"/>
<text text-anchor="middle" x="2765" y="-99.8" font-family="Times,serif" font-size="14.00" fill="#000000">DebounceInputDirective</text>
</g>
<!-- DebounceInputDirective&#45;&gt;CoreModule -->
<g id="edge10" class="edge">
<title>DebounceInputDirective&#45;&gt;CoreModule</title>
<path fill="none" stroke="#000000" d="M2765,-122.0664C2765,-131.4587 2765,-141 2765,-141 2765,-141 1898,-141 1898,-141 1898,-141 1898,-151.8701 1898,-151.8701"/>
<polygon fill="#000000" stroke="#000000" points="1894.5001,-151.8701 1898,-161.8701 1901.5001,-151.8701 1894.5001,-151.8701"/>
</g>
<!-- ClickStopPropagation -->
<g id="node12" class="node">
<title>ClickStopPropagation</title>
<polygon fill="#ffffb3" stroke="#000000" points="2669.6596,-122 2530.3404,-122 2530.3404,-86 2669.6596,-86 2669.6596,-122"/>
<text text-anchor="middle" x="2600" y="-99.8" font-family="Times,serif" font-size="14.00" fill="#000000">ClickStopPropagation</text>
</g>
<!-- ClickStopPropagation&#45;&gt;CoreModule -->
<g id="edge11" class="edge">
<title>ClickStopPropagation&#45;&gt;CoreModule</title>
<path fill="none" stroke="#000000" d="M2600,-122.1944C2600,-130.2782 2600,-138 2600,-138 2600,-138 1891.8027,-138 1891.8027,-138 1891.8027,-138 1891.8027,-151.9445 1891.8027,-151.9445"/>
<polygon fill="#000000" stroke="#000000" points="1888.3028,-151.9444 1891.8027,-161.9445 1895.3028,-151.9445 1888.3028,-151.9444"/>
</g>
<!-- SpinningIconDirective -->
<g id="node13" class="node">
<title>SpinningIconDirective</title>
<polygon fill="#ffffb3" stroke="#000000" points="2511.5226,-122 2368.4774,-122 2368.4774,-86 2511.5226,-86 2511.5226,-122"/>
<text text-anchor="middle" x="2440" y="-99.8" font-family="Times,serif" font-size="14.00" fill="#000000">SpinningIconDirective</text>
</g>
<!-- SpinningIconDirective&#45;&gt;CoreModule -->
<g id="edge12" class="edge">
<title>SpinningIconDirective&#45;&gt;CoreModule</title>
<path fill="none" stroke="#000000" d="M2440,-122.0328C2440,-128.8526 2440,-135 2440,-135 2440,-135 1885.6055,-135 1885.6055,-135 1885.6055,-135 1885.6055,-151.9561 1885.6055,-151.9561"/>
<polygon fill="#000000" stroke="#000000" points="1882.1056,-151.956 1885.6055,-161.9561 1889.1056,-151.9561 1882.1056,-151.956"/>
</g>
<!-- ValidatorsDirective -->
<g id="node14" class="node">
<title>ValidatorsDirective</title>
<polygon fill="#ffffb3" stroke="#000000" points="2350.3962,-122 2223.6038,-122 2223.6038,-86 2350.3962,-86 2350.3962,-122"/>
<text text-anchor="middle" x="2287" y="-99.8" font-family="Times,serif" font-size="14.00" fill="#000000">ValidatorsDirective</text>
</g>
<!-- ValidatorsDirective&#45;&gt;CoreModule -->
<g id="edge13" class="edge">
<title>ValidatorsDirective&#45;&gt;CoreModule</title>
<path fill="none" stroke="#000000" d="M2287,-122.207C2287,-127.5549 2287,-132 2287,-132 2287,-132 1879.4082,-132 1879.4082,-132 1879.4082,-132 1879.4082,-151.8533 1879.4082,-151.8533"/>
<polygon fill="#000000" stroke="#000000" points="1875.9083,-151.8532 1879.4082,-161.8533 1882.9083,-151.8533 1875.9083,-151.8532"/>
</g>
<!-- ShowPasswordDirective -->
<g id="node15" class="node">
<title>ShowPasswordDirective</title>
<polygon fill="#ffffb3" stroke="#000000" points="2205.6261,-122 2052.3739,-122 2052.3739,-86 2205.6261,-86 2205.6261,-122"/>
<text text-anchor="middle" x="2129" y="-99.8" font-family="Times,serif" font-size="14.00" fill="#000000">ShowPasswordDirective</text>
</g>
<!-- ShowPasswordDirective&#45;&gt;CoreModule -->
<g id="edge14" class="edge">
<title>ShowPasswordDirective&#45;&gt;CoreModule</title>
<path fill="none" stroke="#000000" d="M2061.4533,-122.1686C2061.4533,-126.0459 2061.4533,-129 2061.4533,-129 2061.4533,-129 1873.211,-129 1873.211,-129 1873.211,-129 1873.211,-151.8757 1873.211,-151.8757"/>
<polygon fill="#000000" stroke="#000000" points="1869.7111,-151.8757 1873.211,-161.8757 1876.7111,-151.8757 1869.7111,-151.8757"/>
</g>
<!-- ToId -->
<g id="node16" class="node">
<title>ToId</title>
<polygon fill="#ffffb3" stroke="#000000" points="2034,-122 1980,-122 1980,-86 2034,-86 2034,-122"/>
<text text-anchor="middle" x="2007" y="-99.8" font-family="Times,serif" font-size="14.00" fill="#000000">ToId</text>
</g>
<!-- ToId&#45;&gt;CoreModule -->
<g id="edge15" class="edge">
<title>ToId&#45;&gt;CoreModule</title>
<path fill="none" stroke="#000000" d="M2007,-122.1679C2007,-124.4478 2007,-126 2007,-126 2007,-126 1867.0137,-126 1867.0137,-126 1867.0137,-126 1867.0137,-151.7181 1867.0137,-151.7181"/>
<polygon fill="#000000" stroke="#000000" points="1863.5138,-151.718 1867.0137,-161.7181 1870.5138,-151.7181 1863.5138,-151.718"/>
</g>
<!-- PopoverComponent -->
<g id="node17" class="node">
<title>PopoverComponent</title>
<polygon fill="#ffffb3" stroke="#000000" points="1961.9902,-122 1834.0098,-122 1834.0098,-86 1961.9902,-86 1961.9902,-122"/>
<text text-anchor="middle" x="1898" y="-99.8" font-family="Times,serif" font-size="14.00" fill="#000000">PopoverComponent</text>
</g>
<!-- PopoverComponent&#45;&gt;CoreModule -->
<g id="edge16" class="edge">
<title>PopoverComponent&#45;&gt;CoreModule</title>
<path fill="none" stroke="#000000" d="M1860.8165,-122.0109C1860.8165,-122.0109 1860.8165,-151.855 1860.8165,-151.855"/>
<polygon fill="#000000" stroke="#000000" points="1857.3166,-151.8549 1860.8165,-161.855 1864.3166,-151.855 1857.3166,-151.8549"/>
</g>
</g>
</svg>
