<?xml version="1.0" encoding="UTF-8" standalone="no"?>
<!DOCTYPE svg PUBLIC "-//W3C//DTD SVG 1.1//EN"
 "http://www.w3.org/Graphics/SVG/1.1/DTD/svg11.dtd">
<!-- Generated by graphviz version 2.40.1 (20161225.0304)
 -->
<!-- Title: dependencies Pages: 1 -->
<svg width="3476pt" height="360pt"
 viewBox="0.00 0.00 3476.00 360.00" xmlns="http://www.w3.org/2000/svg" xmlns:xlink="http://www.w3.org/1999/xlink">
<g id="graph0" class="graph" transform="scale(1 1) rotate(0) translate(4 356)">
<title>dependencies</title>
<polygon fill="#ffffff" stroke="transparent" points="-4,4 -4,-356 3472,-356 3472,4 -4,4"/>
<text text-anchor="start" x="1713.0091" y="-42.4" font-family="sans-serif" font-weight="bold" font-size="14.00" fill="#000000">Legend</text>
<polygon fill="#ffffb3" stroke="transparent" points="1500,-10 1500,-30 1520,-30 1520,-10 1500,-10"/>
<text text-anchor="start" x="1523.629" y="-15.4" font-family="sans-serif" font-size="14.00" fill="#000000"> &#160;Declarations</text>
<polygon fill="#8dd3c7" stroke="transparent" points="1613,-10 1613,-30 1633,-30 1633,-10 1613,-10"/>
<text text-anchor="start" x="1636.7251" y="-15.4" font-family="sans-serif" font-size="14.00" fill="#000000"> &#160;Module</text>
<polygon fill="#80b1d3" stroke="transparent" points="1699,-10 1699,-30 1719,-30 1719,-10 1699,-10"/>
<text text-anchor="start" x="1722.7812" y="-15.4" font-family="sans-serif" font-size="14.00" fill="#000000"> &#160;Bootstrap</text>
<polygon fill="#fdb462" stroke="transparent" points="1796,-10 1796,-30 1816,-30 1816,-10 1796,-10"/>
<text text-anchor="start" x="1819.6732" y="-15.4" font-family="sans-serif" font-size="14.00" fill="#000000"> &#160;Providers</text>
<polygon fill="#fb8072" stroke="transparent" points="1892,-10 1892,-30 1912,-30 1912,-10 1892,-10"/>
<text text-anchor="start" x="1915.7258" y="-15.4" font-family="sans-serif" font-size="14.00" fill="#000000"> &#160;Exports</text>
<g id="clust1" class="cluster">
<title>cluster_AppModule</title>
<polygon fill="none" stroke="#000000" stroke-dasharray="1,5" points="1652,-146 1652,-344 1900,-344 1900,-146 1652,-146"/>
</g>
<g id="clust2" class="cluster">
<title>cluster_AppModule_declarations</title>
<polygon fill="none" stroke="#000000" points="1770,-154 1770,-206 1892,-206 1892,-154 1770,-154"/>
</g>
<g id="clust4" class="cluster">
<title>cluster_AppModule_imports</title>
<polygon fill="none" stroke="#000000" points="1660,-154 1660,-206 1762,-206 1762,-154 1660,-154"/>
</g>
<g id="clust6" class="cluster">
<title>cluster_AppModule_bootstrap</title>
<polygon fill="none" stroke="#000000" points="1714,-284 1714,-336 1838,-336 1838,-284 1714,-284"/>
</g>
<g id="clust8" class="cluster">
<title>cluster_CoreModule</title>
<polygon fill="none" stroke="#000000" stroke-dasharray="1,5" points="8,-70 8,-138 3460,-138 3460,-70 8,-70"/>
</g>
<g id="clust9" class="cluster">
<title>cluster_CoreModule_declarations</title>
<polygon fill="none" stroke="#000000" points="1676,-78 1676,-130 3452,-130 3452,-78 1676,-78"/>
</g>
<g id="clust23" class="cluster">
<title>cluster_CoreModule_exports</title>
<polygon fill="none" stroke="#000000" points="16,-78 16,-130 1668,-130 1668,-78 16,-78"/>
</g>
<!-- AppComponent -->
<g id="node1" class="node">
<title>AppComponent</title>
<polygon fill="#ffffb3" stroke="#000000" points="1883.9399,-198 1778.0601,-198 1778.0601,-162 1883.9399,-162 1883.9399,-198"/>
<text text-anchor="middle" x="1831" y="-175.8" font-family="Times,serif" font-size="14.00" fill="#000000">AppComponent</text>
</g>
<!-- AppModule -->
<g id="node2" class="node">
<title>AppModule</title>
<polygon fill="#8dd3c7" stroke="#000000" points="1817.6571,-263 1814.6571,-267 1793.6571,-267 1790.6571,-263 1734.3429,-263 1734.3429,-227 1817.6571,-227 1817.6571,-263"/>
<text text-anchor="middle" x="1776" y="-240.8" font-family="Times,serif" font-size="14.00" fill="#000000">AppModule</text>
</g>
<!-- AppComponent&#45;&gt;AppModule -->
<g id="edge1" class="edge">
<title>AppComponent&#45;&gt;AppModule</title>
<path fill="none" stroke="#000000" d="M1798.0544,-198.1061C1798.0544,-198.1061 1798.0544,-216.991 1798.0544,-216.991"/>
<polygon fill="#000000" stroke="#000000" points="1794.5544,-216.9909 1798.0544,-226.991 1801.5544,-216.991 1794.5544,-216.9909"/>
</g>
<!-- AppComponent  -->
<g id="node4" class="node">
<title>AppComponent </title>
<polygon fill="#80b1d3" stroke="#000000" points="1830.439,-328 1721.561,-328 1721.561,-292 1830.439,-292 1830.439,-328"/>
<text text-anchor="middle" x="1776" y="-305.8" font-family="Times,serif" font-size="14.00" fill="#000000">AppComponent </text>
</g>
<!-- AppModule&#45;&gt;AppComponent  -->
<g id="edge3" class="edge">
<title>AppModule&#45;&gt;AppComponent </title>
<path fill="none" stroke="#000000" stroke-dasharray="1,5" d="M1776,-263.1061C1776,-263.1061 1776,-281.991 1776,-281.991"/>
<polygon fill="#000000" stroke="#000000" points="1772.5001,-281.9909 1776,-291.991 1779.5001,-281.991 1772.5001,-281.9909"/>
</g>
<!-- CoreModule -->
<g id="node3" class="node">
<title>CoreModule</title>
<polygon fill="#8dd3c7" stroke="#000000" points="1754.2619,-198 1751.2619,-202 1730.2619,-202 1727.2619,-198 1667.7381,-198 1667.7381,-162 1754.2619,-162 1754.2619,-198"/>
<text text-anchor="middle" x="1711" y="-175.8" font-family="Times,serif" font-size="14.00" fill="#000000">CoreModule</text>
</g>
<!-- CoreModule&#45;&gt;AppModule -->
<g id="edge2" class="edge">
<title>CoreModule&#45;&gt;AppModule</title>
<path fill="none" stroke="#000000" d="M1744.2763,-198.1061C1744.2763,-198.1061 1744.2763,-216.991 1744.2763,-216.991"/>
<polygon fill="#000000" stroke="#000000" points="1740.7764,-216.9909 1744.2763,-226.991 1747.7764,-216.991 1740.7764,-216.9909"/>
</g>
<!-- SidebarComponent  -->
<g id="node17" class="node">
<title>SidebarComponent </title>
<polygon fill="#fb8072" stroke="#000000" points="1659.596,-122 1532.404,-122 1532.404,-86 1659.596,-86 1659.596,-122"/>
<text text-anchor="middle" x="1596" y="-99.8" font-family="Times,serif" font-size="14.00" fill="#000000">SidebarComponent </text>
</g>
<!-- CoreModule&#45;&gt;SidebarComponent  -->
<g id="edge16" class="edge">
<title>CoreModule&#45;&gt;SidebarComponent </title>
<path fill="none" stroke="#000000" stroke-dasharray="5,2" d="M1675.8096,-161.9891C1675.8096,-139.5148 1675.8096,-104 1675.8096,-104 1675.8096,-104 1669.6589,-104 1669.6589,-104"/>
<polygon fill="#000000" stroke="#000000" points="1669.659,-100.5001 1659.6589,-104 1669.6589,-107.5001 1669.659,-100.5001"/>
</g>
<!-- NavbarComponent  -->
<g id="node18" class="node">
<title>NavbarComponent </title>
<polygon fill="#fb8072" stroke="#000000" points="1514.0288,-122 1387.9712,-122 1387.9712,-86 1514.0288,-86 1514.0288,-122"/>
<text text-anchor="middle" x="1451" y="-99.8" font-family="Times,serif" font-size="14.00" fill="#000000">NavbarComponent </text>
</g>
<!-- CoreModule&#45;&gt;NavbarComponent  -->
<g id="edge17" class="edge">
<title>CoreModule&#45;&gt;NavbarComponent </title>
<path fill="none" stroke="#000000" stroke-dasharray="5,2" d="M1667.4818,-166C1593.4662,-166 1451,-166 1451,-166 1451,-166 1451,-132.2667 1451,-132.2667"/>
<polygon fill="#000000" stroke="#000000" points="1454.5001,-132.2667 1451,-122.2667 1447.5001,-132.2667 1454.5001,-132.2667"/>
</g>
<!-- FormErrorsComponent  -->
<g id="node19" class="node">
<title>FormErrorsComponent </title>
<polygon fill="#fb8072" stroke="#000000" points="1370.1453,-122 1219.8547,-122 1219.8547,-86 1370.1453,-86 1370.1453,-122"/>
<text text-anchor="middle" x="1295" y="-99.8" font-family="Times,serif" font-size="14.00" fill="#000000">FormErrorsComponent </text>
</g>
<!-- CoreModule&#45;&gt;FormErrorsComponent  -->
<g id="edge18" class="edge">
<title>CoreModule&#45;&gt;FormErrorsComponent </title>
<path fill="none" stroke="#000000" stroke-dasharray="5,2" d="M1667.658,-169C1561.11,-169 1295,-169 1295,-169 1295,-169 1295,-132.1061 1295,-132.1061"/>
<polygon fill="#000000" stroke="#000000" points="1298.5001,-132.1061 1295,-122.1061 1291.5001,-132.1062 1298.5001,-132.1061"/>
</g>
<!-- SidePanelComponent  -->
<g id="node20" class="node">
<title>SidePanelComponent </title>
<polygon fill="#fb8072" stroke="#000000" points="1202.3227,-122 1061.6773,-122 1061.6773,-86 1202.3227,-86 1202.3227,-122"/>
<text text-anchor="middle" x="1132" y="-99.8" font-family="Times,serif" font-size="14.00" fill="#000000">SidePanelComponent </text>
</g>
<!-- CoreModule&#45;&gt;SidePanelComponent  -->
<g id="edge19" class="edge">
<title>CoreModule&#45;&gt;SidePanelComponent </title>
<path fill="none" stroke="#000000" stroke-dasharray="5,2" d="M1667.4809,-172C1532.8278,-172 1132,-172 1132,-172 1132,-172 1132,-132.2228 1132,-132.2228"/>
<polygon fill="#000000" stroke="#000000" points="1135.5001,-132.2227 1132,-122.2228 1128.5001,-132.2228 1135.5001,-132.2227"/>
</g>
<!-- NotificationsComponent  -->
<g id="node21" class="node">
<title>NotificationsComponent </title>
<polygon fill="#fb8072" stroke="#000000" points="1043.9264,-122 886.0736,-122 886.0736,-86 1043.9264,-86 1043.9264,-122"/>
<text text-anchor="middle" x="965" y="-99.8" font-family="Times,serif" font-size="14.00" fill="#000000">NotificationsComponent </text>
</g>
<!-- CoreModule&#45;&gt;NotificationsComponent  -->
<g id="edge20" class="edge">
<title>CoreModule&#45;&gt;NotificationsComponent </title>
<path fill="none" stroke="#000000" stroke-dasharray="5,2" d="M1667.6674,-176C1508.4527,-176 965,-176 965,-176 965,-176 965,-132.1686 965,-132.1686"/>
<polygon fill="#000000" stroke="#000000" points="968.5001,-132.1686 965,-122.1686 961.5001,-132.1687 968.5001,-132.1686"/>
</g>
<!-- BoxComponent  -->
<g id="node22" class="node">
<title>BoxComponent </title>
<polygon fill="#fb8072" stroke="#000000" points="868.1691,-122 759.8309,-122 759.8309,-86 868.1691,-86 868.1691,-122"/>
<text text-anchor="middle" x="814" y="-99.8" font-family="Times,serif" font-size="14.00" fill="#000000">BoxComponent </text>
</g>
<!-- CoreModule&#45;&gt;BoxComponent  -->
<g id="edge21" class="edge">
<title>CoreModule&#45;&gt;BoxComponent </title>
<path fill="none" stroke="#000000" stroke-dasharray="5,2" d="M1667.7358,-179C1488.5567,-179 814,-179 814,-179 814,-179 814,-132.1554 814,-132.1554"/>
<polygon fill="#000000" stroke="#000000" points="817.5001,-132.1554 814,-122.1554 810.5001,-132.1554 817.5001,-132.1554"/>
</g>
<!-- DebounceInputDirective  -->
<g id="node23" class="node">
<title>DebounceInputDirective </title>
<polygon fill="#fb8072" stroke="#000000" points="741.8844,-122 584.1156,-122 584.1156,-86 741.8844,-86 741.8844,-122"/>
<text text-anchor="middle" x="663" y="-99.8" font-family="Times,serif" font-size="14.00" fill="#000000">DebounceInputDirective </text>
</g>
<!-- CoreModule&#45;&gt;DebounceInputDirective  -->
<g id="edge22" class="edge">
<title>CoreModule&#45;&gt;DebounceInputDirective </title>
<path fill="none" stroke="#000000" stroke-dasharray="5,2" d="M1667.6337,-182C1469.8588,-182 663,-182 663,-182 663,-182 663,-132.0908 663,-132.0908"/>
<polygon fill="#000000" stroke="#000000" points="666.5001,-132.0908 663,-122.0908 659.5001,-132.0909 666.5001,-132.0908"/>
</g>
<!-- SpinningIconDirective  -->
<g id="node24" class="node">
<title>SpinningIconDirective </title>
<polygon fill="#fb8072" stroke="#000000" points="566.5218,-122 419.4782,-122 419.4782,-86 566.5218,-86 566.5218,-122"/>
<text text-anchor="middle" x="493" y="-99.8" font-family="Times,serif" font-size="14.00" fill="#000000">SpinningIconDirective </text>
</g>
<!-- CoreModule&#45;&gt;SpinningIconDirective  -->
<g id="edge23" class="edge">
<title>CoreModule&#45;&gt;SpinningIconDirective </title>
<path fill="none" stroke="#000000" stroke-dasharray="5,2" d="M1667.6507,-185C1450.677,-185 493,-185 493,-185 493,-185 493,-132.3802 493,-132.3802"/>
<polygon fill="#000000" stroke="#000000" points="496.5001,-132.3801 493,-122.3802 489.5001,-132.3802 496.5001,-132.3801"/>
</g>
<!-- ValidatorsDirective  -->
<g id="node25" class="node">
<title>ValidatorsDirective </title>
<polygon fill="#fb8072" stroke="#000000" points="401.8956,-122 272.1044,-122 272.1044,-86 401.8956,-86 401.8956,-122"/>
<text text-anchor="middle" x="337" y="-99.8" font-family="Times,serif" font-size="14.00" fill="#000000">ValidatorsDirective </text>
</g>
<!-- CoreModule&#45;&gt;ValidatorsDirective  -->
<g id="edge24" class="edge">
<title>CoreModule&#45;&gt;ValidatorsDirective </title>
<path fill="none" stroke="#000000" stroke-dasharray="5,2" d="M1667.6096,-189C1434.0565,-189 337,-189 337,-189 337,-189 337,-132.0263 337,-132.0263"/>
<polygon fill="#000000" stroke="#000000" points="340.5001,-132.0263 337,-122.0263 333.5001,-132.0263 340.5001,-132.0263"/>
</g>
<!-- ShowPasswordDirective  -->
<g id="node26" class="node">
<title>ShowPasswordDirective </title>
<polygon fill="#fb8072" stroke="#000000" points="253.6257,-122 96.3743,-122 96.3743,-86 253.6257,-86 253.6257,-122"/>
<text text-anchor="middle" x="175" y="-99.8" font-family="Times,serif" font-size="14.00" fill="#000000">ShowPasswordDirective </text>
</g>
<!-- CoreModule&#45;&gt;ShowPasswordDirective  -->
<g id="edge25" class="edge">
<title>CoreModule&#45;&gt;ShowPasswordDirective </title>
<path fill="none" stroke="#000000" stroke-dasharray="5,2" d="M1667.5047,-192C1417.5405,-192 175,-192 175,-192 175,-192 175,-132.2337 175,-132.2337"/>
<polygon fill="#000000" stroke="#000000" points="178.5001,-132.2336 175,-122.2337 171.5001,-132.2337 178.5001,-132.2336"/>
</g>
<!-- ToId  -->
<g id="node27" class="node">
<title>ToId </title>
<polygon fill="#fb8072" stroke="#000000" points="78,-122 24,-122 24,-86 78,-86 78,-122"/>
<text text-anchor="middle" x="51" y="-99.8" font-family="Times,serif" font-size="14.00" fill="#000000">ToId </text>
</g>
<!-- CoreModule&#45;&gt;ToId  -->
<g id="edge26" class="edge">
<title>CoreModule&#45;&gt;ToId </title>
<path fill="none" stroke="#000000" stroke-dasharray="5,2" d="M1667.4523,-195C1405.5394,-195 51,-195 51,-195 51,-195 51,-132.4152 51,-132.4152"/>
<polygon fill="#000000" stroke="#000000" points="54.5001,-132.4152 51,-122.4152 47.5001,-132.4152 54.5001,-132.4152"/>
</g>
<!-- SidebarComponent -->
<g id="node5" class="node">
<title>SidebarComponent</title>
<polygon fill="#ffffb3" stroke="#000000" points="3444.0954,-122 3319.9046,-122 3319.9046,-86 3444.0954,-86 3444.0954,-122"/>
<text text-anchor="middle" x="3382" y="-99.8" font-family="Times,serif" font-size="14.00" fill="#000000">SidebarComponent</text>
</g>
<!-- SidebarComponent&#45;&gt;CoreModule -->
<g id="edge4" class="edge">
<title>SidebarComponent&#45;&gt;CoreModule</title>
<path fill="none" stroke="#000000" d="M3382,-122.0449C3382,-129.749 3382,-137 3382,-137 3382,-137 1729,-137 1729,-137 1729,-137 1729,-151.5146 1729,-151.5146"/>
<polygon fill="#000000" stroke="#000000" points="1725.5001,-151.5145 1729,-161.5146 1732.5001,-151.5146 1725.5001,-151.5145"/>
</g>
<!-- NavbarComponent -->
<g id="node6" class="node">
<title>NavbarComponent</title>
<polygon fill="#ffffb3" stroke="#000000" points="3302.0297,-122 3179.9703,-122 3179.9703,-86 3302.0297,-86 3302.0297,-122"/>
<text text-anchor="middle" x="3241" y="-99.8" font-family="Times,serif" font-size="14.00" fill="#000000">NavbarComponent</text>
</g>
<!-- NavbarComponent&#45;&gt;CoreModule -->
<g id="edge5" class="edge">
<title>NavbarComponent&#45;&gt;CoreModule</title>
<path fill="none" stroke="#000000" d="M3241,-122.2015C3241,-128.028 3241,-133 3241,-133 3241,-133 1720,-133 1720,-133 1720,-133 1720,-151.963 1720,-151.963"/>
<polygon fill="#000000" stroke="#000000" points="1716.5001,-151.963 1720,-161.963 1723.5001,-151.963 1716.5001,-151.963"/>
</g>
<!-- FormErrorsComponent -->
<g id="node7" class="node">
<title>FormErrorsComponent</title>
<polygon fill="#ffffb3" stroke="#000000" points="3161.1456,-122 3014.8544,-122 3014.8544,-86 3161.1456,-86 3161.1456,-122"/>
<text text-anchor="middle" x="3088" y="-99.8" font-family="Times,serif" font-size="14.00" fill="#000000">FormErrorsComponent</text>
</g>
<!-- FormErrorsComponent&#45;&gt;CoreModule -->
<g id="edge6" class="edge">
<title>FormErrorsComponent&#45;&gt;CoreModule</title>
<path fill="none" stroke="#000000" d="M3088,-122.0579C3088,-126.4945 3088,-130 3088,-130 3088,-130 1711,-130 1711,-130 1711,-130 1711,-151.9489 1711,-151.9489"/>
<polygon fill="#000000" stroke="#000000" points="1707.5001,-151.9488 1711,-161.9489 1714.5001,-151.9489 1707.5001,-151.9488"/>
</g>
<!-- BoxComponent -->
<g id="node8" class="node">
<title>BoxComponent</title>
<polygon fill="#ffffb3" stroke="#000000" points="2996.1695,-122 2891.8305,-122 2891.8305,-86 2996.1695,-86 2996.1695,-122"/>
<text text-anchor="middle" x="2944" y="-99.8" font-family="Times,serif" font-size="14.00" fill="#000000">BoxComponent</text>
</g>
<!-- BoxComponent&#45;&gt;CoreModule -->
<g id="edge7" class="edge">
<title>BoxComponent&#45;&gt;CoreModule</title>
<path fill="none" stroke="#000000" d="M2944,-122.1679C2944,-124.4478 2944,-126 2944,-126 2944,-126 1702,-126 1702,-126 1702,-126 1702,-151.7181 1702,-151.7181"/>
<polygon fill="#000000" stroke="#000000" points="1698.5001,-151.718 1702,-161.7181 1705.5001,-151.7181 1698.5001,-151.718"/>
</g>
<!-- SidePanelComponent -->
<g id="node9" class="node">
<title>SidePanelComponent</title>
<polygon fill="#ffffb3" stroke="#000000" points="2873.823,-122 2736.177,-122 2736.177,-86 2873.823,-86 2873.823,-122"/>
<text text-anchor="middle" x="2805" y="-99.8" font-family="Times,serif" font-size="14.00" fill="#000000">SidePanelComponent</text>
</g>
<!-- SidePanelComponent&#45;&gt;CoreModule -->
<g id="edge8" class="edge">
<title>SidePanelComponent&#45;&gt;CoreModule</title>
<path fill="none" stroke="#000000" d="M2805,-122.0091C2805,-138.0494 2805,-159 2805,-159 2805,-159 1752.3332,-159 1752.3332,-159 1752.3332,-159 1752.3332,-159.292 1752.3332,-159.292"/>
<polygon fill="#000000" stroke="#000000" points="1748.8336,-151.9198 1752.3332,-161.92 1755.8336,-151.9201 1748.8336,-151.9198"/>
</g>
<!-- NotificationsComponent -->
<g id="node10" class="node">
<title>NotificationsComponent</title>
<polygon fill="#ffffb3" stroke="#000000" points="2718.427,-122 2563.573,-122 2563.573,-86 2718.427,-86 2718.427,-122"/>
<text text-anchor="middle" x="2641" y="-99.8" font-family="Times,serif" font-size="14.00" fill="#000000">NotificationsComponent</text>
</g>
<!-- NotificationsComponent&#45;&gt;CoreModule -->
<g id="edge9" class="edge">
<title>NotificationsComponent&#45;&gt;CoreModule</title>
<path fill="none" stroke="#000000" d="M2641,-122.1243C2641,-136.7832 2641,-155 2641,-155 2641,-155 1750.2856,-155 1750.2856,-155 1750.2856,-155 1750.2856,-155.6831 1750.2856,-155.6831"/>
<polygon fill="#000000" stroke="#000000" points="1746.7858,-151.8313 1750.2856,-161.8314 1753.7858,-151.8314 1746.7858,-151.8313"/>
</g>
<!-- DebounceInputDirective -->
<g id="node11" class="node">
<title>DebounceInputDirective</title>
<polygon fill="#ffffb3" stroke="#000000" points="2546.3849,-122 2391.6151,-122 2391.6151,-86 2546.3849,-86 2546.3849,-122"/>
<text text-anchor="middle" x="2469" y="-99.8" font-family="Times,serif" font-size="14.00" fill="#000000">DebounceInputDirective</text>
</g>
<!-- DebounceInputDirective&#45;&gt;CoreModule -->
<g id="edge10" class="edge">
<title>DebounceInputDirective&#45;&gt;CoreModule</title>
<path fill="none" stroke="#000000" d="M2469,-122.1467C2469,-135.7395 2469,-152 2469,-152 2469,-152 1748.238,-152 1748.238,-152 1748.238,-152 1748.238,-152.9793 1748.238,-152.9793"/>
<polygon fill="#000000" stroke="#000000" points="1744.7381,-151.793 1748.238,-161.793 1751.7381,-151.7931 1744.7381,-151.793"/>
</g>
<!-- ClickStopPropagation -->
<g id="node12" class="node">
<title>ClickStopPropagation</title>
<polygon fill="#ffffb3" stroke="#000000" points="2373.6596,-122 2234.3404,-122 2234.3404,-86 2373.6596,-86 2373.6596,-122"/>
<text text-anchor="middle" x="2304" y="-99.8" font-family="Times,serif" font-size="14.00" fill="#000000">ClickStopPropagation</text>
</g>
<!-- ClickStopPropagation&#45;&gt;CoreModule -->
<g id="edge11" class="edge">
<title>ClickStopPropagation&#45;&gt;CoreModule</title>
<path fill="none" stroke="#000000" d="M2304,-122.1505C2304,-134.2708 2304,-148 2304,-148 2304,-148 1746.1904,-148 1746.1904,-148 1746.1904,-148 1746.1904,-151.7566 1746.1904,-151.7566"/>
<polygon fill="#000000" stroke="#000000" points="1742.6905,-151.7566 1746.1904,-161.7566 1749.6905,-151.7566 1742.6905,-151.7566"/>
</g>
<!-- SpinningIconDirective -->
<g id="node13" class="node">
<title>SpinningIconDirective</title>
<polygon fill="#ffffb3" stroke="#000000" points="2215.5226,-122 2072.4774,-122 2072.4774,-86 2215.5226,-86 2215.5226,-122"/>
<text text-anchor="middle" x="2144" y="-99.8" font-family="Times,serif" font-size="14.00" fill="#000000">SpinningIconDirective</text>
</g>
<!-- SpinningIconDirective&#45;&gt;CoreModule -->
<g id="edge12" class="edge">
<title>SpinningIconDirective&#45;&gt;CoreModule</title>
<path fill="none" stroke="#000000" d="M2144,-122.1274C2144,-132.7109 2144,-144 2144,-144 2144,-144 1744.1428,-144 1744.1428,-144 1744.1428,-144 1744.1428,-151.5782 1744.1428,-151.5782"/>
<polygon fill="#000000" stroke="#000000" points="1740.6429,-151.5781 1744.1428,-161.5782 1747.6429,-151.5782 1740.6429,-151.5781"/>
</g>
<!-- ValidatorsDirective -->
<g id="node14" class="node">
<title>ValidatorsDirective</title>
<polygon fill="#ffffb3" stroke="#000000" points="2054.3962,-122 1927.6038,-122 1927.6038,-86 2054.3962,-86 2054.3962,-122"/>
<text text-anchor="middle" x="1991" y="-99.8" font-family="Times,serif" font-size="14.00" fill="#000000">ValidatorsDirective</text>
</g>
<!-- ValidatorsDirective&#45;&gt;CoreModule -->
<g id="edge13" class="edge">
<title>ValidatorsDirective&#45;&gt;CoreModule</title>
<path fill="none" stroke="#000000" d="M1991,-122.0664C1991,-131.4587 1991,-141 1991,-141 1991,-141 1742.0952,-141 1742.0952,-141 1742.0952,-141 1742.0952,-151.8701 1742.0952,-151.8701"/>
<polygon fill="#000000" stroke="#000000" points="1738.5953,-151.8701 1742.0952,-161.8701 1745.5953,-151.8701 1738.5953,-151.8701"/>
</g>
<!-- ShowPasswordDirective -->
<g id="node15" class="node">
<title>ShowPasswordDirective</title>
<polygon fill="#ffffb3" stroke="#000000" points="1909.6261,-122 1756.3739,-122 1756.3739,-86 1909.6261,-86 1909.6261,-122"/>
<text text-anchor="middle" x="1833" y="-99.8" font-family="Times,serif" font-size="14.00" fill="#000000">ShowPasswordDirective</text>
</g>
<!-- ShowPasswordDirective&#45;&gt;CoreModule -->
<g id="edge14" class="edge">
<title>ShowPasswordDirective&#45;&gt;CoreModule</title>
<path fill="none" stroke="#000000" d="M1756.2387,-104C1746.606,-104 1740.0476,-104 1740.0476,-104 1740.0476,-104 1740.0476,-151.9891 1740.0476,-151.9891"/>
<polygon fill="#000000" stroke="#000000" points="1736.5477,-151.989 1740.0476,-161.9891 1743.5477,-151.9891 1736.5477,-151.989"/>
</g>
<!-- ToId -->
<g id="node16" class="node">
<title>ToId</title>
<polygon fill="#ffffb3" stroke="#000000" points="1738,-122 1684,-122 1684,-86 1738,-86 1738,-122"/>
<text text-anchor="middle" x="1711" y="-99.8" font-family="Times,serif" font-size="14.00" fill="#000000">ToId</text>
</g>
<!-- ToId&#45;&gt;CoreModule -->
<g id="edge15" class="edge">
<title>ToId&#45;&gt;CoreModule</title>
<path fill="none" stroke="#000000" d="M1693,-122.0109C1693,-122.0109 1693,-151.855 1693,-151.855"/>
<polygon fill="#000000" stroke="#000000" points="1689.5001,-151.8549 1693,-161.855 1696.5001,-151.855 1689.5001,-151.8549"/>
</g>
</g>
</svg>
