<?xml version="1.0" encoding="UTF-8" standalone="no"?>
<!DOCTYPE svg PUBLIC "-//W3C//DTD SVG 1.1//EN"
 "http://www.w3.org/Graphics/SVG/1.1/DTD/svg11.dtd">
<!-- Generated by graphviz version 2.40.1 (20161225.0304)
 -->
<!-- Title: dependencies Pages: 1 -->
<svg width="4836pt" height="358pt"
 viewBox="0.00 0.00 4836.00 358.00" xmlns="http://www.w3.org/2000/svg" xmlns:xlink="http://www.w3.org/1999/xlink">
<g id="graph0" class="graph" transform="scale(1 1) rotate(0) translate(4 354)">
<title>dependencies</title>
<polygon fill="#ffffff" stroke="transparent" points="-4,4 -4,-354 4832,-354 4832,4 -4,4"/>
<text text-anchor="start" x="2393.0091" y="-42.4" font-family="sans-serif" font-weight="bold" font-size="14.00" fill="#000000">Legend</text>
<polygon fill="#ffffb3" stroke="transparent" points="2180,-10 2180,-30 2200,-30 2200,-10 2180,-10"/>
<text text-anchor="start" x="2203.629" y="-15.4" font-family="sans-serif" font-size="14.00" fill="#000000"> &#160;Declarations</text>
<polygon fill="#8dd3c7" stroke="transparent" points="2293,-10 2293,-30 2313,-30 2313,-10 2293,-10"/>
<text text-anchor="start" x="2316.7251" y="-15.4" font-family="sans-serif" font-size="14.00" fill="#000000"> &#160;Module</text>
<polygon fill="#80b1d3" stroke="transparent" points="2379,-10 2379,-30 2399,-30 2399,-10 2379,-10"/>
<text text-anchor="start" x="2402.7812" y="-15.4" font-family="sans-serif" font-size="14.00" fill="#000000"> &#160;Bootstrap</text>
<polygon fill="#fdb462" stroke="transparent" points="2476,-10 2476,-30 2496,-30 2496,-10 2476,-10"/>
<text text-anchor="start" x="2499.6732" y="-15.4" font-family="sans-serif" font-size="14.00" fill="#000000"> &#160;Providers</text>
<polygon fill="#fb8072" stroke="transparent" points="2572,-10 2572,-30 2592,-30 2592,-10 2572,-10"/>
<text text-anchor="start" x="2595.7258" y="-15.4" font-family="sans-serif" font-size="14.00" fill="#000000"> &#160;Exports</text>
<g id="clust1" class="cluster">
<title>cluster_AppModule</title>
<polygon fill="none" stroke="#000000" stroke-dasharray="1,5" points="8,-138 8,-342 763,-342 763,-138 8,-138"/>
</g>
<g id="clust2" class="cluster">
<title>cluster_AppModule_declarations</title>
<polygon fill="none" stroke="#000000" points="16,-146 16,-198 138,-198 138,-146 16,-146"/>
</g>
<g id="clust4" class="cluster">
<title>cluster_AppModule_imports</title>
<polygon fill="none" stroke="#000000" points="146,-146 146,-198 755,-198 755,-146 146,-146"/>
</g>
<g id="clust6" class="cluster">
<title>cluster_AppModule_bootstrap</title>
<polygon fill="none" stroke="#000000" points="298,-282 298,-334 422,-334 422,-282 298,-282"/>
</g>
<g id="clust8" class="cluster">
<title>cluster_DefiContainersModule</title>
<polygon fill="none" stroke="#000000" stroke-dasharray="1,5" points="2762,-206 2762,-274 3445,-274 3445,-206 2762,-206"/>
</g>
<g id="clust9" class="cluster">
<title>cluster_DefiContainersModule_declarations</title>
<polygon fill="none" stroke="#000000" points="3111,-214 3111,-266 3437,-266 3437,-214 3111,-214"/>
</g>
<g id="clust13" class="cluster">
<title>cluster_DefiContainersModule_exports</title>
<polygon fill="none" stroke="#000000" points="2770,-214 2770,-266 3103,-266 3103,-214 2770,-214"/>
</g>
<g id="clust16" class="cluster">
<title>cluster_DefiCoreModule</title>
<polygon fill="none" stroke="#000000" stroke-dasharray="1,5" points="771,-206 771,-274 2055,-274 2055,-206 771,-206"/>
</g>
<g id="clust17" class="cluster">
<title>cluster_DefiCoreModule_declarations</title>
<polygon fill="none" stroke="#000000" points="1425,-214 1425,-266 2047,-266 2047,-214 1425,-214"/>
</g>
<g id="clust23" class="cluster">
<title>cluster_DefiCoreModule_exports</title>
<polygon fill="none" stroke="#000000" points="779,-214 779,-266 1417,-266 1417,-214 779,-214"/>
</g>
<g id="clust26" class="cluster">
<title>cluster_DefiFormsModule</title>
<polygon fill="none" stroke="#000000" stroke-dasharray="1,5" points="4039,-70 4039,-274 4820,-274 4820,-70 4039,-70"/>
</g>
<g id="clust27" class="cluster">
<title>cluster_DefiFormsModule_declarations</title>
<polygon fill="none" stroke="#000000" points="4050,-78 4050,-130 4800,-130 4800,-78 4050,-78"/>
</g>
<g id="clust33" class="cluster">
<title>cluster_DefiFormsModule_exports</title>
<polygon fill="none" stroke="#000000" points="4047,-214 4047,-266 4812,-266 4812,-214 4047,-214"/>
</g>
<g id="clust36" class="cluster">
<title>cluster_DefiNavigationsModule</title>
<polygon fill="none" stroke="#000000" stroke-dasharray="1,5" points="2063,-206 2063,-274 2754,-274 2754,-206 2063,-206"/>
</g>
<g id="clust37" class="cluster">
<title>cluster_DefiNavigationsModule_declarations</title>
<polygon fill="none" stroke="#000000" points="2416,-214 2416,-266 2746,-266 2746,-214 2416,-214"/>
</g>
<g id="clust41" class="cluster">
<title>cluster_DefiNavigationsModule_exports</title>
<polygon fill="none" stroke="#000000" points="2071,-214 2071,-266 2408,-266 2408,-214 2071,-214"/>
</g>
<g id="clust44" class="cluster">
<title>cluster_DefiOverlayModule</title>
<polygon fill="none" stroke="#000000" stroke-dasharray="1,5" points="3453,-206 3453,-274 3871,-274 3871,-206 3453,-206"/>
</g>
<g id="clust45" class="cluster">
<title>cluster_DefiOverlayModule_declarations</title>
<polygon fill="none" stroke="#000000" points="3667,-214 3667,-266 3863,-266 3863,-214 3667,-214"/>
</g>
<g id="clust48" class="cluster">
<title>cluster_DefiOverlayModule_exports</title>
<polygon fill="none" stroke="#000000" points="3461,-214 3461,-266 3659,-266 3659,-214 3461,-214"/>
</g>
<g id="clust51" class="cluster">
<title>cluster_DemoModule</title>
<polygon fill="none" stroke="#000000" stroke-dasharray="1,5" points="3879,-138 3879,-342 4031,-342 4031,-138 3879,-138"/>
</g>
<g id="clust52" class="cluster">
<title>cluster_DemoModule_declarations</title>
<polygon fill="none" stroke="#000000" points="3887,-146 3887,-198 4019,-198 4019,-146 3887,-146"/>
</g>
<g id="clust55" class="cluster">
<title>cluster_DemoModule_exports</title>
<polygon fill="none" stroke="#000000" points="3887,-282 3887,-334 4023,-334 4023,-282 3887,-282"/>
</g>
<!-- AppComponent -->
<g id="node1" class="node">
<title>AppComponent</title>
<polygon fill="#ffffb3" stroke="#000000" points="129.9399,-190 24.0601,-190 24.0601,-154 129.9399,-154 129.9399,-190"/>
<text text-anchor="middle" x="77" y="-167.8" font-family="Times,serif" font-size="14.00" fill="#000000">AppComponent</text>
</g>
<!-- AppModule -->
<g id="node2" class="node">
<title>AppModule</title>
<polygon fill="#8dd3c7" stroke="#000000" points="401.6571,-258 398.6571,-262 377.6571,-262 374.6571,-258 318.3429,-258 318.3429,-222 401.6571,-222 401.6571,-258"/>
<text text-anchor="middle" x="360" y="-235.8" font-family="Times,serif" font-size="14.00" fill="#000000">AppModule</text>
</g>
<!-- AppComponent&#45;&gt;AppModule -->
<g id="edge1" class="edge">
<title>AppComponent&#45;&gt;AppModule</title>
<path fill="none" stroke="#000000" d="M77,-190.2921C77,-212.2057 77,-246 77,-246 77,-246 308.2424,-246 308.2424,-246"/>
<polygon fill="#000000" stroke="#000000" points="308.2424,-249.5001 318.2424,-246 308.2423,-242.5001 308.2424,-249.5001"/>
</g>
<!-- AppComponent  -->
<g id="node7" class="node">
<title>AppComponent </title>
<polygon fill="#80b1d3" stroke="#000000" points="414.439,-326 305.561,-326 305.561,-290 414.439,-290 414.439,-326"/>
<text text-anchor="middle" x="360" y="-303.8" font-family="Times,serif" font-size="14.00" fill="#000000">AppComponent </text>
</g>
<!-- AppModule&#45;&gt;AppComponent  -->
<g id="edge6" class="edge">
<title>AppModule&#45;&gt;AppComponent </title>
<path fill="none" stroke="#000000" stroke-dasharray="1,5" d="M360,-258.2228C360,-258.2228 360,-279.7269 360,-279.7269"/>
<polygon fill="#000000" stroke="#000000" points="356.5001,-279.7269 360,-289.7269 363.5001,-279.727 356.5001,-279.7269"/>
</g>
<!-- DefiCoreModule -->
<g id="node3" class="node">
<title>DefiCoreModule</title>
<polygon fill="#8dd3c7" stroke="#000000" points="265.6346,-190 262.6346,-194 241.6346,-194 238.6346,-190 154.3654,-190 154.3654,-154 265.6346,-154 265.6346,-190"/>
<text text-anchor="middle" x="210" y="-167.8" font-family="Times,serif" font-size="14.00" fill="#000000">DefiCoreModule</text>
</g>
<!-- DefiCoreModule&#45;&gt;AppModule -->
<g id="edge2" class="edge">
<title>DefiCoreModule&#45;&gt;AppModule</title>
<path fill="none" stroke="#000000" d="M255.6685,-190.2667C255.6685,-208.5552 255.6685,-234 255.6685,-234 255.6685,-234 308.1655,-234 308.1655,-234"/>
<polygon fill="#000000" stroke="#000000" points="308.1656,-237.5001 318.1655,-234 308.1655,-230.5001 308.1656,-237.5001"/>
</g>
<!-- DefiSpinningIconDirective  -->
<g id="node16" class="node">
<title>DefiSpinningIconDirective </title>
<polygon fill="#fb8072" stroke="#000000" points="1408.8942,-258 1237.1058,-258 1237.1058,-222 1408.8942,-222 1408.8942,-258"/>
<text text-anchor="middle" x="1323" y="-235.8" font-family="Times,serif" font-size="14.00" fill="#000000">DefiSpinningIconDirective </text>
</g>
<!-- DefiCoreModule&#45;&gt;DefiSpinningIconDirective  -->
<g id="edge15" class="edge">
<title>DefiCoreModule&#45;&gt;DefiSpinningIconDirective </title>
<path fill="none" stroke="#000000" stroke-dasharray="5,2" d="M235.3714,-190.4854C235.3714,-202.1399 235.3714,-215 235.3714,-215 235.3714,-215 1323,-215 1323,-215 1323,-215 1323,-215.6831 1323,-215.6831"/>
<polygon fill="#000000" stroke="#000000" points="1319.5002,-211.8313 1323,-221.8314 1326.5002,-211.8314 1319.5002,-211.8313"/>
</g>
<!-- DefiToId  -->
<g id="node17" class="node">
<title>DefiToId </title>
<polygon fill="#fb8072" stroke="#000000" points="1218.5868,-258 1147.4132,-258 1147.4132,-222 1218.5868,-222 1218.5868,-258"/>
<text text-anchor="middle" x="1183" y="-235.8" font-family="Times,serif" font-size="14.00" fill="#000000">DefiToId </text>
</g>
<!-- DefiCoreModule&#45;&gt;DefiToId  -->
<g id="edge16" class="edge">
<title>DefiCoreModule&#45;&gt;DefiToId </title>
<path fill="none" stroke="#000000" stroke-dasharray="5,2" d="M225.2228,-190.0439C225.2228,-202.5633 225.2228,-217 225.2228,-217 225.2228,-217 1183,-217 1183,-217 1183,-217 1183,-217.4878 1183,-217.4878"/>
<polygon fill="#000000" stroke="#000000" points="1179.5002,-211.8776 1183,-221.8777 1186.5002,-211.8778 1179.5002,-211.8776"/>
</g>
<!-- DefiPopoverComponent  -->
<g id="node18" class="node">
<title>DefiPopoverComponent </title>
<polygon fill="#fb8072" stroke="#000000" points="1129.363,-258 972.637,-258 972.637,-222 1129.363,-222 1129.363,-258"/>
<text text-anchor="middle" x="1051" y="-235.8" font-family="Times,serif" font-size="14.00" fill="#000000">DefiPopoverComponent </text>
</g>
<!-- DefiCoreModule&#45;&gt;DefiPopoverComponent  -->
<g id="edge17" class="edge">
<title>DefiCoreModule&#45;&gt;DefiPopoverComponent </title>
<path fill="none" stroke="#000000" stroke-dasharray="5,2" d="M215.0743,-190.037C215.0743,-203.2913 215.0743,-219 215.0743,-219 215.0743,-219 1051,-219 1051,-219 1051,-219 1051,-219.292 1051,-219.292"/>
<polygon fill="#000000" stroke="#000000" points="1047.5004,-211.9198 1051,-221.92 1054.5004,-211.9201 1047.5004,-211.9198"/>
</g>
<!-- DefiClickStopPropagation  -->
<g id="node19" class="node">
<title>DefiClickStopPropagation </title>
<polygon fill="#fb8072" stroke="#000000" points="955.0316,-258 786.9684,-258 786.9684,-222 955.0316,-222 955.0316,-258"/>
<text text-anchor="middle" x="871" y="-235.8" font-family="Times,serif" font-size="14.00" fill="#000000">DefiClickStopPropagation </text>
</g>
<!-- DefiCoreModule&#45;&gt;DefiClickStopPropagation  -->
<g id="edge18" class="edge">
<title>DefiCoreModule&#45;&gt;DefiClickStopPropagation </title>
<path fill="none" stroke="#000000" stroke-dasharray="5,2" d="M204.9257,-190.2458C204.9257,-204.1772 204.9257,-221 204.9257,-221 204.9257,-221 871,-221 871,-221 871,-221 871,-221.0816 871,-221.0816"/>
<polygon fill="#000000" stroke="#000000" points="867.5014,-211.8159 871,-221.8164 874.5014,-211.8169 867.5014,-211.8159"/>
</g>
<!-- DemoModule -->
<g id="node36" class="node">
<title>DemoModule</title>
<polygon fill="#8dd3c7" stroke="#000000" points="3980.7619,-258 3977.7619,-262 3956.7619,-262 3953.7619,-258 3887.2381,-258 3887.2381,-222 3980.7619,-222 3980.7619,-258"/>
<text text-anchor="middle" x="3934" y="-235.8" font-family="Times,serif" font-size="14.00" fill="#000000">DemoModule</text>
</g>
<!-- DefiCoreModule&#45;&gt;DemoModule -->
<g id="edge38" class="edge">
<title>DefiCoreModule&#45;&gt;DemoModule</title>
<path fill="none" stroke="#000000" d="M245.5199,-190.1543C245.5199,-191.2969 245.5199,-192 245.5199,-192 245.5199,-192 3923.7789,-192 3923.7789,-192 3923.7789,-192 3923.7789,-211.8533 3923.7789,-211.8533"/>
<polygon fill="#000000" stroke="#000000" points="3920.279,-211.8532 3923.7789,-221.8533 3927.279,-211.8533 3920.279,-211.8532"/>
</g>
<!-- DefiNavigationsModule -->
<g id="node4" class="node">
<title>DefiNavigationsModule</title>
<polygon fill="#8dd3c7" stroke="#000000" points="436.0744,-190 433.0744,-194 412.0744,-194 409.0744,-190 283.9256,-190 283.9256,-154 436.0744,-154 436.0744,-190"/>
<text text-anchor="middle" x="360" y="-167.8" font-family="Times,serif" font-size="14.00" fill="#000000">DefiNavigationsModule</text>
</g>
<!-- DefiNavigationsModule&#45;&gt;AppModule -->
<g id="edge3" class="edge">
<title>DefiNavigationsModule&#45;&gt;AppModule</title>
<path fill="none" stroke="#000000" d="M334.9031,-190.2228C334.9031,-190.2228 334.9031,-211.7269 334.9031,-211.7269"/>
<polygon fill="#000000" stroke="#000000" points="331.4032,-211.7269 334.9031,-221.7269 338.4032,-211.727 331.4032,-211.7269"/>
</g>
<!-- DefiNavbarComponent  -->
<g id="node31" class="node">
<title>DefiNavbarComponent </title>
<polygon fill="#fb8072" stroke="#000000" points="2400.4012,-258 2249.5988,-258 2249.5988,-222 2400.4012,-222 2400.4012,-258"/>
<text text-anchor="middle" x="2325" y="-235.8" font-family="Times,serif" font-size="14.00" fill="#000000">DefiNavbarComponent </text>
</g>
<!-- DefiNavigationsModule&#45;&gt;DefiNavbarComponent  -->
<g id="edge29" class="edge">
<title>DefiNavigationsModule&#45;&gt;DefiNavbarComponent </title>
<path fill="none" stroke="#000000" stroke-dasharray="5,2" d="M428.848,-190.2434C428.848,-197.4297 428.848,-204 428.848,-204 428.848,-204 2325,-204 2325,-204 2325,-204 2325,-211.5782 2325,-211.5782"/>
<polygon fill="#000000" stroke="#000000" points="2321.5001,-211.5781 2325,-221.5782 2328.5001,-211.5782 2321.5001,-211.5781"/>
</g>
<!-- DefiSidebarComponent  -->
<g id="node32" class="node">
<title>DefiSidebarComponent </title>
<polygon fill="#fb8072" stroke="#000000" points="2231.4685,-258 2078.5315,-258 2078.5315,-222 2231.4685,-222 2231.4685,-258"/>
<text text-anchor="middle" x="2155" y="-235.8" font-family="Times,serif" font-size="14.00" fill="#000000">DefiSidebarComponent </text>
</g>
<!-- DefiNavigationsModule&#45;&gt;DefiSidebarComponent  -->
<g id="edge30" class="edge">
<title>DefiNavigationsModule&#45;&gt;DefiSidebarComponent </title>
<path fill="none" stroke="#000000" stroke-dasharray="5,2" d="M421.6587,-190.1944C421.6587,-198.2782 421.6587,-206 421.6587,-206 421.6587,-206 2155,-206 2155,-206 2155,-206 2155,-211.8056 2155,-211.8056"/>
<polygon fill="#000000" stroke="#000000" points="2151.5001,-211.8055 2155,-221.8056 2158.5001,-211.8056 2151.5001,-211.8055"/>
</g>
<!-- DefiNavigationsModule&#45;&gt;DemoModule -->
<g id="edge35" class="edge">
<title>DefiNavigationsModule&#45;&gt;DemoModule</title>
<path fill="none" stroke="#000000" d="M351.6344,-190.1679C351.6344,-192.4478 351.6344,-194 351.6344,-194 351.6344,-194 3889.1464,-194 3889.1464,-194 3889.1464,-194 3889.1464,-211.8196 3889.1464,-211.8196"/>
<polygon fill="#000000" stroke="#000000" points="3885.6465,-211.8195 3889.1464,-221.8196 3892.6465,-211.8196 3885.6465,-211.8195"/>
</g>
<!-- DefiContainersModule -->
<g id="node5" class="node">
<title>DefiContainersModule</title>
<polygon fill="#8dd3c7" stroke="#000000" points="599.5744,-190 596.5744,-194 575.5744,-194 572.5744,-190 454.4256,-190 454.4256,-154 599.5744,-154 599.5744,-190"/>
<text text-anchor="middle" x="527" y="-167.8" font-family="Times,serif" font-size="14.00" fill="#000000">DefiContainersModule</text>
</g>
<!-- DefiContainersModule&#45;&gt;AppModule -->
<g id="edge4" class="edge">
<title>DefiContainersModule&#45;&gt;AppModule</title>
<path fill="none" stroke="#000000" d="M478.6419,-190.2667C478.6419,-208.5552 478.6419,-234 478.6419,-234 478.6419,-234 411.8287,-234 411.8287,-234"/>
<polygon fill="#000000" stroke="#000000" points="411.8287,-230.5001 401.8287,-234 411.8286,-237.5001 411.8287,-230.5001"/>
</g>
<!-- DefiSidePanelComponent  -->
<g id="node10" class="node">
<title>DefiSidePanelComponent </title>
<polygon fill="#fb8072" stroke="#000000" points="3094.6953,-258 2929.3047,-258 2929.3047,-222 3094.6953,-222 3094.6953,-258"/>
<text text-anchor="middle" x="3012" y="-235.8" font-family="Times,serif" font-size="14.00" fill="#000000">DefiSidePanelComponent </text>
</g>
<!-- DefiContainersModule&#45;&gt;DefiSidePanelComponent  -->
<g id="edge9" class="edge">
<title>DefiContainersModule&#45;&gt;DefiSidePanelComponent </title>
<path fill="none" stroke="#000000" stroke-dasharray="5,2" d="M575.3581,-190.1903C575.3581,-193.5376 575.3581,-196 575.3581,-196 575.3581,-196 3012,-196 3012,-196 3012,-196 3012,-211.8495 3012,-211.8495"/>
<polygon fill="#000000" stroke="#000000" points="3008.5001,-211.8494 3012,-221.8495 3015.5001,-211.8495 3008.5001,-211.8494"/>
</g>
<!-- DefiBoxComponent  -->
<g id="node11" class="node">
<title>DefiBoxComponent </title>
<polygon fill="#fb8072" stroke="#000000" points="2911.5414,-258 2778.4586,-258 2778.4586,-222 2911.5414,-222 2911.5414,-258"/>
<text text-anchor="middle" x="2845" y="-235.8" font-family="Times,serif" font-size="14.00" fill="#000000">DefiBoxComponent </text>
</g>
<!-- DefiContainersModule&#45;&gt;DefiBoxComponent  -->
<g id="edge10" class="edge">
<title>DefiContainersModule&#45;&gt;DefiBoxComponent </title>
<path fill="none" stroke="#000000" stroke-dasharray="5,2" d="M551.1791,-190.0579C551.1791,-194.4945 551.1791,-198 551.1791,-198 551.1791,-198 2845,-198 2845,-198 2845,-198 2845,-211.9445 2845,-211.9445"/>
<polygon fill="#000000" stroke="#000000" points="2841.5001,-211.9444 2845,-221.9445 2848.5001,-211.9445 2841.5001,-211.9444"/>
</g>
<!-- DefiContainersModule&#45;&gt;DemoModule -->
<g id="edge36" class="edge">
<title>DefiContainersModule&#45;&gt;DemoModule</title>
<path fill="none" stroke="#000000" d="M527,-153.8056C527,-145.7218 527,-138 527,-138 527,-138 3893.2007,-138 3893.2007,-138 3893.2007,-138 3893.2007,-211.7644 3893.2007,-211.7644"/>
<polygon fill="#000000" stroke="#000000" points="3889.7008,-211.7644 3893.2007,-221.7644 3896.7008,-211.7645 3889.7008,-211.7644"/>
</g>
<!-- DefiOverlayModule -->
<g id="node6" class="node">
<title>DefiOverlayModule</title>
<polygon fill="#8dd3c7" stroke="#000000" points="746.5101,-190 743.5101,-194 722.5101,-194 719.5101,-190 617.4899,-190 617.4899,-154 746.5101,-154 746.5101,-190"/>
<text text-anchor="middle" x="682" y="-167.8" font-family="Times,serif" font-size="14.00" fill="#000000">DefiOverlayModule</text>
</g>
<!-- DefiOverlayModule&#45;&gt;AppModule -->
<g id="edge5" class="edge">
<title>DefiOverlayModule&#45;&gt;AppModule</title>
<path fill="none" stroke="#000000" d="M682,-190.2921C682,-212.2057 682,-246 682,-246 682,-246 411.7658,-246 411.7658,-246"/>
<polygon fill="#000000" stroke="#000000" points="411.7658,-242.5001 401.7658,-246 411.7657,-249.5001 411.7658,-242.5001"/>
</g>
<!-- DefiNotificationsComponent  -->
<g id="node34" class="node">
<title>DefiNotificationsComponent </title>
<polygon fill="#fb8072" stroke="#000000" points="3651.2989,-258 3468.7011,-258 3468.7011,-222 3651.2989,-222 3651.2989,-258"/>
<text text-anchor="middle" x="3560" y="-235.8" font-family="Times,serif" font-size="14.00" fill="#000000">DefiNotificationsComponent </text>
</g>
<!-- DefiOverlayModule&#45;&gt;DefiNotificationsComponent  -->
<g id="edge32" class="edge">
<title>DefiOverlayModule&#45;&gt;DefiNotificationsComponent </title>
<path fill="none" stroke="#000000" stroke-dasharray="5,2" d="M746.8307,-181C1173.351,-181 3560,-181 3560,-181 3560,-181 3560,-211.9775 3560,-211.9775"/>
<polygon fill="#000000" stroke="#000000" points="3556.5001,-211.9774 3560,-221.9775 3563.5001,-211.9775 3556.5001,-211.9774"/>
</g>
<!-- DefiOverlayModule&#45;&gt;DemoModule -->
<g id="edge37" class="edge">
<title>DefiOverlayModule&#45;&gt;DemoModule</title>
<path fill="none" stroke="#000000" d="M746.8297,-163C1201.2754,-163 3891.1736,-163 3891.1736,-163 3891.1736,-163 3891.1736,-211.7521 3891.1736,-211.7521"/>
<polygon fill="#000000" stroke="#000000" points="3887.6736,-211.752 3891.1736,-221.7521 3894.6736,-211.7521 3887.6736,-211.752"/>
</g>
<!-- DefiSidePanelComponent -->
<g id="node8" class="node">
<title>DefiSidePanelComponent</title>
<polygon fill="#ffffb3" stroke="#000000" points="3429.1951,-258 3266.8049,-258 3266.8049,-222 3429.1951,-222 3429.1951,-258"/>
<text text-anchor="middle" x="3348" y="-235.8" font-family="Times,serif" font-size="14.00" fill="#000000">DefiSidePanelComponent</text>
</g>
<!-- DefiSidePanelComponent&#45;&gt;DefiContainersModule -->
<g id="edge7" class="edge">
<title>DefiSidePanelComponent&#45;&gt;DefiContainersModule</title>
<path fill="none" stroke="#000000" d="M3348,-258.1274C3348,-268.7109 3348,-280 3348,-280 3348,-280 502.8209,-280 502.8209,-280 502.8209,-280 502.8209,-200.3207 502.8209,-200.3207"/>
<polygon fill="#000000" stroke="#000000" points="506.321,-200.3207 502.8209,-190.3207 499.321,-200.3208 506.321,-200.3207"/>
</g>
<!-- DefiBoxComponent -->
<g id="node9" class="node">
<title>DefiBoxComponent</title>
<polygon fill="#ffffb3" stroke="#000000" points="3248.5422,-258 3119.4578,-258 3119.4578,-222 3248.5422,-222 3248.5422,-258"/>
<text text-anchor="middle" x="3184" y="-235.8" font-family="Times,serif" font-size="14.00" fill="#000000">DefiBoxComponent</text>
</g>
<!-- DefiBoxComponent&#45;&gt;DefiContainersModule -->
<g id="edge8" class="edge">
<title>DefiBoxComponent&#45;&gt;DefiContainersModule</title>
<path fill="none" stroke="#000000" d="M3184,-258.2015C3184,-264.028 3184,-269 3184,-269 3184,-269 527,-269 527,-269 527,-269 527,-200.245 527,-200.245"/>
<polygon fill="#000000" stroke="#000000" points="530.5001,-200.2449 527,-190.245 523.5001,-200.245 530.5001,-200.2449"/>
</g>
<!-- DefiClickStopPropagation -->
<g id="node12" class="node">
<title>DefiClickStopPropagation</title>
<polygon fill="#ffffb3" stroke="#000000" points="2039.0323,-258 1874.9677,-258 1874.9677,-222 2039.0323,-222 2039.0323,-258"/>
<text text-anchor="middle" x="1957" y="-235.8" font-family="Times,serif" font-size="14.00" fill="#000000">DefiClickStopPropagation</text>
</g>
<!-- DefiClickStopPropagation&#45;&gt;DefiCoreModule -->
<g id="edge11" class="edge">
<title>DefiClickStopPropagation&#45;&gt;DefiCoreModule</title>
<path fill="none" stroke="#000000" d="M1957,-221.9551C1957,-214.251 1957,-207 1957,-207 1957,-207 194.7772,-207 194.7772,-207 194.7772,-207 194.7772,-200.32 194.7772,-200.32"/>
<polygon fill="#000000" stroke="#000000" points="198.2773,-200.32 194.7772,-190.32 191.2773,-200.3201 198.2773,-200.32"/>
</g>
<!-- DefiSpinningIconDirective -->
<g id="node13" class="node">
<title>DefiSpinningIconDirective</title>
<polygon fill="#ffffb3" stroke="#000000" points="1857.3947,-258 1688.6053,-258 1688.6053,-222 1857.3947,-222 1857.3947,-258"/>
<text text-anchor="middle" x="1773" y="-235.8" font-family="Times,serif" font-size="14.00" fill="#000000">DefiSpinningIconDirective</text>
</g>
<!-- DefiSpinningIconDirective&#45;&gt;DefiCoreModule -->
<g id="edge12" class="edge">
<title>DefiSpinningIconDirective&#45;&gt;DefiCoreModule</title>
<path fill="none" stroke="#000000" d="M1773,-221.9672C1773,-215.1474 1773,-209 1773,-209 1773,-209 184.6286,-209 184.6286,-209 184.6286,-209 184.6286,-200.0664 184.6286,-200.0664"/>
<polygon fill="#000000" stroke="#000000" points="188.1287,-200.0664 184.6286,-190.0664 181.1287,-200.0665 188.1287,-200.0664"/>
</g>
<!-- DefiToId -->
<g id="node14" class="node">
<title>DefiToId</title>
<polygon fill="#ffffb3" stroke="#000000" points="1671.0857,-258 1602.9143,-258 1602.9143,-222 1671.0857,-222 1671.0857,-258"/>
<text text-anchor="middle" x="1637" y="-235.8" font-family="Times,serif" font-size="14.00" fill="#000000">DefiToId</text>
</g>
<!-- DefiToId&#45;&gt;DefiCoreModule -->
<g id="edge13" class="edge">
<title>DefiToId&#45;&gt;DefiCoreModule</title>
<path fill="none" stroke="#000000" d="M1637,-221.7985C1637,-215.972 1637,-211 1637,-211 1637,-211 174.4801,-211 174.4801,-211 174.4801,-211 174.4801,-200.1299 174.4801,-200.1299"/>
<polygon fill="#000000" stroke="#000000" points="177.9802,-200.1299 174.4801,-190.1299 170.9802,-200.1299 177.9802,-200.1299"/>
</g>
<!-- DefiPopoverComponent -->
<g id="node15" class="node">
<title>DefiPopoverComponent</title>
<polygon fill="#ffffb3" stroke="#000000" points="1585.3627,-258 1432.6373,-258 1432.6373,-222 1585.3627,-222 1585.3627,-258"/>
<text text-anchor="middle" x="1509" y="-235.8" font-family="Times,serif" font-size="14.00" fill="#000000">DefiPopoverComponent</text>
</g>
<!-- DefiPopoverComponent&#45;&gt;DefiCoreModule -->
<g id="edge14" class="edge">
<title>DefiPopoverComponent&#45;&gt;DefiCoreModule</title>
<path fill="none" stroke="#000000" d="M1509,-221.8408C1509,-216.9567 1509,-213 1509,-213 1509,-213 164.3315,-213 164.3315,-213 164.3315,-213 164.3315,-200.1025 164.3315,-200.1025"/>
<polygon fill="#000000" stroke="#000000" points="167.8316,-200.1025 164.3315,-190.1025 160.8316,-200.1026 167.8316,-200.1025"/>
</g>
<!-- DefiFormErrorsComponent -->
<g id="node20" class="node">
<title>DefiFormErrorsComponent</title>
<polygon fill="#ffffb3" stroke="#000000" points="4791.5183,-122 4620.4817,-122 4620.4817,-86 4791.5183,-86 4791.5183,-122"/>
<text text-anchor="middle" x="4706" y="-99.8" font-family="Times,serif" font-size="14.00" fill="#000000">DefiFormErrorsComponent</text>
</g>
<!-- DefiFormsModule -->
<g id="node24" class="node">
<title>DefiFormsModule</title>
<polygon fill="#8dd3c7" stroke="#000000" points="4392.2008,-190 4389.2008,-194 4368.2008,-194 4365.2008,-190 4271.7992,-190 4271.7992,-154 4392.2008,-154 4392.2008,-190"/>
<text text-anchor="middle" x="4332" y="-167.8" font-family="Times,serif" font-size="14.00" fill="#000000">DefiFormsModule</text>
</g>
<!-- DefiFormErrorsComponent&#45;&gt;DefiFormsModule -->
<g id="edge19" class="edge">
<title>DefiFormErrorsComponent&#45;&gt;DefiFormsModule</title>
<path fill="none" stroke="#000000" d="M4624.3662,-122.1061C4624.3662,-141.3391 4624.3662,-169 4624.3662,-169 4624.3662,-169 4402.224,-169 4402.224,-169"/>
<polygon fill="#000000" stroke="#000000" points="4402.224,-165.5001 4392.224,-169 4402.2239,-172.5001 4402.224,-165.5001"/>
</g>
<!-- DefiDebounceInputDirective -->
<g id="node21" class="node">
<title>DefiDebounceInputDirective</title>
<polygon fill="#ffffb3" stroke="#000000" points="4602.757,-122 4423.243,-122 4423.243,-86 4602.757,-86 4602.757,-122"/>
<text text-anchor="middle" x="4513" y="-99.8" font-family="Times,serif" font-size="14.00" fill="#000000">DefiDebounceInputDirective</text>
</g>
<!-- DefiDebounceInputDirective&#45;&gt;DefiFormsModule -->
<g id="edge20" class="edge">
<title>DefiDebounceInputDirective&#45;&gt;DefiFormsModule</title>
<path fill="none" stroke="#000000" d="M4544.2928,-122.0336C4544.2928,-139.0597 4544.2928,-162 4544.2928,-162 4544.2928,-162 4402.2667,-162 4402.2667,-162"/>
<polygon fill="#000000" stroke="#000000" points="4402.2668,-158.5001 4392.2667,-162 4402.2667,-165.5001 4402.2668,-158.5001"/>
</g>
<!-- DefiValidatorsDirective -->
<g id="node22" class="node">
<title>DefiValidatorsDirective</title>
<polygon fill="#ffffb3" stroke="#000000" points="4405.7682,-122 4254.2318,-122 4254.2318,-86 4405.7682,-86 4405.7682,-122"/>
<text text-anchor="middle" x="4330" y="-99.8" font-family="Times,serif" font-size="14.00" fill="#000000">DefiValidatorsDirective</text>
</g>
<!-- DefiValidatorsDirective&#45;&gt;DefiFormsModule -->
<g id="edge21" class="edge">
<title>DefiValidatorsDirective&#45;&gt;DefiFormsModule</title>
<path fill="none" stroke="#000000" d="M4332,-122.2228C4332,-122.2228 4332,-143.7269 4332,-143.7269"/>
<polygon fill="#000000" stroke="#000000" points="4328.5001,-143.7269 4332,-153.7269 4335.5001,-143.727 4328.5001,-143.7269"/>
</g>
<!-- DefiShowPasswordDirective -->
<g id="node23" class="node">
<title>DefiShowPasswordDirective</title>
<polygon fill="#ffffb3" stroke="#000000" points="4236.4987,-122 4057.5013,-122 4057.5013,-86 4236.4987,-86 4236.4987,-122"/>
<text text-anchor="middle" x="4147" y="-99.8" font-family="Times,serif" font-size="14.00" fill="#000000">DefiShowPasswordDirective</text>
</g>
<!-- DefiShowPasswordDirective&#45;&gt;DefiFormsModule -->
<g id="edge22" class="edge">
<title>DefiShowPasswordDirective&#45;&gt;DefiFormsModule</title>
<path fill="none" stroke="#000000" d="M4176.7497,-122.0225C4176.7497,-139.3734 4176.7497,-163 4176.7497,-163 4176.7497,-163 4261.5316,-163 4261.5316,-163"/>
<polygon fill="#000000" stroke="#000000" points="4261.5317,-166.5001 4271.5316,-163 4261.5316,-159.5001 4261.5317,-166.5001"/>
</g>
<!-- DefiFormErrorsComponent  -->
<g id="node25" class="node">
<title>DefiFormErrorsComponent </title>
<polygon fill="#fb8072" stroke="#000000" points="4803.5176,-258 4628.4824,-258 4628.4824,-222 4803.5176,-222 4803.5176,-258"/>
<text text-anchor="middle" x="4716" y="-235.8" font-family="Times,serif" font-size="14.00" fill="#000000">DefiFormErrorsComponent </text>
</g>
<!-- DefiFormsModule&#45;&gt;DefiFormErrorsComponent  -->
<g id="edge23" class="edge">
<title>DefiFormsModule&#45;&gt;DefiFormErrorsComponent </title>
<path fill="none" stroke="#000000" stroke-dasharray="5,2" d="M4392.3331,-176C4499.0881,-176 4710.125,-176 4710.125,-176 4710.125,-176 4710.125,-211.8314 4710.125,-211.8314"/>
<polygon fill="#000000" stroke="#000000" points="4706.6251,-211.8313 4710.125,-221.8314 4713.6251,-211.8314 4706.6251,-211.8313"/>
</g>
<!-- DefiDebounceInputDirective  -->
<g id="node26" class="node">
<title>DefiDebounceInputDirective </title>
<polygon fill="#fb8072" stroke="#000000" points="4610.257,-258 4427.743,-258 4427.743,-222 4610.257,-222 4610.257,-258"/>
<text text-anchor="middle" x="4519" y="-235.8" font-family="Times,serif" font-size="14.00" fill="#000000">DefiDebounceInputDirective </text>
</g>
<!-- DefiFormsModule&#45;&gt;DefiDebounceInputDirective  -->
<g id="edge24" class="edge">
<title>DefiFormsModule&#45;&gt;DefiDebounceInputDirective </title>
<path fill="none" stroke="#000000" stroke-dasharray="5,2" d="M4392.4061,-183C4435.5381,-183 4485.9572,-183 4485.9572,-183 4485.9572,-183 4485.9572,-211.9648 4485.9572,-211.9648"/>
<polygon fill="#000000" stroke="#000000" points="4482.4573,-211.9648 4485.9572,-221.9648 4489.4573,-211.9649 4482.4573,-211.9648"/>
</g>
<!-- DefiValidatorsDirective  -->
<g id="node27" class="node">
<title>DefiValidatorsDirective </title>
<polygon fill="#fb8072" stroke="#000000" points="4409.2682,-258 4254.7318,-258 4254.7318,-222 4409.2682,-222 4409.2682,-258"/>
<text text-anchor="middle" x="4332" y="-235.8" font-family="Times,serif" font-size="14.00" fill="#000000">DefiValidatorsDirective </text>
</g>
<!-- DefiFormsModule&#45;&gt;DefiValidatorsDirective  -->
<g id="edge25" class="edge">
<title>DefiFormsModule&#45;&gt;DefiValidatorsDirective </title>
<path fill="none" stroke="#000000" stroke-dasharray="5,2" d="M4332,-190.2228C4332,-190.2228 4332,-211.7269 4332,-211.7269"/>
<polygon fill="#000000" stroke="#000000" points="4328.5001,-211.7269 4332,-221.7269 4335.5001,-211.727 4328.5001,-211.7269"/>
</g>
<!-- DefiShowPasswordDirective  -->
<g id="node28" class="node">
<title>DefiShowPasswordDirective </title>
<polygon fill="#fb8072" stroke="#000000" points="4236.998,-258 4055.002,-258 4055.002,-222 4236.998,-222 4236.998,-258"/>
<text text-anchor="middle" x="4146" y="-235.8" font-family="Times,serif" font-size="14.00" fill="#000000">DefiShowPasswordDirective </text>
</g>
<!-- DefiFormsModule&#45;&gt;DefiShowPasswordDirective  -->
<g id="edge26" class="edge">
<title>DefiFormsModule&#45;&gt;DefiShowPasswordDirective </title>
<path fill="none" stroke="#000000" stroke-dasharray="5,2" d="M4271.8947,-181C4208.3642,-181 4117.2503,-181 4117.2503,-181 4117.2503,-181 4117.2503,-211.9775 4117.2503,-211.9775"/>
<polygon fill="#000000" stroke="#000000" points="4113.7504,-211.9774 4117.2503,-221.9775 4120.7504,-211.9775 4113.7504,-211.9774"/>
</g>
<!-- DefiFormsModule&#45;&gt;DemoModule -->
<g id="edge34" class="edge">
<title>DefiFormsModule&#45;&gt;DemoModule</title>
<path fill="none" stroke="#000000" d="M4271.8494,-172C4184.9954,-172 4034.7616,-172 4034.7616,-172 4034.7616,-172 4034.7616,-240 4034.7616,-240 4034.7616,-240 3990.841,-240 3990.841,-240"/>
<polygon fill="#000000" stroke="#000000" points="3990.841,-236.5001 3980.841,-240 3990.8409,-243.5001 3990.841,-236.5001"/>
</g>
<!-- DefiNavbarComponent -->
<g id="node29" class="node">
<title>DefiNavbarComponent</title>
<polygon fill="#ffffb3" stroke="#000000" points="2737.9017,-258 2590.0983,-258 2590.0983,-222 2737.9017,-222 2737.9017,-258"/>
<text text-anchor="middle" x="2664" y="-235.8" font-family="Times,serif" font-size="14.00" fill="#000000">DefiNavbarComponent</text>
</g>
<!-- DefiNavbarComponent&#45;&gt;DefiNavigationsModule -->
<g id="edge27" class="edge">
<title>DefiNavbarComponent&#45;&gt;DefiNavigationsModule</title>
<path fill="none" stroke="#000000" d="M2664,-221.8726C2664,-211.2891 2664,-200 2664,-200 2664,-200 385.0969,-200 385.0969,-200 385.0969,-200 385.0969,-199.0207 385.0969,-199.0207"/>
<polygon fill="#000000" stroke="#000000" points="388.597,-200.2069 385.0969,-190.207 381.597,-200.207 388.597,-200.2069"/>
</g>
<!-- DefiSidebarComponent -->
<g id="node30" class="node">
<title>DefiSidebarComponent</title>
<polygon fill="#ffffb3" stroke="#000000" points="2572.4678,-258 2423.5322,-258 2423.5322,-222 2572.4678,-222 2572.4678,-258"/>
<text text-anchor="middle" x="2498" y="-235.8" font-family="Times,serif" font-size="14.00" fill="#000000">DefiSidebarComponent</text>
</g>
<!-- DefiSidebarComponent&#45;&gt;DefiNavigationsModule -->
<g id="edge28" class="edge">
<title>DefiSidebarComponent&#45;&gt;DefiNavigationsModule</title>
<path fill="none" stroke="#000000" d="M2498,-221.8903C2498,-212.103 2498,-202 2498,-202 2498,-202 368.3656,-202 368.3656,-202 368.3656,-202 368.3656,-200.1432 368.3656,-200.1432"/>
<polygon fill="#000000" stroke="#000000" points="371.8657,-200.1432 368.3656,-190.1432 364.8657,-200.1432 371.8657,-200.1432"/>
</g>
<!-- DefiNotificationsComponent -->
<g id="node33" class="node">
<title>DefiNotificationsComponent</title>
<polygon fill="#ffffb3" stroke="#000000" points="3854.799,-258 3675.201,-258 3675.201,-222 3854.799,-222 3854.799,-258"/>
<text text-anchor="middle" x="3765" y="-235.8" font-family="Times,serif" font-size="14.00" fill="#000000">DefiNotificationsComponent</text>
</g>
<!-- DefiNotificationsComponent&#45;&gt;DefiOverlayModule -->
<g id="edge31" class="edge">
<title>DefiNotificationsComponent&#45;&gt;DefiOverlayModule</title>
<path fill="none" stroke="#000000" d="M3765,-221.7772C3765,-201.6348 3765,-172 3765,-172 3765,-172 756.748,-172 756.748,-172"/>
<polygon fill="#000000" stroke="#000000" points="756.7481,-168.5001 746.748,-172 756.748,-175.5001 756.7481,-168.5001"/>
</g>
<!-- DemoComponent -->
<g id="node35" class="node">
<title>DemoComponent</title>
<polygon fill="#ffffb3" stroke="#000000" points="4010.5451,-190 3895.4549,-190 3895.4549,-154 4010.5451,-154 4010.5451,-190"/>
<text text-anchor="middle" x="3953" y="-167.8" font-family="Times,serif" font-size="14.00" fill="#000000">DemoComponent</text>
</g>
<!-- DemoComponent&#45;&gt;DemoModule -->
<g id="edge33" class="edge">
<title>DemoComponent&#45;&gt;DemoModule</title>
<path fill="none" stroke="#000000" d="M3952.3298,-190.2228C3952.3298,-190.2228 3952.3298,-211.7269 3952.3298,-211.7269"/>
<polygon fill="#000000" stroke="#000000" points="3948.8299,-211.7269 3952.3298,-221.7269 3955.8299,-211.727 3948.8299,-211.7269"/>
</g>
<!-- DemoComponent  -->
<g id="node37" class="node">
<title>DemoComponent </title>
<polygon fill="#fb8072" stroke="#000000" points="4014.5442,-326 3895.4558,-326 3895.4558,-290 4014.5442,-290 4014.5442,-326"/>
<text text-anchor="middle" x="3955" y="-303.8" font-family="Times,serif" font-size="14.00" fill="#000000">DemoComponent </text>
</g>
<!-- DemoModule&#45;&gt;DemoComponent  -->
<g id="edge39" class="edge">
<title>DemoModule&#45;&gt;DemoComponent </title>
<path fill="none" stroke="#000000" stroke-dasharray="5,2" d="M3938.1794,-258.2228C3938.1794,-258.2228 3938.1794,-279.7269 3938.1794,-279.7269"/>
<polygon fill="#000000" stroke="#000000" points="3934.6794,-279.7269 3938.1794,-289.7269 3941.6794,-279.727 3934.6794,-279.7269"/>
</g>
</g>
</svg>
